<?xml version="1.0" encoding="UTF-8"?>
<svg xmlns="http://www.w3.org/2000/svg" viewBox="0 0 1712.61 1265.54">
  <defs>
    <style>
      .cls-1 {
        fill: #ccece4;
        mix-blend-mode: multiply;
      }

      .cls-2 {
        isolation: isolate;
      }
    </style>
  </defs>
  <g class="cls-2">
    <g id="_圖層_2" data-name="圖層 2">
      <path class="cls-1" d="m325.72,17.63c-40.67-18.42-97.41-28.84-131.72,1.85C71.96,137.92-11.46,301.28,1.28,479.33c21.9,360.67,360.01,539.36,657.94,645.17,55.54,24.41,108.79,48.87,156.3,75.19,58.66,32.52,119.86,52.33,181.72,60.88,61.86,8.56,124.39,5.86,185.67-6.6,49.21-10.32,97.69-26.1,144.99-47.63,151.27-69.05,236.93-227.72,290-378.18,19.11-51.47,35.49-104.18,49.3-157.12,13.82-52.94,25.07-106.12,33.96-158.53,9.98-63.72,15.63-128.97,7.71-191.01-7.92-62.04-29.65-120.89-75.38-171.5-115.26-104.28-278.92-55.23-416.31-41.68-246.86,25.32-506.91,71.3-742.32-35.48-54.9-22.19-104.76-42.06-149.14-55.21Z"/>
    </g>
  </g>
</svg>