<?xml version="1.0" encoding="UTF-8"?>
<svg id="_圖層_2" data-name="圖層 2" xmlns="http://www.w3.org/2000/svg" viewBox="0 0 979.92 922.56">
  <defs>
    <style>
      .cls-1 {
        fill: #d5d577;
        opacity: .3;
      }
    </style>
  </defs>
  <path class="cls-1" d="m943.53,300.11c12.9,18.63,22.04,38.27,27.93,58.5,5.89,20.23,8.54,41.05,8.46,62.02-12.27,183.39-157.63,321.71-284.44,437.76-147.28,132.48-366.45,36.33-513.65-77C95.64,715.93,23.12,633.03,2.19,529.95c-18.14-74.89,81.06-97.79,134.11-136.76,26.99-15.86,51.88-32.2,68.05-50.82,20.14-18.96,39.77-38.26,58.68-58.21,18.91-19.96,37.11-40.58,54.31-62.23,17.2-21.64,33.41-44.31,48.52-67.84C401.48,81.8,442.68-9.35,539.8.78c157.33,16.22,260.71,153.65,370.47,255.74,12.29,13.94,23.47,28.4,33.27,43.59Z"/>
</svg>