<?xml version="1.0" encoding="UTF-8"?>
<svg id="_圖層_2" data-name="圖層 2" xmlns="http://www.w3.org/2000/svg" viewBox="0 0 534.14 585">
  <defs>
    <style>
      .cls-1 {
        fill: #006837;
      }
    </style>
  </defs>
  <path class="cls-1" d="m311.88,175.35c.28-.36.58-.71.89-1.05-1.06,1.79-2.1,3.58-3.13,5.38.56-1.62,1.28-3.11,2.23-4.33Z"/>
  <path class="cls-1" d="m237.31,579.92c-5.49-15.67-9.73-31.74-14.57-47.61-4.8-15.75-11.39-30.78-17.28-46.14-4.49-11.71-3.41-24.01-2.38-36.25.5-6.01,1.08-12.03,1.27-18.07.21-6.42-.48-12.74-1.16-19.11-.69-6.49-1.11-12.74-.18-19.24.07-.48.14-.95.21-1.43.28.3.56.61.83.91-.35-.37-.59-.86-.76-1.43.92-6.23,1.97-12.43,2.95-18.65.1-.66.21-1.32.32-1.98.14-.13.26-.3.34-.51,1.09-2.89,3.72-4.42,6.32-5.93,3.03.79,11.58-1.55,13.28-2.12,8.56-2.91,17.46-7.11,26.31-9.12,10.09-2.3,20.69-1.96,30.73-4.43,15.7-3.87,31.17-8.83,46.62-13.5,19.58-5.91,37-14.16,54.99-23.4,11.01-5.65,25.21-6.83,35.55-13.3,14.9-9.34-.28-14.54-9.92-16.89-1.29-.31-2.58-.64-3.87-.98-.22-.35-.67-.55-1.09-.28-12.22-3.19-24.57-6.93-37.09-7.49-7.11-.32-13.8,1.18-20.42,3.15-.2-.15-.46-.2-.75-.05-.37.19-.73.4-1.09.61-4.49,1.39-8.95,2.93-13.51,4.23,3.38-.64,6.75-1.27,10.09-1.94-1.67,1.27-3.24,2.67-4.72,4.16-2.47,2.47-4.75,5.13-7.07,7.73-2.21,2.49-4.55,4.85-6.73,7.37-4.19,4.83-8.04,10.35-9.26,16.74-.36-.04-.68.26-.78.64-5.98,1.98-11.89,4.17-17.66,6.81-1.72.79-3.42,1.6-5.11,2.43,1.44-3.25,3.24-6.31,5.23-9.25,2.12-3.15,4.42-6.18,6.63-9.28,1.99-2.79,3.82-5.68,5.62-8.6,3.15-5.1,6.76-10.7,12.59-12.98.49-.19.55-.67.37-1.04,2.67-.69,5.29-1.35,7.82-1.99,1-.25,2-.52,2.98-.81-3.56.68-7.14,1.38-10.68,2.19-.21.05-.43.1-.64.16-.15-.04-.32-.04-.5.03-.15.06-.3.13-.45.2-3.51.9-7.02,2.11-10.51,3.55,2.74-.84,5.49-1.61,8.21-2.34-2.11,1.33-3.94,3.08-5.55,5.01-2,2.4-3.67,5.05-5.31,7.71-1.9,3.08-3.87,6.09-5.99,9.02-4.47,6.2-9.17,12.32-11.99,19.49-9.34,4.66-18.45,9.79-27.85,14.34,1.12-2.58,2.12-5.2,3.08-7.84,3.72-10.22,7.08-21.18,15.21-28.84,9.32-5.83,19.63-12.2,30.18-16.54-8.68,2.66-17.24,5.95-24.32,10.45-2.04,1.3-4.03,2.73-5.99,4.25-.15.01-.29.07-.44.2-.3.27-.6.56-.89.84-9.67,7.74-18.58,17.61-27.56,25.53-6.45,5.68-13.04,11.13-19.87,16.29-6.07,4.59-10.79,13.04-17.41,16.4-.21.21-.39.41-.55.6-1.99.87-3.98,2.02-5.6,3.48,1.82-10.51,3.98-20.88,6.97-31.2,3.76-12.96,7.55-25.98,12.37-38.59,2.64-6.9,5.71-13.46,9.85-19.6,3.94-5.86,8.47-11.37,13.15-16.65,2.46-2.78,5.01-5.48,7.56-8.17.28.12.59.17.93.09,5.01-1.07,9.78-2.85,14.42-5.02,2.42-1.13,4.31-2.73,6.39-4.36,1.86-1.46,4.47-2.33,6.81-3.04,3.46,2.25,11.44,1.28,15.49,1.66,11.94,1.11,23.54,4.21,35.31,6.33,26.89,4.85,52.16,14.59,79.75,16.03,23.94,1.25,45.58-4.91,68.54-10.51,8.67-2.12,17.03-5.39,25.61-7.74,5.72-1.56,14.33-1.1,19.28-4.66,12.94-9.27-7.89-14.25-14.75-16.97-11.43-4.54-23.97-10.43-36.26-13.37,11.04,2.76,21.2,11.39,31.41,15.36,4.05,1.57,16.25,2.22,17.86,7.35.37,1.16.3,2.16-.08,3.03-1.1-.31-2.22-.58-3.34-.83-7.46-1.6-15.15-1.8-22.75-1.83-8.01-.03-16.03.04-24.04.12-16.34.17-32.68.43-49.02.38-15.96-.05-31.88-.54-47.81-1.53-15.45-.97-30.91-1.86-46.37-.66-7.91.61-15.79,1.56-23.64,2.72-3.56.53-7.09,1.21-10.66,1.72-1.96.28-3.94.48-5.92.48,7.81-1.71,18.42-7.51,26.82-11.11,12.07-5.17,25.14-5.74,37.34-11.1,12.65-5.56,23.18-3.34,36.27-5.24,5.25-.76,9.63-2.3,15.07-2.12,4.73.15,7.29,2.44,11.03,3.37,8.25,2.04,17.44.54,25.52-.56,5.06-.69,6.2.37,10.55.94,4.83.63,8.26-.86,12.98-1.27,2.71-.24,5.35,0,7.94.58-1.62-.37-3.23-.69-4.83-.95-18.31-2.91-39.31-2.7-57.91-2.89-18.4-.19-37.35-1.47-55.27,3.78-12,3.51-24.96,5.79-36.7,9.99-12.44,4.45-23.69,12.25-36.35,16.06-.18-.02-.37,0-.58.06-.68.2-1.35.42-2.01.66-.05.01-.1.03-.14.04,0,0,0,0,0,.01-1.83.66-3.61,1.41-5.44,2.14-2.35.94-4.89,1.17-7.18,2.38-3.15,1.66-6.08,3.54-9.2,5.1.82-.89,1.64-1.78,2.45-2.68,5.04-5.6,9.93-11.35,14.75-17.14,4.51-5.43,9.14-10.9,13.07-16.76,3.41-5.09,6.65-10.79,12.44-13.33,5.19-1.27,11.32-3.47,17.44-3.58,9.25-.16,16.59-2.93,24.48-7.9,19.43-12.26,39.17-23.55,57.47-37.51,18.92-14.43,43.4-30.88,55.36-51.61,4.45-7.7,21.06-30.62,1.95-28.66-15.78,1.62-30.71,5.92-44.66,12.45,6-1.34,11.05-2.38,16.51-4.4-.04.07-.09.14-.13.21-1.82,3.02-2.6,6.66-3.28,10.07-.55,2.77-.93,5.56-1.34,8.36-.07.03-.14.06-.2.1-.01,0-.03-.01-.04-.02-.5-.19-.88.13-1,.52-3.48,1.69-6.91,3.5-10.22,5.54-3.26,2.01-6.45,4.11-9.6,6.28-.4-1.25-.69-2.53-.9-3.82-.54-3.38-.54-6.87.09-10.24.56-3,1.71-6.13,3.99-8.24.44-.41.27-1-.09-1.28,2.05-1.08,4.13-2.11,6.23-3.08-.38.08-.76.17-1.16.26-5.71,1.29-10.64,4.8-15.18,8.63,2.73-1.71,5.5-3.32,8.32-4.85-.96,1.1-1.71,2.35-2.3,3.69-1.44,3.29-1.92,7.02-1.87,10.59.05,3.14.48,6.32,1.51,9.29-1.97,1.38-3.93,2.79-5.86,4.23-5.47,4.06-10.8,8.31-16.03,12.68-.22-.12-.43-.23-.64-.35-2.17-6.2-2.72-12.71-3.49-19.21,5.08-3.43,10.09-7.06,14.83-11.22,1.79-1.57,3.63-3.23,5.53-4.84-4.31,2.7-8.51,5.61-12.59,8.73-11.62,8.87-26.84,13.72-37.53,23.51-7.12,6.52-13.73,15.34-18.99,23.61-6.34,9.98-12.87,20.3-19.07,30.82,2.16-2.34,4.87-4.05,7.47-5.95.01,3.64,1.19,7.25,2.42,10.66.03.09.07.16.12.22-.73.61-1.47,1.21-2.22,1.79-2.71,2.13-5.54,4.06-8.48,5.86-1.73,1.05-3.46,2.1-5.15,3.21.95-3.18,1.53-7.06,2.72-10.41-2.82,4.9-5.53,9.83-8.1,14.79-4.41,2.61-7.46,6.85-10.37,11.25-4.59,6.94-9.99,13.33-15.19,19.81-4.66,5.8-9.56,11.36-14.55,16.85.45-3.33.75-6.68.06-9.91,6.54-4.4,9.18-22.93,12.23-30.42,2.63-6.47,6.18-12.47,7.98-19.25,2.5-9.48,3.98-19.38,5.44-29.22.07-.12.08-.26.06-.39.71-4.8,1.42-9.59,2.24-14.3,3.25-18.66,5.11-35.02,1.8-53.79-.57-3.23-1.08-6.45-1.55-9.67.06-.35.12-.7.16-1.06.04-.38-.15-.63-.41-.75-1.31-9.28-2.31-18.53-3.36-27.93-.75-6.71-2.85-47.48-16.34-45.62-5.13.7-12.75,19.7-15.28,24.61-5.36,10.44-8.14,21.98-10.65,33.45-3.68,16.77-4.34,35.28-3.49,53.67-.14.24-.16.54.04.83.7,14.37,2.33,28.64,4.16,41.94.03.24.07.49.11.73,0,.1,0,.21.05.32,3.78,26.18,13.69,51.43,14.23,77.8.1,0,.19-.03.29-.04.87,4.15-.23,8.12-.66,12.2-5.59,6.11-11.23,12.17-16.69,18.41-3.88,4.44-7.42,9.22-10.46,14.29.05-2.05-.33-4.62-.66-6.79-.07,2.45-.33,4.62-.95,5.99-.15-.86-.3-1.73-.47-2.59-2.48-13.14-5.87-26.08-8.84-39.12-1.49-6.55-2.89-13.12-4.01-19.74-1.12-6.57-1.85-13.17-2.51-19.8-1.26-12.68-2.44-25.38-4-38.02-1.58-12.77-3.55-25.51-6.39-38.07-2.79-12.33-6.43-24.49-11.36-36.14-.05-.13-.13-.22-.21-.3,3.26-.52,6.82,7.84,7.83,10.18,6.39,14.83,7.79,31.02,14.35,45.66,6.1,13.63,11.88,30.12,12.82,45.06,1.02,16.34,1.93,32.72,2.88,49.06.46,7.8.28,15.89.31,23.65,0,.97.09,2.37.2,3.99.24-3.9.68-7.78.64-11.72-.28-24.76-.19-49.94-4.25-74.54-2.44-14.76-7.47-29.35-12.34-43.44-4.57-13.25-7.59-35.2-17.59-45.69-11.67-12.23-7.22,9.27-6.1,15.3,2.15,11.65,2.75,24.01,4.2,35.96,1.82,15.08.09,30.42,1.47,45.6,1.23,13.5,4.02,27.28,9.32,39.85,4,9.47,10.14,16.78,12.73,26.85,2.73,10.59,5.66,21.21,8.51,31.68.95.56,1.71.81,2.31.82-3.21,5.99-5.5,12.39-8.08,18.66-5.31,12.9-10.31,25.89-13.86,39.39-1.73,6.57-3.09,13.19-3.97,19.93-.18,1.39-.32,2.78-.46,4.18-.33-3.48-.82-6.93-1.53-10.31-4.06-19.21-12.2-37.97-20.49-55.65-4.81-10.26-8.45-21.13-11.98-32.07.01-.03.02-.05.04-.08.2-.44-.03-.78-.36-.93-6.02-18.7-11.82-37.54-22.75-53.72-7.8-11.55-16.68-20.63-27.29-29.59-8.82-7.46-18.49-11.9-17.94,4.45,1.47,44.35,21.51,85.85,36.73,126.76,11.88,31.93,39.14,51.24,62.02,74.99-1.04,4.21-2.04,8.42-2.28,12.75-.37,6.53.32,12.95.81,19.45.96,12.82-1.05,25.48-1.3,38.28-.12,6.22.27,12.4,1.41,18.53.36,1.95.83,3.87,1.35,5.78-4.23-5.67-4.96-11.72-8.27-18.36-4.38-8.81-11.26-15.96-17.86-23.13-15.81-17.14-34.38-36.03-55-46.98-32.75-17.38-64.88-36.92-99.95-49.86-8.14-3-25.03-5.75-15.35,6.82,8.03,10.42,19.7,18.34,27.98,29.04,1.3,1.68,2.64,3.31,4.02,4.9.06.18.19.34.39.45,15.94,18.25,36.6,31.04,56.69,44.51.09.14.24.25.44.29,7.01,4.71,13.95,9.5,20.58,14.64,17.3,13.42,33.53,19.81,54.33,25.85,11.3,3.28,23.03,7.07,32.63,14.01,1.08,3.63,2.35,7.21,3.59,10.76,5.05,14.43,9.87,28.78,13.93,43.53,4.04,14.69,7.77,29.45,13.32,43.66,1.69,4.34,8.01,1.31,6.51-2.96Zm-86.48-116.83c-2.11-.81-4.14-1.69-6.14-2.63,3.72.46,7.48.58,11.21.4,4.19-.2,8.56-.74,12.46-2.39,2.15,1.83,4.32,3.63,6.55,5.37,3.02,2.36,6.09,4.7,9.3,6.79,2.03,1.32,4.25,2.62,5.95,4.39-12.54-5.47-26.55-7.03-39.33-11.93Zm24.14-16.81c1.35,1.81,1.01,4.56.63,6.64-.48,2.69-1.45,5.3-1.78,8.01,0,0,0,.01,0,.02-.51-.4-1.01-.81-1.52-1.22-.96-.78-1.9-1.56-2.84-2.36-.07-.39-.4-.74-.83-.7-1.86-1.57-3.7-3.15-5.55-4.73.25-.15.43-.42.4-.78-.48-5.31.11-10.64.2-15.96,1.52,1.46,3.05,2.88,4.59,4.26,1.87,1.67,3.91,3.72,5.99,6.02.04.07.09.13.16.19.04.04.07.08.11.11.14.16.29.32.43.49Zm-45.06-41.73c.06,1.81.27,3.6.6,5.37.6,3.26,1.54,6.45,2.07,9.72.51,3.16.53,6.33-.18,9.45-5.43-3.75-10.84-7.52-16.11-11.49.01-.05.02-.1.03-.16.42-6.92.49-14.01-1.84-20.57,5.1,2.65,10.56,4.73,15.43,7.69Zm-39.46-22.3c.01.07.03.14.07.22,3.04,6.02,4.16,12.73,4.89,19.37-.01,0-.03,0-.04,0-5.16-3.77-10.38-7.48-15.64-11.12.05-.09.07-.2.08-.34.04-3.36-.58-6.61-1.58-9.81-.65-2.08-1.42-4.12-2.15-6.18,4.43,2.46,8.84,4.93,13.26,7.25.38.2.75.4,1.12.6Zm-40.42-20.61c8.24,3.12,16.16,7.29,23.97,11.6,1.8,5.4,4.13,10.65,4.22,16.43-1.06-.73-2.12-1.46-3.18-2.18-5.3-3.6-10.65-7.12-16.05-10.56-.16-1.68-.66-3.3-1.36-4.84-1.65-3.64-4.2-6.86-6.92-9.75-.22-.24-.45-.47-.67-.7Zm-14.72-5c2.62,2.29,4.15,5.59,5.15,8.9-2.07-1.22-4.14-2.44-6.22-3.64-.56-.32-1.11-.65-1.65-.98-.66-1.89-1.23-3.82-2.04-5.66-.17-.39-.36-.76-.55-1.13,1.76.89,3.53,1.74,5.32,2.5Zm61.9,74.53c1.4.32,2.79.69,4.18,1.06,2.58.69,5.2,1.33,7.88,1.49,2.53.15,5.12,0,7.66-.12,5.01-.24,10.16-.88,14.74-3.08,0,0,.01,0,.02-.01,3.28,2.27,6.57,4.53,9.84,6.82-1.61.76-3.25,1.46-4.9,2.1-3.98,1.55-8.08,2.84-12.28,3.65-3.31.64-6.95,1.12-10.29.36-1.08-.55-2.17-1.09-3.27-1.61-5.98-2.82-9.86-6.57-13.56-10.66Zm32.41,21.11c.77-.03,1.53-.06,2.3-.08,7.56-.25,16.28-.23,22.49-5.21.04-.03.08-.07.11-.11.63.49,1.26.98,1.88,1.48,3.62,2.89,7.11,5.94,10.62,8.94-1.66.62-3.4,1.03-5.16,1.33-4.75.82-9.63.88-14.42.49-2.52-.2-5.08-.52-7.58-1.08-3.5-1.83-6.89-3.8-10.24-5.78Zm-40.14-30.31c8.32.64,16.74-1.45,24.72-3.57.13-.03.24-.09.32-.16.91.69,1.81,1.37,2.73,2.05,4.24,3.14,8.56,6.17,12.91,9.17-2.24.96-4.61,1.56-7.02,1.95-2.5.4-5.04.59-7.57.67-2.5.09-5.05.22-7.55-.07-4.27-.5-8.33-2.07-12.55-2.8-2.11-2.39-4.27-4.87-6.82-7.32.28.03.56.05.84.08Zm28.23,23.42c.36,0,.71,0,1.07-.02,4.39-.18,8.72-1.23,12.9-2.52,3.83-1.19,7.6-2.64,11.21-4.4.04-.02.08-.04.11-.07,3.46,2.44,6.88,4.93,10.24,7.52-1.54,1.2-3.29,2.08-5.13,2.72-3.65,1.26-7.58,1.61-11.41,1.82-3.18.17-6.36.22-9.54.4-3.13-1.85-6.25-3.69-9.44-5.44Zm-62.71-43.68c1.43.46,2.89.86,4.36,1.18,11.7,2.56,23.7.76,35.53.53,1.12.82,2.24,1.63,3.35,2.46,4.96,3.67,9.83,7.47,14.74,11.2-1.77.46-3.55.91-5.33,1.32-4.11.94-8.28,1.7-12.49,1.99-2.88.19-5.86.17-8.71-.43-5.65-4.35-13.38-5.08-19.68-9.19-4.24-2.77-8.1-5.84-11.78-9.06Zm-3.27-2.92c-4.1-3.76-8.04-7.65-12.13-11.46,1.45.5,2.92.95,4.4,1.36,5.81,1.6,11.79,2.62,17.79,3.18,5.56.52,11.2.67,16.76.09.06,0,.11-.02.15-.03.03.02.06.04.09.06,4.71,3.25,9.37,6.55,14,9.91-2.46.08-4.92.21-7.38.34-5.97.32-11.96.66-17.92.21-5.43-.4-10.76-1.53-15.76-3.67Zm79.82,6.8c.32.22.64.43.96.66,4.9,3.53,9.56,7.67,14.1,12.03,1.11,3.14,1.22,6.54.95,9.84-.28,3.51-.97,6.96-1.61,10.41-4.02-2.88-8.08-5.68-12.15-8.48.47-1.85.75-3.75.77-5.67.04-6.41-2.55-12.44-3.02-18.79Zm17.3,14.87c4.47,4.38,8.85,8.91,13.27,13.22,0,5.75-.68,11.51-.22,17.25-2.69-2.28-5.39-4.54-8.2-6.68-2.09-1.6-4.21-3.16-6.34-4.71.02-.05.04-.11.05-.18,1.11-6.06,2.68-12.73,1.45-18.9ZM3.93,345.47c.75.24,1.48.51,2.2.81,5.66,2.39,10.72,6.15,15.73,9.65,2.41,1.68,4.83,3.37,7.34,4.9.7.42,1.4.84,2.1,1.25.14.28.39.39.64.38,2.25,1.31,4.53,2.57,6.77,3.9,6.35,3.74,12.62,7.6,18.84,11.56.15.27.43.42.71.45,6.19,3.96,12.32,8.02,18.38,12.17-2.41.18-4.82.23-7.23.18-5.88-.12-11.75-.75-17.53-1.83-5.3-.99-10.6-2.38-15.56-4.53-.81-.73-1.63-1.45-2.46-2.16-5.95-5.11-10.57-11.9-15.84-17.88-4.77-5.4-13.41-11.12-14.1-18.85Zm23.25,7.23c.8,1.03,1.45,2.16,1.98,3.39.5,1.16.91,2.36,1.31,3.56-4.07-2.54-7.98-5.27-11.96-7.98-4.23-2.88-8.74-5.97-13.67-7.58,7.86.83,15.09,4.83,22.35,8.62Zm14.45,6.2c1.61.44,3.2.93,4.79,1.46,2.65,2.4,5.11,5.06,7.18,7.98,1.56,2.2,3.1,4.78,3.65,7.5-4.93-3.12-9.9-6.18-14.91-9.17.02-.1.02-.22-.02-.34-.79-2.95-1.93-5.91-3.73-8.39,1,.36,2.01.68,3.03.96Zm70.58,36.73s.07.04.1.05c2.83,6.56,2.88,13.74,2.48,20.77-.28-.21-.56-.42-.83-.64-5.64-4.36-11.32-8.64-17.06-12.86.12-.15.2-.35.17-.59-.67-6.4-1.67-12.88-4.27-18.8,6.61,3.82,12.75,8.24,19.41,12.07Zm79.38,78.63c-.39-.43-.79-.84-1.24-1.23-2.54-2.24-5.61-3.88-8.35-5.85-2.44-1.75-4.83-3.57-7.19-5.43.29-.07.55-.29.59-.67.36-2.92,1.43-5.72,1.89-8.63.16-1.05.25-2.14.19-3.2,6.11,7.49,11.93,16.75,14.1,25.01Zm64.99-277.83c-.92-3.3-1.89-6.52-2.84-9.71,2.68,3.08,5.85,5.78,9.28,7.89.03.02.06.03.09.04.09,5.76.17,11.54-.25,17.27-.27,3.72-.74,7.46-1.58,11.09-.31,1.35-.85,2.69-1.25,4.04-2.1-9.69-.68-20.71-3.44-30.63Zm-8.55-35.68c4.32,5.41,9.82,9.7,14.94,14.31,0,4.73.04,9.47.07,14.2,0,1.16.02,2.32.04,3.48-4.09-2.66-7.73-6.17-10.55-10.16-2.07-7.2-3.86-14.33-4.5-21.84Zm-.26-5.89c0-5.16-.43-10.29-1.07-15.41,5.12,5.17,10.71,9.8,16.67,14.02-.17,4.27-.31,8.54-.36,12.81,0,.78-.01,1.57-.02,2.35-.03.03-.07.05-.1.08-.44.4-.28.99.09,1.27,0,.99-.01,1.97-.02,2.96-.91-.81-1.83-1.61-2.75-2.42-2.72-2.38-5.44-4.77-7.95-7.38-1.59-1.66-3.13-3.41-4.43-5.31-.04-.99-.07-1.98-.07-2.98Zm16.01-11.65c-.11,2.79-.22,5.57-.34,8.36-6.14-4.42-11.87-9.27-17.09-14.75-.92-6.77-2.09-13.51-2.95-20.26.48.64.97,1.27,1.45,1.91,2.79,3.67,5.63,7.34,8.88,10.63,2.97,3.01,6.32,5.78,10.27,7.38-.08,2.24-.14,4.49-.23,6.73Zm-21.38-37.66c-.28-5.94-.39-12.03-.22-18.11.86,2.23,1.82,4.43,2.89,6.57,1.29,2.61,2.71,5.17,4.25,7.64,1.46,2.34,3.18,4.49,4.98,6.57,3.56,4.13,7.53,8.05,10.18,12.86-.12,4.57-.26,9.14-.41,13.7-1.89-.82-3.62-1.94-5.24-3.21-6.33-4.96-10.9-11.77-15.78-18.1-.29-2.64-.52-5.28-.65-7.92Zm22.15,12.62c-1.18-1.8-2.52-3.49-3.91-5.13-3.59-4.21-7.55-8.15-10.41-12.92-3.06-5.1-5.71-10.46-7.61-16.11-.06-.19-.17-.31-.29-.39.27-5.49.81-10.94,1.7-16.24.98,1.77,1.94,3.56,2.88,5.35,4.9,9.26,9.88,18.82,18.07,25.63.04.03.08.06.12.08-.2,6.57-.37,13.15-.54,19.72Zm-15.61-73.25c.67,2.19,1.39,4.36,2.23,6.49.96,2.45,2.1,4.83,3.45,7.09,1.13,1.88,2.4,3.68,3.67,5.46,2.52,3.55,5.41,7.24,6.67,11.47.15.5.65.67,1.05.58-.35,6.8-.63,13.61-.85,20.42-1.95-1.71-3.73-3.6-5.36-5.62-6.34-7.84-10.35-17.19-15.33-25.89.14-.74.29-1.48.44-2.22,1.26-5.9,2.52-11.89,4.04-17.79Zm38.06,33.85c-.29.63-.62,1.24-.99,1.83-2.22,3.51-5.51,6.2-8.86,8.58-3.32,2.36-6.84,4.42-10.13,6.81-.13.09-.21.2-.26.32.06-1.9.11-3.8.18-5.71.17-4.69.38-9.38.62-14.06,1.53-.42,3-1.04,4.41-1.75,3.13-1.58,6.12-3.56,8.75-5.88,1.17-1.03,2.38-2.2,3.38-3.51.85,4.45,1.88,8.92,2.9,13.38Zm-20.89-4.82c-.7-1.87-1.66-3.61-2.72-5.3-2.42-3.88-5.38-7.4-7.66-11.37-2.62-4.55-4.29-9.51-5.8-14.51-.06-.19-.17-.34-.31-.44,1.41-5.15,3.06-10.22,5.11-15.1,3.66,8.22,8.24,15.97,12.83,23.69.01.03.03.04.05.07-.61,7.65-1.11,15.3-1.52,22.96Zm3.05-40.6c-.46,4.98-.9,9.96-1.31,14.94-4.43-7.48-8.79-15.01-12.24-23,0-.02-.02-.03-.03-.05,1.41-3.42,3.55-8.84,6.13-13.34.34,7.4,3.76,14.47,6.92,21.02.12.25.31.38.52.42Zm.94-29.21c.19,1.1.34,2.21.45,3.32.61,6.69-.19,13.42-.84,20.08-.11,1.09-.2,2.19-.31,3.28-1.43-3-2.81-6.03-3.93-9.16-1.29-3.62-2.27-7.45-2.2-11.31,0-.25-.09-.45-.23-.59,2.15-3.23,4.54-5.58,7.06-5.61Zm4.05,2.07c2.66,2.85,4.38,6.84,5.52,11.38,0,0-.01,0-.02.01-1.79,1.72-3.23,3.76-4.73,5.73-1.09,1.43-2.21,2.92-3.58,4.1.17-1.78.33-3.56.49-5.34.53-5.85.83-11.81-.06-17.64.79.32,1.58.89,2.38,1.74Zm7.86,36.69c-1.49,2.38-3.5,4.32-5.78,6.01-2.41,1.79-4.94,3.39-7.25,5.31.25-3.36.52-6.72.81-10.08.42-4.85.88-9.7,1.34-14.55,0,0,0,0,0,0,1.96-1.24,3.43-3.18,4.83-4.99,1.34-1.74,2.6-3.58,4.12-5.17,1.55,7.36,1.76,15.92,1.92,23.49Zm.49,11.7c.28,2.83.69,5.67,1.18,8.51-.36.62-.78,1.2-1.23,1.76-2.06,2.55-4.76,4.61-7.5,6.38-2.25,1.45-4.72,2.84-7.3,3.61.33-6.21.72-12.41,1.18-18.61.15-.01.3-.07.44-.19,2.59-2.29,5.54-4.08,8.3-6.16,1.7-1.29,3.22-2.73,4.51-4.36.08,3.36.18,6.45.44,9.07Zm8.82,47.36c-2.04,1.2-3.92,2.62-5.73,4.15-3.09,2.62-5.96,5.41-9.5,7.44-3.24,1.87-6.69,3.34-9.96,5.14.19-7.31.39-14.63.62-21.94.15.47.75.83,1.28.45,1.88-1.37,3.85-2.62,5.8-3.89,4.98-3.25,10.6-7.01,13.71-12.21,1.58,6.94,3.07,13.89,3.78,20.85Zm-2.8,22.24c-.36,1.53-.58,3.07-.71,4.62-1.37.8-2.7,1.67-4,2.58-2.86,1.99-5.59,4.16-8.57,5.97-3.04,1.85-6.3,3.23-9.8,3.88.06-1.42.12-2.84.16-4.26.18-5.31.33-10.62.47-15.93.03-.09.03-.19,0-.3,0-.13,0-.25.01-.38.13.01.28-.01.43-.1,1.91-1.06,3.89-2.01,5.85-2.98,3.48-1.72,6.87-3.57,9.83-6.11,3.02-2.59,5.9-5.38,9.29-7.48.17,2.09.27,4.17.27,6.26,0,5.26-2.06,9.35-3.23,14.22Zm-1.33,18.84c-.44,3.21-.91,6.44-1.43,9.67-1.67,1.11-3.12,2.51-4.53,3.93-1.34,1.35-2.65,2.73-4.08,3.98-1.44,1.25-3,2.26-4.72,3.07-2.58,1.22-5.43,2.14-7.84,3.72.03-2.44.06-4.87.12-7.31.14-5.74.42-11.48.66-17.22,2.1-.36,4.16-.96,6.12-1.79,5.96-2.52,10.75-6.98,16.21-10.35-.18,4.1.04,8.25-.5,12.3Zm-26.06,87.37c-.09-1.25.26-2.46.66-3.66,2.21-6.67,2.85-13.87,2.91-20.88.06-7.59-.07-15.18-.12-22.77-.02-2.56-.02-5.12-.03-7.68.2-.29.25-.71,0-1.04,0-1.67,0-3.33.02-5,1.36-1.06,2.94-1.81,4.52-2.5,1.7-.74,3.43-1.42,5.07-2.28,1.68-.88,3.19-2.01,4.59-3.28,2.26-2.06,4.24-4.45,6.63-6.37-1.43,8.5-3.2,16.98-5.41,25.15-4.21,5.15-10.74,7.8-14.94,13.01-.64.8.66,1.71,1.3.92,2.24-2.78,5.25-4.77,8.11-6.85,1.6-1.16,3.17-2.38,4.59-3.74-2.43,8.46-5.29,16.41-8.31,24.7-2.95,8.09-4.46,18.62-9.6,22.26Zm65.28-68.15c1.36-2.11,2.24-4.55,3.01-7.04.13,1.74.49,3.47.93,5.09.8,2.94,1.96,6.23,4.2,8.42-3.46,3.19-6.91,6.41-10.5,9.45-1.25-3.48-2.52-7.31-2.19-11.06,1.7-1.37,3.29-2.9,4.55-4.86Zm15.08-27.51c.61-.77,1.24-1.52,1.87-2.26.29,1.05.54,2.11.77,3.17.74,3.42,1.33,6.88,2.35,10.23.88,2.9,2.1,5.78,4.1,8.08-4.71,4.35-9.42,8.7-14.15,13.03-.24.22-.47.43-.71.65-2-2-3.07-4.95-3.8-7.61-.71-2.62-1.37-5.74-.75-8.45.09-.39-.09-.71-.35-.89.51-1.57,1.07-3.1,1.8-4.51,2.21-4.35,5.94-7.72,8.87-11.44Zm21.76-19.51c-.03.87-.03,1.75,0,2.62.14,3.57.73,7.13,1.67,10.58.85,3.13,1.97,6.23,3.57,9.07-5.61,5.1-11.18,10.25-16.75,15.39-.98-1.15-1.77-2.45-2.4-3.83-2.61-5.7-2.88-12.08-4.75-18,5.59-6.2,11.97-11.2,18.65-15.83Zm19.78,9.39s.02.04.03.06c-4.52,3.83-8.97,7.75-13.36,11.72-1.9-3.51-3.14-7.38-3.94-11.28-.74-3.6-1.17-7.35-.86-11.03,4.67-3.18,9.46-6.22,14.22-9.4.36,3.17.67,6.35,1.17,9.5.57,3.56,1.45,7.05,2.74,10.42Zm85.63-52.5c-.87.26-1.72.59-2.56.97-4.92,2.23-9.34,5.51-13.88,8.4-5.26,3.36-10.93,5.93-16.61,8.48-1.62.73-3.24,1.46-4.84,2.21.11-.79.22-1.59.34-2.38.52-3.44,1.12-6.9,2.15-10.22.44-1.43.95-2.87,1.74-4.15.53-.87,1.28-1.79,2.15-2,.38-.09.58-.38.62-.69.19-.09.39-.17.58-.26,6.15-2.83,28.92-10.11,30.32-.36Zm-12.08,21.63c-.47.9-.96,1.77-1.45,2.61-1.47.19-2.94.28-4.42.3-3.84.06-7.69-.28-11.47-.9-2.79-.46-5.56-1.08-8.26-1.93,3.14-1.45,6.31-2.84,9.46-4.28,2.95-1.36,5.9-2.76,8.73-4.35,2.31-1.3,4.53-2.76,6.75-4.21,2.35-1.54,4.7-3.09,7.13-4.5,1.79-1.04,3.67-2.07,5.66-2.72-.05.67-.18,1.4-.39,2.2-1.73,6.36-8.6,11.81-11.73,17.79Zm-13.76,16.93c-1.93.05-3.87.09-5.8.11-9.28.08-19.04-.41-27.53-4.51,4.16-2.88,8.41-5.65,12.81-8.11,2.16-1.21,4.36-2.32,6.59-3.38,1.69.6,3.41,1.1,5.15,1.52,3.87.93,7.83,1.54,11.8,1.8,2.73.18,5.49.21,8.22-.05-3.14,4.89-6.79,8.75-11.25,12.61Zm-2.7,2.26c-5.91,4.81-11.25,10.36-16.93,15.46-2.72.23-5.44.37-8.17.41-5.47.07-10.97-.24-16.38-1.14-4.22-.71-8.47-1.79-12.36-3.62,6.11-5.1,12.37-10.03,18.83-14.68.79-.57,1.58-1.13,2.37-1.69.27.04.55-.08.75-.28,2.15,1.08,4.4,1.98,6.72,2.65,8.42,2.45,17.24,2.45,25.95,2.25-.26.21-.51.42-.77.64Zm-30.74,25.76c-3.04,1.71-6.06,3.5-8.97,5.41-1.96-.44-3.94-.82-5.92-1.15-8.16-1.36-16.45-2.09-24.29-4.86.97-.88,1.93-1.75,2.9-2.62,3.89-3.5,7.84-6.94,11.85-10.32,2.02,1,4.12,1.8,6.28,2.44,5.34,1.6,10.93,2.35,16.48,2.65,4.5.25,9.02.2,13.51-.11-3.69,3.19-7.56,6.15-11.84,8.56Zm-25.38,19.53c-1.06.65-2.13,1.3-3.21,1.94-9.52-.69-18.71-3.34-27.78-6.18,5.28-4.9,10.54-9.83,15.86-14.68,0,0,.01,0,.02,0,2.3.86,4.65,1.55,7.03,2.12,7.48,1.77,15.17,2.34,22.68,3.9-2.78,1.92-5.41,3.96-7.8,6.17-2.51,2.33-3.32,4.58-6.8,6.73Zm-23.75,13.65c-.61.36-1.22.72-1.82,1.08-3.91,0-7.83-.35-11.66-1.14-3.31-.68-6.63-1.7-9.61-3.32,1.32-1.22,2.65-2.43,3.98-3.63,3.61-3.25,7.17-6.53,10.73-9.83.07.17.22.32.46.4,8.53,2.67,17.18,5.2,26.09,6.12-6.01,3.48-12.19,6.8-18.17,10.33Zm-22.25,12.24c-4.42-.91-9.02-2.26-12.67-4.95.07-.06.15-.12.22-.19,3.54-3.02,6.96-6.19,10.38-9.35,3.17,1.8,6.7,2.91,10.26,3.68,3.17.68,6.41,1.06,9.66,1.19-5.98,3.56-11.58,6.84-17.84,9.62Zm-30.2,8.46s-.01-.01-.02-.02c-.09-.07-.18-.11-.29-.12-.1-.03-.2-.04-.3-.01-.02,0-.03,0-.05,0-.19-.06-.35-.14-.49-.24.7-.49,1.41-.97,2.13-1.43,2.82-1.81,5.76-3.44,8.53-5.35,2.34-1.61,4.58-3.37,6.77-5.19,3.29,2.55,7.36,3.98,11.43,4.96-1.8.74-3.66,1.44-5.61,2.09-6.5,2.18-17.92,5.86-22.1,5.31Zm-6.92,44.11c1.42-.2,2.84-.44,4.25-.69,3.75-.65,7.51-1.21,11.28-1.72,7.83-1.07,15.71-1.93,23.61-2.35,15.48-.82,30.97.41,46.42,1.34,16.03.97,32.07,1.22,48.12,1.21,16.28-.01,32.55-.3,48.82-.43,7.88-.07,15.77-.19,23.65-.01,6.76.15,13.62.62,20.17,2.39-3.33,3.36-12.19,4.11-15.35,4.77-16.05,3.32-33.65,5.23-48.93,10.83-7.4,2.71-14.43,7.56-22.39,7.81-8.72.28-17.42.19-26.13.57-13.31.58-26.72-6.26-40.18-7.71-25.45-2.73-48.2-13.21-73.33-16.01Zm-72.51,41.93c-5.84-5.52-5.57-22.51-8.61-29.97-4.19-10.27-10.01-19.81-14.09-30.15-2.44-6.19-2.33-12.42-3.11-18.89-.75-6.26-3.35-12.08-3.99-18.49-1.24-12.45-.53-25.32-1.05-37.85-.55-13.28-4.44-25.66-5.3-38.58-.22-3.25-3.57-16.99-2.36-19.13.27-.48.55-.85.83-1.13,0,.07.03.14.06.22.6,1.41,1.18,2.83,1.74,4.26,4.65,11.82,8.02,24.11,10.59,36.54,2.6,12.53,4.4,25.22,5.88,37.93,1.47,12.58,2.61,25.19,3.88,37.79,1.35,13.39,4.08,26.54,7.15,39.63,2.95,12.57,6.12,25.1,8.36,37.83Zm14.23,58.38c2.23-2.29,4.63-4.49,7.09-6.65-3.59,5.49-5.51,11.85-6.68,18.28-1.83.81-3.66,1.62-5.48,2.46-6,2.78-11.93,5.68-17.81,8.7,5.81-8.52,15.61-15.33,22.88-22.8Zm17.04,4.26c-.5.24-1,.48-1.51.71-4.42,2.04-8.9,3.95-13.37,5.9,1.27-6.54,3.4-12.95,7.43-18.34.33-.44.1-.91-.27-1.12,3.46-2.98,6.98-5.9,10.28-8.91,4.13-3.77,7.91-8.41,12.28-12.05-.44.59-.86,1.19-1.27,1.81-6.37,9.66-8.79,21.21-13.51,31.66-.06.12-.08.24-.07.35Zm105.14-62.89c-1.06.73-2.08,1.52-3.07,2.35-3.79,3.19-7.12,6.98-9.86,11.11-2.62,3.95-4.8,8.32-5.88,12.96-.11.5.21.88.58,1.01-2.84.95-5.69,1.87-8.57,2.72-7.04,2.08-14.09,4.06-21.06,6.3.68-3.22,2.1-6.24,3.86-9.01,3.5-5.51,8.24-10.02,12.54-14.88,4.15-4.69,8.35-9.62,13.82-12.81.86-.18,1.71-.37,2.56-.56,5.45-1.26,10.16-.15,15.07.8Zm19.22.6c-2.53,1.98-4.77,4.38-6.88,6.78-.76.86-1.51,1.71-2.14,2.67-.66,1-1.2,2.07-1.72,3.14-1.08,2.22-2.08,4.45-3.69,6.34-.13.16-.18.32-.18.47-3.53,1.01-7.03,2.1-10.52,3.27-3.83,1.28-7.64,2.61-11.46,3.89.03-.06.06-.12.07-.19.57-2.45,1.45-4.82,2.53-7.08,2.08-4.35,4.91-8.36,8.15-11.92,2.61-2.86,5.58-5.5,8.88-7.55,2.08.35,4.21.6,6.48.58,3.93-.04,7.27-.29,10.48-.39Zm16.06,2.09c1.18.39,2.35.76,3.52,1.14-1.78,1.31-3.59,2.58-5.31,3.98-2.3,1.87-4.63,4.02-5.81,6.8-.03.06-.04.13-.05.19-4.56.78-9.11,1.65-13.62,2.72-2.38.57-4.74,1.19-7.1,1.84,1.11-1.56,1.94-3.3,2.77-5.03,1.01-2.11,2.15-3.97,3.69-5.74,2.55-2.91,5.32-5.91,8.61-8.04,4.11.02,8.22.47,13.3,2.13Zm22.62,8.73c.05.27.08.54.09.81-1-.08-2.01-.15-3.01-.19-6.78-.24-13.54.58-20.23,1.61-1.75.27-3.5.54-5.25.83,1.2-2.3,3.34-4.12,5.33-5.71,1.89-1.51,3.89-2.89,5.82-4.35,5.93,1.93,11.63,3.92,17.25,6.99Zm-10.43,10.67c.12-.36,0-.77-.48-.88-5.54-1.29-11.01-2.95-16.16-5.37,2.87-.46,5.74-.88,8.61-1.27,6.09-.81,12.22-1.25,18.35-.77-.99,3.29-5.28,6.02-10.31,8.28Zm-17.71,6.6c-.85.39-1.71.74-2.58,1.07.09-.43-.12-.91-.68-.92-3.87-.09-7.71-1.29-11.26-2.76-3.1-1.28-6.16-2.87-8.82-4.94,4.11-1.15,8.26-2.2,12.43-3.09,3.09-.66,6.2-1.24,9.32-1.77.04.03.07.06.12.08,5.65,2.92,11.73,4.83,17.91,6.28-6.28,2.67-13.34,4.64-16.45,6.04Zm-26.07,7.55c-6.94-2.17-14.13-3.65-20.31-7.62,5.14-1.73,10.24-3.59,15.41-5.22,1.92-.61,3.84-1.18,5.77-1.74,1.19,1.01,2.47,1.91,3.8,2.72,2.84,1.72,5.89,3.13,9.03,4.21,2.59.89,5.33,1.6,8.08,1.79-7.2,2.47-14.79,3.46-21.78,5.87Zm-10.72,5.65c-1.84,1.46-3.62,2.83-5.41,4.09-2.27-.49-4.56-.83-6.87-1.08-9.57-1.05-20.32-.93-28.31-6.92,8.61-2.75,17.36-5.07,25.99-7.74,1.04-.32,2.07-.65,3.1-.99,3.32,2.32,7.01,3.99,10.85,5.26,2.95.98,5.95,1.77,8.93,2.64-2.91,1.19-5.7,2.69-8.27,4.74Zm-39.94,14.22c-1.31-.48-2.6-1-3.89-1.53-3.8-1.59-7.55-3.34-11.48-4.62-3.4-1.11-6.89-1.79-10.45-1.84,3.28-1.61,6.59-3.15,9.96-4.59,4.4-1.87,8.88-3.49,13.4-4.97,2.09,1.74,4.47,3.1,7,4.1,8.99,3.56,18.82,2.77,28.17,4.54-5.14,3.37-10.5,5.77-17.43,6.71-5.07.69-10.21,1.3-15.28,2.19Zm-10.55,2.37c-7.17,2.09-14.1,4.52-21.09,6.68-.76-.11-1.52-.23-2.27-.37-6.18-1.15-12.31-2.97-18.59-2.89,8.18-4.08,16.18-8.52,24.34-12.62.15.26.42.45.78.43,2.33-.12,4.67.09,6.95.53,6.13,1.2,11.72,4.06,17.48,6.41-2.56.51-5.1,1.09-7.6,1.82Zm-55.37,13.69c-2.07-.32-4.18-.6-6.11-1.43,5.25-2.31,10.54-4.52,15.72-6.98.08.02.17.02.27,0,2.15-.32,4.31-.38,6.48-.22,4.94.35,9.72,1.68,14.56,2.63-7.28,2.14-14.68,3.88-22.52,4.52-2.86.23-5.66.77-8.4,1.47Zm-29.74,9.79c.2-.1.4-.21.6-.31,6.73-3.41,13.54-6.66,20.41-9.75.11-.05.23-.1.34-.15.24.04.5-.02.69-.18.09.15.23.27.4.36,1.19.61,2.47.98,3.78,1.25-9.65,3.03-18.48,7.72-26.22,8.78Zm-50.28-.19c-2.02-2.05-3.99-4.24-5.91-6.5.71.45,1.42.9,2.15,1.33,6.89,4.04,14.47,6.82,22.3,8.35.54,1.23,1.09,2.46,1.63,3.68,2.16,4.88,4.33,9.82,5.77,14.97-6.73-8.91-18.14-13.91-25.94-21.84Zm17.76,1.41c-9.49-1.99-18.65-5.92-26.42-11.75-.18-.13-.36-.17-.53-.15-5.47-6.86-10.56-14.25-15.39-21.2,1.09.78,2.26,1.46,3.4,2.07,2.46,1.32,5.03,2.44,7.58,3.58,2.43,1.09,4.77,2.33,7.11,3.61,5.29,2.88,10.7,5.97,16.67,7.16.4.08.66-.13.77-.42.39.96.8,1.92,1.18,2.88,1.38,3.44,2.61,6.94,4,10.37.52,1.29,1.07,2.57,1.63,3.85Zm-54.93-63.37c2.34,1.95,4.58,4.03,6.83,6.09,2.4,2.2,4.82,4.39,7.41,6.36,2.53,1.93,5.25,3.57,8.06,5.06,5.6,2.98,11.51,5.47,16.69,9.18.17.12.34.16.5.15,2.87,6.04,5.61,12.14,8.18,18.32-.05-.02-.11-.04-.18-.05-3.2-.64-6.25-1.94-9.18-3.35-5-2.42-9.74-5.33-14.81-7.6-2.52-1.13-5.06-2.23-7.46-3.59-2.04-1.16-4.12-2.51-5.46-4.48-.23-.34-.57-.38-.85-.25-4.59-7.92-7.29-16.85-9.73-25.83Zm54.29,22.14c-.32,2.97-1.79,5.84-3.22,8.41-1.42,2.55-3.02,5.01-4.78,7.34-3.34-7.61-6.93-15.11-10.65-22.55.14-.08.25-.22.31-.43.39-1.44,1.06-2.79,1.8-4.08,1.47-2.59,3.17-5.05,4.49-7.72.53-1.07,1-2.21,1.3-3.39,3.66,7.31,7.53,14.5,10.9,22.03-.08.1-.13.23-.15.39Zm-58.72-38.07c-.9-2.89-1.99-5.66-3.2-8.36.89.67,1.8,1.3,2.74,1.9,8.73,5.58,19.08,8.4,27.04,15.22.06.05.11.08.17.11,2.52,4.81,5.03,9.62,7.51,14.45,2.87,5.6,5.7,11.22,8.43,16.89-2.43-1.59-5-2.97-7.59-4.29-5.71-2.9-11.48-5.61-16.52-9.62-5.1-4.06-9.58-8.83-14.69-12.87-.05-.04-.1-.07-.15-.1-1.2-4.5-2.38-8.98-3.73-13.33Zm36.07-14.45c-3.22,6.35-7.44,12.24-9.79,18.98-3.9-7.47-7.78-14.95-11.49-22.52,1.61-1.1,2.95-2.57,4.15-4.09,2.7-3.42,4.8-7.34,6.58-11.31.88-1.97,1.72-4,2.39-6.08,3.27,8.12,5.69,16.74,8.15,25.02Zm-43.7-6.22c3.6,2.04,7.44,3.64,11.4,4.84,3.68,1.12,7.5,1.94,11.34,2.14,0,0,.02,0,.03,0,3.21,6.43,6.52,12.81,9.84,19.18-1.46-1.06-2.99-2.02-4.55-2.91-8.36-4.76-17.9-7.76-25.17-14.23-1.76-3.62-3.68-7.14-5.57-10.67.87.59,1.76,1.14,2.68,1.66Zm-12.16-24.31c-.57-2.39-1.11-4.83-1.63-7.3,8.08,5.64,16.49,10.8,25.5,14.81,2.72,6.38,5.62,12.68,8.66,18.91.52,1.07,1.05,2.14,1.58,3.2-1.76-.14-3.51-.4-5.25-.75-3.91-.8-7.74-2.07-11.39-3.68-3.42-1.51-6.74-3.36-9.62-5.76-.03-.03-.07-.05-.1-.07-3.18-6.12-6.1-12.38-7.75-19.37Zm-5.2-27.37c.92.91,1.81,1.85,2.72,2.77,1.41,1.44,2.85,2.87,4.4,4.16,1.61,1.34,3.37,2.5,5.14,3.61,3.35,2.09,6.81,4.02,9.92,6.46,1.86,5.15,3.71,10.3,5.82,15.35.05.13.11.25.16.38-8.68-4.02-16.79-9.1-24.6-14.61-.14-.1-.28-.14-.41-.15-1.2-5.9-2.25-11.95-3.14-17.98Zm41.04,12.17c-4.01,6.29-6.28,13.81-11.86,18.92-.68-1.66-1.35-3.33-1.99-5-1.14-2.97-2.21-5.95-3.29-8.94.14-.31.11-.7-.22-.98-.06-.05-.12-.09-.18-.14-.2-.56-.41-1.12-.61-1.69,3.96-3.92,7.82-8.26,10.38-13.25,2.25,3.91,5.04,7.48,7.76,11.07Zm-43.04-28.63c-.05-.53-.1-1.19-.15-1.93.37.58.76,1.14,1.18,1.69,4.17,5.52,9.85,9.69,15.24,13.93.53,1.12,1.06,2.24,1.55,3.37,1.53,3.46,2.9,6.99,4.22,10.54.35.93.69,1.87,1.03,2.8-.05.06-.08.13-.1.2-1.02-.7-2.06-1.37-3.11-2.02-3.57-2.21-7.3-4.25-10.47-7.03-2.73-2.39-5.11-5.14-7.75-7.63-.66-4.71-1.2-9.38-1.63-13.92Zm1.67-14.94c.21,0,.43-.1.59-.33.03-.04.05-.09.07-.13.97,1.25,1.88,2.55,2.7,3.91,3.53,5.87,5.66,12.42,8.28,18.71.42,1.01.87,2.01,1.33,3-.03.03-.06.07-.08.1-2.46-1.93-4.91-3.89-7.2-6.03-3-2.79-5.85-5.93-7.62-9.67,0-3.54.38-7.54,1.93-9.57Zm19.89,10.26c.1.1.19.19.28.29-.25.15-.43.41-.37.78.16,1.1-.09,2.25-.38,3.31-.39,1.42-.94,2.79-1.58,4.11-.89,1.85-2.04,3.92-3.6,5.39-1.16-2.57-2.19-5.2-3.22-7.82-2.41-6.15-4.93-12.33-8.99-17.61,5.26-1.07,14.87,8.61,17.87,11.55Zm12.79,20.55c-2.35,5.02-6.13,9.38-10.04,13.29-.97-2.66-1.96-5.31-3.01-7.94-1.4-3.5-2.97-6.91-4.6-10.31-.03-.06-.05-.12-.08-.18,1.95-1.64,3.33-4.16,4.4-6.38,1.06-2.2,2.18-4.88,2.09-7.42,5.19,5.76,7.62,12.17,11.25,18.94Zm13.84,20.01c2.2,3.5,4.09,7.24,5.76,11.13-.28,1-.6,2-.95,2.97-1.39,3.94-3.17,7.77-5.31,11.36-1.75,2.93-3.8,6.02-6.61,8.06-.84-1.74-1.68-3.48-2.51-5.22-2.35-4.97-4.62-9.99-6.74-15.07,5.86-5.11,8.21-12.68,12.23-19.12,1.44,1.93,2.85,3.87,4.12,5.9Zm17.36,46.52c2.22,6.84,5.09,13.25,8.18,19.55.02,2.78-1.55,5.52-2.92,7.84-1.61,2.72-3.62,5.43-4.65,8.46-2-3.97-4.03-7.93-6.08-11.88-1.93-3.71-3.87-7.42-5.81-11.13.06-.07.1-.15.14-.26,2.07-6.62,6.05-12.38,9.31-18.45.6,1.99,1.21,3.95,1.83,5.88Zm22.98,50.36c2.77,7.01,4.53,14.35,6.02,21.75-2.54,3.6-5.08,7.2-7.63,10.81-2.31-5.59-4.36-11.29-6.7-16.88-.59-1.4-1.19-2.8-1.8-4.19.09-.05.17-.12.24-.21,1.98-2.58,3.77-5.32,5.33-8.17,1.18-2.16,2.35-4.49,2.96-6.92.54,1.26,1.07,2.53,1.58,3.82Zm8.43,34.41c1.3,6.83-.54,15.95-.68,21.73-.09-.33-.17-.67-.26-1-1.91-6.59-4.85-12.81-7.61-19.08-.26-.59-.51-1.18-.76-1.78,2.44-3.46,4.88-6.92,7.33-10.38.68,3.5,1.32,7.02,1.98,10.51Z"/>
</svg>