<?xml version="1.0" encoding="UTF-8"?>
<svg id="_圖層_2" data-name="圖層 2" xmlns="http://www.w3.org/2000/svg" viewBox="0 0 1301.04 1160.86">
  <defs>
    <style>
      .cls-1 {
        fill: #d5d577;
        opacity: .3;
      }
    </style>
  </defs>
  <path class="cls-1" d="m1.28,504.59c-2.95-30.71-.72-60.11,5.78-88.04,6.5-27.93,17.28-54.38,31.42-79.2C175.94,128.1,442.3,61.24,671.57,8.38c264.74-58.66,462.34,201.84,562.4,434.62,59.19,135.24,90.37,282,46.38,418.22-28.46,100.93-162.36,61.77-251.87,72.54-42.88.76-83.57,3.51-115.36,14.78-36.77,9.02-73.15,18.78-109.11,29.81-35.97,11.03-71.53,23.32-106.58,37.49-35.05,14.17-69.6,30.2-103.41,48.01-91,61.9-201.27,142.46-310.57,65.54C106.24,1004.99,74.7,772.93,11.86,578.51c-5.36-24.75-9.04-49.36-10.58-73.92Z"/>
</svg>