<svg enable-background="new 0 0 569.71 1152.72" viewBox="0 0 569.71 1152.72" xmlns="http://www.w3.org/2000/svg"><path d="m354.63 65.05c-.11-5.07-9.58-26.44-11.46-30.65-5.98-14.28-32.39-34.4-72.42-34.4-42.29 0-53.46 40.72-53.46 62.25 0 20.85 25.39 71.68 28.85 78.52l-4.79 21.64c-16.44 14.03-39.05 32.69-43.52 34.04-.21 0-.49-.01-.82-.01-7.07 0-31.14 1-43.93 13.8-14.39 14.42-27.34 45.43-27.16 65.08.13 14.06-3.72 30.39-5.57 38.24-.53 2.25-.91 3.87-1.09 4.91-.91 5.43-9.89 41.37-15.04 49.51-5.1 8.07-14.76 25.65-22.19 52.65-3.9 14.16-20.83 113.45-23.59 134.98-1.31.35-14.39 4.09-26.85 18.92-10.38 12.38-31.59 40.35-31.59 40.35s8.79 9.8 21.26-6.39c0 0 12.36-11.4 14.62-11.4l-1.9 7.37c-.27.38-.51.78-.7 1.22l-22.16 51.48c-.99 2.32-.04 5.05 2.23 6.21 2.36 1.21 5.25.27 6.46-2.11l20.47-40.37c1.06.62 2.21 1.24 3.42 1.84l-11.7 48.96c-.58 2.45.82 4.99 3.26 5.74 2.53.78 5.22-.65 6-3.19l14.54-47.46c1.44.25 2.91.44 4.42.53l-7.62 42.75c-.44 2.48 1.11 4.93 3.58 5.54 2.58.63 5.18-.95 5.81-3.54l11.32-46.44c1.24-.4 2.49-.87 3.75-1.43l-3.18 35.97c-.19 2.17 1.34 4.14 3.5 4.46 2.25.33 4.34-1.23 4.67-3.49l6.86-47.15 5.76-25.63s3.72-9.03.89-20.19c5.36-11.94 55.45-121.52 58.84-134.94 1.14-4.53 7.65-30.87 8.6-35.12 1.26-5.62 11.86-31.37 19-45.04 1.41 8.69 3.42 21.64 5.17 35.04 5.48 41.89 3.77 51.58 2.78 53.8-5.22 11.71-6.2 35.31-6.84 50.92-.12 2.78-.22 5.18-.32 7.06-.2 3.39-1.74 12.78-3.7 24.67-4.61 28.02-11.55 70.25-10.35 91.47-.77 4.9-6.04 42.19.87 107.37 3.01 28.42 6.43 61.94 6.12 69.03-.02.38-1.56 38.6.05 48.57 1.37 8.46.73 24.45.11 39.91-.61 15.15-1.23 30.81-.14 41.43 1.09 10.57 6.69 44.42 12.11 77.15 4.95 29.92 10.56 63.81 10.62 67.82-.11.88-.3 1.92-.49 3.03-.85 4.85-1.98 11.32.33 16.51-1.85 12.42-4.49 26.63-5.82 29.48-.08.09-.16.19-.23.28l-13.74 18.83c-.29.4-.51.84-.65 1.31-1.52 5.17-.07 8.62 1.41 10.6 3.91 5.22 11.72 5.37 12.6 5.37h.1l45.68-1.06c.32-.01.64-.05.96-.13 4.78-1.22 13.69-7.4 13.21-22.09-.07-2.23-1.36-7.01-3.81-15.95-2.69-9.8-6.03-21.96-6.54-27.97.11-.5.56-1.68.89-2.56 1.96-5.15 5.23-13.77.72-23.38-2.91-6.27.27-62.58 1.8-71.03.13-.71.54-2.36 1.06-4.44 4.1-16.49 16.55-66.51 5.06-106.75.02-3.42.26-20.73 2.38-29.81 2.69-11.48 24.67-161.37 24.67-183.62v-42.15c1.93.35 4.24.63 6.75.63.21 0 .43 0 .64-.01.22 0 .43.01.64.01 2.51 0 4.81-.27 6.75-.63v42.15c0 22.25 21.98 172.14 24.67 183.62 2.13 9.08 2.36 26.39 2.38 29.81-11.49 40.24.96 90.26 5.06 106.75.52 2.09.93 3.74 1.06 4.44 1.53 8.45 4.71 64.76 1.8 71.03-4.51 9.61-1.24 18.23.72 23.38.33.88.78 2.06.89 2.56-.5 6.01-3.84 18.17-6.54 27.97-2.46 8.95-3.74 13.72-3.82 15.95-.48 14.68 8.43 20.87 13.21 22.09.31.08.63.12.96.13l45.68 1.06h.1c.88 0 8.69-.15 12.6-5.37 1.48-1.98 2.93-5.43 1.41-10.6-.14-.47-.36-.92-.65-1.31l-13.74-18.83c-.07-.1-.15-.19-.23-.28-1.33-2.85-3.98-17.06-5.82-29.48 2.32-5.19 1.18-11.66.34-16.51-.19-1.1-.38-2.15-.49-3.03.06-4.02 5.66-37.9 10.62-67.82 5.42-32.73 11.02-66.58 12.11-77.15 1.09-10.63.47-26.29-.14-41.44-.62-15.46-1.26-31.45.11-39.91 1.61-9.97.07-48.19.05-48.57-.31-7.09 3.11-40.61 6.12-69.03 6.91-65.17 1.64-102.46.87-107.37 1.22-21.44-5.15-64.13-9.39-92.45-1.7-11.38-3.04-20.38-3.24-23.69-.15-2.64-.21-6.33-.29-10.6-.26-15.4-.61-36.49-5.46-47.38-3.61-8.12.91-54.5 5.35-88.34 7.14 13.79 17.5 39 18.74 44.55.96 4.26 7.46 30.6 8.61 35.12 3.14 12.46 48.77 111.57 58.49 132.02-4.37 12.46.02 23.11.02 23.11l5.76 25.63 6.86 47.15c.33 2.26 2.42 3.82 4.67 3.49 2.17-.32 3.69-2.29 3.5-4.46l-3.18-35.97c1.26.56 2.51 1.03 3.75 1.43l11.32 46.44c.63 2.59 3.23 4.17 5.81 3.54 2.47-.61 4.02-3.06 3.58-5.54l-7.62-42.75c1.51-.09 2.99-.27 4.42-.53l14.54 47.46c.78 2.55 3.47 3.98 6 3.19 2.43-.75 3.84-3.29 3.26-5.74l-11.68-48.95c1.22-.6 2.36-1.22 3.43-1.84l20.47 40.37c1.2 2.37 4.1 3.32 6.46 2.11 2.27-1.16 3.22-3.9 2.23-6.21l-22.16-51.48c-.19-.44-.43-.85-.7-1.22l-1.9-7.37c2.26 0 14.62 11.4 14.62 11.4 12.47 16.2 21.26 10.54 21.26 10.54s-21.21-32.11-31.6-44.49c-10.65-12.68-21.75-17.25-25.57-18.54-2.59-20.66-19.72-121.11-23.64-135.37-7.43-27-17.09-44.57-22.19-52.65-5.15-8.15-14.13-44.08-15.04-49.51-.17-1.03-.56-2.66-1.09-4.91-1.85-7.85-5.7-24.18-5.57-38.24.18-19.64-12.76-50.66-27.16-65.08-12.79-12.81-36.86-13.8-43.93-13.8-.36 0-.65 0-.87.01-4.31-1.13-27.94-16.6-45.93-30.04l-1.03-10.96c3.81-.11 9.12-.21 15.49-.21 4.65 0 8.08-1.55 10.18-4.62 3.38-4.93 2.07-12.51.93-16.23l4.87-4.46c.08-.1.15-.2.22-.31.86-1.52.69-3.45-.5-4.88l-1.88-2.06 3.73-3.18c1.15-1.08 1.61-2.7 1.2-4.23l-1.42-6.62 5.47-.9c.11-.02.21-.04.31-.08 2.75-.89 4.44-2.35 5.03-4.31.83-2.75-.98-5.12-1.12-5.29-7.3-10.29-15.04-22.13-16.14-25.22 2.3-3.63 2.21-7.12 2.17-7.81z" fill="#fff"/></svg>