<?xml version="1.0" encoding="UTF-8"?>
<svg id="_圖層_2" data-name="圖層 2" xmlns="http://www.w3.org/2000/svg" viewBox="0 0 284.3 84.69">
  <defs>
    <style>
      .cls-1 {
        fill: #1f2144;
      }
    </style>
  </defs>
  <path class="cls-1" d="m8.55,59.68c3.09,9.37,2,16.47-.55,19.83-1.82,2.37-6.1,2.73-7.46.09-1.27-2.37-.18-4.82,1.91-6.46,2.46-2.37,5.09-8.37,4.55-13.46h1.55ZM.54,48.12s2.18-.45,3-1c4.91-3.55,10.73-10.28,15.65-17.1-3.64,1.27-8.01,2.73-12.55,4.09-.73,1.09-1.55,1.82-2.37,2.18L.27,26.38s1.91-.36,2.64-.91C8.28,20.47,15.19,7.28,17.47.18l10.73,5.73c-.36.82-1.46,1.36-3.18,1.18-4.18,6-11.46,14.01-18.01,19.47,4,.09,9.28,0,14.65-.09,2.37-3.64,4.37-7,5.64-9.73l9.82,6.64c-.46.73-1.73,1.36-3.55,1-5.37,7-15.83,17.01-25.2,23.65,5.09-.27,12.01-.73,19.2-1.36-1.09-3.37-2.55-6.64-3.91-9.1l1.09-.45c17.56,9.19,10.46,22.38,4.28,16.74-.09-1.55-.36-3.18-.82-4.82-5.46,1.91-13.19,4.55-21.65,7-.73,1-1.55,1.64-2.37,2l-3.64-9.92Zm16.19,9.92c13.65,11.92,4.73,24.38-.64,17.47,1-5.55.36-12.46-.64-17.19l1.27-.27Zm9.37-1.82c17.19,8.37,9.73,21.74,3.64,15.83.09-5.09-2.27-11.28-4.73-15.28l1.09-.55Zm48.4-14.01l-.91,35.11h.82l3.73-5.82s4.28,4.18,6.55,7c-.18,1-1.09,1.46-2.27,1.46H30.66l-.73-2.64h13.74c1.09-9.46,2.18-22.38,3.09-35.11h-11.83l-.73-2.64h12.74c.73-10.19,1.36-20.2,1.64-28.11h-11.37l-.82-2.64h29.93l4-5.09,8.46,7.46c-.73.82-1.64,1.27-3.55,1.55l-.64,26.75,3.82-5.73s4.28,4.09,6.82,7c-.27,1-1.09,1.46-2.37,1.46h-8.37Zm-8.01,0h-11.74c-1,12.83-2.09,25.65-3.18,35.11h14.01l.91-35.11Zm-9.73-30.75c-.45,8.01-1,17.92-1.82,28.11h11.64l.64-28.11h-10.46Z"/>
  <path class="cls-1" d="m173.76,69.14s5.82,4.64,9.28,8.01c-.27,1-1.18,1.46-2.46,1.46h-57.22v3.46c0,.64-2.73,2.64-7.01,2.64h-1.64v-39.12c-4.28,4-8.73,7.46-13.28,10.1l-1.09-.91c7.82-7.73,16.28-20.65,21.29-34.3l11.74,4.18c-.36,1-1.46,1.82-3.46,1.64-1.64,2.73-3.37,5.37-5.19,7.91h40.57l5-6.55s5.55,4.46,9.01,7.64c-.27,1-1.18,1.46-2.46,1.46h-25.65v11.01h11.73l4.82-6.28s5.28,4.28,8.64,7.46c-.27,1-1.18,1.46-2.46,1.46h-22.74v11.01h11.73l4.82-6.28s5.37,4.28,8.64,7.46c-.18,1-1.18,1.46-2.37,1.46h-22.83v11.92h17.47l5.09-6.82Zm-57.59-45.21l-8.73-5.28c.55-.73,1.36-1.55,2.27-2.18V3.64l11.83,1.55c-.18,1-1,1.73-3.46,2.09v9.82h19.83V.09l11.83,1c-.18,1.27-.91,2.18-3.37,2.55v13.46h19.83V3.73l12.01,1.09c-.27,1.27-1,2.18-3.37,2.55v14.37c0,.64-3.82,1.82-7.1,1.82h-1.55v-3.82h-47.49l-2.55,4.18Zm26.2,12.83h-19.01v11.01h19.01v-11.01Zm0,13.65h-19.01v11.01h19.01v-11.01Zm-19.01,25.56h19.01v-11.92h-19.01v11.92Zm15.47-55.4c20.83,2.73,13.65,17.65,5.73,12.28-.91-4.09-4-8.82-6.55-11.74l.82-.55Z"/>
  <path class="cls-1" d="m216.71,12.28h-15.46l-.73-2.64h15.83l-1.18-9.55,11.28.82c-.09,1.09-.73,2.09-2.64,2.55l.82,6.19h5.28l4.37-6s5.19,4.18,8.1,7.19c-.18,1-1.09,1.46-2.27,1.46h-15.1l1,7.1c-1.18,1.64-4.28,2.37-8.1,2.27l-1.18-9.37Zm54.13,23.02c-.36.82-1,1.46-3.18,1.46-1,2.09-2.09,4.28-3.55,6.55,18.92,4.55,13.65,18.74,6.37,13.92-.82-4.18-4.28-8.73-7.73-12.1-2.82,3.82-6.37,7.55-10.55,10.19,7.82,8.37,19.01,14.46,30.38,17.1l-.18,1c-3.46.82-6.1,3.64-7.1,8.01-13.1-5.55-22.74-14.92-28.84-28.75v29.11c0,.91-3.82,2.91-7.01,2.91h-1.64v-24.93c-8.92,9.1-21.56,17.19-35.21,22.2l-.73-1.36c14.83-7.73,28.84-22.02,35.93-37.3v-13.92h-32.39l-.73-2.64h33.11v-10.64l11.55,1.18c-.18,1.18-.82,2-2.91,2.37v7.1h19.56l5-6.55s5.73,4.55,9.01,7.73c-.27,1-1.18,1.46-2.37,1.46h-31.2v18.28c1.27,2.18,2.82,4.28,4.55,6.28,4.64-6.28,7.46-15.65,8.46-22.47l11.37,3.82Zm-40.85-.45c-.36,1-1.09,1.46-3.18,1.55-.73,1.91-1.73,3.82-2.73,5.82,13.92,5.55,7.28,16.1,1.36,11.1-.27-2.55-1.55-5.46-3.18-8.1-3.64,5.82-8.82,11.37-15.37,14.92l-.82-1.18c6.91-7.1,10.83-18.65,12.28-27.56l11.64,3.46Zm46.21-31.2s5.09,4.18,8.1,7.19c-.18,1-1.09,1.46-2.37,1.46h-17.1l-1.27,7.64c-1.64,1.27-4.91,1.73-8.46,1l1.36-8.64h-11.19l-.73-2.64h12.28l1.55-9.64,11.19,2.09c-.27,1.18-1.09,2.18-3.46,2.27l-.82,5.28h6.46l4.46-6Z"/>
</svg>