<?xml version="1.0" encoding="UTF-8"?>
<svg id="_圖層_2" data-name="圖層 2" xmlns="http://www.w3.org/2000/svg" viewBox="0 0 498.73 359.49">
  <defs>
    <style>
      .cls-1 {
        fill: #006837;
      }

      .cls-2 {
        fill: #006d46;
      }

      .cls-3 {
        fill: #1f2144;
      }
    </style>
  </defs>
  <path class="cls-1" d="m223.2,664.18c-2.99,2.19-5.92,4.58-8.75,7.61-8.78,9.43-10.95,15.31-9.67,28.68.92,9.61,1.09,20.43,6.69,27.53.04.5.36.99.96,1.13.96,1.03,2.05,1.97,3.31,2.8,10.14,6.65,9.05,11.68,13.1,22.68,3.81,10.35,10.41,18.14,19.02,24.51,4.82,3.56,10.7,6.49,14.23,11.49,4.44,6.29,5.09,12.61,11.04,18.35,12.82,12.35,27.65,25.62,43.24,34.19,16.46,9.05,35.13,9.8,52.82,14.72.29.19.59.39.88.58.44.29.89.24,1.23.02,6.5,1.95,12.85,4.52,18.9,8.37,1.42,3.78,3.78,7.27,5.36,11.04-13.3-.33-25.84-3.05-38.94-5.71-13.66-2.77-27.36-2.99-41.24-3.3-12.88-.29-25.77-.53-38.64-1.03-48.85-1.92-98.8-8.59-141-34.57-.43-2.78-2.67-5.28-6.14-4.51-.66.29-1.32.31-2.01.06-5.23-.76-7.83,7.06-3.35,9.72,5.75,3.42,11.66,6.55,17.7,9.42,47.3,22.45,100.09,25.16,151.56,26.1,13.06.24,26.13.33,39.19.64,14.56.35,28.72,3.61,42.95,6.42,7.2,1.42,14.42,2.19,21.75,2.5,7.2.3,14.4-.03,21.59.63,14.19,1.3,28.35,3.19,42.61,3.48,13.76.29,27.66.07,41.37-1.06,15.6-1.28,31.06-4.28,46.55-6.49,15.87-2.27,31.79-5.1,47.74-6.75,14.05-1.46,28.9-1.09,42.48-5.4,27.65-8.77,49.96-28.19,76.97-38.15,14.39-5.31,29.25-8.51,44.1-12.19,13.45-3.33,26.14-9.55,38.41-15.86,13.59-7,27.04-14.48,41.27-20.15,14.35-5.71,28.64-11,42.28-18.31,13.34-7.14,26.47-14.31,40.46-20.13,12.11-5.03,21.03-12.63,28.67-23.21.13-.19.22-.38.27-.58,5.68-6.64,10.89-13.99,16.77-19.58,12.53-11.94,28.99-14.32,42.72-24.23,12.91-9.32,17.5-24.54,28.73-35.32,10.34-9.94,30.8-14.32,38.66-25.83,10.21-14.94,5.55-37.92,5.37-54.25-.22-19.15,12.84-37.82,9.77-55.79-2.83-16.56-13.5-27.08-11.39-46.28,2.35-21.5,4.47-41.99,6.05-63.78,1.23-16.93,5.58-33.56,5.26-50.55-.2-10.72-4.21-26.51,1.03-36.12,8.28-15.2,35.36-26.33,37.55-44.74-5.45,1.8-11.09,3.13-16.83,4.22,2.89-.12,5.66-.09,8.27.1,0,.08,0,.17,0,.25-2.71,1.9-5.59,3.52-8.6,4.92-7.66,3.55-15.84,5.81-23.49,9.37-7,3.26-13.51,7.5-19.01,12.95-6.01,5.96-10.51,12.99-15.04,20.09-4.55,7.14-9.34,14.11-13.73,21.35-4.32,7.12-8.23,14.52-11.15,22.33-3.1,8.3-5.87,16.75-8.8,25.12-5.71,16.28-11.27,32.73-14.3,49.76-2.74,15.42-3.36,31.11-2.56,46.73.41,7.97,1.4,15.89,1.14,23.87-.25,7.59-1.34,15.12-2.83,22.56-1.56,7.77-3.77,15.33-3.86,23.31-.08,7.03,1.01,13.99,2.25,20.89,1.35,7.52,2.87,15.06,3.19,22.72.32,7.84-.98,15.63-3.05,23.17-2.04,7.44-4.77,14.67-7.29,21.96-2.79,8.05-5.99,15.91-9.93,23.47-3.91,7.48-8.37,14.59-13.42,21.35-1.96,2.62-3.94,5.22-5.85,7.87,2.86-4.87,5.13-10.04,5.92-16.01.12-.15.21-.34.25-.56.48-2.86,1.47-5.6,2.57-8.28,2.24-5.45,4.93-10.76,5.92-16.62,1.14-6.71,1.08-13.76.74-20.53-.69-13.69-3.73-27.18-6.3-40.61-2.62-13.75-5.17-27.52-6.57-41.46-1.34-13.35-1.47-26.71-.05-40.06,2.77-26.03,10.27-51.28,18.3-76.1,4.37-13.49,9.75-26.48,16.07-39.18,6.25-12.55,13.09-24.8,19.5-37.27,3.17-6.16,6.29-12.37,9.09-18.7,2.79-6.32,4.94-12.9,7.41-19.35,2.5-6.56,5.35-12.97,9.48-18.68,3.92-5.42,8.57-10.24,12.75-15.44,7.99-4.75,18.17-8.73,28.59-11.44-11.32,1.73-22.53,3.83-32.93,8.03-15.83,6.39-22.72,20.62-33.69,33.3-12.9,14.91-29.74,21.92-43.85,35.55-13.7,13.24-17.16,31.52-26.16,47.95-6.98,12.76-19,27.39-22.46,41.85-3.67,15.35.58,31.9-2.36,47.94-3.4,18.54-3.74,31.02,3.7,48.41,6.58,15.39,11.65,24.69,9.5,42.12-1.79,14.53-5.15,19.61.8,35.08,3.73,9.7,9.75,16.55,14.26,25.38,7.52,14.73,11.28,32.84,7.51,48.82-2.18,9.26-14.12,24.3-20.81,35.73-3.06,2.98-6.35,5.67-10.06,7.89,1.94-2.52,3.63-5.24,5.14-7.76,4.16-6.94,7.62-14.33,12.34-20.92,4.9-6.82,7.41-15.03,7.12-23.05.73.29,1.13-.36.98-2.47-.49-.92-1.03-1.85-1.6-2.79-1.22-6.15-4.21-11.97-9.19-16.71-.75-.71-1.59-1.02-2.39-1.02-2.79-4.77-4.97-9.61-5.49-14.39-.92-8.42,1.4-13.7-2.15-22.18-3.63-8.68-4.24-15.52-5-24.98-.69-8.63-4.04-15.78-7.01-23.84-3.87-10.49-5.1-13.69-15.55-17.81-9.27-3.66-11.3-5.49-16.77-13.44-5.37-7.8-13.09-11.54-21.46-15.2-8.86-3.88-11.42-1.42-20.02-.29-5.26.69-10.24-.42-15.1-2.06-.05-.05-.1-.09-.15-.14-.35-.35-.78-.42-1.17-.31-4.01-1.43-7.94-3.14-11.89-4.42-9.93-3.22-16.31-2.34-26.92-1.52-4.37.34-18.78-3-21.22.68-3.51,5.28,4.59,6.93,5.8,10.32,1.73,4.78-.98,4.03-3.29,8.01-4.58,7.9-3.8,19.81-1.11,28.64,1.84,6,4.95,8.62,9.22,12.75,5.38,5.2,7.37,9.24,10.46,16.11,7.18,15.93,23.6,24.69,39.55,30.62,12.29,4.56,24.71,5.75,37.01,10.08,12.64,4.46,27.3,6.12,39.4,11.03,7.73,3.13,12.94,11.15,21.18,13.76,3.96,1.26,6.16,1,8.37,1.89.02.64.25,1.32.75,1.98,4.53,5.98,8.93,12.02,9.11,19.84.18,7.48-3.04,13.9-6.4,20.36-3.41,6.56-6.27,13.36-10.03,19.75-2.88,4.89-6.33,10.62-11.32,13.76-2.97,1.2-6,2.28-8.99,3.41-7.06,2.67-13.76,5.96-20.33,9.67-12.86,7.27-25.28,15.14-38.83,21.1-13.92,6.12-27.94,12.12-41.73,18.54-2.18,1.01-4.32,2.09-6.45,3.19,1.24-4.79,1.53-9.81,1.55-14.89.01-4.15-1.15-8.24-1.95-12.27-.7-3.53-2-7.89-5.04-10.08-.54-.39-1.13-.51-1.69-.43-2.84-6.34-6.93-12.09-8.64-18.5.02-.29-.04-.6-.22-.85-.86-3.7-.89-7.62.6-12.02,2.42-7.16,7.73-11.75,6.11-19.85-1.06-5.28-5.09-12.79-8.53-16.87-2.06-2.43-4.87-4.28-7.49-6-4.4-2.89-5.5-3.42-9.23-7.39-6.2-6.58-12.39-11.36-17.24-18.87-7.36-11.42-17.75-23.07-26.78-33.34-7.53-8.55-15.98-13.38-18.36-25.2-1.82-9.06,2.71-17.28-.73-26.43-3.93-10.45-13.5-21.55-8.47-33.12,5.13-11.83,12.86-19.08,9.26-33.74-4.05-16.51-15.64,3.91-19.09,11.87-5.35,12.31-9.64,25.64-5.86,38.82,1.43,5,4.17,9.59,4.91,14.88.85,6.01-.41,12.24.24,18.39.88,8.2,2.27,15.99,2.3,24.31.04,13.3,5.37,23.73,7.15,36.52,1.33,9.59.27,19.23,3.18,28.74,2.57,8.39,7.56,16.44,11.55,24.22,6.39,12.42,14.67,22.16,25.93,30.62,6.84,5.15,16.42,8.25,24.78,10.2,7.41,1.72,14.38.85,20.8,5.29,2.35,1.63,7.54,6.51,11.53,10.86-.01.17,0,.35.02.53.47,3.13,2.84,6.2,4.32,8.97,1.71,3.23,2.32,6.83,2.97,10.38,1.08,5.89.42,11.87-1.79,17.36-9.32,5.09-18.36,10.69-27.96,15.21-13.68,6.45-28.23,8.96-42.84,12.38-14.13,3.3-27.59,7.91-41.01,13.38-6.41,2.61-12.25,6.36-18.26,9.77-6.09,3.45-12.24,6.78-18.49,9.93-3.82,1.93-7.66,3.71-11.55,5.3,1.32-5.04,1.36-10.74.81-15.48.56-.4.8-1.21.26-1.72.62-2.93,1.58-5.7,3.42-8.17,3.05-4.09,6.68-5.46,8.56-10.7,2.28-6.37,1.63-13.8,3.16-20.42,1.62-7.02,4.84-13.53,6.02-20.55,1.98-11.79-2.58-28.14-9.48-37.89-3.03-4.29-6.82-6.91-9.61-11.42-3.4-5.51-5.96-11.72-9.98-16.71-8.74-10.84-24.55-13.03-34.66-22.7-9.55-9.12-18.56-12.24-29.61-14.45-1.97-.39-4-.76-6.11-1.13-1.65-.29-3.35-.57-5.11-.88-6.25-1.07-13.87-.94-19.83-3.11-8.39-3.06-15.49-9.04-24.43-11.49-8.93-2.45-17.82-1.01-27.05-1.44-9.53-.44-20.16-2.15-29.45-4.43-8.16-2.01-16.44-6.82-25.15-4.45-12.64,3.43-16.94,14.39-20.99,24.96-1.66,4.35-4.17,8.29-6.83,12.16-1.09,1.2-2.12,2.44-3.07,3.75-.24.33-.27.66-.18.95-2.17,3.15-4.26,6.35-5.9,9.78-4.24,8.88-7.21,19.24-12.53,27.32,6.99-6.22,11.44-11.87,19.37-16.95,8.95-5.73,14.6-5.42,25.22-7.11,10.3-1.64,22.13-1.99,32.16-4.51,6.46-1.63,14.43-6.98,21.92-7.95,1.32-.18,2.63-.21,3.91-.06,1.32.15,2.61.49,3.86,1.08,4.28,2,5.6,5.78,9.77,7.94,7.52,3.91,8.07-.19,10.15,10.41,3.25,16.62,16.53,25.55,30.91,33.81,11.51,6.61,17.79,16.21,27.72,24.72,11.65,9.98,26.38,14.07,38.4,22.72,6.7,4.83,11.61,9.74,13.65,17.62,1.39,5.35.48,12.34,3.84,17.18,4.48,6.41,14.28,9.28,15.19,18.05.08,2.17-.06,4.38-.73,6.35-1.01,2.96-3.15,5.11-4.82,7.65-6.84,2.33-13.88,4.03-21.26,4.84-7.07.78-14.17,1.19-21.23,2.02-7.81.92-15.57,2.4-23.34,3.63-15.67,2.46-31.37,4.76-47.02,7.36-14.4,2.39-28.87,4.51-43.5,4.66-13.7.15-27.52-1.13-41.16-2.17-13.97-1.06-27.84-2.6-41.87-2.48-.16,0-.31,0-.46,0-1.04-3.04-2.57-5.9-4.03-8.78-.98-7.9-4.62-15.6-6.27-23.42-.03-1.16-.26-2.3-.61-3.41-.13-.41-.27-.82-.43-1.22-1.21-4.53-2.78-8.67-2.26-13.74.46-4.51,2.41-8.35,4.27-12.25.54-.21.91-.74.63-1.35.86-1.86,1.66-3.74,2.23-5.74,2.85-9.92-1.53-16.2-3.47-25.69-1.7-8.38-1.53-16.66-3.77-25.07-2.8-10.51-5.63-25.18-11.71-34.17-4.2-6.2-12.61-7.95-17.48-14.12-5.23-6.62-8.47-14.03-14.4-20.36-12.83-13.69-32.12-19.44-49.74-25.35-8.2-2.76-15.71-.08-24.11-3.29-3.23-1.23-5.97-1.97-8.07-4.8-.8-1.07-1.19-2.02-1.38-2.92,0-.11-.03-.22-.07-.32-.39-2.25.36-4.2-1-6.9-4.38-8.75-9.96-2.14-14.89,3.75.21-.24.44-.47.67-.71,2.4-2.46,6.64-6.59,10.61-3.69,1.4,1.02,2.11,4.07,2.81,6.89-.09.08-.18.19-.25.33-.54,1.03-.89,2.09-1.09,3.24-.97,5.41,1.02,11.32,3.04,16.27,2.15,5.26,4.96,10,8.6,14.35,11.8,14.09,26.35,25.5,39.73,37.99,6.8,6.35,13.14,13.1,19.2,20.15,5.99,6.97,11.72,14.18,17.83,21.05,5.26,5.91,10.89,11.51,15.8,17.73,2.43,3.08,4.68,6.31,6.51,9.78,1.87,3.54,2.99,7.23,4.03,11.08,2.15,7.99,4.21,16.04,7.58,23.63,1.62,3.63,3.64,6.99,5.62,10.42.46.79.93,1.63,1.36,2.49.48,2.07,1.12,4.15,1.79,6.24,0,.22.01.44,0,.67-.04.53.21.89.57,1.08,1.34,4.1,2.67,8.19,3.09,12.14-.85-.99-1.7-1.99-2.54-2.99-2.79-3.37-5.4-6.9-7.41-10.79-1.88-3.65-3.22-7.53-4.67-11.35-1.51-4-3.28-7.75-5.66-11.3-2.41-3.6-5.21-6.92-7.91-10.3-5.39-6.73-9.96-14.01-14.17-21.53-4.24-7.57-8.1-15.39-12.63-22.79-9.22-15.09-22.09-27.17-33.83-40.22-5.83-6.48-11.71-12.96-18.47-18.49-6.35-5.19-13.82-8.65-20.4-13.52-3.32-2.46-6.43-5.35-8.51-8.96-1.99-3.45-3.22-7.27-4.74-10.93-1.57-3.77-3.75-7.15-5.97-10.56-2.2-3.38-4.34-6.86-5.33-10.81-.09-.35-.29-.59-.53-.74.32-.36.64-.72.97-1.08-.12.11-.25.22-.37.33-.27.23-.54.44-.81.66-.79-.29-1.85.23-1.59,1.26-3.55,2.73-7.08,5.01-10.54,7.46-.5-.07-1.03.14-1.25.75-.02.07-.04.13-.07.2Zm360.82,25.39c6.07,3.65,11.72,7.89,17.64,11.76,12.42,8.12,27.24,15.24,33.14,29.82,2.69,6.65,4.34,13.75,9.12,19.33,2.05,2.39,4.16,4.73,5.67,7.52,1.43,2.63,2.23,5.48,2.61,8.45.46,3.57.2,7.09-.21,10.64-.4,3.55-.63,7-.56,10.57.06,3.51-.04,7.04-.5,10.52-.45,3.43-1.32,6.76-2.4,10.04-1.75,5.36-4.13,10.54-5.37,16.05-.94,4.17-1,8.28-.28,12.36-3.43-4.6-4.34-10.9-4.71-16.46-.44-6.64-.34-13.3-.43-19.94-.09-6.62-.32-13.26-1.38-19.8-1.08-6.67-3.19-13.01-6.46-18.92-6.66-12.02-16.64-21.77-25.27-32.34-9.35-11.46-18.35-23.33-29.79-32.84-2.37-1.97-4.9-3.74-7.31-5.66-2.07-1.65-4.09-3.35-6.17-4.98-2.32-1.83-4.84-3.84-7.58-5.28,2.53-.24,5.05-.53,7.56-.87,1.19.3,2.37.63,3.54,1,6.74,2.15,13.08,5.38,19.13,9.02Zm48.6,129.86c.02-.18,0-.37-.09-.56-.54-1.34-1.01-2.71-1.39-4.11-1.57-5.7-2.05-11.62-3.28-17.39-1.22-5.73-3.37-11.22-5.98-16.46-5.28-10.6-12.44-20.31-20.52-28.94-9.14-9.76-19.3-18.52-29.4-27.26-10.11-8.75-20.25-17.52-29.39-27.31-3.37-3.61-6.63-7.3-10.32-10.6-2.12-1.89-4.45-3.85-7-5.31.5,0,.99.02,1.49.02,3.83,0,7.66-.05,11.49-.16,3.32-.1,6.64-.25,9.96-.47.1.05.21.09.34.11.95.16,1.87.5,2.75.9,4.7,2.09,8.74,5.73,12.69,8.95,4.87,3.98,9.99,7.59,14.56,11.93,10.65,10.1,19.17,22.09,28.67,33.21,8.7,10.19,18.37,20.13,23.53,32.73,5.07,12.37,4.61,26.23,4.72,39.36.06,6.23-.02,12.63,1.14,18.77.12.65.26,1.3.41,1.96-1.6-2.94-2.99-5.98-4.39-9.35Zm-24.4-34.22c-2.8-4.96-6.08-9.69-9.72-14.06-4.25-5.09-9.1-9.72-14.02-14.15-4.48-4.04-9.22-7.68-14.01-11.33-4.82-3.68-9.67-7.65-12.91-12.86-1.53-2.46-2.62-5.18-3.91-7.77-1.11-2.23-2.28-4.43-3.62-6.52-2.7-4.23-6.08-7.83-10.12-10.81-3.48-2.57-7.3-4.75-10.99-7.01-3.75-2.29-7.54-4.52-11.46-6.51-6.07-3.09-12.98-6.17-19.96-6.33,5.57-3.3,11.64-5.63,18.12-6.24,1.21-.11,2.43-.15,3.64-.17.13.16.32.29.59.36.96.24,1.89.58,2.78,1.01,4.26,2.03,7.91,5.43,11.22,8.73,3.79,3.78,7.27,7.85,11.03,11.65,9.29,9.39,19.39,17.93,29.36,26.59,9.83,8.53,19.69,17.19,28.29,26.99,7.76,8.84,14.6,18.71,19.26,29.54,2.31,5.37,3.75,10.85,4.69,16.6.19,1.18.38,2.37.58,3.56-4.71-9.32-10.4-15.73-18.83-21.26Zm-112.98-94.91c3.98-.33,8,.62,11.73,1.91,4.54,1.56,8.86,3.7,13.06,6.03,3.56,1.97,7.04,4.1,10.5,6.25,4,2.48,8.1,4.85,11.56,8.08,3.43,3.21,6.04,7.05,8.23,11.18,1.29,2.44,2.43,4.96,3.64,7.44,1.3,2.66,3,5.13,4.95,7.35,3.85,4.39,8.6,7.87,13.24,11.37,4.86,3.66,9.49,7.58,13.91,11.76,4.13,3.91,8.19,7.94,11.75,12.39,2.18,2.73,4.22,5.57,6.09,8.53-1.44-.82-2.93-1.63-4.52-2.43-16.44-8.29-28.86-18.85-42.93-30.24-9.24-7.49-20.92-10.16-27.99-19.98-5.96-8.29-5.99-17.45-10.74-25.48-3.05-5.16-12.04-8.69-18.19-12.12-1.66-.93-3.06-1.59-4.29-2.02Zm-85.6.84c.06-.12.12-.24.18-.35,2.67-3.27,5.88-6.1,9.14-8.76,3.57-2.91,7.29-5.61,10.97-8.38,3.48-2.62,6.79-5.53,10.65-7.6,3.95-2.12,8.32-3.04,12.54-4.46,4.04-1.36,8.12-2.86,12.41-3.18.45-.03.73-.27.86-.57,2.61.92,5.23,1.8,7.82,2.5-5.31,2.07-10.43,4.61-15.5,7.21-5.95,3.05-11.88,6.06-17.97,8.82-3,1.36-5.96,2.81-8.69,4.66-2.93,1.97-5.13,4.43-7.38,7.11-4.53,5.41-10.56,9.32-15.45,14.38-4.91,5.07-9.7,10.26-14.18,15.71,2.74-9.37,10.08-18.48,14.61-27.08Zm38.57-38.43c-4.18.93-8.28,2.31-12.2,4-3.28,1.41-6.51,3.07-9.51,5.06,1.73-1.93,3.63-3.69,5.75-5.21,5.09-3.67,10.46-4.46,15.96-3.85Zm14.2,3.72c-3.93.7-7.73,2.17-11.5,3.41-2.14.7-4.33,1.21-6.45,1.93-2.2.75-4.31,1.74-6.31,2.94-3.92,2.35-7.41,5.39-11.06,8.12-4.6,3.43-9.41,6.86-13.69,10.79,2.52-5.2,5.09-10.53,8.22-15.36.29.05.61-.03.9-.3,4.16-3.96,9.27-6.84,14.52-9.1,5.27-2.26,10.83-3.93,16.52-4.69.28-.04.5-.15.65-.31,2.72.71,5.46,1.62,8.21,2.58Zm47.46,6.11c-5.16,1.05-10.38,1.87-15.52,3.04-6.22,1.41-12.35,3.41-17.85,6.69-6.46,3.85-13.11,7.27-19.83,10.64-5.09,2.55-10.23,5.07-15.22,7.82-2.4,1.32-4.77,2.74-6.95,4.41-1.82,1.39-3.64,3.04-4.72,5.1,0,0,0,0,0,.01-3.64.85-7.28,1.94-11.01,3.33-4.8,1.79-14.49,10.61-20.23,14.1,1.94-2.3,3.93-4.54,5.97-6.76,2.7-2.94,5.41-5.92,8.32-8.65,2.54-2.38,5.25-4.57,7.86-6.87,2.58-2.27,4.91-4.69,7.07-7.35,4.23-5.23,10.41-7.95,16.4-10.63,11.51-5.15,22.28-12.1,34.27-16.13,1.26.23,2.52.4,3.77.49,9.19.63,18.6-.11,27.66.77Zm17.59,4.89c.85.45,1.69.87,2.52,1.28-4.85,1.05-9.81,1.58-14.74,2.1-5.12.54-10.26,1.06-15.3,2.13-5.33,1.14-10.44,2.96-15.19,5.65-9.63,5.45-17.63,13.4-27.35,18.68-2.56.16-5.08.27-7.51.38-5.8.25-11.28.82-16.7,1.87,1.14-1.3,2.55-2.39,3.94-3.38,2.46-1.74,5.13-3.2,7.8-4.59,5.25-2.73,10.53-5.39,15.82-8.04,3.27-1.64,6.55-3.29,9.76-5.05,3.16-1.72,6.17-3.72,9.36-5.37,11.18-5.81,23.95-6.42,35.96-9.48.13-.03.24-.09.34-.15,3.87.79,7.64,2.02,11.28,3.96Zm31.67,10.05c-.7.09-1.39.17-2.08.25-7.57.86-15.19,1.22-22.81,1.35-3.83.07-7.68.08-11.51.05-3.63-.03-7.23-.04-10.83.61-7.97,1.44-14.95,5.25-21.39,9.93-2.59.31-5.05,1.74-9.34,3.35-5.68,2.14-12.08,3.21-18.45,3.83,3.42-2.2,6.69-4.66,9.94-7.11,4.71-3.54,9.44-7.12,14.67-9.87,4.68-2.46,9.7-4,14.89-4.97,10.15-1.9,20.6-1.84,30.63-4.44.19-.05.34-.13.47-.23,8.71,3.74,16.81,5.33,25.82,7.24Zm86.13,159.19c-.06-.32-.15-.64-.2-.97-.93-5.54.16-10.91,1.95-16.15,1.99-5.83,4.43-11.5,5.67-17.56.72-3.51,1.05-7.08,1.11-10.66.07-3.54-.16-7.05.18-10.59.35-3.58.94-7.15.86-10.76-.07-3.29-.56-6.6-1.65-9.72-.97-2.75-2.51-5.25-4.29-7.55-2.2-2.85-4.71-5.33-6.42-8.54-3.44-6.46-4.65-13.86-8.66-20.06-8.35-12.93-23.31-19.34-35.48-27.93-8.82-6.22-18.13-12.36-28.26-16.31,6.03,1.17,12.49,2.03,17.99,4.74,5.83,2.86,8.67,7.73,14.3,11.2,11.3,6.98,24.59,10.04,33.58,20.5,7.41,8.61,12.16,18.34,17.13,28.34,6.05,12.23,15.44,18.77,12.24,33.34-1.41,6.39-4.58,12.01-5.68,18.29-1.14,6.52.62,14.39-1.52,20.64-1.86,5.5-5.84,6.47-8.77,10.36-2.13,2.83-2.81,6.22-4.1,9.38Zm58.15-207.47c.79,1.77,1.54,3.57,2.21,5.39,2.03,5.44,3.37,11.11,4.9,16.71,2.79,10.26,5.72,20.52,9.64,30.42,3.29,8.31,7.41,16.24,12.3,23.72,4.71,7.22,10.1,14.06,16.49,19.87,2.98,2.71,6.19,5.21,9.63,7.31-7.94-2.25-14.97-5.77-21.53-12.52-16.16-16.64-29.4-40.16-30.75-63.47-.56-9.79-1.02-18.26-2.89-27.42Zm4.56-132.67c-1.16,1.77-2.26,3.58-3.29,5.43-8.27,14.93-10.82,32.26-9.31,49.14.43,4.76,1.2,9.5,2.45,14.12,1.2,4.44,2.73,8.78,3.89,13.23,1.16,4.41,1.75,8.82,1.73,13.38-.02,4.34-.33,8.67-.05,13.01.3,4.71,1.5,9.34,2.83,13.85,1.37,4.65,2.99,9.23,4.69,13.77,3.36,9,6.75,18.03,10.76,26.77,2,4.37,4.18,8.66,6.58,12.82,2.53,4.37,5.37,8.55,8.15,12.76,5.77,8.74,11.58,17.5,18.19,25.63,6.19,7.62,14.42,13.06,22.25,18.83,4.02,2.96,7.96,6.04,11.4,9.66,2.1,2.21,4.06,4.54,6,6.89-7.02-4.5-13.54-8.98-23.3-10.58-.53-.09-1.05-.18-1.58-.27-8.28-2.57-15.46-7.89-21.51-13.99-12.39-12.48-21.27-28.36-27.25-44.79-3.61-9.91-6.34-20.11-9.09-30.29-1.31-4.86-2.65-9.68-4.53-14.36-1.7-4.25-3.73-8.38-6.09-12.3-2.91-10.61-4.9-23.17-4.94-34.03-.09-25.16-10.37-46.26.19-70.74,1.95-4.53,8.05-18.11,11.83-17.94Zm3.56,104.59c.54,1.97,1.59,3.82,2.89,5.55.53,9.97,6.87,18.69,11.69,27.09,10.87,18.92,21.13,38.21,35.37,54.89,6.91,8.09,14.24,15.98,19.81,25.1,1.09,1.79,2.12,3.59,2.87,5.55.73,1.9,1.33,3.84,2.02,5.75,1.21,3.32,2.76,7.05,6,8.82,1.35,3.88,3.33,7.21,4.54,11.24-.49-.59-.98-1.18-1.47-1.77-3.17-3.81-6.46-7.47-10.24-10.68-3.67-3.12-7.6-5.91-11.5-8.73-3.93-2.85-7.87-5.72-11.44-9.01-3.68-3.39-6.76-7.26-9.76-11.25-6.2-8.25-11.81-16.92-17.5-25.53-5.27-7.96-9.6-16.45-13.33-25.23-3.75-8.82-7.19-17.81-10.37-26.85-1.64-4.66-3.13-9.39-4.22-14.21-.99-4.35-1.31-8.64-1.22-13.09.09-4.27.33-8.55-.1-12.81-.45-4.47-1.69-8.82-3-13.1-1.32-4.34-2.71-8.66-3.58-13.11-.93-4.77-1.45-9.63-1.6-14.48-.26-8.49.48-17.14,2.63-25.37,2.03-7.76,5.4-15.03,9.76-21.75.54,1.19.95,3.09,1.16,5.9.94,12.68-7.11,17.7-10.27,28.37-3.54,11.98.87,18.68,6.27,28.37,4.5,8.08,2.78,17.12,4.15,26.15.77,5.11-.74,9.8.46,14.2Zm83.33,113.2c-.66-3.01-1.56-5.96-2.84-8.77-1.57-3.43-3.66-6.6-5.87-9.65-9.79-13.54-22.18-24.91-32.16-38.29-4.83-6.47-8.64-13.61-13.17-20.27-2.16-3.17-4.64-6.26-6.27-9.75-.31-.66-.59-1.34-.86-2.03,2.36,2.41,4.6,4.94,6.65,7.73,8.69,11.91,18.54,25.77,29.52,35.4,9.52,8.35,27.91,21.41,27.86,35.92-.01,3.96-1.36,6.9-2.86,9.71Zm-3.92,14.53c.05.34.11.66.17.99-.54-.75-.98-1.59-1.36-2.36-.97-2-1.68-4.12-2.39-6.22-.63-1.85-1.24-3.74-2.16-5.47-1.33-2.5-2.88-4.9-4.48-7.23-6.01-8.74-13.36-16.4-20.06-24.59-6.76-8.25-12.64-17.15-18.1-26.29-5.43-9.08-10.48-18.38-15.79-27.52-3.68-6.35-8.2-12.97-9.59-20.3,1.71,1.78,3.54,3.41,5.12,4.91,2.04,1.93,4.08,3.79,6.08,5.65.03.04.05.08.08.11,2.32,2.63,2.95,6.46,4.66,9.47,2.24,3.93,5.06,7.51,7.5,11.31,4.28,6.67,8.18,13.59,13.1,19.83,5.13,6.51,10.73,12.63,16.24,18.82,5.4,6.06,10.74,12.22,15.39,18.88,1.85,2.65,3.54,5.41,4.82,8.38,1.34,3.08,2.18,6.32,2.78,9.61.04.23.14.41.26.55-1.64,3.17-2.95,6.58-2.26,11.46Zm136.18-80.64c.04-.29-.04-.6-.31-.88-1.21-1.26-2.42-2.51-3.64-3.76-4.8-4.92-9.7-9.75-14.82-14.34-5.31-4.77-10.89-9.22-16.15-14.04-5.23-4.79-10.29-9.75-15.34-14.73-5.01-4.94-9.92-10.01-15.19-14.68-10.25-9.08-21.81-16.45-33.29-23.85-2.88-1.86-5.67-3.76-8.13-6.16-2.21-2.16-4.17-4.57-6.02-7.05-3.65-4.89-7.05-9.88-11.23-14.35-3.4-3.63-6.92-7.17-10.8-10.29-3.57-2.87-7.61-5.56-12.17-6.47,0-.16,0-.32.03-.49,1.24.54,2.53.92,3.86,1.2,3.21.68,6.49.87,9.71,1.47,3.4.63,6.71,1.98,9.84,3.42,6.87,3.18,12.74,7.86,17.86,13.4,5.24,5.67,9.85,11.93,15.5,17.23,2.76,2.58,5.73,4.98,9.03,6.84,3.05,1.71,6.3,3.03,9.58,4.24,3.31,1.23,6.66,2.37,9.91,3.78,3.4,1.47,6.68,3.24,9.83,5.18,3.15,1.94,6.16,4.12,8.95,6.54,2.96,2.58,5.63,5.49,8.3,8.36,10.97,11.79,21.12,24.33,30.46,37.43,3.53,4.95,6.21,10.39,9.31,15.6,2.68,4.49,5.74,9.31,10.13,12.34-3.81-.13-10-3.16-15.2-5.97Zm-73.85-26.59c-.1-.08-.22-.15-.37-.2-3.09-1.01-5.77-3.19-8.15-5.33-2.72-2.44-5.22-5.12-7.68-7.82-2.39-2.62-4.75-5.21-6.81-8.1-2.44-3.42-4.6-7.02-6.95-10.5-2.36-3.49-4.95-6.83-8.11-9.64-3.14-2.79-6.47-5.34-9.73-7.98-3.22-2.6-6.37-5.3-9.16-8.36-2.5-2.75-4.51-5.79-6.46-8.95-1.72-2.79-3.39-5.62-4.85-8.56-1.21-2.46-2.36-5.06-2.81-7.78,1.39-2.16,2.83-4.21,3.64-6.46,2.34,3.45,5.42,6.39,8.14,9.53,1.79,2.06,3.25,4.28,4.75,6.55,1.67,2.54,3.42,5.03,5.22,7.48,6.38,8.69,13.47,16.84,20.8,24.73,7.32,7.89,14.79,15.69,22.39,23.3,7.42,7.42,16.39,13,25.49,18.09,3.59,2.01,6.67,4.62,9.89,7.17,1.22.96,2.49,1.93,3.81,2.8-13.13-.89-20.94-6.76-33.04-9.97Zm-72.84-80.25c.69,2.3,1.73,4.52,2.8,6.61,1.68,3.29,3.62,6.45,5.57,9.59,2.15,3.44,4.55,6.62,7.42,9.49,2.99,3,6.28,5.68,9.59,8.32,3.37,2.7,6.91,5.31,9.89,8.44,2.93,3.08,5.32,6.61,7.62,10.17,2.38,3.67,4.69,7.4,7.45,10.8,2.03,2.5,4.28,4.85,6.48,7.2,2.32,2.48,4.71,4.89,7.31,7.07.28.23.56.47.85.7-10.76-2.61-20.01-5.68-29.24-13.24-12.66-10.35-20.43-26.01-29.96-39.55-4.14-5.88-7.94-12.01-7.53-19.59.12-2.25.82-4.2,1.74-6.01Zm1.72-20.68c.12.05.24.08.36.13,4.5,1.81,8.44,5.11,11.97,8.37,3.69,3.41,7.27,7.07,10.44,10.97,3.88,4.78,7.1,10.07,11.18,14.69,2.14,2.42,4.52,4.64,7.14,6.54,2.81,2.03,5.81,3.81,8.72,5.69,11.33,7.32,22.57,14.91,32.3,24.32,10.11,9.77,19.87,19.9,30.43,29.2,5.29,4.66,10.77,9.08,15.92,13.91,3.61,3.39,7.11,6.88,10.57,10.42-.48-.26-.92-.5-1.31-.71-9.07-4.75-17.32-10.69-27.12-12.17-3.95-1.11-7.28-3.9-10.42-6.43-1.74-1.41-3.47-2.84-5.32-4.11-2.11-1.45-4.42-2.59-6.63-3.87-4.43-2.57-8.78-5.29-12.9-8.34-4.27-3.17-8.04-6.76-11.73-10.57-7.38-7.61-14.82-15.17-21.96-23.01-7.17-7.86-14.05-16-20.18-24.7-2.89-4.1-5.41-8.4-8.78-12.14-2.99-3.33-6.32-6.53-8.39-10.53-.02-1.37-.33-2.85-1.05-4.49-.61-1.38-2.02-2.26-3.23-3.17Zm76.63,2.15c.07.23.22.44.49.6,7.59,4.6,14.06,10.69,20.53,16.71,5.36,4.99,10.78,10.02,16.9,14.09,3.94,2.61,8.02,5,11.99,7.56,4.57,2.95,9.14,6.05,13.14,9.75,2,1.85,4.2,4.05,5.53,6.58,1.32,4.69,1.71,8.97,2.06,13.64-1.23-1.48-2.56-2.89-3.92-4.25-3.29-3.28-6.71-6.42-10.02-9.68-6.29-6.21-12.46-12.65-19.35-18.19-6.05-4.86-12.94-8.5-19.76-12.14-6.84-3.64-13.75-7.32-19.75-12.28-1.49-1.23-2.95-2.52-4.23-3.96-1.44-1.61-2.65-3.43-4.22-4.91-1.14-1.07-2.46-1.86-3.81-2.6,4.54.7,8.47.11,14.43-.94Zm66.26,48.52c-.82-.81-1.65-1.57-2.46-2.29-7.73-6.84-16.92-11.53-25.38-17.35-12.67-8.72-22.34-21.14-35.33-29.43,8.86-1.5,9.86.09,17.23,5.13,7.36,5.03,11.04,9.1,16.24,16.41,6.15,8.62,12.07,6.08,19.95,11.71,4.92,3.51,7.61,9.97,9.75,15.82Zm12.04,49.65c-2.93-3.37-5.44-7.12-8.05-10.73-3.77-5.23-8.06-10-12.52-14.64-8.12-8.47-16.68-16.55-25.17-24.65-8.24-7.86-17.72-14.24-27.42-20.14-9.59-5.84-19.56-11.14-28.85-17.45-4.24-2.88-7.92-6.29-10.7-10.62-1.14-1.77-2.36-3.97-3.91-5.75,5.1,1.18,10.4,2.35,15.06,4.19.51.2.99.38,1.47.56,3.16,3,7.6,4.05,10.52,7.35,1.54,1.74,2.87,3.61,4.55,5.23,1.52,1.46,3.13,2.84,4.8,4.13,12.29,9.47,27.55,14.27,39.41,24.38,6.79,5.79,12.98,12.23,19.36,18.47,2.88,2.82,5.87,5.52,8.69,8.39,1.98,2.01,3.88,4.13,5.44,6.47.03.31.05.62.08.94.71,7.93,4.95,14.16,6.82,21.76.17.71.31,1.42.42,2.13Zm4.31,29.33c-4.28-4.16-7.19-9.61-10.06-14.77-1.43-2.56-2.83-5.14-4.41-7.61-1.98-3.09-4.21-6.03-6.39-8.98-9.57-12.92-19.91-25.36-31.17-36.84-5.21-5.31-11.31-9.62-17.89-13.07-3.17-1.66-6.42-3.11-9.77-4.36-3.37-1.26-6.79-2.41-10.1-3.83-7.1-3.04-12.77-7.93-17.91-13.63-5.22-5.79-9.91-12.07-15.74-17.27-5.46-4.87-11.83-8.57-18.71-11.03-3.16-1.13-6.34-1.7-9.65-2.13-2.94-.37-5.93-.72-8.67-1.89,2.19-3.42,6.17-.82,9.4-.56,7.74.61,14.62-1.59,22.22.65.55.16,1.12.32,1.69.48.08.32.32.59.77.68,2.2.47,3.69,2.38,4.94,4.12,1.43,2,2.62,4.16,4.09,6.12,3.56,4.75,8.33,8.14,13.3,11.27,9.56,6.01,19.47,11.45,29.04,17.46,4.72,2.96,9.36,6.07,13.79,9.44,4.49,3.42,8.61,7.19,12.65,11.13,8.44,8.2,17.09,16.19,25.07,24.83,3.83,4.14,7.33,8.44,10.61,13.03,2.78,3.9,5.55,7.88,8.93,11.28.3,8.84-2.2,17.69,3.97,25.48Zm58.79-312.72c-4.96,6.92-8.16,15.07-10.77,23.11-3.15,9.71-5.36,19.71-8.66,29.37-4.03,11.79-7.98,23.79-13.73,34.89-5.33,10.29-11.04,20.44-14.49,31.56-1.69,5.45-2.75,11.06-3.67,16.68-.91,5.57-1.6,11.17-2.02,16.8-.84,11.21-.62,22.56,1.18,33.67.92,5.68,2.44,11.15,4.02,16.67,1.68,5.87,2.98,11.85,4.08,17.85,2.15,11.78,3.52,23.69,5.63,35.48,1.02,5.7,2.21,11.37,3.79,16.95,1.48,5.25,3.12,10.46,4.25,15.8,1.13,5.33,1.57,10.6.76,16.01-.43,2.82-.97,5.61-1.23,8.42-4.16-9.76-10.17-19.11-14.07-28.1-5.33-12.3-8.15-25.96-6.23-39.5,1.26-8.86,3.76-13.4.79-22.44-2.4-7.34-7.03-14.4-10.24-21.3-7.77-16.72-4.56-32.49-3.61-50.6.85-15.96-2.06-33.41,1.85-48.97,2.61-10.4,10.29-18.89,14.5-28.57,4.76-10.96,10.67-19.06,17.23-29.1,6.01-9.21,7.43-20.2,13.04-29.26,4.1-6.61,10.62-11.25,17.6-15.42Zm-22.74,320.63c-1.18,2.91-2.51,5.77-3.64,8.7-.32-3.15-1.01-6.26-1.97-9.33,0-.02,0-.05,0-.07-.44-2.51-.39-5.03-.08-7.56.63-5.17,1.89-10.14,1.59-15.39-.31-5.42-1.6-10.74-3.05-15.96-1.44-5.17-3.06-10.28-4.23-15.52-1.3-5.81-2.33-11.67-3.25-17.55-1.86-11.83-3.31-23.73-5.87-35.44-1.26-5.74-3.04-11.31-4.51-16.99-1.4-5.41-2.36-10.94-2.95-16.5-1.19-11.22-.86-22.57.43-33.76,1.3-11.3,3.32-22.56,7.59-33.15,4.41-10.91,10.72-20.89,15.41-31.67,2.46-5.66,4.58-11.46,6.63-17.29,1.83-5.21,3.72-10.41,5.3-15.71,2.95-9.94,5.33-20.07,8.99-29.79,2.86-7.6,6.58-15.27,12.31-21.11,5.24-2.99,10.42-5.96,14.75-9.54,12.83-10.62,21.5-26.33,34.5-36.95-.11.13-.22.26-.33.39-4.68,5.41-9.02,10.91-12.2,17.35-3.02,6.1-5.27,12.54-7.6,18.93-4.89,13.37-11.43,25.98-18.09,38.54-6.56,12.39-13.29,24.69-19.18,37.42-5.84,12.62-10.33,25.63-14.49,38.88-7.8,24.81-14.68,50.27-16.32,76.34-1.73,27.61,3.82,54.8,8.93,81.77,2.63,13.91,5.25,27.75,4.83,41.97-.1,3.38-.28,6.82-.81,10.16-.49,3.04-1.52,5.97-2.67,8.81Zm-15.25,41.64c-.69,1.19-1.34,2.41-1.95,3.65-.43.36-.85.71-1.28,1.07,1.06-1.59,2.14-3.15,3.23-4.72Zm160.74-428.78c-.16.3-.34.61-.54.93-.32-.09-.69-.04-1.02.22-3.33,2.65-6.81,5.08-10.35,7.44-7.19,4.8-14.48,9.46-20.84,15.36-5.77,5.35-10.78,11.51-14.92,18.2-4.27,6.92-7.44,14.34-10.57,21.82-3.11,7.42-6.24,14.83-9.28,22.28-12.22,30.03-23.06,61.53-23.31,94.31-.12,16.01,1.7,31.94,2.64,47.89.89,15.15-4.42,29.03-7.96,43.5-1.72,7.03-2.83,14.14-2.71,21.4.12,7.16,1.07,14.27,1.81,21.39.75,7.26,1.27,14.61.27,21.87-1.11,8.1-3.73,16.04-7.11,23.47-3.39,7.46-7.75,14.37-12.43,21.08-4.95,7.09-10.32,13.87-16.41,20.02-5.08,5.13-11.12,9.79-16.51,14.96,3.29-4.42,6.59-8.82,9.48-13.54,4.32-7.06,8.15-14.41,11.38-22.02,3.11-7.32,5.61-14.91,8.2-22.43,2.46-7.13,4.72-14.37,5.97-21.82,2.52-15.04-1.3-29.37-3.48-44.17-1.09-7.41-1.48-14.9-.23-22.31,1.28-7.6,3.41-15.02,4.56-22.66,1.14-7.59,1.63-15.26,1.24-22.93-.41-7.98-1.23-15.91-1.36-23.91-.26-15.83,1.16-31.67,4.77-47.1,3.99-17.07,10.05-33.59,15.86-50.09,2.91-8.26,5.5-16.63,9.34-24.52,3.69-7.57,8.2-14.7,12.79-21.74,9.03-13.85,17.02-29.14,31.07-38.61,12.19-8.22,27.18-10.72,39.62-18.28Zm-34.53,99.61c-.4.03-.78.26-.96.76-.71,2.01-1.39,4.04-2.04,6.07-5.23,16.43-8.33,33.49-9.99,50.63-.83,8.66-1.3,17.35-1.46,26.04-.08,4.34-.09,8.68-.03,13.01.06,4.37,0,8.8.61,13.13.6,4.31,1.8,8.5,2.81,12.72,1.01,4.22,1.74,8.48,1.86,12.82.12,4.2-.21,8.41-.9,12.56-.72,4.33-1.91,8.56-2.71,12.87-1.61,8.76-2.31,17.64-3.08,26.5-.39,4.47-.8,8.94-1.35,13.4-.5,4.03-1.09,8.04-1.51,12.07-.77,7.39-1.31,14.86-3.02,22.11-1.58,6.7-4.27,12.99-8.37,18.5-1.76.83-3.7,1.73-5.95,2.96-.05.03-.1.06-.15.09,2.53-4.35,4.78-8.76,5.86-13.71.97-4.48,1.16-9.06,1.18-13.63.02-4.82.04-9.62.37-14.43.34-5.08.87-10.14,1.52-15.19,1.31-10.06,3.1-20.05,4.89-30.03,1.74-9.77,3.55-19.52,4.24-29.43.66-9.46.51-18.95-.03-28.41-.55-9.64-1.66-19.23-2.38-28.85-1.45-19.33.62-38.86,4.64-57.78,2.17-10.22,5.08-20.23,8.01-30.25,1.48-5.06,2.62-10.32,4.88-15.1,1.25-2.65,2.73-5.17,4.07-7.77.07,3.07.2,6.12.4,9.13.43,6.63-.62,12.88-1.39,19.21Zm-25.74,250.96c7.87-12.86,8.09-28.18,9.86-42.72.52-4.29,1.16-8.57,1.6-12.87.45-4.44.81-8.88,1.2-13.32.79-8.97,1.71-17.97,3.77-26.75,1.95-8.32,3.09-16.66,2.09-25.21-1.02-8.75-4.48-17.02-4.74-25.89-.52-17.35-.07-34.76,1.91-52.01,1.75-15.21,4.73-30.29,9.39-44.88-.08,1.74-.1,3.5-.01,5.28.58,11.68-.21,22.08-3.63,33-2.1,6.71-.4,10.3-.55,16.75-.12,5-2.68,8.86-3.27,13.87-.23,1.92,1.9,4.18,1.6,6.11-.3,1.99-2.41,4.26-2.89,6.4-1.57,6.96.24,9.42,1.35,15.89.88,5.13.19,7.79,2.53,12.84,1.61,3.48,4.69,6.62,5.85,10.32,2.91,9.24-2.39,18.16-3.06,27.36-.32,4.37.53,8.97-1.05,13.19-1.49,3.97-4.04,5.69-4.57,10.06-.82,6.65.11,15.97.8,22.73.91,8.93.81,15.25-.96,24.04-1.63,8.05-4.48,13.27-9.82,19.51-2.66,3.11-4.96,4.88-7.42,6.29Zm-50.57,45.96c.12-.19.25-.38.37-.56,3.21-4.83,6.88-9.3,10.4-13.9,3.96-5.17,7.77-10.51,10.67-16.36,2.7-5.43,4.43-11.26,5.46-17.23,2-11.61,1.1-23.42,1.16-35.14.03-6.08.37-12.15,1.33-18.16,1.1-6.89,2.87-13.65,4.62-20.39,1.66-6.41,3.31-12.83,4.43-19.35,1.15-6.69,1.63-13.47,1.77-20.25.28-13.66-.63-27.31-.24-40.98.75-26.02,4.92-51.76,11.33-76.96,1.67-6.57,3.38-13.17,5.48-19.62,2.18-6.66,4.83-13.16,7.65-19.57,2.85-6.48,6.07-12.83,8.76-19.38,1.65-4.02,2.98-8.18,4.52-12.25-.32,6.34-.51,12.83-.49,19.28-.78,2.08-1.75,4.06-2.8,6.01-2.42,4.49-4.66,8.84-6.05,13.77-1.44,5.13-2.97,10.23-4.45,15.35-2.83,9.78-5.33,19.63-7.2,29.65-1.77,9.51-3.02,19.13-3.55,28.79-.53,9.64-.22,19.24.68,28.85,1.8,19.08,3.38,38.27,1.34,57.4-1.07,9.97-3.11,19.83-4.85,29.69-1.76,9.98-3.43,19.99-4.5,30.07-.53,5.02-.94,10.06-1.07,15.1-.12,4.63.07,9.27-.21,13.9-.29,4.83-1.18,9.57-3.16,14.02-1.57,3.53-3.67,6.79-5.54,10.17-9.14,6.33-18.63,16.74-24.92,24.7-3.84,4.86-7.19,9.44-10.96,13.37Zm-33.03,18.09c2.08-1.87,4.19-3.71,6.27-5.57,5.91-5.28,11.37-11,16.32-17.2,9.98-12.5,18.93-26.37,23.8-41.71,2.27-7.16,3.64-14.54,3.65-22.06,0-7.03-.89-14.02-1.64-21-.79-7.32-1.42-14.7-.65-22.04.77-7.39,2.76-14.58,4.78-21.7,1.91-6.7,3.85-13.41,4.89-20.32,1.15-7.62.65-15.14.1-22.79-1.16-16.05-2.74-32.13-1.82-48.23,1.88-32.66,14.11-63.92,26.55-93.81,6.2-14.89,11.72-30.38,21.84-43.17,5.29-6.69,11.62-12.37,18.56-17.31,5.35-3.81,10.94-7.28,16.29-11.09-5.13,5.75-12.02,11.65-14.66,14.02-6.64,5.95-10.8,9.94-12.57,17.71-1.4,2.74-2.57,5.58-3.63,8.46-1.2,3.24-2.29,6.52-3.55,9.73-1.27,3.24-2.78,6.37-4.23,9.53-2.93,6.37-5.85,12.74-8.48,19.24-5.09,12.6-8.53,25.79-11.65,39-5.91,25.03-9.43,50.56-9.65,76.3-.11,13.52.88,27.06.13,40.57-.38,6.94-1.33,13.8-2.84,20.59-1.46,6.55-3.27,13.02-4.88,19.53-1.59,6.43-2.98,12.93-3.63,19.53-.58,5.86-.61,11.76-.54,17.64.14,11.63.65,23.43-2.25,34.81-1.59,6.22-4.16,11.99-7.58,17.41-3.53,5.59-7.65,10.77-11.72,15.97-3.3,4.22-6.15,8.69-9.23,13.06-.65.92-1.33,1.88-2.05,2.84-3.03,2.03-6.47,3.68-10.6,4.84-6.42,1.8-11.08,4.14-15.33,7.19Zm-593.55,172.86c-.18-.09-.39-.14-.64-.13-1.05.07-2.11-.25-3.06-.67-2.61-1.15-4.81-3.24-6.76-5.26-2.24-2.33-4.28-4.86-6.26-7.42-4.69-6.05-9.64-11.87-14.19-18.03-6.02-8.15-11.73-16.56-18.33-24.27-6.5-7.61-13.82-14.51-19.91-22.47-6.13-8.03-11.04-16.88-18.43-23.91-7.04-6.69-15.55-11.66-23.94-16.43-4.3-2.44-8.73-4.73-12.78-7.58-4.02-2.83-7.64-6.19-10.79-9.97-3.22-3.87-5.92-8.15-8.14-12.67-1.59-3.23-3.01-6.47-4.83-9.58-3.38-5.75-7.27-11.23-10.07-17.31-2.65-5.74-4.09-12.04-1.89-18.16,0-.03.01-.05.02-.07.47-.35.94-.71,1.45-1.06,3.42-2.37,5.93-4.75,8.25-7.23.46,1.67,1.07,3.29,1.84,4.84,1.79,3.61,4.2,6.86,6.3,10.29,2.14,3.5,3.58,7.24,5.08,11.04,1.49,3.74,3.22,7.39,5.92,10.42,2.71,3.04,5.98,5.55,9.38,7.77,3.39,2.22,6.94,4.19,10.36,6.37,3.62,2.3,7.01,4.92,10.19,7.8,6.59,5.95,12.39,12.71,18.35,19.27,5.96,6.57,12.29,12.79,18.03,19.56,5.85,6.89,10.9,14.24,15.29,22.14,4.16,7.49,8.06,15.12,12.45,22.48,2.17,3.65,4.46,7.22,6.93,10.68,2.55,3.57,5.35,6.92,8.07,10.36,2.76,3.5,5.41,7.12,7.32,11.16,1.79,3.79,3.03,7.81,4.6,11.69,2.48,6.13,6.11,11.35,10.17,16.37Zm.73,1.38c.03-.18,0-.37-.05-.55.23.28.46.56.7.84-.22-.1-.43-.2-.65-.29Zm-3.53-89.85c-3.17-4.62-7.27-8.49-10.8-12.82-6.59-8.09-9.56-18.47-14.7-27.44-2.74-4.78-6.06-9.27-9.47-13.6-3.39-4.3-6.97-8.49-10.91-12.29-3.86-3.72-8.05-7.12-11.58-11.17-3.58-4.11-6.41-8.81-10.12-12.82-4.45-4.81-10-8.76-15.94-11.83,11.13,2.92,19.78,6.15,29.82,13.44,7.3,5.3,13.5,13.27,17.74,21.35,2.79,5.32,3.55,8.99,8.54,12.68,4.47,3.31,7.37,4.48,11.13,8.63,6.42,7.09,9.6,12.54,11.2,22.11.96,5.75,2.91,10.47,4.45,15.91.87,3.08.83,5.48.63,7.83Zm5.76,37.95c-.19.69-.38,1.35-.57,1.99-.07-.13-.15-.27-.22-.4-2.89-5.45-5.19-11.18-7.76-16.78-2.64-5.73-5.73-11.18-9.33-16.36-3.55-5.11-7.51-9.93-11.51-14.69-4.09-4.86-8.33-9.59-11.71-15-3.37-5.38-6.23-11.07-9.71-16.38-3.47-5.3-7.6-10.19-11.69-15.02-8.44-9.96-17.1-19.83-26.87-28.51-4.86-4.31-9.8-8.52-14.69-12.79-3.14-2.74-7.61-5.45-8.88-9.65,4.13.56,8.29.76,12.35,1.26.13.17.3.3.55.39,5.33,1.82,10.41,4.33,15.14,7.4,2.38,1.54,4.73,3.2,6.84,5.09,2.24,2,4.23,4.28,6.1,6.62,1.72,2.16,3.29,4.43,4.94,6.63,1.56,2.08,3.32,3.99,5.18,5.81,3.81,3.75,7.95,7.15,11.59,11.07,7.29,7.84,14.14,16.52,18.99,26.1,2.32,4.57,4.32,9.3,6.6,13.89,1.18,2.37,2.42,4.72,3.91,6.92,1.43,2.1,3.07,4.04,4.75,5.94,3.42,3.85,7.17,7.57,9.72,12.09.05.1.1.19.15.29-.08,1.19-.12,2.44-.02,3.83.76,10.48,9.03,19.67,6.14,30.25Zm-5.3,25.14c-2.17-3.66-3.98-7.51-5.5-11.49-2.96-7.76-4.56-15.89-7.06-23.79-4.71-14.88-17.48-25.48-27.34-36.93-6.09-7.08-11.96-14.35-18.11-21.39-6.05-6.93-12.45-13.47-19.22-19.69-13.41-12.32-27.84-23.78-39.28-38.06-3.26-4.07-5.6-8.96-7.38-13.83-.99-2.71-1.78-5.54-2.11-8.41-.18-1.53-.23-3.22.1-4.78.14.35.28.68.44.95,3.05,5.26,3.88,4.87,9.16,6.74,2.01.71,4.05,1.2,6.11,1.57.17.98.49,1.93.95,2.82,1.17,2.25,3.02,4.04,4.92,5.69,2.02,1.75,4.1,3.41,6.11,5.18,4.99,4.4,10.12,8.64,15.03,13.12,4.85,4.43,9.27,9.22,13.66,14.09,4.36,4.84,8.67,9.73,12.83,14.74,4.1,4.94,8.08,9.96,11.38,15.48,3.25,5.44,6.15,11.09,9.78,16.3,3.64,5.22,8.05,9.91,12.11,14.81,3.98,4.8,7.85,9.72,11.22,14.98,3.41,5.32,6.13,10.97,8.68,16.74,2.26,5.11,4.47,10.28,7.29,15.11-2.31,7.02-4.43,11.9-3.76,20.05Zm-28,19.89c-11.96-3.95-24.09-6.91-35.1-12.93-.23-.13-.45-.26-.67-.39-1.21-.76-2.2-1.75-3.06-2.9-1.88-2.53-3.3-5.42-5.05-8.06-1.86-2.8-3.83-5.52-5.85-8.2-1.97-2.61-4.07-5.14-5.92-7.84-1.78-2.6-3.37-5.33-4.87-8.1-2.97-5.46-5.59-11.1-8.73-16.47-3.18-5.45-6.99-10.26-11.31-14.84-8.91-9.44-18.82-17.87-27.54-27.49-4.3-4.75-8.26-9.78-11.56-15.27-3.26-5.43-6.18-11.07-9.46-16.49-3.09-5.1-6.57-9.82-10.52-14.29-1.86-2.1-4.09-4.59-5.1-7.38.11-.28.22-.57.35-.86.7-1.66,1.29-3.25,1.82-4.77,1.49,5,4.38,9.59,7.25,13.88,4,5.97,8.06,11.94,12.39,17.68,10.18,13.52,21.7,25.98,33.91,37.69,11.78,11.3,24.71,21.55,35.15,34.18,10.77,13.03,18.45,28.41,30.5,40.43,9.98,9.96,22.07,17.21,33.83,24.84-3.58-.61-7.14-1.33-10.45-2.42Zm-136.72-122.1c5.39,2.47,9.92,6.76,13.66,11.33,4.59,5.62,8.24,11.92,11.72,18.26,1.94,3.53,3.98,6.77,6.91,9.59,3.12,3,6.66,5.48,10.19,7.97,3.58,2.52,7.21,5.07,10.26,8.23,3.29,3.41,5.74,7.57,7.96,11.72,2.19,4.1,4.37,8.35,6.06,12.69.36.92.71,1.91,1.1,2.88-8.54-6.49-13.51-15.46-20.92-24.86-6.67-8.46-17.32-11.93-23.64-20.08-5.93-7.63-9.47-19.28-13.27-28.05-3.1-7.17-5.09-5.64-10.05-9.69Zm-9.09-35.33c1.51,2.61,3.69,4.92,5.63,7.12,4.24,4.8,7.71,10.16,10.89,15.69,3.19,5.55,6.14,11.27,9.67,16.62,3.59,5.44,7.84,10.42,12.33,15.14,9.04,9.52,19.1,18.04,27.84,27.85,4.22,4.73,7.54,10,10.51,15.58,2.98,5.61,5.69,11.37,8.99,16.8,3.43,5.64,7.75,10.63,11.57,16,1.68,2.36,3.28,4.77,4.77,7.25-5.87-5.63-10.62-12.14-17.85-15.55-1.06-.5-2.07-1.03-3.04-1.59-1.07-1.06-1.71-2.75-2.23-4.01-.82-1.98-1.55-3.97-2.45-5.91-2.35-5.06-4.77-10.12-7.74-14.85-2.44-3.89-5.24-7.25-8.76-10.21-3.34-2.8-6.99-5.19-10.51-7.74-3.47-2.51-6.85-5.2-9.51-8.59-2.26-2.87-3.8-6.29-5.6-9.46-6.49-11.41-15.09-24.71-28.44-28.41-1.02-2.1-1.12-4.34-1.98-7.32-2.84-9.78-6.55-15.26-4.09-24.4Zm12.96-28.25c-.07.39-.13.79-.18,1.19-.8,6.55,1.72,12.96,4.76,18.63,3.21,5.98,7.23,11.49,10.37,17.5,2.06,3.94,3.71,8.03,6.05,11.83,2.6,4.22,5.64,8.15,9.17,11.63,7.21,7.11,16.28,11.43,24.92,16.5,8.76,5.15,17.19,10.82,23.77,18.67,3.36,4.01,6.31,8.33,9.25,12.65,2.91,4.29,6.01,8.38,9.44,12.27,6.82,7.75,14.09,15.01,20.38,23.22,6.32,8.23,12.07,16.88,18.58,24.97,2.13,2.65,4.35,5.2,6.42,7.9,1.98,2.58,3.96,5.17,6.1,7.61,1.51,1.72,3.26,3.69,5.25,5.33-1.72-.32-3.48-.61-5.27-.88-1.61-1.07-3.22-2.13-4.84-3.18-13.17-8.52-26.75-16.71-37.14-28.68-10.91-12.56-18.6-27.53-29.72-39.91-10.88-12.1-23.72-22.28-35.3-33.68-11.83-11.64-22.96-24.04-32.73-37.48-3.99-5.49-7.95-11.11-11.55-16.85-2.69-4.28-5.37-9.1-5.95-14.22,1.89-5.66,3.61-10.44,8.24-15.01Z"/>
  <path class="cls-2" d="m112.15,94.65h-7.39c-10.03,0-17.85.48-23.47,1.43-5.62.95-12.06,3.24-19.32,6.87-.35.17-1.26.65-2.72,1.43-1.47.78-2.9,1.17-4.28,1.17-1.04,0-1.81-.43-2.33-1.3-.52-.86-1.04-1.47-1.56-1.82-1.04.35-3.37,5.02-7,14-4.5,10.55-8.39,18.76-11.67,24.63-3.29,5.88-6.57,8.82-9.85,8.82-2.07,0-3.11-1.56-3.11-4.67,0-3.28,1.43-7.82,4.28-13.61,2.85-5.79,6.87-13.18,12.06-22.17,5.01-8.64,7.6-13.74,7.78-15.3-.87-.86-3.59-3.02-8.17-6.48-4.58-3.46-7.13-5.19-7.65-5.19s-1.34,1-2.46,2.98c-1.13,1.99-1.86,3.24-2.21,3.76-2.42,4.84-4.71,8.73-6.87,11.67-2.16,2.94-4.45,4.41-6.87,4.41-.69,0-1.38-.22-2.07-.65-.69-.43-1.04-.99-1.04-1.69,0-1.9.39-3.89,1.17-5.96.78-2.07,1.6-4.06,2.46-5.96,2.42-4.84,3.63-8.73,3.63-11.67,0-2.07-1.21-5.4-3.63-9.98-2.42-4.58-4.5-7.48-6.22-8.69-.17-.17-.82-.6-1.94-1.3-1.13-.69-1.69-1.64-1.69-2.85,0-1.56.56-2.81,1.69-3.76,1.12-.95,2.55-1.43,4.28-1.43,2.08,0,4.41.69,7,2.07,2.59,1.39,4.06,2.07,4.41,2.07,1.56,0,2.33-1.81,2.33-5.45l-.26-7.52c0-7.09,1.82-10.63,5.45-10.63s5.75,1.43,6.87,4.28c1.12,2.85,1.69,6.35,1.69,10.5,0,2.42-.17,6.05-.52,10.89-.52,3.63-.78,7.26-.78,10.89v1.56c.86.69,2.03,1.3,3.5,1.82,1.47.52,2.55.95,3.24,1.3,8.12,3.46,14.78,7.69,19.97,12.71.35.35,1.17,1.13,2.46,2.33,1.3,1.21,2.46,1.82,3.5,1.82,1.21,0,2.33-.34,3.37-1.04,1.04-.69,1.64-1.12,1.82-1.3,5.01-3.28,11.58-5.96,19.71-8.04,8.13-2.07,15.56-3.11,22.3-3.11,8.47,0,15.64,1.69,21.52,5.06,5.87,3.37,8.82,9.03,8.82,16.98,0,2.59-.56,4.84-1.69,6.74-1.13,1.9-2.9,2.85-5.32,2.85-1.56,0-2.72-.43-3.5-1.3-.78-.86-1.6-2.07-2.46-3.63-1.04-1.9-2.12-3.46-3.24-4.67-1.13-1.21-2.64-2.16-4.54-2.85-2.07-.69-5.23-1.04-9.46-1.04Zm-74.55-28.39c-1.04-.6-1.56-1.43-1.56-2.46s.69-3.11,2.07-6.22c2.07-4.49,3.11-8.12,3.11-10.89,0-3.11.35-5.45,1.04-7,.69-1.56,2.33-2.33,4.93-2.33,2.42,0,4.15.56,5.18,1.69,1.04,1.13,1.56,2.9,1.56,5.32,0,4.5-1.21,9.42-3.63,14.78-2.42,5.36-5.62,8.04-9.6,8.04-1.04,0-2.07-.3-3.11-.91Zm82.59,139.1c3.83-.5,6.26,3.76,8.43,6.09,2.16,2.33,3.24,4.8,3.24,7.39v1.81c-1.91,2.59-4.15,3.89-6.74,3.89-3.11,0-9.64-2.71-25.54-.89-15.91,1.81-24.03,2.89-24.37,3.24-.69.86-1.47,2.42-2.33,4.67-.35,1.56-.82,2.76-1.43,3.63-.61.86-1.68,1.3-3.24,1.3-3.8,0-5.7-6.48-5.7-19.45,0-5.53.78-17.5,2.33-35.91,1.56-18.41,2.94-28.65,4.15-30.73-.35-1.04-1.04-2.5-2.07-4.41-1.04-1.9-1.56-3.97-1.56-6.22l-.26-6.48c-.35-2.76-.52-4.93-.52-6.48,0-2.42.99-5.75,2.98-9.98,1.98-4.23,4.41-7.91,7.26-11.02,2.85-3.11,5.57-4.67,8.17-4.67,1.38,0,3.59.91,6.61,2.72,3.02,1.82,4.97,2.98,5.83,3.5,3.28,1.9,5.4,3.67,6.35,5.32.95,1.64,1.43,4.45,1.43,8.43,0,4.67-1,8.34-2.98,11.02-1.99,2.68-5.06,5.57-9.21,8.69-3.98,3.11-6.92,5.92-8.82,8.43-1.91,2.51-2.85,5.92-2.85,10.24,0,1.21.26,2.51.78,3.89,1.38-.17,2.85-.56,4.41-1.17,1.56-.6,2.76-.99,3.63-1.17,2.24-.86,4.49-1.6,6.74-2.2,2.24-.6,4.41-.91,6.48-.91,5.36,0,9.12,1.26,11.28,3.76,2.16,2.51,3.24,6.44,3.24,11.8,0,5.02-1.21,9.77-3.63,14.26-2.42,4.49-4.88,8.38-7.39,11.67-2.51,3.28-3.76,5.1-3.76,5.45,0,.86.95,1.3,2.85,1.3,2.42,0,5.88-.17,10.37-.52,3.45-.52,2.63.15,5.83-.27Zm-41.49-85.43c-1.13.95-1.69,2.72-1.69,5.32,0,1.21.47,2.51,1.43,3.89.95,1.39,2.03,2.07,3.24,2.07,1.73,0,3.5-.99,5.32-2.98,1.82-1.99,2.72-3.85,2.72-5.58,0-1.21-.56-2.2-1.68-2.98-1.13-.78-2.29-1.17-3.5-1.17-2.77,0-4.71.48-5.83,1.43Zm13.48,73.9c4.93-6.13,7.39-11.19,7.39-15.17,0-.69-.17-1.38-.52-2.07-.35-.69-.78-1.04-1.3-1.04-2.25,0-6.09,1.34-11.54,4.02-5.45,2.68-8.34,4.89-8.69,6.61-.35,1.04-.48,2.33-.39,3.89.09,1.56.13,2.59.13,3.11v6.09c0,3.72.43,6.35,1.3,7.91,4.15-2.77,8.69-7.22,13.61-13.35Zm-9.98-119.93c-1.21-1.21-1.82-2.42-1.82-3.63,0-1.56.56-3.37,1.69-5.45,1.12-2.07,2.89-4.84,5.32-8.3.34-.69,1.38-2.29,3.11-4.8,1.73-2.5,2.59-4.54,2.59-6.09,0-1.73-1.21-5.01-3.63-9.85-2.77-5.19-4.15-8.82-4.15-10.89,0-1.56.74-3.11,2.21-4.67,1.47-1.56,2.98-2.33,4.54-2.33,2.07,0,4.28,1.13,6.61,3.37,2.33,2.25,3.84,3.37,4.54,3.37,1.38,0,2.42-.95,3.11-2.85.69-1.9,1.47-5.1,2.33-9.59.69-3.8,1.43-6.78,2.2-8.95.78-2.16,1.77-3.24,2.98-3.24,1.56,0,2.63.74,3.24,2.2.6,1.47,1.08,3.67,1.43,6.61.34,3.11.78,5.4,1.3,6.87.52,1.47,1.56,2.2,3.11,2.2l2.59-.26c.86,0,1.73.26,2.59.78.86.52,1.68,2.07,2.46,4.67.78,2.59,1.17,4.58,1.17,5.96,0,2.94-.78,5.32-2.33,7.13s-3.8,2.72-6.74,2.72c-1.91,0-2.85-1.12-2.85-3.37,0-1.38.13-2.85.39-4.41.26-1.56.39-3.02.39-4.41,0-.34-.09-.86-.26-1.56-.17-.69-.43-1.04-.78-1.04-.69,0-2.12,3.37-4.28,10.11-2.16,6.74-3.33,11.07-3.5,12.97,1.38.52,2.68.78,3.89.78,3.46,0,9.47,1.73,18.02,5.19,8.56,3.46,14.04,6.31,16.47,8.56,1.72,1.56,2.59,3.8,2.59,6.74v2.85l-.78,1.56c-2.25,1.56-4.32,2.33-6.22,2.33-2.08,0-4.71-.73-7.91-2.2-3.2-1.47-6.4-3.02-9.59-4.67-3.2-1.64-5.23-2.72-6.09-3.24-3.29-1.73-6.4-3.33-9.33-4.8-2.94-1.47-5.01-2.2-6.22-2.2-.87,0-2.68,1.82-5.45,5.45-2.77,3.63-5.36,6.57-7.78,8.82-2.42,2.25-4.93,3.37-7.52,3.37-1.21,0-2.42-.6-3.63-1.81Z"/>
  <path class="cls-2" d="m176.12,115.35c1.85-.93,3.71-1.39,5.56-1.39,4.79,0,7.19,2.09,7.19,6.26v2.78c0,3.09.62,4.64,1.85,4.64.47,0,1.78-1.08,3.94-3.25,2.78-2.78,5.18-4.94,7.19-6.49,2.01-1.54,4.02-2.32,6.03-2.32,2.78,0,4.17.78,4.17,2.32,0,1.85-2.55,4.4-7.65,7.65-.46.31-1.47,1.04-3.01,2.2-1.55,1.16-2.71,2.2-3.48,3.13-.78.93-1.16,1.78-1.16,2.55,0,.46.46.7,1.39.7,2.16,0,5.41-.15,9.74-.46,4.02-.31,7.19-.46,9.5-.46,2.93,0,5.25.43,6.96,1.27,1.7.85,2.55,2.67,2.55,5.45,0,2.47-1.16,4.21-3.48,5.22-2.32,1.01-5.88,1.89-10.66,2.67-4.79.62-8.43,1.47-10.9,2.55-2.47,1.08-3.71,2.94-3.71,5.56l.7,1.16c3.09-1.54,5.64-2.32,7.65-2.32,1.7,0,3.21.5,4.52,1.51,1.31,1.01,1.97,2.36,1.97,4.06,0,2.47-.89,4.29-2.67,5.45-1.78,1.16-4.52,2.28-8.23,3.36-2.17.62-3.79,1.2-4.87,1.74-1.08.54-1.62,1.27-1.62,2.2,0,.46.23.85.69,1.16.46.31.93.46,1.39.46,1.39,0,2.86-.23,4.4-.7,1.54-.46,2.63-.77,3.25-.93,2.78-1.08,5.25-1.62,7.42-1.62,4.79,0,7.19,1.7,7.19,5.1,0,2.17-3.63,6.88-10.9,14.14-3.24,3.56-5.26,5.88-6.03,6.95.61.31,1.23.46,1.85.46,1.39,0,2.74-.12,4.06-.35,1.31-.23,2.67-.35,4.06-.35,5.1,0,11.86,1.24,20.29,3.71,8.42,2.47,15.84,5.88,22.25,10.2,6.41,4.33,9.62,9.12,9.62,14.37,0,2.01-.54,3.71-1.62,5.1-1.08,1.39-2.63,2.09-4.64,2.09-1.39,0-3.13-.54-5.22-1.62-2.09-1.08-4.91-2.78-8.46-5.1-7.27-4.48-13.72-8-19.36-10.55-5.64-2.55-11.63-3.83-17.97-3.83-1.39,0-2.32.23-2.78.7,0,.46.62,1.36,1.86,2.67,1.23,1.31,2.28,2.75,3.13,4.29.85,1.55,1.28,3.56,1.28,6.03,0,1.7-.66,3.25-1.97,4.64-1.31,1.39-2.82,2.09-4.52,2.09-1.39,0-3.17-.77-5.33-2.32-2.17-1.24-3.79-2.09-4.87-2.55-2.94-1.54-5.1-3.01-6.49-4.4-1.39-1.39-2.09-3.48-2.09-6.26,0-.46.15-1.12.46-1.97.31-.85.46-1.51.46-1.97,0-.77-.39-1.16-1.16-1.16-2.01,0-5.68,2.51-11.01,7.53-5.33,5.02-12.56,12.33-21.68,21.91-9.59,10.05-17.04,17.58-22.37,22.6-5.33,5.02-9,7.53-11.01,7.53-1.08,0-2.09-.5-3.01-1.51-.93-1-1.39-2.12-1.39-3.36,0-2.32,1.23-5.02,3.71-8.11,2.78-3.55,8.35-9.66,16.69-18.31,2.78-2.63,5.48-5.33,8.11-8.11l5.33-5.8c8.81-9.43,16.3-16.77,22.49-22.02.46-.31,1-.93,1.62-1.85-.46-.77-1.7-1.24-3.71-1.39-2.01-.15-3.59-.54-4.75-1.16-1.16-.62-1.74-2.16-1.74-4.64,0-2.32.96-4.09,2.9-5.33,1.93-1.24,4.91-2.55,8.93-3.94,3.09-1.08,5.41-2.09,6.95-3.01,1.54-.93,2.32-2.09,2.32-3.48,0-.62-.2-1.16-.58-1.62-.39-.46-.89-.7-1.51-.7-.93,0-1.82.27-2.67.81-.85.54-1.51,1.08-1.97,1.62-.46.54-.77.89-.93,1.04-2.01,2.63-4.1,3.94-6.26,3.94s-4.06-.62-5.68-1.85c-1.62-1.24-2.43-2.93-2.43-5.1,0-2.32,1-4.25,3.01-5.8,2.01-1.54,4.94-3.09,8.81-4.64,4.02-1.85,7.11-3.59,9.27-5.22,2.16-1.62,3.24-3.75,3.24-6.38,0-.93-.31-1.39-.93-1.39-2.47,0-5.1.35-7.88,1.04-2.78.7-5.49,1.51-8.11,2.43-3.56,1.24-6.53,2.17-8.92,2.78-2.4.62-4.83.93-7.3.93-1.55,0-2.82-.5-3.82-1.51-1.01-1-1.51-2.28-1.51-3.83,0-2.01,1.04-4.21,3.13-6.61,2.09-2.39,4.06-3.59,5.91-3.59l21.1-7.88.93-1.16v-.93l-5.8-16.23c0-1.7.93-3.01,2.78-3.94Zm5.56,131.91c2.16-2.47,4.79-4.44,7.88-5.91,3.09-1.47,5.95-2.2,8.58-2.2,6.49,0,12.13,1.74,16.92,5.22,4.79,3.48,7.19,8.39,7.19,14.72,0,2.17-1.01,6.03-3.01,11.59-2.01,5.56-4.33,10.59-6.96,15.07-2.63,4.48-5.02,6.72-7.19,6.72-.46,0-.89-.08-1.28-.23-.39-.15-.81-.23-1.28-.23-2.01,0-3.82.89-5.45,2.67-1.62,1.78-2.51,3.67-2.67,5.68l-2.09,41.96c-.16,3.09-2.17,4.64-6.03,4.64-7.27,0-10.89-3.01-10.89-9.04,0-8.66.85-21.18,2.55-37.56,1.7-16.38,3.71-26.81,6.03-31.3.31-.62.77-1.47,1.39-2.55.62-1.08.93-2.01.93-2.78,0-.93-.81-1.62-2.43-2.09s-2.94-1.08-3.94-1.85c-1.01-.77-1.51-2.39-1.51-4.87,0-2.63,1.08-5.18,3.25-7.65Zm17.39,10.9c2.01,0,3.82-.42,5.45-1.27,1.62-.85,2.43-2.2,2.43-4.06,0-.46-.62-.7-1.86-.7-1.85,0-4.17.27-6.96.81-2.78.54-4.17,1.35-4.17,2.43,0,1.85,1.7,2.78,5.1,2.78Zm4.75,16.92c2.24-4.17,3.36-7.42,3.36-9.74l-.23-.46c-2.47,0-4.99,1.59-7.54,4.75-2.55,3.17-3.82,5.99-3.82,8.46,0,2.17.54,3.25,1.62,3.25,2.16,0,4.37-2.09,6.61-6.26Zm15.19,22.26c6.34-4.64,11.05-8.03,14.14-10.2,3.09-2.16,5.41-3.25,6.96-3.25,1.24,0,2.28.35,3.13,1.04.85.7,1.28,1.66,1.28,2.9,0,1.08-1.2,2.98-3.59,5.68-2.4,2.71-4.91,5.37-7.53,8-5.26,5.25-7.88,8.27-7.88,9.04,0,.62,1.66,1.85,4.98,3.71,3.32,1.85,7.15,3.94,11.48,6.26,12.98,6.95,23.22,12.94,30.72,17.97,7.49,5.02,11.24,9.47,11.24,13.33,0,4.79-3.79,7.19-11.36,7.19-3.09,0-10.28-3.44-21.56-10.32-11.28-6.88-21.91-14.18-31.88-21.91-9.97-7.73-14.95-12.83-14.95-15.3,0-1.7.93-3.48,2.78-5.33h-.23c2.93-1.55,7.03-4.48,12.29-8.81Z"/>
  <g>
    <path class="cls-3" d="m301.97,74.02c1.06-.23,2.41-.47,4.06-.71,1.65-.23,3.09-.73,4.33-1.5,1.24-.76,2.56-1.79,3.98-3.09,2.24-1.88,4.39-3.33,6.45-4.33,2.06-1,4.8-1.5,8.22-1.5,1.06,0,1.97.12,2.74.35.76.24,1.15.83,1.15,1.77,0,.47-.65,1.12-1.94,1.94-1.3.83-2.06,1.36-2.3,1.59-2.71,1.89-4.77,3.48-6.19,4.77-1.41,1.3-2.18,2.53-2.3,3.71,1.88,2.36,3.5,4.92,4.86,7.69,1.35,2.77,2.03,5.33,2.03,7.69,0,.94-.44,1.97-1.33,3.09-.88,1.12-2.27,2.56-4.15,4.33-2.36,2.24-4.18,4.24-5.48,6.01-1.3,1.77-1.94,3.53-1.94,5.3,0,.59,1.44,1.97,4.33,4.15,2.89,2.18,4.68,3.27,5.39,3.27,1.29,0,4.51-.38,9.63-1.15,5.13-.76,7.86-1.33,8.22-1.68.71-.47,1.38-1.94,2.03-4.42.65-2.47,1.15-4.65,1.5-6.54-.24-.71-.88-1.06-1.94-1.06-.47,0-1.18.12-2.12.35-.94.24-1.65.35-2.12.35-1.3,0-2.68-.26-4.15-.79-1.48-.53-2.21-1.33-2.21-2.39v-1.41c.35-.82,1.29-1.5,2.83-2.03,1.53-.53,3.53-1.03,6.01-1.5,1.53-.35,2.92-.71,4.15-1.06s1.85-.76,1.85-1.24c0-.71-.18-1.35-.53-1.94-.35-.59-.83-.88-1.41-.88-1.77,0-3.98.71-6.63,2.12-2.65,1.41-4.09,2.12-4.33,2.12-.94,0-1.71-.38-2.3-1.15-.59-.76-.88-1.62-.88-2.56,0-2.47,1.26-4.53,3.8-6.18,2.53-1.65,5.09-2.47,7.69-2.47,2.24,0,3.36-.41,3.36-1.24,0-1.06-.47-2.65-1.41-4.77-.94-2.12-1.41-3.71-1.41-4.77,0-.82.24-1.59.71-2.3.47-.71,1.06-1.06,1.77-1.06,4.24,0,7.07,3,8.48,9.01,1.41,6.01,2.12,12.19,2.12,18.55,0,3.18-.77,7.42-2.3,12.72-.94,3.89-1.48,6.13-1.59,6.71.94.83,2.77,1.53,5.48,2.12,2.71.59,4.42,1,5.12,1.24,1.65.47,3.21,1.86,4.68,4.15,1.47,2.3,2.21,4.33,2.21,6.1,0,6.13-3.59,10.9-10.78,14.31-2.59,1.3-4.54,1.94-5.83,1.94-1.65,0-2.47-.88-2.47-2.65,0-.59.35-1.24,1.06-1.94.71-.71,1.47-1.41,2.3-2.12,1.65-1.41,2.85-2.56,3.62-3.45.76-.88,1.15-1.97,1.15-3.27,0-1.18-1.15-2.12-3.45-2.83-2.3-.71-4.21-1.06-5.74-1.06-1.41,0-2.92.53-4.51,1.59-1.59,1.06-2.74,1.59-3.45,1.59s-1.62-.41-2.74-1.24c-1.12-.82-1.97-1.24-2.56-1.24-13.31,0-26.27,1.44-38.87,4.33-12.61,2.89-22.91,7.75-30.92,14.58-.47.47-1.83,1.83-4.06,4.06-2.24,2.24-3.95,3.36-5.12,3.36-.71,0-1.47-.32-2.3-.97-.83-.65-1.24-1.33-1.24-2.03,0-1.06,3.77-5.77,11.31-14.14l3.53-4.06c-1.89-2.36-2.83-5.59-2.83-9.72,0-6.83.71-14.07,2.12-21.73,1.41-7.66,3.59-13.54,6.54-17.67.12-.12.59-.71,1.41-1.77.82-1.06,1.59-1.59,2.3-1.59,1.18,0,1.77.65,1.77,1.94,0,.71-.24,1.77-.71,3.18-.47,1.41-.71,2.53-.71,3.36l.18,2.65c.71,0,1.47-.06,2.3-.18.82-.12,1.71-.18,2.65-.18,3.06,0,4.59,1.24,4.59,3.71,0,.83-.44,1.44-1.33,1.86-.88.41-2.15.8-3.8,1.15-1.65.35-2.92.74-3.8,1.15-.88.41-1.33,1.03-1.33,1.86s.29,1.24.88,1.24c4.95-2.47,8.6-3.71,10.96-3.71,1.3,0,3.83.71,7.6,2.12,2.83.94,4.42,1.41,4.77,1.41.59,0,2.36-1.47,5.3-4.42.47-.35,1.5-1.33,3.09-2.92,1.59-1.59,2.85-2.56,3.8-2.92,1.18-.47,1.88-1,2.12-1.59-.24-.71-.91-1.77-2.03-3.18-1.12-1.41-1.97-2.12-2.56-2.12-.35,0-1.27.71-2.74,2.12-1.47,1.41-2.86,2.56-4.15,3.45-1.3.88-2.71,1.33-4.24,1.33-1.06,0-1.89-.47-2.47-1.41-.59-.94-.88-2-.88-3.18s.38-2.36,1.15-3.53c.76-1.18,1.26-2,1.5-2.47-.94-.71-1.62-1.33-2.03-1.86-.41-.53-.62-1.21-.62-2.03,0-2.47,1.35-4,4.06-4.59Zm-40.46,4.68c2.12-2.89,4.62-5.36,7.51-7.42,2.89-2.06,5.33-3.09,7.33-3.09,1.41,0,2.65.44,3.71,1.33,1.06.88,1.59,2.03,1.59,3.45,0,1.3-.71,2.59-2.12,3.89-1.41,1.3-3.48,2.83-6.19,4.59-2.47,1.65-4.33,3.03-5.57,4.15-1.24,1.12-1.86,2.21-1.86,3.27s-.24,1.94-.71,2.65c-.47.71-1.18,1.06-2.12,1.06-1.3,0-2.42-.73-3.36-2.21-.94-1.47-1.41-2.92-1.41-4.33,0-2,1.06-4.44,3.18-7.33Zm44,58.22c1.06-1.3,2.24-1.94,3.53-1.94,2.24,0,4.48,1.41,6.71,4.24,2.24,2.83,3.36,5.42,3.36,7.77,0,1.77-.35,3.59-1.06,5.48-.71,1.89-1.12,3.06-1.24,3.53-1.65,3.77-2.47,6.66-2.47,8.66,2,.12,4.45-.06,7.33-.53,2.88-.47,5.74-1,8.57-1.59,7.54-1.65,13.13-2.47,16.79-2.47,4.59,0,8.86.62,12.81,1.86,3.95,1.24,5.92,3.62,5.92,7.16,0,1.18-.5,2.39-1.5,3.62-1,1.24-2.09,1.86-3.27,1.86-.83,0-3-.29-6.54-.88-2.59-.59-4.83-.88-6.71-.88-4.24,0-9.48.47-15.73,1.41-6.25.94-10.72,2.12-13.43,3.53,0,7.18-.41,11.84-1.24,13.96-1.3,3.3-3.42,6.95-6.36,10.96-2.95,4-5.6,6.01-7.95,6.01-1.18,0-2.33-.35-3.45-1.06-1.12-.71-1.68-1.65-1.68-2.83,0-.83.88-2.71,2.65-5.65,2-3.42,3.56-6.48,4.68-9.19,1.12-2.71,1.68-5.54,1.68-8.48h-2.12l-.35.18c-3.77.94-6.66,1.59-8.66,1.94-4.36.94-7.92,1.83-10.69,2.65-2.77.82-5.51,1.88-8.22,3.18-1.18.59-2,.88-2.47.88-.59,0-1.06-.18-1.41-.53l-.35-.88c0-2.24,1.56-4.36,4.68-6.36,3.12-2,7.57-4.36,13.34-7.07,6.36-2.83,10.31-5.01,11.84-6.54-.12-.47-.44-1.15-.97-2.03-.53-.88-.86-1.62-.97-2.21,2-2.36,3.86-4.95,5.57-7.77,1.71-2.83,2.56-5.24,2.56-7.24,0-1.41-.21-2.39-.62-2.92-.41-.53-.97-.97-1.68-1.33-.83-.35-1.44-.79-1.85-1.33-.41-.53-.62-1.56-.62-3.09,0-1.41.53-2.77,1.59-4.06Zm-7.24-29.24c-1.18-1.47-2.06-2.32-2.65-2.56-.47.12-1.41.77-2.83,1.94-1.06.83-3.18,1.86-6.36,3.09-3.18,1.24-5.89,2.21-8.13,2.92-.24.47-.59,2.21-1.06,5.21-.47,3-.77,4.92-.88,5.74h1.06c.47-.12,1.21-.38,2.21-.79,1-.41,1.86-.62,2.56-.62,1.41,0,2.12.88,2.12,2.65,0,.94-.33,1.92-.97,2.92-.65,1-.97,1.68-.97,2.03l.35.53c8.72-3.3,13.66-5.54,14.84-6.71.35-1.06.53-2.65.53-4.77,0-2.71.29-4.65.88-5.83.71-1.18,1.06-2.12,1.06-2.83,0-.47-.59-1.44-1.77-2.92Zm12.19,11.22c-.35-.23-.71-.35-1.06-.35-.94,0-1.41.35-1.41,1.06,0,.47.18.86.53,1.15.35.3.76.44,1.24.44.35,0,.62-.18.8-.53.18-.35.32-.59.44-.71,0-.47-.18-.82-.53-1.06Z"/>
    <path class="cls-3" d="m411.56,64.31c1.02-1.27,2.3-1.91,3.83-1.91,1.66,0,3.03.57,4.12,1.72,1.08,1.15,2.26,2.94,3.54,5.36,1.27,2.3,2.23,3.77,2.87,4.4.64,0,1.78-.73,3.45-2.2,1.66-1.47,2.68-2.33,3.06-2.58,1.78-1.53,3.67-3.03,5.65-4.5,1.98-1.47,3.41-2.2,4.31-2.2.77,0,1.59.42,2.49,1.24.89.83,1.34,1.63,1.34,2.39,0,.89-.64,2.23-1.92,4.02-1.28,1.79-1.98,3.13-2.1,4.02l.38.77c4.98-.25,10.08.07,15.32.96,5.23.89,8.87,2.68,10.91,5.36,1.02,1.28,1.53,3.64,1.53,7.08,0,.38.03,1.31.1,2.78.06,1.47-.19,2.62-.77,3.45-.57.83-1.56,1.24-2.97,1.24-1.28,0-2.2-.41-2.77-1.24-.57-.83-1.18-2.04-1.82-3.64-.64-1.59-1.21-2.65-1.72-3.16-1.28-.25-2.17-.38-2.68-.38-1.92,0-4.66.13-8.23.38-3.57.26-6.32.38-8.23.38l-5.17-.19c-1.28-.13-3.06-.19-5.36-.19-4.98,0-11.52.67-19.62,2.01-8.11,1.34-12.92,3.1-14.45,5.26-.77,1.15-1.53,3.64-2.3,7.47-.77,3.96-1.63,6.99-2.58,9.09-.96,2.11-2.39,3.16-4.31,3.16-1.79,0-2.9-.8-3.35-2.39-.45-1.59-.67-3.54-.67-5.84,0-2.42.54-5.36,1.63-8.81,1.08-3.45,2.58-6.41,4.5-8.9,1.91-2.49,4.15-3.73,6.7-3.73h2.49c1.15,0,1.98-.06,2.49-.19-.77-.64-1.91-1.56-3.45-2.78-1.53-1.21-2.78-2.42-3.73-3.64-.96-1.21-1.44-2.46-1.44-3.73s.6-2.65,1.82-4.12c1.21-1.47,2.46-2.2,3.73-2.2,1.4,0,4.18,1.41,8.33,4.21,4.15,2.81,6.54,4.85,7.18,6.13,0,.13.13.42.38.86.25.45.64.67,1.15.67.38,0,.77-.22,1.15-.67.38-.45.57-.86.57-1.24,0-1.4-1.15-3-3.45-4.79-2.3-1.79-3.45-3.45-3.45-4.98s.51-2.93,1.53-4.21Zm5.74,48.24c.89-3.7,2.26-6.95,4.12-9.76,1.85-2.81,4.12-4.21,6.8-4.21,1.27,0,2.93-.38,4.98-1.15.51-.13,1.27-.32,2.3-.57,1.02-.25,1.91-.38,2.68-.38,3.06,0,5.29,1.02,6.7,3.06,1.4,2.04,2.11,4.66,2.11,7.85,0,4.21-1.25,7.6-3.73,10.15-2.49,2.55-5.97,5.3-10.43,8.23-2.17,1.41-3.77,2.49-4.79,3.25-1.02.77-1.53,1.6-1.53,2.49,0,1.02.77,1.72,2.3,2.11,1.53.38,2.74.8,3.64,1.24.89.45,1.34,1.44,1.34,2.97,0,.64.32.96.96.96,2.04,0,4.02-.19,5.93-.57,2.55-.25,4.53-.38,5.94-.38,2.17,0,3.6.35,4.31,1.05.7.7,1.05,2.08,1.05,4.12,0,1.53-1.15,3.1-3.45,4.69-2.3,1.6-4.91,2.94-7.85,4.02-2.94,1.09-5.17,1.63-6.7,1.63-1.66,0-2.49,3.19-2.49,9.57v3.45c0,1.91.45,3.25,1.34,4.02.89.77,2.36,1.15,4.4,1.15,4.34,0,9.25-.32,14.74-.96,6.63-.51,11.55-.77,14.74-.77h17.04c9.83,0,14.74,3.19,14.74,9.57,0,3.19-1.76,5.23-5.26,6.13-3.51.89-7.56,1.34-12.16,1.34-6.26,0-15.51-.38-27.76-1.15-10.72-.89-19.98-1.34-27.76-1.34-1.28,0-2.94.25-4.98.77-2.3.51-4.02.77-5.17.77-3.19,0-7.6,1.02-13.21,3.06-2.17.77-4.4,1.44-6.7,2.01-2.3.57-4.4.86-6.32.86-1.66,0-3-.51-4.02-1.53-1.02-1.02-1.53-2.43-1.53-4.21,0-2.55,2.93-4.79,8.81-6.7,3.7-1.15,8.49-2.55,14.36-4.21,5.87-1.66,9.7-2.49,11.49-2.49,1.02-.51,1.53-1.15,1.53-1.91,0-1.79-.16-4.02-.48-6.7-.32-2.68-.67-4.53-1.05-5.55-.26-.64-.64-1.15-1.15-1.53-.51-.38-1.02-.57-1.53-.57-1.41,0-3.51.26-6.32.77-2.3.64-4.4.96-6.32.96-4.21,0-6.32-.89-6.32-2.68,0-2.17,1.12-3.83,3.35-4.98,2.23-1.15,5.52-2.3,9.86-3.45,4.6-1.27,7.53-2.36,8.81-3.25,1.4-1.15,3.38-4.27,5.93-9.38-.64-.25-1.47-.41-2.49-.48-1.02-.06-1.91-.16-2.68-.29-2.3-1.79-3.45-5.61-3.45-11.49,0-2.68.45-5.87,1.34-9.57Zm15.79,1.05c1.72-2.36,2.58-4.12,2.58-5.26,0-.51-.7-.77-2.11-.77-1.53,0-2.87.99-4.02,2.97-1.15,1.98-1.72,3.8-1.72,5.46,0,.26.13.51.38.77.25.26.51.38.77.38,1.02,0,2.39-1.18,4.12-3.54Z"/>
  </g>
</svg>