<?xml version="1.0" encoding="utf-8"?>
<!-- Generator: Adobe Illustrator 27.2.0, SVG Export Plug-In . SVG Version: 6.00 Build 0)  -->
<svg version="1.1" id="圖層_1" xmlns="http://www.w3.org/2000/svg" xmlns:xlink="http://www.w3.org/1999/xlink" x="0px" y="0px"
	 viewBox="0 0 906 167" style="enable-background:new 0 0 906 167;" xml:space="preserve">
<style type="text/css">
	.st0{fill:#006837;}
	.st1{fill:none;stroke:#006837;stroke-width:2;stroke-miterlimit:10;}
	.st2{fill:none;stroke:#D9E021;stroke-width:2;stroke-miterlimit:10;}
	.st3{fill:#D9E021;}
</style>
<g id="_圖層_2">
	<g>
		<g>
			<path class="st0" d="M105.1,46.3h-4.3v5.4c0,2.6-2.2,4.6-4.8,4.6H74.7c-2.6,0-4.6-2-4.6-4.6v-5.4h-5.2c-3.8,0-6.8,3.2-6.8,7v57.1
				c0,3.8,3,6.8,6.8,6.8h24.2c-1.3-2.5-2.2-5-2.8-7.5h-8.2c-0.9,0-1.6-0.7-1.6-1.6s0.7-1.6,1.6-1.6h7.7c-0.3-2.7-0.2-5.2,0.4-7.5
				h-8.1c-0.9,0-1.6-0.7-1.6-1.6s0.7-1.6,1.6-1.6h9.2c0.4-0.6,0.8-1.5,1.3-2.1c2.4-3.2,5-4.6,7.1-5.4H78.1c-0.9,0-1.6-0.7-1.6-1.6
				s0.7-1.6,1.6-1.6h19.6c-0.3-1.2,0-2.7,0.8-3.8c0.9-1.2,2.3-1.8,3.8-1.8c1,0,2,0.3,2.8,1c0.2,0.2,1.6,1.2,3,3
				c1.2-1.4,2.6-2.4,4-3.1v-27C112.1,49.5,108.9,46.3,105.1,46.3L105.1,46.3z M73.2,106.9l-3.1,4.3c-0.3,0.4-0.7,0.6-1.2,0.7
				c0,0-0.1,0-0.1,0c-0.4,0-0.9-0.2-1.2-0.5l-2.2-2.6c-0.6-0.7-0.5-1.7,0.2-2.2s1.7-0.5,2.2,0.2l0.9,1.1l1.9-2.7
				c0.5-0.7,1.5-0.9,2.2-0.4C73.5,105.2,73.7,106.2,73.2,106.9z M73.2,96.1l-3.1,4.3c-0.3,0.4-0.7,0.6-1.2,0.7c0,0-0.1,0-0.1,0
				c-0.4,0-0.9-0.2-1.2-0.5l-2.2-2.6c-0.6-0.7-0.5-1.7,0.2-2.2s1.7-0.5,2.2,0.2l0.9,1.1l1.9-2.7c0.5-0.7,1.5-0.9,2.2-0.4
				C73.5,94.5,73.7,95.4,73.2,96.1z M73.2,85.4l-3.1,4.3c-0.3,0.4-0.7,0.6-1.2,0.7c0,0-0.1,0-0.1,0c-0.4,0-0.9-0.2-1.2-0.5l-2.2-2.6
				c-0.6-0.7-0.5-1.7,0.2-2.2c0.7-0.6,1.7-0.5,2.2,0.2l0.9,1.1l1.9-2.7c0.5-0.7,1.5-0.9,2.2-0.3C73.5,83.7,73.7,84.7,73.2,85.4
				L73.2,85.4z M73.2,74.8l-3.1,4.3c-0.3,0.4-0.7,0.6-1.2,0.7c0,0-0.1,0-0.1,0c-0.4,0-0.9-0.2-1.2-0.5l-2.2-2.6
				c-0.6-0.7-0.5-1.7,0.2-2.2c0.7-0.6,1.7-0.5,2.2,0.2l0.9,1.1l1.9-2.7c0.5-0.7,1.5-0.9,2.2-0.3C73.5,73.2,73.7,74.1,73.2,74.8
				L73.2,74.8z M73.2,63.9l-3.1,4.3c-0.3,0.4-0.7,0.6-1.2,0.7c0,0-0.1,0-0.1,0c-0.4,0-0.9-0.2-1.2-0.5l-2.2-2.6
				c-0.6-0.7-0.5-1.7,0.2-2.2c0.7-0.6,1.7-0.5,2.2,0.2l0.9,1.1l1.9-2.7c0.5-0.7,1.5-0.9,2.2-0.4C73.5,62.3,73.7,63.2,73.2,63.9z
				 M102.6,77.7H78.1c-0.9,0-1.6-0.7-1.6-1.6s0.7-1.6,1.6-1.6h24.5c0.9,0,1.6,0.7,1.6,1.6S103.5,77.7,102.6,77.7z M102.6,67H78.1
				c-0.9,0-1.6-0.7-1.6-1.6s0.7-1.6,1.6-1.6h24.5c0.9,0,1.6,0.7,1.6,1.6S103.5,67,102.6,67z"/>
			<path class="st0" d="M96,53.2H74.7c-0.9,0-1.4-0.6-1.4-1.5v-6.9c0-0.9,0.6-1.7,1.4-1.7h4.9c0-0.2-0.1-0.5-0.1-0.8
				c0-3.2,2.6-5.9,5.8-5.9s5.8,2.6,5.8,5.8c0,0.3,0,0.6-0.1,0.8h5c0.9,0,1.7,0.8,1.7,1.7v6.9C97.7,52.6,96.9,53.2,96,53.2L96,53.2z"
				/>
			<path class="st0" d="M125.3,95.7c-3.5-4.8-7.4-4.7-8.9-4.7c-0.9,0-2.2,0.3-3.5,0.6c0.7-0.5,1.4-1.2,2-2c2.4-3.3,2-7.8,2-7.8
				s-4.4,0.9-6.8,4.2c-0.9,1.3-1.4,2.7-1.7,4c-1.8-4.6-4.9-7-5.1-7.1c-0.7-0.5-1.7-0.4-2.2,0.3c-0.5,0.7-0.4,1.7,0.3,2.2
				c0,0,3.1,2.4,4.4,6.9c0,0,0,0,0,0c-1.6-0.7-4.1-1.4-5.6-1.4s-5.4-0.1-8.9,4.7c-3.5,4.8-3.7,13,2.5,23.3c4.5,7.6,8.6,6.1,11.8,5.2
				c1.2-0.3,4.3-0.3,5.5,0c3.2,1,7.3,2.4,11.8-5.2C129,108.7,128.8,100.5,125.3,95.7L125.3,95.7z M100.3,99.8
				c-0.6,0.3-1.1,0.8-1.6,1.5c-1.8,2.5-1.3,6.8,1.5,11.4c0.4,0.7,0.2,1.7-0.5,2.2c-0.2,0.2-0.5,0.2-0.8,0.2c-0.5,0-1.1-0.3-1.3-0.8
				c-3.5-5.8-4-11.2-1.3-14.9c0.7-1,1.6-1.8,2.5-2.3c0.8-0.4,1.7-0.2,2.2,0.6S101.1,99.4,100.3,99.8L100.3,99.8z"/>
		</g>
		<g>
			<path class="st1" d="M31.6,16.2c0,0,1.4-1.9,3.6-2.2c0.8-0.1,2.2,0.3,2.4,1.1c0.2,0.8-0.7,1.7-1.8,1.9
				C33.6,17.4,31.6,16.2,31.6,16.2L31.6,16.2z"/>
			<path class="st1" d="M16.7,34c0,0,1-2.5,3.1-3.5c0.8-0.4,2.5-0.3,2.9,0.6c0.4,0.9-0.2,2.1-1.3,2.6C19.2,34.8,16.7,34,16.7,34z"/>
			<path class="st1" d="M22.2,20.7c0,0-0.8-1.4-0.3-3.4c0.2-0.7,1-2,1.6-2.1c0.6-0.1,0.9,0.8,0.7,1.8C23.7,19,22.2,20.7,22.2,20.7z"
				/>
			<path class="st1" d="M44.8,5.4c0,0,2.3,0.4,4.7-0.7c0.8-0.4,2.1-1.7,1.9-2.4c-0.2-0.7-1.5-0.8-2.8-0.2
				C46.2,3.2,44.8,5.4,44.8,5.4z"/>
			<path class="st1" d="M8,52c0,0,1.1-2.9,0.6-5.5c-0.2-0.9-1.2-2.2-2.1-1.8c-0.8,0.5-1.3,2-1,3.4C6,50.7,8,52,8,52L8,52z"/>
			<path class="st1" d="M16.6,32.4c0,0-0.7-1.7-0.2-3.9c0.2-0.8,0.9-2.3,1.5-2.3c0.6-0.1,0.8,0.9,0.6,2.1
				C18,30.5,16.6,32.4,16.6,32.4L16.6,32.4z"/>
			<path class="st1" d="M5.9,60.1C7.3,55,9,52.8,11,52.2c1.9-0.6,3.9-0.4,4.9,1.4c0.8,1.4,0.3,3.2-1.1,4c-1.1,0.6-2.5,0.2-3.2-0.9
				c-0.5-0.9-0.2-2,0.7-2.5"/>
			<path class="st1" d="M31,16.4c3.6-3,4.3-6.1,4.1-7.9c-0.2-1.8-1.1-3.3-2.9-3.5c-1.4-0.1-2.7,0.9-2.8,2.3
				c-0.1,1.1,0.7,2.1,1.9,2.2C32.1,9.6,32.9,8.9,33,8"/>
			<path class="st0" d="M39.4,5.6c0,0.5-0.4,0.9-0.9,0.9s-0.9-0.4-0.9-0.9s0.4-0.9,0.9-0.9S39.4,5.1,39.4,5.6z"/>
			<path class="st0" d="M26.2,26.5c0,0.5-0.4,0.9-0.9,0.9s-0.9-0.4-0.9-0.9s0.4-0.9,0.9-0.9S26.2,26,26.2,26.5z"/>
			<path class="st1" d="M45.8,5.2C20.5,20.2,3.6,47.8,3.6,79.3c0,47.7,38.7,86.4,86.4,86.4s86.4-38.7,86.4-86.4
				c0-31.4-16.7-58.8-41.8-74"/>
			<path class="st0" d="M0.5,61.1c-0.3,0.4-0.2,1,0.3,1.3s1,0.2,1.3-0.2s0.2-1-0.2-1.3S0.8,60.7,0.5,61.1z"/>
			<path class="st0" d="M12.5,46.8c-0.3,0.4-0.2,1,0.2,1.3s1,0.2,1.3-0.2s0.2-1-0.2-1.3S12.8,46.3,12.5,46.8z"/>
			<path class="st1" d="M148.4,16.2c0,0-1.4-1.9-3.6-2.2c-0.8-0.1-2.2,0.3-2.4,1.1c-0.2,0.8,0.7,1.7,1.8,1.9
				C146.4,17.4,148.4,16.2,148.4,16.2L148.4,16.2z"/>
			<path class="st1" d="M163.3,34c0,0-1-2.5-3.1-3.5c-0.8-0.4-2.5-0.3-2.9,0.6c-0.4,0.9,0.2,2.1,1.3,2.6
				C160.8,34.8,163.3,34,163.3,34L163.3,34z"/>
			<path class="st1" d="M157.8,20.7c0,0,0.8-1.4,0.3-3.4c-0.2-0.7-1-2-1.6-2.1c-0.6-0.1-0.9,0.8-0.7,1.8
				C156.3,19,157.8,20.7,157.8,20.7L157.8,20.7z"/>
			<path class="st1" d="M135.2,5.4c0,0-2.4,0.4-4.7-0.7c-0.9-0.4-2.1-1.7-1.9-2.4c0.2-0.7,1.5-0.8,2.8-0.2
				C133.8,3.2,135.2,5.4,135.2,5.4z"/>
			<path class="st1" d="M172,52c0,0-1.1-2.9-0.6-5.5c0.2-0.9,1.2-2.2,2.1-1.8c0.9,0.5,1.3,2,1,3.4C174,50.7,172,52,172,52L172,52z"
				/>
			<path class="st1" d="M163.4,32.4c0,0,0.7-1.7,0.2-3.9c-0.2-0.8-0.9-2.3-1.5-2.3c-0.6-0.1-0.8,0.9-0.6,2.1
				C162,30.5,163.4,32.4,163.4,32.4L163.4,32.4z"/>
			<path class="st1" d="M174.1,60.1c-1.4-5.1-3.1-7.3-5.1-7.9c-1.9-0.6-3.9-0.4-4.9,1.4c-0.8,1.4-0.3,3.2,1.1,4
				c1.1,0.6,2.5,0.2,3.2-0.9c0.5-0.9,0.2-2-0.7-2.5"/>
			<path class="st1" d="M149,16.4c-3.6-3-4.4-6.1-4.1-7.9c0.2-1.8,1.1-3.3,2.9-3.5c1.4-0.1,2.7,0.9,2.8,2.3c0.1,1.1-0.7,2.1-1.9,2.2
				c-0.9,0.1-1.7-0.6-1.8-1.5"/>
			<path class="st0" d="M140.6,5.6c0,0.5,0.4,0.9,0.9,0.9s0.9-0.4,0.9-0.9s-0.4-0.9-0.9-0.9S140.6,5.1,140.6,5.6z"/>
			<path class="st0" d="M153.8,26.5c0,0.5,0.4,0.9,0.9,0.9s0.9-0.4,0.9-0.9s-0.4-0.9-0.9-0.9S153.8,26,153.8,26.5z"/>
			<path class="st0" d="M179.5,61.1c0.3,0.4,0.2,1-0.2,1.3s-1,0.2-1.3-0.2c-0.3-0.4-0.2-1,0.2-1.3S179.2,60.7,179.5,61.1z"/>
			<path class="st0" d="M167.5,46.8c0.3,0.4,0.2,1-0.2,1.3s-1,0.2-1.3-0.2s-0.2-1,0.2-1.3S167.2,46.3,167.5,46.8z"/>
		</g>
	</g>
	<g>
		<g>
			<path class="st2" d="M213.1,16.2c0,0,1.4-1.9,3.6-2.2c0.8-0.1,2.2,0.3,2.4,1.1c0.2,0.8-0.7,1.7-1.8,1.9
				C215.1,17.4,213.1,16.2,213.1,16.2L213.1,16.2z"/>
			<path class="st2" d="M198.2,34c0,0,1-2.5,3.1-3.5c0.8-0.4,2.5-0.3,2.9,0.6c0.4,0.9-0.2,2.1-1.3,2.6C200.7,34.8,198.2,34,198.2,34
				L198.2,34z"/>
			<path class="st2" d="M203.6,20.7c0,0-0.8-1.4-0.3-3.4c0.2-0.7,1-2,1.6-2.1c0.6-0.1,0.9,0.8,0.7,1.8
				C205.2,19,203.6,20.7,203.6,20.7L203.6,20.7z"/>
			<path class="st2" d="M226.3,5.4c0,0,2.4,0.4,4.7-0.7c0.9-0.4,2.1-1.7,1.9-2.4c-0.2-0.7-1.5-0.8-2.8-0.2
				C227.7,3.2,226.3,5.4,226.3,5.4z"/>
			<path class="st2" d="M189.5,52c0,0,1.1-2.9,0.6-5.5c-0.2-0.9-1.2-2.2-2.1-1.8c-0.9,0.5-1.3,2-1,3.4C187.5,50.7,189.5,52,189.5,52
				L189.5,52z"/>
			<path class="st2" d="M198.1,32.4c0,0-0.7-1.7-0.2-3.9c0.2-0.8,0.9-2.3,1.5-2.3c0.6-0.1,0.8,0.9,0.6,2.1
				C199.5,30.5,198.1,32.4,198.1,32.4L198.1,32.4z"/>
			<path class="st2" d="M187.4,60.1c1.4-5.1,3.1-7.3,5.1-7.9c1.9-0.6,3.9-0.4,4.9,1.4c0.8,1.4,0.3,3.2-1.1,4
				c-1.1,0.6-2.5,0.2-3.2-0.9c-0.5-0.9-0.2-2,0.7-2.5"/>
			<path class="st2" d="M212.4,16.4c3.6-3,4.4-6.1,4.1-7.9c-0.2-1.8-1.1-3.3-2.9-3.5c-1.4-0.1-2.7,0.9-2.8,2.3
				c-0.1,1.1,0.7,2.1,1.9,2.2c0.9,0.1,1.7-0.6,1.8-1.5"/>
			<path class="st3" d="M220.9,5.6c0,0.5-0.4,0.9-0.9,0.9S219,6.1,219,5.6s0.4-0.9,0.9-0.9S220.9,5.1,220.9,5.6z"/>
			<path class="st3" d="M207.7,26.5c0,0.5-0.4,0.9-0.9,0.9s-0.9-0.4-0.9-0.9s0.4-0.9,0.9-0.9S207.7,26,207.7,26.5z"/>
			<path class="st2" d="M227.3,5.2c-25.2,15.1-42.1,42.7-42.1,74.2c0,47.7,38.7,86.4,86.4,86.4s86.4-38.7,86.4-86.4
				c0-31.4-16.7-58.8-41.8-74"/>
			<path class="st3" d="M181.9,61.1c-0.3,0.4-0.2,1,0.2,1.3s1,0.2,1.3-0.2c0.3-0.4,0.2-1-0.2-1.3S182.2,60.7,181.9,61.1z"/>
			<path class="st3" d="M194,46.8c-0.3,0.4-0.2,1,0.2,1.3s1,0.2,1.3-0.2s0.2-1-0.2-1.3S194.3,46.3,194,46.8z"/>
			<path class="st2" d="M329.9,16.2c0,0-1.5-1.9-3.6-2.2c-0.8-0.1-2.2,0.3-2.4,1.1c-0.2,0.8,0.7,1.7,1.8,1.9
				C327.9,17.4,329.9,16.2,329.9,16.2L329.9,16.2z"/>
			<path class="st2" d="M344.8,34c0,0-1-2.5-3.1-3.5c-0.8-0.4-2.5-0.3-2.9,0.6c-0.4,0.9,0.2,2.1,1.3,2.6
				C342.3,34.8,344.8,34,344.8,34L344.8,34z"/>
			<path class="st2" d="M339.3,20.7c0,0,0.8-1.4,0.3-3.4c-0.2-0.7-1-2-1.6-2.1c-0.6-0.1-0.9,0.8-0.7,1.8
				C337.8,19,339.3,20.7,339.3,20.7L339.3,20.7z"/>
			<path class="st2" d="M316.7,5.4c0,0-2.4,0.4-4.7-0.7c-0.9-0.4-2.1-1.7-1.9-2.4c0.2-0.7,1.5-0.8,2.8-0.2
				C315.2,3.2,316.7,5.4,316.7,5.4z"/>
			<path class="st2" d="M353.5,52c0,0-1.1-2.9-0.6-5.5c0.2-0.9,1.2-2.2,2.1-1.8c0.9,0.5,1.3,2,1,3.4C355.5,50.7,353.5,52,353.5,52
				L353.5,52z"/>
			<path class="st2" d="M344.9,32.4c0,0,0.7-1.7,0.2-3.9c-0.2-0.8-0.9-2.3-1.5-2.3c-0.6-0.1-0.8,0.9-0.6,2.1
				C343.5,30.5,344.9,32.4,344.9,32.4L344.9,32.4z"/>
			<path class="st2" d="M355.6,60.1c-1.4-5.1-3.1-7.3-5.1-7.9c-1.9-0.6-4-0.4-4.9,1.4c-0.8,1.4-0.3,3.2,1.1,4
				c1.1,0.6,2.5,0.2,3.2-0.9c0.5-0.9,0.2-2-0.7-2.5"/>
			<path class="st2" d="M330.5,16.4c-3.6-3-4.4-6.1-4.1-7.9c0.2-1.8,1.1-3.3,2.9-3.5c1.4-0.1,2.7,0.9,2.8,2.3
				c0.1,1.1-0.7,2.1-1.9,2.2c-0.9,0.1-1.7-0.6-1.8-1.5"/>
			<path class="st3" d="M322.1,5.6c0,0.5,0.4,0.9,0.9,0.9s0.9-0.4,0.9-0.9s-0.4-0.9-0.9-0.9S322.1,5.1,322.1,5.6z"/>
			<path class="st3" d="M335.3,26.5c0,0.5,0.4,0.9,0.9,0.9s0.9-0.4,0.9-0.9s-0.4-0.9-0.9-0.9S335.3,26,335.3,26.5z"/>
			<path class="st3" d="M361,61.1c0.3,0.4,0.2,1-0.2,1.3s-1,0.2-1.3-0.2c-0.3-0.4-0.2-1,0.2-1.3S360.7,60.7,361,61.1z"/>
			<path class="st3" d="M349,46.8c0.3,0.4,0.2,1-0.2,1.3s-1,0.2-1.3-0.2s-0.2-1,0.2-1.3S348.7,46.3,349,46.8z"/>
		</g>
		<g>
			<path class="st3" d="M294.5,45.7c-7.1,0-14.4,3.5-19.8,11.5c-5.4-8-12.6-11.5-19.8-11.5c-12.7,0-24.9,11-24.9,26.6
				c0,0.9,0.1,2.1,0.1,2.8h11.4l1.7-2.5c1-1.5,2.8-2.4,4.6-2.4c0.2,0,0.3,0,0.5,0c2,0.2,3.7,1.4,4.6,3.2l0.1,0.2
				c0.7-0.3,1.5-0.5,2.2-0.5c0.4,0,0.9,0.1,1.3,0.2c0.2,0.1,0.4,0.1,0.5,0.2l1-14.7c0.2-2.8,2.4-5,5.2-5.2c0.1,0,0.2,0,0.4,0
				c2.6,0,4.9,1.9,5.4,4.5l2.7,13.3c0.4-0.1,0.7-0.1,1.1-0.1c0.1,0,0.2,0,0.4,0c2,0.1,3.8,1.3,4.6,3.1l0.4,0.8h6.9
				c3.1,0,5.6,2.5,5.6,5.6s-2.5,5.6-5.6,5.6h-10.4c-0.5,0-0.9-0.1-1.3-0.2l-0.2,0.4c-1,1.6-2.8,2.5-4.6,2.5c-0.4,0-0.7,0-1-0.1
				c-0.1,0-0.2-0.1-0.4-0.1l-1,14c-0.2,2.7-2.4,4.9-5.1,5.2c-0.1,0-0.3,0-0.5,0c-2.6,0-4.8-1.8-5.4-4.3l-3.4-14.8
				c-0.2,0-0.4,0-0.6,0c-0.3,0-0.5,0-0.8-0.1c-1.8-0.3-3.3-1.3-4.1-2.9c-0.6,0.2-1.2,0.3-1.9,0.3h-10.7c5.1,9.7,14.6,17,22.4,23.1
				c11.6,9.2,18.6,14.9,18.6,14.9s6.8-5.9,18.6-14.9c11.4-8.7,26.1-20.8,26.1-37.3C319.4,56.6,307.2,45.7,294.5,45.7L294.5,45.7z"/>
			<path class="st3" d="M260.7,104.3c-0.9,0-1.6-0.6-1.8-1.4l-4.7-20.1l-1.6,1.8c-0.4,0.5-1,0.7-1.7,0.6c-0.6-0.1-1.2-0.5-1.4-1.1
				l-2.1-4.6l-1.5,2.2c-0.4,0.5-0.9,0.8-1.5,0.8h-23.1c-1,0-1.9-0.8-1.9-1.9s0.8-1.9,1.9-1.9h22.1l2.8-4.1c0.4-0.6,1-0.9,1.7-0.8
				s1.2,0.5,1.5,1.1l2.3,4.9l2.1-2.4c0.5-0.5,1.2-0.8,1.9-0.6s1.2,0.7,1.4,1.4l2.7,11.5l2.1-30.8c0.1-0.9,0.8-1.7,1.7-1.7
				c0.9-0.1,1.8,0.6,1.9,1.5l4.1,19.8l1.9-2.8c0.4-0.6,1-0.9,1.7-0.8c0.7,0,1.2,0.4,1.5,1l1.4,2.8h9.2c1,0,1.9,0.8,1.9,1.9
				s-0.8,1.9-1.9,1.9h-10.4c-0.7,0-1.4-0.4-1.7-1l-0.5-0.9l-2.6,3.9c-0.4,0.6-1.2,0.9-1.9,0.8s-1.3-0.7-1.5-1.4l-2.2-10.8l-2,29.6
				c-0.1,0.9-0.8,1.7-1.7,1.7C260.8,104.3,260.8,104.3,260.7,104.3L260.7,104.3z"/>
		</g>
	</g>
	<g>
		<g>
			<path class="st1" d="M394.5,16.2c0,0,1.5-1.9,3.6-2.2c0.8-0.1,2.2,0.3,2.4,1.1s-0.7,1.7-1.8,1.9
				C396.5,17.4,394.5,16.2,394.5,16.2L394.5,16.2z"/>
			<path class="st1" d="M379.6,34c0,0,1-2.5,3.1-3.5c0.8-0.4,2.5-0.3,2.9,0.6c0.4,0.9-0.2,2.1-1.3,2.6C382.2,34.8,379.6,34,379.6,34
				L379.6,34z"/>
			<path class="st1" d="M385.1,20.8c0,0-0.8-1.4-0.3-3.4c0.2-0.7,1-2,1.6-2.1c0.6-0.1,0.9,0.8,0.7,1.8
				C386.6,19,385.1,20.8,385.1,20.8L385.1,20.8z"/>
			<path class="st1" d="M407.7,5.5c0,0,2.4,0.4,4.7-0.7c0.9-0.4,2.1-1.7,1.9-2.4c-0.2-0.7-1.5-0.8-2.8-0.2
				C409.2,3.3,407.7,5.5,407.7,5.5z"/>
			<path class="st1" d="M370.9,52.1c0,0,1.1-2.9,0.6-5.5c-0.2-0.9-1.2-2.2-2.1-1.8c-0.9,0.5-1.3,2-1,3.4
				C368.9,50.8,370.9,52.1,370.9,52.1L370.9,52.1z"/>
			<path class="st1" d="M379.5,32.5c0,0-0.7-1.7-0.2-3.9c0.2-0.8,0.9-2.3,1.5-2.3c0.6-0.1,0.8,0.9,0.6,2.1
				C381,30.5,379.6,32.5,379.5,32.5L379.5,32.5z"/>
			<path class="st1" d="M368.8,60.2c1.4-5.1,3.1-7.3,5.1-7.9c1.9-0.6,4-0.4,4.9,1.4c0.8,1.4,0.3,3.2-1.1,4c-1.1,0.6-2.5,0.2-3.2-0.9
				c-0.5-0.9-0.2-2,0.7-2.5"/>
			<path class="st1" d="M393.9,16.4c3.6-3,4.3-6.1,4.1-7.9c-0.2-1.8-1.1-3.3-2.9-3.5c-1.4-0.1-2.7,0.9-2.8,2.3
				c-0.1,1.1,0.7,2.1,1.9,2.2c0.9,0.1,1.7-0.6,1.8-1.5"/>
			<path class="st0" d="M402.3,5.7c0,0.5-0.4,0.9-0.9,0.9s-0.9-0.4-0.9-0.9s0.4-0.9,0.9-0.9S402.3,5.1,402.3,5.7z"/>
			<path class="st0" d="M389.1,26.6c0,0.5-0.4,0.9-0.9,0.9s-0.9-0.4-0.9-0.9s0.4-0.9,0.9-0.9S389.1,26.1,389.1,26.6z"/>
			<path class="st1" d="M408.7,5.2c-25.2,15.1-42.1,42.7-42.1,74.2c0,47.7,38.7,86.3,86.4,86.3c47.7,0,86.4-38.7,86.3-86.4
				c0-31.4-16.8-58.8-41.8-73.9"/>
			<path class="st0" d="M363.4,61.2c-0.3,0.4-0.2,1,0.2,1.3s1,0.2,1.3-0.2c0.3-0.4,0.2-1-0.2-1.3S363.7,60.8,363.4,61.2z"/>
			<path class="st0" d="M375.4,46.8c-0.3,0.4-0.2,1,0.2,1.3c0.4,0.3,1,0.2,1.3-0.2s0.2-1-0.2-1.3C376.3,46.3,375.7,46.4,375.4,46.8z
				"/>
			<path class="st1" d="M511.4,16.2c0,0-1.5-1.9-3.6-2.2c-0.8-0.1-2.2,0.3-2.4,1.1c-0.2,0.8,0.7,1.7,1.8,1.9
				C509.3,17.4,511.3,16.2,511.4,16.2L511.4,16.2z"/>
			<path class="st1" d="M526.2,33.9c0,0-1-2.5-3.1-3.5c-0.8-0.4-2.5-0.3-2.9,0.6c-0.4,0.9,0.2,2.1,1.3,2.6
				C523.7,34.7,526.3,33.9,526.2,33.9L526.2,33.9z"/>
			<path class="st1" d="M520.8,20.7c0,0,0.8-1.4,0.3-3.4c-0.2-0.7-1-2-1.6-2.1c-0.6-0.1-0.9,0.8-0.7,1.8
				C519.2,19,520.8,20.7,520.8,20.7L520.8,20.7z"/>
			<path class="st1" d="M498.1,5.4c0,0-2.4,0.4-4.7-0.7c-0.9-0.4-2.1-1.7-1.9-2.4c0.2-0.7,1.5-0.8,2.8-0.2
				C496.7,3.2,498.2,5.4,498.1,5.4L498.1,5.4z"/>
			<path class="st1" d="M535,52c0,0-1.1-2.9-0.6-5.5c0.2-0.9,1.2-2.2,2.1-1.8c0.8,0.5,1.3,2,1,3.4C537,50.7,535,52,535,52L535,52z"
				/>
			<path class="st1" d="M526.3,32.4c0,0,0.7-1.7,0.2-3.9c-0.2-0.8-0.9-2.3-1.5-2.3c-0.6-0.1-0.8,0.9-0.6,2.1
				C524.9,30.4,526.3,32.4,526.3,32.4L526.3,32.4z"/>
			<path class="st1" d="M537.1,60.1c-1.4-5.1-3.1-7.3-5.2-7.9c-1.9-0.6-4-0.4-4.9,1.4c-0.8,1.4-0.3,3.2,1.1,4
				c1.1,0.6,2.5,0.2,3.2-0.9c0.5-0.9,0.2-2-0.7-2.5"/>
			<path class="st1" d="M512,16.3c-3.6-3-4.4-6.1-4.1-7.9c0.2-1.8,1.1-3.3,2.9-3.5c1.4-0.1,2.7,0.9,2.8,2.3c0.1,1.1-0.7,2.1-1.9,2.2
				c-0.9,0.1-1.7-0.6-1.8-1.5"/>
			<path class="st0" d="M503.5,5.6c0,0.5,0.4,0.9,0.9,0.9s0.9-0.4,0.9-0.9s-0.4-0.9-0.9-0.9S503.5,5.1,503.5,5.6z"/>
			<path class="st0" d="M516.7,26.5c0,0.5,0.4,0.9,0.9,0.9s0.9-0.4,0.9-0.9s-0.4-0.9-0.9-0.9S516.7,26,516.7,26.5z"/>
			<path class="st0" d="M542.5,61.1c0.3,0.4,0.2,1-0.2,1.3s-1,0.2-1.3-0.2s-0.2-1,0.2-1.3S542.2,60.7,542.5,61.1z"/>
			<path class="st0" d="M530.5,46.7c0.3,0.4,0.2,1-0.2,1.3s-1,0.2-1.3-0.2s-0.2-1,0.2-1.3S530.2,46.3,530.5,46.7z"/>
		</g>
		<g>
			<path class="st0" d="M456.1,56.3c-4.5,0-8.5-2.7-10.2-6.8c-1.1-2.7-1.1-5.7,0-8.5s3.3-4.9,6-6c1.4-0.6,2.8-0.8,4.2-0.8
				c4.5,0,8.5,2.7,10.2,6.8c2.3,5.6-0.4,12.1-6,14.5C459,56.1,457.6,56.4,456.1,56.3L456.1,56.3z"/>
			<path class="st0" d="M431.6,58.2c-0.7,0-1.4-0.4-1.7-1.1c-0.4-0.9,0.1-2,1-2.3c4.1-1.7,4.3-3.1,4.6-5.1c0.3-2.3,0.7-5.2,5.9-7.6
				c0.9-0.4,2,0,2.4,0.9s0,2-0.9,2.4c-3.4,1.6-3.6,3-3.8,4.8c-0.4,3-1.2,5.7-6.8,7.9C432,58.2,431.8,58.2,431.6,58.2L431.6,58.2z"/>
			<path class="st0" d="M494.3,59.6H464c-1.2-0.7-4.5-2.4-7.7-2.4c-3.2,0-6.4,1.7-7.6,2.4h-32.5c-2.2,0-4,1.8-4,4s1.8,4,4,4h29.7
				c0,3.6,0.8,6,1.7,8.4c0.9,2.5,1,3.9,1,6.9c0,3.6-1.1,8.5-5.3,11.3l-33.5,20.3c-2.2,1.3-2.9,4.2-1.6,6.5c0.9,1.5,2.4,2.3,4,2.3
				c0.8,0,1.7-0.2,2.4-0.7c0,0,33.3-20.2,35.2-21.3c2.4-1.4,5-1.3,6.8-1.2c2.9,0.1,6.4,0.2,9.6,0.2s6.2-0.1,8.7-0.1
				c-0.3,4.9-0.4,12.4,1.1,19.3c0.5,2.5,3,4.2,5.6,3.6s4.2-3,3.6-5.6c-2-9.8-0.5-21.6-0.5-21.7c0.2-1.4-0.2-2.8-1.2-3.8
				c-0.9-1-2.3-1.6-3.7-1.6c-0.1,0-6.9,0.3-13.6,0.3h-0.2c-0.9-1.4-2-4.3-2.2-7.1c-0.1-1.8,0.9-4.7,1.4-6.3c0.1-0.4,0.2-0.7,0.3-0.9
				c0.3-1.1,1.3-5.3,1.2-8.9h27.5c2.2,0,4-1.8,4-4S496.5,59.6,494.3,59.6L494.3,59.6z"/>
		</g>
	</g>
	<g>
		<g>
			<path class="st1" d="M576,16.2c0,0,1.5-1.9,3.6-2.2c0.8-0.1,2.2,0.3,2.4,1.1c0.2,0.8-0.7,1.7-1.8,1.9C578,17.4,576,16.2,576,16.2
				L576,16.2z"/>
			<path class="st1" d="M561.1,34c0,0,1-2.5,3.1-3.5c0.8-0.4,2.5-0.3,2.9,0.6c0.4,0.9-0.2,2.1-1.3,2.6C563.6,34.8,561.1,34,561.1,34
				L561.1,34z"/>
			<path class="st1" d="M566.6,20.8c0,0-0.8-1.4-0.3-3.4c0.2-0.7,1-2,1.6-2.1c0.6-0.1,0.9,0.8,0.7,1.8
				C568.1,19,566.6,20.8,566.6,20.8L566.6,20.8z"/>
			<path class="st1" d="M589.2,5.5c0,0,2.3,0.4,4.7-0.7c0.8-0.4,2.1-1.7,1.9-2.4c-0.2-0.7-1.5-0.8-2.8-0.2
				C590.7,3.3,589.2,5.5,589.2,5.5z"/>
			<path class="st1" d="M552.4,52.1c0,0,1.1-2.9,0.6-5.5c-0.2-0.9-1.2-2.2-2.1-1.8c-0.8,0.5-1.3,2-1,3.4
				C550.4,50.8,552.4,52.1,552.4,52.1L552.4,52.1z"/>
			<path class="st1" d="M561,32.5c0,0-0.7-1.7-0.2-3.9c0.2-0.8,0.9-2.3,1.5-2.3c0.6-0.1,0.8,0.9,0.6,2.1
				C562.5,30.5,561,32.5,561,32.5L561,32.5z"/>
			<path class="st1" d="M550.3,60.2c1.4-5.1,3.1-7.3,5.2-7.9c1.9-0.6,4-0.4,4.9,1.4c0.8,1.4,0.3,3.2-1.1,4c-1.1,0.6-2.5,0.2-3.2-0.9
				c-0.5-0.9-0.2-2,0.7-2.5"/>
			<path class="st1" d="M575.4,16.4c3.6-3,4.3-6.1,4.1-7.9c-0.2-1.8-1.1-3.3-2.9-3.5c-1.4-0.1-2.7,0.9-2.8,2.3
				c-0.1,1.1,0.7,2.1,1.8,2.2c0.9,0.1,1.7-0.6,1.8-1.5"/>
			<path class="st0" d="M583.8,5.7c0,0.5-0.4,0.9-0.9,0.9S582,6.2,582,5.7s0.4-0.9,0.9-0.9S583.8,5.1,583.8,5.7z"/>
			<path class="st0" d="M570.6,26.6c0,0.5-0.4,0.9-0.9,0.9s-0.9-0.4-0.9-0.9s0.4-0.9,0.9-0.9S570.6,26.1,570.6,26.6z"/>
			<path class="st1" d="M590.2,5.2c-25.2,15.1-42.1,42.7-42.1,74.2c0,47.7,38.7,86.3,86.4,86.3c47.7,0,86.3-38.7,86.3-86.4
				c0-31.4-16.8-58.8-41.8-73.9"/>
			<path class="st0" d="M544.9,61.2c-0.3,0.4-0.2,1,0.2,1.3s1,0.2,1.3-0.2s0.2-1-0.2-1.3S545.2,60.8,544.9,61.2z"/>
			<path class="st0" d="M556.9,46.8c-0.3,0.4-0.2,1,0.2,1.3c0.4,0.3,1,0.2,1.3-0.2s0.2-1-0.2-1.3C557.8,46.3,557.2,46.4,556.9,46.8z
				"/>
			<path class="st1" d="M692.8,16.2c0,0-1.5-1.9-3.6-2.2c-0.8-0.1-2.2,0.3-2.4,1.1c-0.2,0.8,0.7,1.7,1.8,1.9
				C690.8,17.4,692.8,16.2,692.8,16.2L692.8,16.2z"/>
			<path class="st1" d="M707.7,33.9c0,0-1-2.5-3.1-3.5c-0.8-0.4-2.5-0.3-2.9,0.6c-0.4,0.9,0.2,2.1,1.3,2.6
				C705.2,34.7,707.7,33.9,707.7,33.9L707.7,33.9z"/>
			<path class="st1" d="M702.2,20.7c0,0,0.8-1.4,0.3-3.4c-0.2-0.7-1-2-1.6-2.1c-0.6-0.1-0.9,0.8-0.7,1.8
				C700.7,19,702.3,20.7,702.2,20.7L702.2,20.7z"/>
			<path class="st1" d="M679.6,5.4c0,0-2.3,0.4-4.7-0.7c-0.8-0.4-2.1-1.7-1.9-2.4c0.2-0.7,1.5-0.8,2.8-0.2
				C678.2,3.2,679.6,5.4,679.6,5.4L679.6,5.4z"/>
			<path class="st1" d="M716.5,52c0,0-1.1-2.9-0.6-5.5c0.2-0.9,1.2-2.2,2.1-1.8c0.8,0.5,1.3,2,1,3.4C718.4,50.7,716.4,52,716.5,52
				L716.5,52z"/>
			<path class="st1" d="M707.8,32.4c0,0,0.7-1.7,0.2-3.9c-0.2-0.8-0.9-2.3-1.5-2.3c-0.6-0.1-0.8,0.9-0.6,2.1
				C706.4,30.4,707.8,32.4,707.8,32.4L707.8,32.4z"/>
			<path class="st1" d="M718.6,60.1c-1.4-5.1-3.1-7.3-5.2-7.9c-1.9-0.6-4-0.4-4.9,1.4c-0.8,1.4-0.3,3.2,1.1,4
				c1.1,0.6,2.5,0.2,3.2-0.9c0.5-0.9,0.2-2-0.7-2.5"/>
			<path class="st1" d="M693.5,16.3c-3.6-3-4.3-6.1-4.1-7.9c0.2-1.8,1.1-3.3,2.9-3.5c1.4-0.1,2.7,0.9,2.8,2.3
				c0.1,1.1-0.7,2.1-1.8,2.2c-0.9,0.1-1.7-0.6-1.8-1.5"/>
			<path class="st0" d="M685,5.6c0,0.5,0.4,0.9,0.9,0.9s0.9-0.4,0.9-0.9s-0.4-0.9-0.9-0.9S685,5.1,685,5.6z"/>
			<path class="st0" d="M698.2,26.5c0,0.5,0.4,0.9,0.9,0.9s0.9-0.4,0.9-0.9s-0.4-0.9-0.9-0.9S698.2,26,698.2,26.5z"/>
			<path class="st0" d="M724,61.1c0.3,0.4,0.2,1-0.2,1.3s-1,0.2-1.3-0.2s-0.2-1,0.2-1.3S723.7,60.7,724,61.1z"/>
			<path class="st0" d="M712,46.7c0.3,0.4,0.2,1-0.2,1.3s-1,0.2-1.3-0.2s-0.2-1,0.2-1.3S711.6,46.3,712,46.7z"/>
		</g>
		<g>
			<path class="st0" d="M642.9,44.8c0-2-9.2-4-20.5-4s-20.5,2-20.5,4v8.8c0,2,9.2,3.7,20.5,3.7s20.5-1.6,20.5-3.7V44.8z"/>
			<rect x="648.7" y="101.8" class="st0" width="22" height="12.5"/>
			<path class="st0" d="M642.1,89.4v-8c0-1.1,2.6-1.9,6.5-2.4c0-2.6,0-4.2,0-4.2c0-8.1-5.2-9.3-8.3-11.3c-1.2-0.8-1.9-2-2.3-3.4
				c-3.8,0.8-9.3,1.3-15.6,1.3s-11.9-0.5-15.6-1.3c-0.4,1.4-1.1,2.6-2.3,3.4c-3.1,2-8.3,3.2-8.3,11.3c0,0,0,2,0,5h28.2v23.4h-28.2
				c0,2,0,3.8,0,5.2c0,2.7,1.8,5.1,4.4,5.9c4.5,1.4,12,2.2,21.8,2.2c6.6,0,12.1-0.4,16.5-1c0-5.6,0-14.6,0-14.6c0-5.2,3.2-7,5-7.9
				c0.1-0.1,0.2-0.1,0.3-0.2c0.1-0.2,0.2-0.6,0.3-1.3l0-0.3C643,90.5,642.1,90,642.1,89.4L642.1,89.4z"/>
			<path class="st0" d="M672.6,100.4c0-5.9-3.7-8.2-5.5-9.2c0-0.1,0-0.3-0.1-0.5c-0.2,0-0.4,0.1-0.5,0.1c-1,0.4-2.3,0.7-3.9,0.9
				c0.2,1.2,0.6,2.4,1.2,2.8c1.6,1,4.3,1.7,4.3,5.8c0,0,0,12.9,0,17.4c0,1.4-0.9,2.6-2.3,3.1c-2.3,0.7-6.2,1.2-11.3,1.2
				s-9-0.4-11.3-1.2c-1.3-0.4-2.3-1.7-2.3-3.1c0-4.5,0-17.4,0-17.4c0-4.2,2.7-4.8,4.3-5.8c0.7-0.4,1-1.8,1.2-3.1
				c-2.6-0.5-4.3-1.3-4.3-2.1v-4.7h-2.8v4.4c0,0.6,0.9,1.1,2.5,1.5c0,0.2-0.1,0.4-0.1,0.6c-1.9,1-5.5,3.3-5.5,9.2c0,0,0,12.9,0,17.4
				c0,3.4,2.2,6.4,5.5,7.4c2.9,0.9,7.1,1.4,12.7,1.4s9.8-0.5,12.7-1.4c3.3-1,5.5-4,5.5-7.4C672.6,113.2,672.6,100.4,672.6,100.4
				L672.6,100.4z"/>
			<path class="st0" d="M670.2,77.7c0-1.6-7.1-2.8-15.8-2.8s-15.8,1.3-15.8,2.8v8c0,1.6,7.1,2.8,15.8,2.8s15.8-1.3,15.8-2.8V77.7z"
				/>
		</g>
	</g>
	<g>
		<g>
			<path class="st1" d="M757.5,16.2c0,0,1.5-1.9,3.6-2.2c0.8-0.1,2.2,0.3,2.4,1.1c0.2,0.8-0.7,1.7-1.8,1.9
				C759.5,17.4,757.5,16.2,757.5,16.2L757.5,16.2z"/>
			<path class="st1" d="M742.6,34c0,0,1-2.5,3.1-3.5c0.8-0.4,2.5-0.3,2.9,0.6c0.4,0.9-0.2,2.1-1.3,2.6C745.1,34.8,742.6,34,742.6,34
				L742.6,34z"/>
			<path class="st1" d="M748.1,20.8c0,0-0.8-1.4-0.3-3.4c0.2-0.7,1-2,1.6-2.1c0.6-0.1,0.9,0.8,0.7,1.8
				C749.6,19,748.1,20.8,748.1,20.8L748.1,20.8z"/>
			<path class="st1" d="M770.7,5.5c0,0,2.3,0.4,4.7-0.7c0.8-0.4,2.1-1.7,1.9-2.4c-0.2-0.7-1.5-0.8-2.8-0.2
				C772.1,3.3,770.7,5.5,770.7,5.5z"/>
			<path class="st1" d="M733.9,52.1c0,0,1.1-2.9,0.6-5.5c-0.2-0.9-1.2-2.2-2.1-1.8c-0.8,0.5-1.3,2-1,3.4
				C731.9,50.8,733.9,52.1,733.9,52.1L733.9,52.1z"/>
			<path class="st1" d="M742.5,32.5c0,0-0.7-1.7-0.2-3.9c0.2-0.8,0.9-2.3,1.5-2.3c0.6-0.1,0.8,0.9,0.6,2.1
				C743.9,30.5,742.5,32.5,742.5,32.5L742.5,32.5z"/>
			<path class="st1" d="M731.8,60.2c1.4-5.1,3.1-7.3,5.2-7.9c1.9-0.6,4-0.4,4.9,1.4c0.8,1.4,0.3,3.2-1.1,4c-1.1,0.6-2.5,0.2-3.2-0.9
				c-0.5-0.9-0.2-2,0.7-2.5"/>
			<path class="st1" d="M756.9,16.4c3.6-3,4.3-6.1,4.1-7.9c-0.2-1.8-1.1-3.3-2.9-3.5c-1.4-0.1-2.7,0.9-2.8,2.3
				c-0.1,1.1,0.7,2.1,1.8,2.2c0.9,0.1,1.7-0.6,1.8-1.5"/>
			<path class="st0" d="M765.3,5.7c0,0.5-0.4,0.9-0.9,0.9s-0.9-0.4-0.9-0.9s0.4-0.9,0.9-0.9S765.3,5.1,765.3,5.7z"/>
			<path class="st0" d="M752.1,26.6c0,0.5-0.4,0.9-0.9,0.9s-0.9-0.4-0.9-0.9s0.4-0.9,0.9-0.9S752.1,26.1,752.1,26.6z"/>
			<path class="st1" d="M771.7,5.2c-25.2,15.1-42.1,42.7-42.1,74.2c0,47.7,38.7,86.3,86.4,86.3c47.7,0,86.3-38.7,86.3-86.4
				c0-31.4-16.8-58.8-41.8-73.9"/>
			<path class="st0" d="M726.4,61.2c-0.3,0.4-0.2,1,0.2,1.3s1,0.2,1.3-0.2s0.2-1-0.2-1.3S726.7,60.8,726.4,61.2z"/>
			<path class="st0" d="M738.4,46.8c-0.3,0.4-0.2,1,0.2,1.3c0.4,0.3,1,0.2,1.3-0.2s0.2-1-0.2-1.3C739.3,46.3,738.7,46.4,738.4,46.8z
				"/>
			<path class="st1" d="M874.3,16.2c0,0-1.5-1.9-3.6-2.2c-0.8-0.1-2.2,0.3-2.4,1.1c-0.2,0.8,0.7,1.7,1.8,1.9
				C872.3,17.4,874.3,16.2,874.3,16.2L874.3,16.2z"/>
			<path class="st1" d="M889.2,33.9c0,0-1-2.5-3.1-3.5c-0.8-0.4-2.5-0.3-2.9,0.6c-0.4,0.9,0.2,2.1,1.3,2.6
				C886.7,34.7,889.2,33.9,889.2,33.9L889.2,33.9z"/>
			<path class="st1" d="M883.7,20.7c0,0,0.8-1.4,0.3-3.4c-0.2-0.7-1-2-1.6-2.1c-0.6-0.1-0.9,0.8-0.7,1.8
				C882.2,19,883.7,20.7,883.7,20.7L883.7,20.7z"/>
			<path class="st1" d="M861.1,5.4c0,0-2.3,0.4-4.7-0.7c-0.8-0.4-2.1-1.7-1.9-2.4c0.2-0.7,1.5-0.8,2.8-0.2
				C859.6,3.2,861.1,5.4,861.1,5.4L861.1,5.4z"/>
			<path class="st1" d="M897.9,52c0,0-1.1-2.9-0.6-5.5c0.2-0.9,1.2-2.2,2.1-1.8c0.8,0.5,1.3,2,1,3.4C899.9,50.7,897.9,52,897.9,52
				L897.9,52z"/>
			<path class="st1" d="M889.3,32.4c0,0,0.7-1.7,0.2-3.9c-0.2-0.8-0.9-2.3-1.5-2.3c-0.6-0.1-0.8,0.9-0.6,2.1
				C887.9,30.4,889.3,32.4,889.3,32.4L889.3,32.4z"/>
			<path class="st1" d="M900,60.1c-1.4-5.1-3.1-7.3-5.2-7.9c-1.9-0.6-4-0.4-4.9,1.4c-0.8,1.4-0.3,3.2,1.1,4c1.1,0.6,2.5,0.2,3.2-0.9
				c0.5-0.9,0.2-2-0.7-2.5"/>
			<path class="st1" d="M874.9,16.3c-3.6-3-4.3-6.1-4.1-7.9c0.2-1.8,1.1-3.3,2.9-3.5c1.4-0.1,2.7,0.9,2.8,2.3
				c0.1,1.1-0.7,2.1-1.8,2.2c-0.9,0.1-1.7-0.6-1.8-1.5"/>
			<path class="st0" d="M866.5,5.6c0,0.5,0.4,0.9,0.9,0.9s0.9-0.4,0.9-0.9s-0.4-0.9-0.9-0.9S866.5,5.1,866.5,5.6z"/>
			<path class="st0" d="M879.7,26.5c0,0.5,0.4,0.9,0.9,0.9s0.9-0.4,0.9-0.9s-0.4-0.9-0.9-0.9S879.7,26,879.7,26.5z"/>
			<path class="st0" d="M905.4,61.1c0.3,0.4,0.2,1-0.2,1.3s-1,0.2-1.3-0.2s-0.2-1,0.2-1.3S905.2,60.7,905.4,61.1z"/>
			<path class="st0" d="M893.4,46.7c0.3,0.4,0.2,1-0.2,1.3s-1,0.2-1.3-0.2s-0.2-1,0.2-1.3S893.1,46.3,893.4,46.7z"/>
		</g>
		<g>
			<polygon class="st0" points="838.1,80.1 858.5,59.5 844.3,59.5 			"/>
			<polygon class="st0" points="842,44.2 834.7,63.7 849,63.7 856.2,44.2 			"/>
			<path class="st0" d="M841.1,106.6l-17.4-17.4h-21.5l28.1,28.1c3,3,7.8,3,10.8,0S844.1,109.6,841.1,106.6z"/>
			<path class="st0" d="M794.3,45.5c-2.5-2.5-9,0-14.5,5.5c-5.5,5.5-8,12-5.5,14.5c1.5,1.5,13.3,13.3,14.8,14.8
				c2.5,2.5,9,0,14.5-5.5c5.5-5.5,8-12,5.5-14.5C807.6,58.9,795.8,47,794.3,45.5z"/>
			<path class="st0" d="M847.8,99l-32.5-32.5c-0.5,1.8-1.2,3.7-2.4,5.6l30.9,30.9c3.3,3.3,3.3,8.8,0,12.1c-1.6,1.6-3.8,2.5-6.1,2.5
				s-4.5-0.9-6.1-2.5l-31-31c-1.9,1.1-3.8,1.9-5.6,2.4l32.6,32.6c2.7,2.7,6.2,4.1,10,4.1s7.3-1.5,10-4.1
				C853.3,113.5,853.3,104.5,847.8,99L847.8,99z"/>
		</g>
	</g>
</g>
</svg>
