<?xml version="1.0" encoding="UTF-8"?>
<svg id="_圖層_2" data-name="圖層 2" xmlns="http://www.w3.org/2000/svg" viewBox="0 0 355 60">
  <defs>
    <style>
      .cls-1 {
        fill: none;
      }

      .cls-2 {
        fill: #93b470;
      }
    </style>
  </defs>
  <g>
    <path class="cls-2" d="m41.52,29.64c0-3.7-1.75-6.98-4.46-9.09,6.74.77,12.55,2.61,16.54,5.11-3.21-5.4-12.56-9.31-23.59-9.31s-20.38,3.91-23.59,9.31c3.98-2.5,9.8-4.34,16.54-5.11-2.71,2.11-4.46,5.39-4.46,9.09,0,5.07,3.28,9.36,7.83,10.9-6.04-.45-11.28-1.99-14.75-4.16,2.51,4.22,9.81,7.28,18.44,7.28s15.93-3.05,18.44-7.28c-3.47,2.18-8.71,3.71-14.75,4.16,4.55-1.54,7.83-5.83,7.83-10.9Zm-20.15,0c0-4.77,3.86-8.63,8.63-8.63s8.63,3.86,8.63,8.63-3.86,8.63-8.63,8.63-8.63-3.86-8.63-8.63Z"/>
    <path class="cls-2" d="m35.13,29.64c0-.48-.07-.94-.19-1.38-.41.28-.91.44-1.44.44-1.42,0-2.57-1.15-2.57-2.57,0-.54.16-1.03.44-1.44-.44-.12-.9-.19-1.38-.19-2.83,0-5.13,2.3-5.13,5.13s2.3,5.13,5.13,5.13,5.13-2.3,5.13-5.13Z"/>
  </g>
  <path class="cls-2" d="m99.92,17.13c-2.26-2.66-1.53-4.91-2.66-6.97-1.13-2.06-3.42-1.94-4.07-2.79-.65-.85-1.1-3.19-1.84-3.49-.75-.3-2.64.9-2.44,1.59.2.7,1.05,2.94.7,3.83-.35.9-1.94-.1-2.84-1.05-.9-.95-2.49-1.44-3.63-.3-1.15,1.15-1.49,2.69.2,3.73,1.69,1.05,3.09,1.05,3.04,1.84-.05.8-.3,1.39-.55,2.79-.08.46-1.54.72-3.5.89-.67-3.76-1.53-9.79-1.47-11.07.08-1.84-3.67-1.42-4.03,1.17-.08.6.02,1.73.21,3.1-2.33-1.88-4.59-2.84-5.36-2.18-1.17,1-2.17,2.84,1.84,5.51,1.6,1.06,2.51,2.32,3.08,3.83-2.43.15-4.53.33-5.05.74-1.39,1.1-.48,3.38-.18,4.18.3.8,5.79.47,5.79.47,0,0-5.31,6.11-3.05,13.81.59,2,2,4.27,3.85,6.53.09,3.78.34,9.21,1.02,9.85,1.06,1,2.23,2,2.56,0,.16-.99.59-2.95.94-5.09,4.89,4.51,10.54,8.1,13.27,8.1,4.91,0,10.22-.53,10.75-7.97.53-7.44.6-8.83.86-15.53s-5.18-12.88-7.44-15.53Z"/>
  <g>
    <path class="cls-2" d="m239.34,46.2v-19.32c0-9.27,7.51-16.78,16.78-16.78h10.7c2.15,0,3.9,1.75,3.9,3.9v17.06c0,1.48-.84,2.84-2.17,3.49l-14.65,7.25c-3.1,1.54-5.8,3.78-7.88,6.55l-.04.05c-.7.93-1.79,1.48-2.95,1.48h0c-2.04,0-3.69-1.65-3.69-3.69Z"/>
    <path class="cls-2" d="m289.59,10.79h-14.94c-.89,0-1.61.72-1.61,1.61v17.74c0,1.17,1.22,1.96,2.28,1.46,3.85-1.8,11.75-6.47,16.99-16.33,1.08-2.03-.42-4.48-2.72-4.48Z"/>
  </g>
  <path class="cls-2" d="m170.15,23.39c-4.2-5.38-4.88-5.81-5.85-11.03-.04-.75-.06-1.51-.06-2.26v-3.66h-8.67v3.66c0,1.9.1,3.79.29,5.68h0s2.21,16.59-10.66,19.92c-.87.05-1.74.03-2.62-.07-5.67-.69-11.41.6-16.2,3.71l-4.44,2.89,4.73,7.27,4.44-2.89s.02-.01.02-.02c2.27-1.47,5.28-1.26,7.38.44.55.45,1.12,1.01,1.69,1.72,3.28,4.07,17.87,8.41,27.46,0,9.59-8.41,6.7-19.97,2.5-25.36Z"/>
  <path class="cls-2" d="m349.22,28.63c-1.69-.68-4.63-1.6-9.01-1.3-5.25.37-8.53,3.94-9.93,5.46-.06.07-.15.15-.21.22-.92-.7-2.77-1.96-6.56-1.33-3.4.57-5.06,2.71-6.05,3.99-.08.11-.18.23-.27.34-.31-1.03-.81-3.88-.89-11.54-.04-3.8.98-6.9,1.44-7.74.17.05.4.13.59.19.88.3,2.08.71,3.54.59,2.63-.22,6.34-1.31,8.18-3.7.93-1.21,1.28-2.63,1.01-4.11-.41-2.28-2.01-3.46-3.07-4.25-.12-.09-.24-.18-.35-.26-2.48-1.91-5.22-1.75-6.72-.8-1.51.96-5.71,2.82-8,3.77-.63.26-1.41.58-6.04,11.29-2.05,4.74-4.85,11.23-5.02,17.8-.04,1.48-.32,2.88-.59,4.23-.42,2.13-.83,4.14-.04,5.83,1.87,3.99,14.06,7.28,23.3,7.45,5.45.1,9-.98,11.84-1.84,1.65-.5,3.07-.94,4.46-1,3.5-.14,5.58,1.21,6.47,2.04.66.62,1.49,1.63,1.91,2.34v-27.66Zm-40.11,2.52c-.67,1.66-.95,6.77-1,8.57-.02.57-.48,1.08-1.05,1.08h-.03c-.58,0-1.04-.56-1.02-1.14.02-.7.22-6.97,1.15-9.27.22-.54.83-.82,1.37-.6.54.22.8.81.58,1.35Zm35.23,3.9c-1.29.48-2.51.61-3.47.61-1.16,0-1.93-.19-1.99-.21-.56-.15-.9-.72-.76-1.28.14-.56.72-.9,1.28-.76.05.01,2.02.48,4.2-.34.55-.2,1.15.07,1.36.62.2.55-.07,1.15-.62,1.36Z"/>
  <g>
    <path class="cls-2" d="m217.68,43.15c-1.81,3.73-4.01,7.37-6.55,10.8l-1.09,1.48c1.77.52,3.45.94,4.93,1.23,2.51-3.41,4.71-7.01,6.56-10.7.02-.04.05-.08.08-.12-1.54-.54-2.89-1.48-3.93-2.69Z"/>
    <path class="cls-2" d="m199.56,16.46c.56-4.53.5-8.29.32-10.81-.2,0-.4,0-.6,0-1.36,0-2.73-.02-4.12-.06.17,2.16.29,5.93-.3,10.52-.57,4.42-1.66,8.74-3.26,12.85-1.99,5.12-4.77,9.93-8.27,14.3l-1.03,1.28c.84.39,2.4,1.09,4.43,1.98l.27-.33c3.83-4.78,6.87-10.06,9.04-15.68,1.73-4.5,2.92-9.23,3.51-14.06Z"/>
    <path class="cls-2" d="m223.98,19.04c.13-.15.21-.23.22-.25.11-.13.27-.2.44-.2s.33.07.44.2c.07.08,1.54,1.71,3.27,4.22.09-.77.16-1.54.22-2.3.75-9.73-.88-16.21-.95-16.49l-.23-.88c-.8.13-2.42.4-4.67.7l.35,1.35c.01.06,1.37,5.41.91,13.64Z"/>
    <path class="cls-2" d="m228.38,27.2c-1.62-2.59-3.22-4.36-3.28-4.43-.11-.13-.27-.2-.44-.2s-.33.07-.44.2c-.07.07-1.67,1.84-3.28,4.43-2.2,3.51-3.31,6.68-3.31,9.43,0,3.88,3.16,7.04,7.04,7.04s7.04-3.16,7.04-7.04c0-2.75-1.11-5.92-3.31-9.43Z"/>
    <path class="cls-2" d="m206.07,8.23c.86,0,1.56-.7,1.56-1.56,0-.49-.23-.93-.59-1.22-.27-.21-.6-.34-.97-.34-.41,0-.79.16-1.07.42-.3.28-.49.69-.49,1.13,0,.86.7,1.56,1.56,1.56Z"/>
    <path class="cls-2" d="m215.54,11.37c1.49,0,2.69-1.21,2.69-2.69s-1.21-2.69-2.69-2.69-2.69,1.21-2.69,2.69,1.21,2.69,2.69,2.69Z"/>
    <path class="cls-2" d="m207.65,18.29c1.98,0,3.59-1.61,3.59-3.59s-1.61-3.59-3.59-3.59-3.59,1.61-3.59,3.59,1.61,3.59,3.59,3.59Z"/>
    <path class="cls-2" d="m215.54,12.84c-1.02,0-1.86.83-1.86,1.86s.83,1.86,1.86,1.86,1.86-.83,1.86-1.86-.83-1.86-1.86-1.86Z"/>
    <path class="cls-2" d="m217.25,23.67c0-2.19-1.78-3.98-3.98-3.98s-3.98,1.78-3.98,3.98,1.78,3.98,3.98,3.98,3.98-1.78,3.98-3.98Z"/>
    <path class="cls-2" d="m217.32,19.84c0,1.06.86,1.92,1.92,1.92s1.92-.86,1.92-1.92-.86-1.92-1.92-1.92-1.92.86-1.92,1.92Z"/>
    <path class="cls-2" d="m205.35,35.83c2.77,0,5.03-2.26,5.03-5.03s-2.26-5.03-5.03-5.03-5.03,2.26-5.03,5.03,2.26,5.03,5.03,5.03Z"/>
    <path class="cls-2" d="m213.27,33.85c-1.45,0-2.63,1.18-2.63,2.63s1.18,2.63,2.63,2.63c.93,0,1.74-.48,2.21-1.2-.02-.25-.03-.5-.03-.76,0-.62.05-1.27.13-1.93-.45-.82-1.32-1.38-2.31-1.38Z"/>
    <path class="cls-2" d="m211.47,42.72c0-2.25-1.83-4.08-4.09-4.08s-4.09,1.83-4.09,4.08,1.83,4.09,4.09,4.09,4.09-1.83,4.09-4.09Z"/>
    <path class="cls-2" d="m198.41,34.33c-1.19,0-2.16.97-2.16,2.16s.97,2.16,2.16,2.16,2.16-.97,2.16-2.16-.97-2.16-2.16-2.16Z"/>
    <circle class="cls-2" cx="196.86" cy="44.77" r="3.86" transform="translate(-5.02 46.43) rotate(-13.28)"/>
    <circle class="cls-2" cx="202.96" cy="48.63" r="2.03" transform="translate(152.49 251.14) rotate(-89.48)"/>
  </g>
  <g>
    <rect class="cls-1" x=".5" y=".5" width="59" height="59"/>
    <rect class="cls-1" x="59.5" y=".5" width="59" height="59"/>
    <rect class="cls-1" x="118.5" y=".5" width="59" height="59"/>
    <rect class="cls-1" x="177.5" y=".5" width="59" height="59"/>
    <rect class="cls-1" x="236.5" y=".5" width="59" height="59"/>
    <rect class="cls-1" x="295.5" y=".5" width="59" height="59"/>
  </g>
</svg>