<?xml version="1.0" encoding="UTF-8"?>
<svg id="_圖層_2" data-name="圖層 2" xmlns="http://www.w3.org/2000/svg" viewBox="0 0 550 670">
  <defs>
    <style>
      .cls-1 {
        fill: #f9bf6a;
      }

      .cls-2 {
        fill: #ffa277;
      }

      .cls-3 {
        fill: #fff;
      }

      .cls-4 {
        fill: #ba595a;
      }

      .cls-5 {
        fill: #da8260;
      }

      .cls-6 {
        fill: #1f2144;
      }

      .cls-7 {
        fill: #45477a;
      }

      .cls-8 {
        fill: #3e5b48;
      }

      .cls-9 {
        fill: #93b470;
      }

      .cls-10 {
        fill: #565a94;
      }

      .cls-11 {
        fill: #779968;
      }

      .cls-12 {
        fill: #4e705b;
      }
    </style>
  </defs>
  <path class="cls-9" d="m488.69,517.75c-3.93.98-7.56,2.89-11.16,4.72-3.68,1.87-7.36,3.75-11.03,5.62,11.55-11.42,26.92-19.43,35.21-33.78.36-.62.71-1.29,1.02-2,.82-1.89,1.31-4.02.58-5.93-.21-.55-.51-1.01-.88-1.39-.24-.26-.53-.48-.83-.66-1.48-.89-3.51-.91-5.22-.42-3.64,1.03-6.45,4.03-9.03,6.61-3.46,3.47-6.68,7.16-9.65,11.06-4.74,6.24-11.44,19.73-14.31,25.73-.42.88-.75,1.59-.99,2.11,0,.01-.01.02-.02.03-.13.29-.23.51-.29.65-.04.09-.06.14-.07.17-.26.71,17.16,3.47,24.34,2.97,5.89-.41,15.94-1.21,16.49-9.04v-.03c.03-.38.02-.74-.01-1.08-.5-6.24-9.53-6.5-14.16-5.34Z"/>
  <path class="cls-12" d="m360.48,108.93c-2.6-2.07-5.55-3.62-8.64-4.79-7.35-2.77-15.26-3.12-23.03-3.24,4.6-3.67,9.83-6.46,14.77-9.67,4.89-3.17,11.52-7.63,13.12-13.62.5-1.86.29-3.89-.79-5.46-.19-.28-.41-.54-.66-.79-.04-.05-.09-.09-.13-.13-1.85-1.71-4.18-1.32-6.28-.31-3.12,1.51-5.57,4.07-7.94,6.53-2.58,2.69-5.12,5.44-7.44,8.37-1.84,2.32-3.99,4.62-5.94,7.02-2.58,3.17-4.82,6.53-5.58,10.35-.06.28-.11.56-.14.85-.01.01.05.07.19.16.13.1.35.22.62.39,3.46,2.11,17.19,9.71,23.61,11.63,3.92,1.18,12.81,4.47,16.35.54.24-.26.45-.55.63-.87.13-.22.24-.45.35-.7,1.09-2.73-1.11-4.72-3.06-6.27Z"/>
  <g>
    <path class="cls-1" d="m284.52,8.11c-1.97-1.77-5.97,1.71-7.63,3.44-1.66,1.73-3.11,3.67-4.43,5.69.9-2.68,1.31-5.36.69-7.9-.83-3.42-3.73-9.53-8.58-8.37-4.87,1.17-5.03,7.69-4.63,10.75.18,1.36.69,2.53,1.36,3.6.62.99,1.38,1.9,2.13,2.78.86,1.02,2.44,2.94,3.82,4.55t0,0c.72.83,1.38,1.58,1.87,2.07,0,.01.02.02.03.03.4.4.68.62.76.57.19-.11.38-.23.57-.35,4.1-2.43,8.29-5.03,11.41-8.76,1.65-1.98,4.62-6.31,2.62-8.11Z"/>
    <path class="cls-1" d="m269.16,24.76s-.02-.02-.03-.03c-.43-.53-1.11-1.27-1.87-2.07t0,0c-1.47-1.56-3.26-3.35-4.2-4.31-.77-.79-1.55-1.59-2.41-2.27-1.03-.83-2.19-1.5-3.59-1.83-3.01-.71-9.51-1.21-11.17,3.53-1.64,4.7,4.14,8.2,7.47,9.37,2.48.87,5.17.73,7.94.1-2.14,1.11-4.22,2.36-6.11,3.84-1.88,1.48-5.75,5.11-4.18,7.25,1.58,2.16,6.19-.35,8.32-1.8,4.16-2.82,7.23-6.89,10.14-10.85.04-.05.08-.11.12-.16.05-.07-.12-.35-.44-.75Z"/>
    <path class="cls-6" d="m273.12,34.27c.16-2.79-.48-5.45-1.85-7.81,1.13.36,2.41.46,3.49.47,2,.02,3.86-.49,5.52-1.61.57-.38-.14-1.18-.7-.8-1.42.95-3.05,1.36-4.75,1.35-1.4-.01-3.53-.12-4.62-1.11-.04-.04-.09-.06-.14-.08-.07-.07-.14-.12-.22-.14-3.51-3.69-5-5.23-8.34-9.07-.45-.52-1.25.18-.8.7,3.46,3.98,5.06,5.65,8.7,9.46.02.02.04.04.07.05,1.87,2.47,2.76,5.38,2.58,8.47-.04.68,1.02.8,1.06.12Z"/>
  </g>
  <g>
    <path class="cls-1" d="m546.73,64.63c-.63-4.94-7.37-5.49-10.87-5.05-2.6.33-4.95,1.65-7.15,3.45,1.42-1.95,2.72-4,3.75-6.17,1.03-2.16,2.87-7.14.51-8.35-2.39-1.23-5.38,3.08-6.65,5.32-2.47,4.39-3.39,9.39-4.23,14.24-.02.06-.03.13-.04.2-.08.44,6.61,2.63,9.06,3.51,1.04.37,2.08.73,3.16.96,1.3.28,2.63.36,4.04.03,3.01-.71,9.05-3.17,8.42-8.14Z"/>
    <path class="cls-6" d="m514.99,62.01c1.1,2.57,2.86,4.66,5.14,6.16-1.18.18-2.36.66-3.34,1.14-1.8.88-3.23,2.16-4.23,3.9-.34.59.65.99.98.41.85-1.48,2.13-2.58,3.65-3.33,1.26-.61,3.21-1.47,4.63-1.07.06.02.11.01.16.01.09.03.18.05.26.03,4.79,1.73,6.8,2.45,11.51,4.4.63.26,1.04-.72.41-.98-4.87-2.02-7.05-2.8-12.01-4.58-.03-.01-.06-.01-.08-.02-2.77-1.37-4.87-3.58-6.09-6.43-.27-.63-1.27-.26-1,.37Z"/>
  </g>
  <g>
    <path class="cls-8" d="m291.52,233.61c-.06-.63-.12-1.31-.19-2.04-.02-.23-.04-.48-.07-.72-.1-1.02-.21-2.1-.37-3.21-.03-.23-.06-.46-.1-.7-.03-.16-.05-.32-.07-.48-.04-.23-.07-.46-.12-.7-.03-.18-.06-.35-.1-.52-.04-.24-.09-.48-.14-.72-.04-.17-.07-.34-.11-.51-.09-.39-.18-.78-.28-1.16-.12-.46-.26-.9-.4-1.34-.03-.09-.06-.18-.09-.27-.43-1.25-.95-2.42-1.61-3.45-.07-.11-.14-.21-.21-.31-.07-.1-.14-.2-.21-.3-.07-.1-.14-.2-.22-.29-.07-.1-.15-.19-.23-.28-.23-.28-.48-.54-.74-.77-.07-.07-.15-.14-.23-.2-.28-.24-.58-.46-.89-.65-.1-.06-.2-.12-.31-.18-.21-.12-.42-.22-.64-.31-.09-.04-.19-.07-.28-.11-.13-.05-.27-.1-.4-.14-.12-.04-.23-.07-.36-.1-.12-.03-.24-.06-.37-.09h0s-.03,0-.04,0h0c-.12-.03-.25-.05-.38-.07-.12-.02-.23-.03-.36-.04-.27-.03-.54-.04-.82-.05-.05,0-.11,0-.16,0-.16,0-.32,0-.49.02-.01,0-.02,0-.04,0-.14,0-.28.02-.41.03-.1,0-.21.02-.31.03-4.99.62-9.02,4.49-12.16,8.1-3.49,4.01-6.37,8.52-8.76,13.26-1.99,3.93-3.69,8.01-5.18,12.18-.82,2.3-1.58,4.62-2.29,6.96-.48,1.59-.94,3.19-1.38,4.79-.84,3.06-1.6,6.13-2.32,9.19-.05.22-.1.44-.15.66-2.34,10.05-4.04,20.25-5.24,30.49-.21,1.78-.41,3.56-.59,5.34-.03.26-.05.53-.08.79-.97,9.77-1.53,19.56-1.81,29.36-.09,3.38-.16,6.76-.2,10.14-.15,12.73.09,25.48.4,38.21.02.75.04,1.49.06,2.24-1.59.34-3.18.7-4.77,1.08-.71.18-.41,1.27.3,1.09,1.49-.36,2.99-.7,4.49-1.02.05,2.01.11,4.03.16,6.05.02.73,1.15.73,1.14,0-.06-2.09-.11-4.19-.17-6.29.78-.17,1.56-.32,2.34-.47,1.46-.29,2.92-.56,4.38-.81.4-.07.8-.14,1.21-.21.17-.03.34-.06.51-.09,2.79-.46,5.59-.85,8.39-1.17.35-.04.7-.09,1.06-.12.18-.02.36-.04.53-.06,3.81-.4,7.62-.69,11.44-.85.69-.03,1.37-.05,2.06-.07-.59,3.8-1.18,7.6-1.77,11.4-.04.25.07.45.24.57.3.23.78.19.86-.27.07-.49.15-.97.23-1.46.53-3.42,1.06-6.85,1.59-10.27.75-.02,1.51-.04,2.26-.05.85-.01,1.69-.02,2.54-.02h.74c.69,0,5.72-.01,4.4,1.91-.39.56.43,1.09.88.69.03-.03.07-.07.1-.11.59-.86.59-1.55.27-2.08-.58-.97-2.24-1.44-3.46-1.52-.72-.05-1.45-.08-2.17-.1-1.77-.06-3.56-.03-5.35.03,1.23-7.92,2.45-15.84,3.68-23.76.08-.57.18-1.13.26-1.7.06-.42.13-.83.2-1.25.27-1.73.54-3.47.8-5.2.07-.47.15-.95.22-1.42.88-5.67,1.75-11.34,2.63-17.01.93-6.02,1.86-12.04,2.79-18.06.64-4.14,1.3-8.28,1.95-12.42.38-2.42.76-4.85,1.12-7.27,1.05-6.89,2-13.78,2.73-20.69.08-.77.16-1.53.23-2.29.1-1.07.2-2.13.29-3.2.44-5.19.74-10.39.82-15.6.09-5.97-.1-11.97-.67-17.99Z"/>
    <path class="cls-8" d="m357.8,251.85c-.16-.43-.34-.83-.53-1.23-.83-1.7-1.92-3.16-3.31-4.3-.36-.3-.73-.57-1.11-.82-.16-.11-.33-.22-.49-.32-.03-.02-.07-.04-.1-.06-.19-.12-.37-.22-.56-.32-.15-.09-.3-.16-.45-.23-.1-.05-.2-.1-.3-.15-.07-.03-.13-.06-.2-.09-.13-.06-.26-.12-.39-.17-.12-.05-.24-.1-.37-.15-.18-.07-.36-.14-.54-.2-.18-.06-.36-.12-.54-.18-.01,0-.02-.01-.04-.01h0c-.12-.04-.23-.07-.35-.1-.14-.04-.28-.07-.42-.11-.07-.02-.15-.03-.22-.05-.13-.03-.25-.05-.38-.08-.13-.03-.26-.05-.38-.07-.32-.06-.64-.11-.96-.14-.27-.03-.53-.05-.8-.07-.18-.01-.35-.02-.53-.03-.03,0-.06,0-.1,0-.21,0-.41-.01-.62-.01-3.81,0-7.71,1.17-11.1,3.05-7.65,4.23-12.39,12.02-16.19,19.61-.57,1.13-1.14,2.34-1.71,3.61-.84,1.87-1.68,3.87-2.52,5.99-1.06,2.67-2.11,5.53-3.14,8.5-.27.78-.54,1.57-.81,2.37-.61,1.78-1.2,3.6-1.79,5.45-4.13,12.92-7.85,27.06-10.5,38.45-.77,3.3-1.44,6.37-2.02,9.11-.93,4.49-2.7,12.12-4.77,22.27-.41,2.03-.84,4.17-1.27,6.39-.91,4.69-1.86,9.82-2.8,15.32-.12.72-.24,1.45-.37,2.19-2.04,12.18-4.02,26.13-5.53,41.38-.13,1.3-.25,2.62-.38,3.93-.08.86-.16,1.73-.24,2.59-.93,10.57-1.61,21.71-1.94,33.28-.48,17.37-.12,35.7,1.5,54.49.14,1.64.29,3.29.46,4.94.07.83.16,1.66.25,2.49.37,3.63.8,7.27,1.28,10.93.3,2.31.33,4.73.78,7.03.23,1.21.56,2.22,1.76,2.74,1.48.65,3.66.34,5.25.41,2.99.13,5.99.26,8.98.39.44.02.62-.46.46-.8-1.44-3.02-2.64-6.13-3.62-9.31.38-.17.41-.88-.12-1.02-.07-.02-.13-.03-.2-.05-.4-1.4-.76-2.81-1.07-4.24.72-6.2,1.7-12.38,2.69-18.5.49-3.01,1.01-6.01,1.56-9.01,1.27-6.99,2.71-13.95,4.27-20.88.75-3.34,1.53-6.67,2.34-9.99,3.95-16.29,8.54-32.42,13.44-48.45,4.29-14.02,8.86-30.36,13.47-47.35,8.13-29.96,16.39-61.94,23.49-86.82.73-2.56,1.49-5.37,2.22-8.32,1.16-4.75,2.21-9.85,2.8-14.8.83-6.92.75-13.54-1.19-18.48Z"/>
    <path class="cls-12" d="m291.52,233.61c-.06-.63-.12-1.31-.19-2.04-.02-.23-.04-.48-.07-.72-.1-1.02-.21-2.1-.37-3.21-.03-.23-.06-.46-.1-.7-.03-.16-.05-.32-.07-.48-.04-.23-.08-.46-.12-.7-.03-.18-.06-.35-.1-.52-.04-.24-.09-.48-.14-.72-.04-.17-.07-.34-.11-.51-.09-.39-.18-.78-.28-1.16-.12-.46-.26-.9-.4-1.34-.03-.09-.06-.18-.09-.27-.43-1.25-.95-2.42-1.61-3.45-.07-.11-.14-.21-.21-.31-.07-.1-.14-.2-.21-.3-.07-.1-.14-.2-.22-.29-.07-.1-.15-.19-.23-.28-.23-.28-.48-.54-.74-.77-.07-.07-.15-.14-.23-.2-.28-.24-.58-.46-.89-.65-.1-.06-.2-.12-.31-.18-.21-.12-.42-.22-.64-.31-.09-.04-.19-.07-.28-.11-.13-.05-.27-.1-.4-.14-.12-.04-.23-.07-.36-.1-.12-.03-.24-.06-.37-.09h0s-.03-.01-.04-.01c-.12-.03-.25-.05-.38-.06-.12-.02-.23-.03-.36-.04-.27-.03-.54-.04-.82-.05-.05,0-.11,0-.16,0-.16,0-.32,0-.49.02-.01,0-.02,0-.04,0-.14,0-.28.02-.41.03-.1,0-.21.02-.31.03-4.99.62-9.02,4.49-12.16,8.1-3.49,4.01-6.37,8.52-8.76,13.26-1.99,3.93-3.69,8.01-5.18,12.18-.82,2.3-1.58,4.62-2.29,6.96-.48,1.59-.94,3.19-1.38,4.79-.84,3.06-1.6,6.13-2.32,9.19,2.67-.26,5.28-1.53,7.61-3.12.5-.34.99-.7,1.46-1.06.04-.03.07-.05.11-.08,2.91-2.25,5.66-4.93,9.16-6.28,1.63-.62,3.29-.84,4.96-.85.35,0,.7,0,1.05.02,2.15.07,4.31.39,6.46.46,5.19.16,9.91-2.28,13.73-5.97.09-5.97-.1-11.97-.67-17.99Z"/>
    <path class="cls-12" d="m357.8,251.85c-.16-.43-.34-.83-.53-1.23-.83-1.7-1.92-3.16-3.31-4.3-.36-.3-.73-.57-1.11-.82-.16-.11-.33-.22-.49-.32-.03-.02-.07-.04-.1-.06-.19-.12-.37-.22-.56-.32-.15-.09-.3-.16-.45-.23-.1-.05-.2-.1-.3-.15-.07-.03-.13-.06-.2-.09-.13-.06-.26-.12-.39-.17-.12-.05-.24-.1-.37-.15-.18-.07-.36-.14-.54-.2-.18-.06-.36-.12-.54-.18-.01,0-.02-.01-.04-.01h0c-.12-.04-.23-.07-.35-.1-.14-.04-.28-.07-.42-.11-.07-.02-.15-.03-.22-.05-.13-.03-.25-.05-.38-.08-.13-.03-.26-.05-.38-.07-.32-.06-.64-.11-.96-.14-.27-.03-.53-.05-.8-.07-.18-.01-.35-.02-.53-.03-.03,0-.06,0-.1,0-.21,0-.41-.01-.62-.01-3.81,0-7.71,1.17-11.1,3.05-7.65,4.23-12.39,12.02-16.19,19.61-.57,1.13-1.14,2.34-1.71,3.61-.84,1.87-1.68,3.87-2.52,5.99.18.08.36.15.54.22.85.3,1.69.46,2.53.49,4.27.16,8.34-2.82,12.09-4.79.09-.05.19-.1.28-.14.31-.16.63-.31.94-.46.47-.22.96-.43,1.45-.63,1.69-.7,3.47-1.27,5.27-1.59.45-.08.9-.15,1.35-.2.26-.03.5-.05.76-.07.29-.02.58-.03.87-.03.37-.01.73,0,1.1.02.09,0,.19,0,.28.01.15.01.29.02.44.04.39.04.77.1,1.14.18.06.02.13.03.19.04.6.14,1.19.32,1.76.54,1.14.41,2.25.93,3.36,1.41.08.03.16.07.24.1,0,0,0,0,0,0,.12.05.24.1.36.15.98.41,1.99.78,3.05,1,2.97.65,5.54-.47,8.39-1.16.01,0,.03,0,.04-.01.83-6.92.75-13.54-1.19-18.48Z"/>
    <path class="cls-6" d="m281.16,213.92c-4.05,15.77-7.3,31.73-9.94,47.79-6.63,40.4-9.45,81.22-12.13,122.04-1.15,17.54-2.27,35.09-3.66,52.59-.05.68-1.12.68-1.06,0,1.32-16.59,2.4-33.19,3.49-49.79.06-.89.12-1.79.17-2.68,3.75-57.01,7.81-114.37,22.01-169.9.38-.04.75-.06,1.11-.05Z"/>
    <path class="cls-6" d="m348.87,244.06c-6.24,15.18-11.71,30.66-16.56,46.34-17.32,55.91-27.04,113.74-39.62,170.81-.14.66-1.2.52-1.05-.15,3.58-16.24,6.94-32.54,10.3-48.83,11.77-57.06,23.75-114.49,45.96-168.58.04-.11.11-.19.19-.23.26.06.52.13.77.21h0c.07.12.09.27.02.44Z"/>
    <g>
      <path class="cls-2" d="m296.16,483.46c-.73-.65-1.46-1.31-2.2-1.96l1.89-6.01c.11-.36-.46-.48-.57-.13-.6,1.9-1.2,3.81-1.8,5.71-5.5-4.88-10.99-9.77-16.49-14.65-.4-.36-.8-.71-1.2-1.07-.79-.71-1.59-1.41-2.38-2.11-.38-.34-.85-.92-1.39-1.04-.63-.13-.97.22-1.18.78-.37.96-.34,2.22-.48,3.25-.14.95-.27,1.91-.4,2.86-.27,1.9-.54,3.81-.81,5.71-1.1,7.82-2.21,15.63-3.32,23.45-1.33,9.4-2.66,18.8-3.98,28.2-.6,4.22-1.19,8.43-1.79,12.65-.31,2.2-.62,4.41-.93,6.61-.02.13.02.26.14.32,4.05,2.2,7.95,4.63,11.72,7.27.16.12.37-.03.42-.19l2.01-6.38c.47-1.5.95-3,1.42-4.51.65-2.06,1.3-4.12,1.94-6.18.81-2.57,1.62-5.14,2.43-7.71.26-.83.53-1.66.79-2.5.92-2.93,1.85-5.86,2.77-8.8,3.66-11.65,7.33-23.3,11-34.95.66.59,1.32,1.18,1.99,1.77.28.24.68-.18.4-.42Z"/>
      <path class="cls-6" d="m302.03,579.59c-.07-.2-.16-.4-.25-.6-.51-1.14-1.22-2.2-2.03-3.13-1.52-1.75-3.31-3.26-4.94-4.89-1.64-1.63-3.22-3.33-4.75-5.07-.03-.03-.06-.06-.08-.1-2.99-3.41-5.61-6.72-7.98-10.19-2.5-3.64-4.72-7.46-6.78-11.75-.29-.99-.31-1.42-.38-1.63-.03-.1-.08-.14-.18-.17-.43-.11-.85-.21-1.27-.31-4.77-1.18-8.47-2.1-13.34-2.64-.43-.05-.87-.1-1.32-.14-.16-.02-.28.15-.29.3-.3,5.18-2.46,17.24-2.94,20.6-.06.38-.1.65-.1.79-.06,1-.27,2.12-.09,3.11.31,1.68,2.28,2.15,3.63,2.76.23.11.46.21.69.31.21.1.42.19.63.29,2.76,1.25,5.51,2.51,8.27,3.76,1.45.66,2.89,1.32,4.33,1.98,2.32,1.06,4.65,2.11,6.97,3.17,5.88,2.68,11.76,5.35,17.64,8.04.18.07.35.15.53.24,1.08.49,2.16.98,3.24,1.47.15.06.31.04.39-.11,1.2-1.97,1.13-4.11.39-6.09Z"/>
      <path class="cls-6" d="m255.09,406.01c3.37.29,6.75.61,10.11.97,1.59.17,3.18.34,4.77.54.73.09,1.89.15,2.5.66,1.16.96.99,2.27.72,3.57-1.22,5.74-3.96,11.14-6.58,16.34-2.53,5.02-5.17,10.02-6.95,15.37-2.02,6.08-2.5,12.45-3.02,18.8-1.98,24.18-7.91,43.02-17.24,65.21,16.25-.39,27.29-1.61,43.55-1.62.28-.66.55-1.33.8-2,2.11-5.61,35.45-85.02,37.86-91.06,4.68-11.72,9.26-23.73,10.45-36.4.49-5.27,1.15-12.16-2-16.79-1.59-2.33-5.71-5.57-8.21-6.69-2.94-1.32-5.92-2.56-8.92-3.73-12.27-4.79-80.68-25.39-82.93-27.59-2.7-2.64-3.36-6.15-3.57-9.79-.42-7.35-.63-14.73-.94-22.09-.15-3.63-.31-7.26-.46-10.89,0-.12-.09-.26-.21-.28-6.61-1.02-13.23-1.93-19.87-2.74-10.9-.15-21.81.16-32.71-.16-11.69-.35-21.68-1.62-33.07-4.29-.14-.03-.28-.07-.42-.1-1.72,12.25-7.53,62.9-7.51,69.49.02,5.73.71,11.55,3.16,16.78,1.96,4.18,4.95,7.79,8.49,10.72,7.47,6.15,16.96,9.45,26.27,11.61,25.54,5.91,59.92,3.94,85.92,6.18Z"/>
      <path class="cls-4" d="m203.3,407.65c-.47,2.86-3.9,19.09-4.37,21.95-.85,5.14-1.69,10.27-2.54,15.41-3.51,21.31-7.02,42.62-10.53,63.93-1.97,11.99-3.95,23.97-5.92,35.96-.09.55.53.87.88.67,2.05.06,4.11.13,6.16.2.1,0,.18-.02.26-.05.23,0,.44-.11.49-.41,3.51-21.31,7.02-42.62,10.53-63.93,1.76-10.65,3.51-21.31,5.27-31.96.88-5.33,1.76-10.65,2.63-15.98l4.18-20.81c.22-1.33.44-2.66.66-4,0-.03.02-.12.03-.26-2.6-.1-5.19-.32-7.74-.71Z"/>
      <path class="cls-4" d="m139.1,407.04c-.47,2.86-21.39,125.26-23.36,137.24-.09.55.53.87.88.67,2.05.06,4.11.13,6.16.2.1,0,.18-.02.26-.05.23,0,.44-.11.49-.41,3.51-21.31,22.61-132.68,22.61-132.68.22-1.33.44-2.66.66-4,0-.03.02-.12.03-.26-2.6-.1-5.19-.32-7.74-.71Z"/>
      <path class="cls-4" d="m244.01,405.3c-.29-.47-.62-.92-1-1.35-.58-.66-1.29-1.28-2.15-1.82-.6-.38-1.27-.73-2.02-1.03-7.56-3-34.72-3.51-51.08-3.82-3.17-.06-5.93-.12-8.07-.18-7.35-.22-14.71-.44-22.06-.66-3.44-.11-6.88-.21-10.32-.31-5.39-.16-10.79-.32-16.19-.48l-5.41-.35-15.77-1.03c-.64-.02-1.28-.04-1.92-.06-.71-.02-1.42-.04-2.13-.06-.14,0-2.55.06-3.69-.41.16.01.32-.06.43-.25,1.37-2.36-4.14-1.65-2.29.52-.04.09-.06.19-.04.31.3,1.57.6,3.13.89,4.7-.38.27-.58,3.91-.35,6.95.14,1.93.45,3.61,1.01,4.01,1.1.79,2.85.6,4.1.64,2.21.06,12.37.8,18.35,1.19,1.86.12,3.3.2,3.99.22,3.3.1,6.6.2,9.9.29,1.9.06,3.81.12,5.71.17.71.02,1.42.04,2.14.06,10.8.32,21.6.64,32.4.97,7.86.24,15.72.47,23.57.71,2.22.07,4.44.13,6.65.2.44.01.87.03,1.3.04,8.05.24,16.1.48,24.15.73,1.84.05,3.67.11,5.51.16,1.82.05,3.65.11,5.47.16.56.02.79-.64.54-.97-.06-.56.81-5.32-1.63-9.26Z"/>
      <path class="cls-5" d="m252.86,443.09c-.05-1,.19-1.96.64-2.81-1.59-2.71-3.17-5.42-4.76-8.12-.54-.92-1.07-1.83-1.61-2.75-.26-.44-.52-1.14-1-1.41-.56-.32-.99-.09-1.36.38-.65.79-1.01,2.01-1.47,2.94-.42.86-.85,1.73-1.27,2.59-.85,1.73-1.69,3.46-2.54,5.19-3.47,7.09-6.94,14.18-10.41,21.27l-21.07,43.05c-.06.12-.06.25.04.35,3.17,3.34,6.13,6.86,8.89,10.54.12.16.36.08.46-.05,3.46-4.86,6.93-9.71,10.39-14.57,9.31-13.05,18.62-26.1,27.93-39.15-2.11-5.41-2.56-11.26-2.88-17.43Z"/>
      <path class="cls-6" d="m237.35,548.19c-.13-.97-.39-1.93-.73-2.84-.81-2.16-1.98-4.19-2.95-6.29-.97-2.1-1.88-4.24-2.71-6.4-3.35-8.72-5.42-16.52-6.32-25.81.11-1.54.34-1.71.1-1.88-.16-.11-.32-.22-.48-.32-4.6-3.12-7.97-5.44-12.99-7.87-.14-.07-.28-.13-.41-.2-.15-.07-.31.05-.37.18-1.76,4.07-6.53,12.37-8.89,16.56-.73,1.28-1.23,2.18-1.35,2.46-.4.92-.98,1.89-1.16,2.88-.29,1.69,1.4,2.8,2.45,3.85,3.63,3.59,7.26,7.17,10.88,10.76,7.39,7.3,14.78,14.61,22.18,21.92.11.12.28.14.41.04,2.21-1.76,2.72-4.42,2.35-7.03Z"/>
      <path class="cls-6" d="m319.77,335.46c-6.86-5.91-16.2-6.09-24.77-5.4-24.45,1.97-48.87,4.51-73.29,6.81.05-1.11.11-2.21.15-3.32.03-.79-1.2-.72-1.23.06-.05,1.12-.1,2.25-.15,3.37-.62.06-1.25.12-1.87.18-.79.07-.73,1.31.06,1.23.58-.05,1.17-.11,1.75-.16-.26,5.98-.52,11.96-.78,17.94-.24,5.72-.65,12.19,3.11,16.98,6.02,7.66,30.37,10.37,21.94,24.45-1.34,2.23-1.95,3.97-1.67,6.6.43,3.99.52,6.83-2.31,10.01-3.83,4.31-8.89,7-12.37,11.73-3.28,4.46-5.48,9.76-6.26,15.25-.97,6.86,1.34,14.26-3.03,20.29-.45.62-.93,1.22-1.43,1.81-1.86,1.38-4.04,2.4-5.97,3.68-5.33,3.54-9.74,8.35-12.04,14.36,1.84.53,3.72.98,5.61,1.44,4.14,1.01,8.22,2.26,12.28,3.54,6.01,1.89,11.86,3.99,17.42,6.76,3.49-1,5.07-3.83,7.01-6.9l9.16-14.5c12.21-19.34,24.43-38.67,36.64-58.01,6.11-9.67,12.21-19.34,18.32-29,3.05-4.83,6.11-9.67,9.16-14.5,2.79-4.42,5.85-8.8,7.95-13.61,3.22-7.4,3.05-15.53-3.41-21.09Z"/>
      <path class="cls-2" d="m261.82,271.71c-2.83-.47-4.48-1.3-5.64-4.07-6.03-14.37-22.67-68.84-23.46-72.59-.51-2.39-.49-6.97-2.91-8.4-1.05-.62-7.07-1.45-13.05-2.41-.51,1.23-1.37,2.36-2.41,3.22.56-.47-.72.79-.83.92-.49.54-.94,1.11-1.39,1.68-.88,1.12-1.73,2.28-2.64,3.37-1.29,1.55-3.2,2.15-5.08,2,.3,1.22.63,2.43.96,3.64,1.85,6.77,4.05,13.43,6.2,20.1,4.51,13.99,12.73,37.83,17.24,51.82,2.12,6.56,3.89,13.38,6.54,19.75,1.92,4.6,4.83,8.65,9.78,10.16,5.66,1.72,12.25.61,17.94-.4,6.19-1.1,12.25-2.85,18.21-4.82,13.28-4.39,26.39-9.35,39.56-14.07,2.47-.88,4.96-1.72,7.42-2.63-.24-3.41-.47-6.82-.7-10.24-15.88.31-63.74,3.29-65.75,2.96Z"/>
      <path class="cls-3" d="m310.78,290.04c-.31-1.48-.63-2.95-.94-4.43-.14-.64-.28-1.28-.42-1.92-.35-1.64-.7-3.28-1.05-4.92-.4-1.88-.8-3.75-1.2-5.63-.23-1.09-.34-2.47-.86-3.52-.1-.21-.22-.41-.37-.6-1.04-1.34-3.07-1.47-4.63-1.66-2.98-.37-5.98-.15-8.97-.15-.19,0-.39,0-.58,0-.13,0-.27,0-.39,0-3.1-.07-6-.51-8.79-1.96-2.33-1.22-4.42-2.35-7.12-2.29-1.58.03-3.14.42-4.61,1.02-.38.15-.76.32-1.13.51-.4.2-.79.41-1.17.63-2.82,1.66-7.47,7.31-10.49,3.05-.77-1.09-1.15-2.43-1.34-3.85-.29-2.16-.14-4.51-.27-6.43-.17-2.5-.47-5-1.33-7.35-.17-.46-.36-.92-.57-1.37-.27-.56-.57-1.11-.91-1.63-.77-1.23-1.68-2.37-2.62-3.48-1.09-3.58-2.72-7.12-3.78-10.55-2.83-9.19,1.23-18.48-.24-27.81-.99-6.29-3.8-12.22-8.43-16.52-.8-.74-1.66-1.44-2.58-2.08-3.72-2.6-8.16-4.89-12.32-6.68-.8-.35-1.66-.59-2.48-.65-.81-.53-1.64-1.01-2.52-1.45-.14-.07-.27-.13-.41-.2-.48-.23-.97-.45-1.47-.64-1.61-.66-3.25-1.17-4.93-1.58-1.62-.4-3.27-.7-4.93-.94-2.41-.36-4.84-.58-7.25-.8-.73-.07-.71,1.04-.02,1.15.02,0,.03.01.05.01,1.42.13,2.84.26,4.27.42-.2,1.75-.39,3.5-.55,5.25,0,.04-.01.08-.01.12-.04.39-.07.79-.1,1.19-.37,4.69-.44,9.38.28,14.1,1.08,7.03,3.2,13.92,5.09,20.76,4.05,14.67,8.43,29.27,13.25,43.72,2.47,7.41,5.12,14.79,8.16,22,.26.62.53,1.24.8,1.86.51,1.16,1.02,2.33,1.55,3.49.48,1.06.97,2.11,1.48,3.16,1.54,3.22,3.18,6.38,4.94,9.49.83,1.47,1.73,2.93,2.79,4.13,1.81,2.07,4.1,3.41,7.35,2.83,2.99-.53,5.64-2.17,8.63-2.71,2.24-.41,4.5-.38,6.75-.24.34.03.68.05,1.02.08.77.05,1.53.12,2.29.18,3.13.25,6.3.47,9.41-.15,1.53-.3,2.99-.79,4.4-1.4,1.88-.81,3.67-1.82,5.42-2.89.02-.01.03-.02.04-.03,6.46-3.93,12.63-7.33,19.82-9.14,1.16-.29,2.35-.54,3.58-.75.33-.05.45-.45.39-.72Z"/>
      <path class="cls-2" d="m226.24,96.03c-.52-.86-1.09-1.66-1.69-2.44-1.47.18-2.97.16-4.43-.08-2.88-.45-5.69-1.22-8.55-1.77-.13-.03-.73-.1-1.12-.16-.55-.02-1.31-.05-1.46-.05-1.4-.03-2.82,0-4.22.09-.71.04-1.41.11-2.12.17-.14.01-.26.03-.37.03-1.3.22-2.59.44-3.87.72-2.79.6-5.55,1.36-8.27,2.25-.94.3-1.86.65-2.78.98-.44.27-.87.55-1.3.84-.19.13-.46.39-.72.59-.67.63-1.34,1.23-1.97,1.91-.26.28-.69.96-1.02,1.23-2.66,3.42-6.38,5.3-10.35,5.12-.74.65-1.5,1.3-2.28,1.91.35,3.4,1.42,6.82,2.58,9.62,3.44,8.27,5.54,14.81,7.57,23.63.51,2.21.75,4.32.79,6.39.12,5.48-1.08,10.63-2.06,16.13-.05.06-1.53,4.7-3.76,7.48-.51.63-1.06,1.17-1.63,1.53-.33.21-.43.82,0,1,5.8,2.52,12,3.74,18.2,4.91,2.58.48,5.18.92,7.77,1.34,1.5.53,2.96,1.05,4.29,1.57.07.03.15.06.22.09.23.09.45.19.68.28.19.08.36-.09.38-.26.01-.06.02-.13.03-.19.03-.21.06-.42.09-.63.62.08,1.24.18,1.87.25.45.06.89.13,1.33.19-.03.03-.05.05-.08.08-.24.21-.22.48-.09.68.19.27.59.42.91.14.16-.14.34-.3.52-.48.07-.07.15-.15.22-.23.14.02.29.04.43.06.38.05.76.1,1.14.15.41.05.6-.29.54-.62-.04-.26-.22-.5-.54-.55-.22-.03-.44-.05-.65-.08.07-.1.15-.19.22-.29.83-1.14,1.45-2.47,1.22-3.68-.05-.28-.15-.56-.31-.82-.13-.22-.28-.41-.46-.6-.87-.93-2.21-1.46-3.01-2.43-1.62-1.95-1.46-4.79-1.4-7.27.42-3.44.92-6.97,1.7-10.9,3.27.92,9.88,2.52,13.09,1.11,2.84-1.24,4.25-4.36,5-7.18,1.12-4.15,1.48-8.59,1.87-12.86.45-4.87.69-9.75.88-14.63.08-2.1.21-4.26.29-6.44.21-6.17-.07-12.45-3.28-17.82Z"/>
      <path class="cls-3" d="m243.57,212.92c-.07,3.9-.21,7.8-.41,11.69-.79,15.6-10.12,23.37-12.87,38.75-1.41,7.85,3.66,17.38,1.75,30.37-.57,3.85-1.15,8.36-2.21,12.11-.55,1.97-1.25,7.03-1.85,8.98-.37,1.18-.77,2.43-1.72,3.27-2.18,1.92-84.55-1.05-86.51-1.5-1.13-.26-1.99-.82-2.46-1.91-.67-1.55-.72-3.52-.99-5.17l-1.33-16c-.65-4-1.3-8-1.95-12-1.31-8.1-2.62-16.19-3.93-24.29-2.54-15.65-5.63-31.47-5.46-47.39.06-5.54.71-11.31,3.17-16.35,1.15-2.37,2.74-4.53,4.79-6.21,2.63-2.14,5.87-3.23,9.01-4.37,8.84-3.22,17.68-6.44,26.52-9.65.44-.16.87-.32,1.31-.48,2.07-.75,4.13-1.5,6.2-2.25,6.56,4.04,14.84,4.87,22.55,4.81,4.48-.03,9.24-.12,13.77-.92,2.29.85,4.56,1.73,6.82,2.65.35.14.7.28,1.05.43.15.06.3.12.45.18,5.57,2.3,11.26,4.67,16.02,8.42,4.89,3.85,7.74,8.87,8.2,15.11.28,3.89.13,7.84.06,11.73Z"/>
      <path class="cls-4" d="m237.26,101.93c-1.31-.96-2.77-.97-4.25-1.46-2.9-.96-1.45-4.25-1.14-6.37.46-3.15-.36-6.61-3.01-8.59-3.32-2.48-7.34-.24-10.91-1.59-3.42-1.29-4.47-4.66-7.04-6.97-2.39-2.14-5.17-2.84-8.3-2.96-6.99-.26-15.41,2.49-18.82,9.03-.01,0-.02-.02-.03-.02-4.99-1.94-10.6-.8-14.7,2.56-3.7,3.04-7.1,8.46-5.86,13.43.65,2.59,2.58,4.61,3.37,7.14.96,3.1-.89,5.71-1.5,8.64-.48,2.27.01,4.66,1.47,6.48,1.88,2.35,4.57,3.54,5.99,6.32.71,1.4,1.24,2.88,2.05,4.24.87,1.46,1.99,2.76,2.92,4.19,1.98,3.02,2.94,6.52,2.87,10.1-.17.1-.24.37-.03.52.01,0,.02.01.03.02,0,.03,0,.06,0,.09,0,.2.14.29.29.28.07,0,.14-.03.2-.07,4.18,2.19,7.1-4.36,7.61-7.54.18-1.12-.28-3.61-.6-6.45-.42-3.74-.58-8.09,1.28-10.8.92-1.35,4.6-.88,5.88-.72.27.03.54.05.81.04.78-.01,1.56-.17,2.3-.45,2.32-.92,3.08-3.36,5.12-4.56,1.66-.98,3.25.1,4.79.75.99.42,2.03.68,3.1.77,2.41.21,4.83-.41,6.97-1.48,2.01-1.01,3.68-2.41,5.12-4.05,1.97.9,4.11,1.39,6.28,1.42.5.01,1.02,0,1.53-.05,3.06-.25,6.69-1.28,8.14-4.26,1.3-2.67.48-5.87-1.92-7.62Z"/>
      <path class="cls-2" d="m134.73,294.44c-2.12-1.93-3.06-3.52-2.53-6.48,2.72-15.34,18.25-70.15,19.62-73.72.87-2.28,3.36-6.12,2.11-8.63-.55-1.09-5.15-5.05-9.66-9.1-1.09.76-2.43,1.24-3.77,1.4.73-.09-1.03.28-1.2.32-.7.19-1.39.42-2.08.66-1.35.47-2.68.98-4.05,1.41-1.92.6-3.86.07-5.35-1.07-.41,1.19-.79,2.38-1.17,3.58-2.12,6.69-3.87,13.48-5.68,20.26-3.79,14.21-9.8,38.69-13.59,52.9-1.78,6.66-3.98,13.35-5.2,20.14-.88,4.9-.63,9.89,2.71,13.84,3.82,4.51,9.97,7.15,15.29,9.38,5.8,2.43,11.84,4.24,17.92,5.82,13.54,3.51,27.25,6.44,40.87,9.62,2.55.59,5.1,1.24,7.66,1.81,1.65-3,3.3-5.99,4.96-8.99-13.51-8.35-55.35-31.78-56.86-33.14Z"/>
      <path class="cls-3" d="m179.25,315.22c-3.2-3.37-7.32-5.31-11.36-7.46-5.02-2.67-9.71-5.92-13.91-9.76-4.6-4.19-8.31-8.57-8.48-15.08-.15-5.68.61-11.44,1.61-17.02,1.97-10.96,5.32-21.6,8.14-32.36,1.43-5.47,2.75-10.98,3.66-16.56.69-4.19,1.29-8.56.37-12.76-1.07-4.95-4.33-7.65-8.5-10.14-4.07-2.43-8.25-4.65-12.54-6.67-.53.52-1.15.91-1.85,1.14-.31.16-.63.28-.96.37-.31.18-.62.36-.95.52-.98.57-2.04.86-3.18.86-.56-.07-1.12-.15-1.68-.22-.14-.03-.27-.08-.41-.12-3.66,4.58-6.54,9.74-8.41,15.33-2.4,7.18-2.85,14.78-4.42,22.15-1.53,7.22-4.72,13.47-8.47,19.75-3.25,5.45-6.67,10.94-8.39,17.1-2,7.18-.81,14.46-.27,21.75.31,4.21.24,8.29-.65,12.43-.76,3.54-1.88,7.03-2.14,10.66-.42,5.78,1.93,11.39,6.33,15.18,4.81,4.15,10.7,4.59,16.79,4.36,4.19-.16,8.53-.53,12.57.88,3.53,1.23,6.3,3.9,9.74,5.28,3.23,1.3,5.93.66,9.14-.28,4.78-1.4,9.47-1.41,14.24.13.18.06.44,0,.56-.15,5.03-5.82,9.53-12.03,13.49-18.62.14-.22.09-.52-.09-.7Z"/>
      <path class="cls-2" d="m346.59,274.85s-.06-.05-.09-.07c-.35-.25-.76-.39-1.2-.45-.01,0-.02,0-.03,0,.02-.01.03-.02.05-.04.22-.16.44-.33.63-.51.38-.36.71-.76.94-1.21.03-.05.05-.1.08-.15.07-.14.13-.29.17-.44.11-.36.15-.71.12-1.06-.02-.2-.05-.39-.12-.57,0,0,0-.02,0-.02-.06-.18-.14-.34-.24-.5-.12-.2-.27-.39-.45-.56-.47-.45-1-.69-1.58-.81.88-.49,1.62-1.11,2.06-1.91.04-.07.08-.15.12-.22.18-.37.29-.77.32-1.21.06-.72-.04-1.28-.27-1.71-.03-.06-.06-.13-.11-.19-.49-.75-1.42-1.03-2.48-1.07,1.07-.53,2.12-1.48,2.29-2.65.05-.33.03-.69-.09-1.05,0-.02,0-.03-.01-.04-.01-.03-.02-.06-.03-.08,0-.01,0-.02,0-.02-.12-.32-.29-.59-.5-.81h0c-.56-.6-1.39-.86-2.24-.91-.36-.03-.72-.02-1.07.02-.03,0-.05,0-.07.01-2.6.29-5.2,1.3-7.72,2.11.74-.75,1.35-1.57,1.67-2.43.43-1.13.45-3.63-1.38-3.07-.47.14-.91.75-1.28,1.03-1.24.95-2.51,1.77-3.91,2.45-1.9.93-1.91.65-3.75,1.68-2.43,1.35-3.65,3.68-4.54,6.16-.02.04-.04.07-.05.1-.75,1.46-1.5,2.91-2.26,4.38-.91,1.79-1.83,3.57-2.75,5.36-.28.53.34.94.78.74.07.14.15.28.22.41-.53-.1-1.1-.12-1.7-.05-.27.03-.43.21-.47.41-.1.36.13.8.6.74,3.27-.41,4.52,2.3,6.23,4.41.99,1.23,2.14,2.25,3.94,2.34,2.56.12,3.19.36,5.75.14.38-.03.82-.09,1.3-.17.36-.06.75-.13,1.16-.22,2.1-.43,4.64-1.12,6.57-1.77.87-.28,1.62-.56,2.15-.8,1.46-.65,2.92-1.14,3.63-2.36.11-.19.2-.39.28-.62.3-.95.13-2.1-.65-2.74Z"/>
      <path class="cls-3" d="m341.74,268.21c-.03-.09-.06-.19-.09-.28-.23-.88-.29-1.82-.17-2.76-.29.13-.58.27-.88.38-.15.07-.31.13-.47.19,0,.33.02.66.05.98.05.46.13.91.25,1.35.04.13.07.26.11.38.35-.05.69-.12,1.03-.2.06.02.13.03.19.04-.02-.03-.03-.05-.03-.08Zm26.91-17.29c-3.4-.15-6.81-.25-10.21-.29-.39,0-.79-.01-1.18-.01-3.23-.03-6.46,0-9.69.06-.14,0-.3,2.73-.43,6.58-.33.06-.66.14-.98.24h0c-.09.03-.18.06-.27.09-1.15.41-2.21,1.11-3.1,1.99-1.31,1.29-2.24,2.97-2.54,4.75-.03.18-.06.36-.07.53-.03.29-.04.59-.04.87,0,.33.02.66.05.98.05.46.13.91.25,1.35.04.13.07.26.11.38.13.4.28.79.46,1.16.35.75.79,1.45,1.31,2.12.26.34.54.66.83.98.62.66,1.3,1.29,2.02,1.86.36.29.72.56,1.09.82.22.15.44.31.66.46.02.85.03,1.64.05,2.37,0,.09,0,.18.01.27.07,2.08.11,4.35,2.02,5.65,1.88,1.28,4.77,1.18,7.19,1,.62-.05,1.2-.1,1.73-.13,2.33-.15,6.01-.05,7.89-1.66,1.57-1.33,1.63-3.64,1.85-5.53,1-8.71,1.53-17.45,1.66-26.22,0-.37-.31-.65-.66-.66Zm-24.4,21.37c-.29-.29-.56-.6-.81-.92-.51-.63-.94-1.3-1.28-2.04-.16-.33-.29-.68-.4-1.04-.02-.03-.03-.05-.03-.08-.03-.09-.06-.19-.09-.28-.23-.88-.29-1.82-.17-2.76.06-.51.16-1.02.31-1.51.74-2.44,2.52-4.6,4.92-5.2.13-.03.26-.06.39-.09-.02.65-.04,1.32-.06,2.01-.03.92-.05,1.87-.06,2.84-.03,1.09-.04,2.22-.06,3.33-.02,1.1-.03,2.2-.03,3.27,0,.14,0,.28,0,.41,0,.45,0,.89,0,1.33v1c0,.49,0,.98,0,1.46v.45s-.08-.05-.12-.08c-.28-.2-.56-.4-.83-.61-.07-.06-.15-.12-.23-.18-.52-.41-1-.84-1.46-1.31Z"/>
      <path class="cls-2" d="m347.14,270.32h0c-.01-1.34-.07-2.67-.09-4-.02-.78-.02-1.56.02-2.34.01-.2.02-.4.03-.58.07-1.09.15-2.04-.05-3.02-.05-.29-.13-.58-.25-.88-.01-.03-.02-.07-.04-.1,0-.04.03-.07.03-.11.02-.33-.01-.61-.07-.83,0-.02,0-.03-.01-.04-.01-.03-.02-.06-.03-.08,0-.01,0-.02,0-.02-.15-.38-.41-.61-.77-.72-.61-.2-1.49-.05-2.47.31-.08.03-.16.06-.25.09-.36.14-.73.31-1.1.49-2.37,1.17-4.86,3.06-5.38,3.84-.85,1.26-1.2,3.25.62,3.79.74.22,1.45-.1,2.12-.42.13-.06.25-.12.37-.18.07-.04.15-.08.23-.12-.18.18-.36.36-.53.54-.09.1-.18.19-.27.28h0c-.26.29-.51.58-.75.87-.24.29-.5.6-.73.93-.09.13-.18.27-.26.41-.18.31-.32.64-.39.98-.05.2-.06.41-.05.62.02.22.06.44.15.66.08.2.17.38.27.53.23.36.53.6.86.73.04.02.07.04.11.05-.1.57.06,1.12.61,1.45.15.1.34.18.56.23.49.13,1.02.19,1.54.19-.81.58-1.59,1.39-1.74,2.23-.07.36-.03.72.16,1.07.03.06.07.13.12.18.8,1.13,2.64.46,3.91-.13.32-.15.6-.29.82-.4.84-.42,1.43-.9,1.83-1.45.13-.17.24-.35.33-.54.07-.15.14-.3.19-.46.05-.12.08-.24.12-.37.16-.62.22-1.29.24-2.04,0-.27,0-.56,0-.86,0-.26,0-.52,0-.79v-.02Z"/>
      <path class="cls-2" d="m226.56,340.63c-1.35-1.3-3.14-2.16-4.77-3.04-.43-.23-.86-.46-1.29-.69-1.35-.71-2.72-1.39-4.09-2.04-.19-.09-.36-.17-.53-.25-3.08-1.48-3.8-1.99-7.3-3.22.07-.19.15-.37.23-.56.22-.54.15-.02.48-.94,3.41,1.2,4.64,1.87,7.22,3.17.5.25,1.05.53,1.69.83.8.39,1.59.79,2.38,1.21.4.2.8.41,1.2.63.6.32,1.2.65,1.79.98.04.02.08.05.12.07,1.01.57,2.24,1.51,3.48,1.14.13-.04.26-.1.37-.16.55-.31.83-.88.72-1.49-.02-.13-.06-.25-.11-.38-.27-.63-.83-1.15-1.47-1.61-.68-.48-1.43-.89-2-1.26-2.48-1.61-4.52-2.85-6.57-3.88-.02-.02-.04-.03-.06-.04-2.73-1.37-5.48-2.35-9.29-3.3-1.31-.62-3.02-.8-4.41-1.15-.04-.01-.09-.02-.13-.04-.93-.23-1.86-.48-2.79-.72-.57-.14-1.15-.28-1.72-.41-1.46-.32-2.77-.16-4.04.21-1.21.36-2.39.91-3.64,1.43-.92.38-1.86.73-2.81,1-2.04.58-4.15.82-6.35.4-.33-.06-.37.46-.04.53.32.06.64.1.96.11-1.09.87-1.73,1.39-2.62,2.46-.52.63-1.8,1.82-1.56,2.75.13.52.76.88,1.12,1.22.72.67,1.43,1.35,2.12,2.05.02.02.05.05.07.07,1.25,1.25,2.47,2.54,3.64,3.85.94,1.05,18.83,5.35,19.97,5.73,2.44.84,2.45.96,4.45,1.43.23.05.49.11.78.18,1.04.23,4.44,1.33,4.95-.24.29-.9-.23-1.81-.98-2.54.29.11.58.2.88.3,1.16.43,2.33.89,3.55,1.16.15.03.3.06.45.09.72.13,2.06.41,2.68-.18.72-.69.38-1.58-.27-2.31.71.3,1.44.55,2.18.73.93.22,2,.33,2.6-.58.71-1.08-.43-1.95-1.2-2.68Z"/>
      <path class="cls-10" d="m309.63,376.56c-11.77,22.74-24.55,44.95-38.29,66.55-.4.63.6,1.21,1,.59,13.74-21.61,26.51-43.81,38.29-66.55.34-.66-.66-1.25-1-.59Z"/>
      <path class="cls-10" d="m264.76,362.01c-2.61,1.48-5.47,3.12-7.05,5.78-2.13,3.59-1.05,7.88-3.84,11.28-2.28,2.79-5.26,4.86-7.16,7.96-1.93,3.14-2.8,6.71-2.8,10.37,0,.75,1.16.75,1.16,0,0-4.39,1.37-8.63,4.25-12,1.88-2.2,4.28-3.93,5.98-6.29,1.98-2.75,1.64-5.45,2.52-8.56,1.06-3.76,4.33-5.73,7.53-7.55.65-.37.07-1.37-.59-1Z"/>
      <path class="cls-10" d="m281.25,347.32c-4.09,1.96-7.95,4.3-11.58,7.03-.59.44-.01,1.45.59,1,3.63-2.72,7.49-5.06,11.58-7.03.67-.32.08-1.32-.59-1Z"/>
      <path class="cls-10" d="m281.81,353.88l-8.51,2.32c-.72.2-.41,1.32.31,1.12,2.84-.77,5.68-1.55,8.51-2.32.72-.2.41-1.32-.31-1.12Z"/>
      <path class="cls-10" d="m169.79,309.16c-5.42-5.01-11.49-9.25-18.13-12.47-3.16-1.54-6.94-2.45-9.88-4.35-3.43-2.22-5.67-6.67-7.98-9.94-.06-.08-.13-.14-.2-.18,1.32-1.33,2.46-2.79,3.17-4.46,1.81-4.25-.38-8.76-.5-13.11-.15-5.6,1.61-11.07,3.91-16.1,6.39-14.06,21.04-32.88,7.93-47.75-.5-.56-1.31.26-.82.82,6.03,6.84,5.59,16.66,2.64,24.76-3.14,8.61-8.68,16.08-12.04,24.6-1.59,4.03-2.73,8.3-2.78,12.65-.06,4.68,2.57,9.9.3,14.29-1.97,3.81-6.22,6.57-9.39,9.3-4.08,3.51-8.16,7.02-12.24,10.53-.57.49.26,1.31.82.82l13.11-11.28c1.16-1,2.45-2,3.71-3.07-2.35,5.09-4.82,10.11-7.42,15.08-.35.66.66,1.25,1,.59,2.84-5.42,5.53-10.92,8.08-16.49,1.9,2.74,3.69,5.74,5.97,8.16,2.48,2.64,6.09,3.5,9.31,4.9,7.6,3.3,14.54,7.91,20.62,13.54.55.51,1.37-.31.82-.82Z"/>
      <path class="cls-7" d="m231.44,255.52c.59-11.19,2.04-22.39,3.1-33.55.07-.74-1.09-.74-1.16,0-1.03,10.8-2.32,21.62-3.04,32.45-.34,5.06.22,9.98.56,15.02.39,5.63-.1,11.14-1.5,16.61-.19.72.93,1.03,1.12.31,1.29-5.02,1.87-10.14,1.64-15.32-.23-5.19-1-10.3-.73-15.51Z"/>
      <path class="cls-7" d="m254.05,272.02c-3.17,3.06-5.95,6.44-8.35,10.13-.41.63.6,1.21,1,.59,2.35-3.61,5.07-6.91,8.17-9.89.54-.52-.28-1.34-.82-.82Z"/>
      <path class="cls-7" d="m251.79,283.05c-1.61,4.48-2.88,9.05-3.83,13.72-.15.73.97,1.04,1.12.31.94-4.67,2.22-9.23,3.83-13.72.25-.7-.87-1.01-1.12-.31Z"/>
      <path class="cls-10" d="m237.35,548.19c-.55-.7-1.36-1.28-1.98-1.84-3.52-3.21-24.93-24.72-33.78-33.04-.73,1.28-1.23,2.18-1.35,2.46-.4.92-.98,1.89-1.16,2.88-.29,1.69,1.4,2.8,2.45,3.85,3.63,3.59,7.26,7.17,10.88,10.76,7.39,7.3,14.78,14.61,22.18,21.92.11.12.28.14.41.04,2.21-1.76,2.72-4.42,2.35-7.03Z"/>
      <path class="cls-5" d="m219.29,339.46c-3.41-2.16-7.01-3.93-10.8-5.32-.7-.26-1.01.86-.31,1.12,3.7,1.36,7.2,3.09,10.53,5.2.63.4,1.22-.6.59-1Z"/>
      <path class="cls-5" d="m213.46,341.92c-2.1-1.5-4.37-2.68-6.8-3.53-.71-.25-1.01.87-.31,1.12,2.34.83,4.51,1.97,6.53,3.42.61.44,1.19-.57.59-1Z"/>
      <path class="cls-2" d="m218.84,330c-.26-.28-.51-.57-.77-.86-.02-.02-.04-.04-.05-.06-1.48-1.7-2.96-3.49-4.99-4.48-2.48-1.22-5.49-2.03-8.21-2.45-3.4-.52-6.3.38-9.19,1.54-2.09.83-4.18,1.79-6.44,2.44-.06.02-.12.04-.19.05-.72.2-.41,1.31.31,1.12.4-.11.8-.23,1.2-.37.41-.14.82-.29,1.23-.45-.03.15,0,.32.13.48.89,1.1,2.06,1.16,3.4,1.26,2.58.18,5.16-.02,7.74.07,4.87.17,9.67,1.42,14.42,2.49.29.07.57.13.86.2.57.13.96-.54.56-.97Z"/>
      <path class="cls-5" d="m210.46,324.15c-3.09-.84-5.7-1-8.85-.36-.73.15-.42,1.27.31,1.12,2.95-.59,5.35-.42,8.23.36.72.2,1.03-.92.31-1.12Z"/>
      <path class="cls-5" d="m345.69,266.25c-1.19.89-2.49,1.58-3.94,1.95-.79.2-1.62.34-2.43.33-.22,0-.44,0-.65-.01-1.72.16-2.25-.59-1.6-2.25,0,0,0,0,0,0,2.42.25,5.93-1.79,7.27-2.79.59-.44.01-1.45-.59-1-1.02.76-2.12,1.3-3.29,1.77-.5.2-1.01.42-1.53.56-.47.14-.94.22-1.43.24-.74.15-1.01-.18-.8-.99-.15-1.27.39-1.28,1.35-1.91.53-.34,1.05-.69,1.58-1.03,1.14-.75,2.28-1.49,3.41-2.24.62-.41.04-1.41-.59-1-2.05,1.34-4.22,2.6-6.18,4.06-.98.73-1.91,1.94-1.16,3.18.15.24.32.44.52.6-1.07,1.05-.18,3.11,1.41,3.7.13.05.27.09.41.13-.79.79-.89,1.92.44,2.86.12.09.25.16.37.23-.97.88-1.31,2.3-.51,3.54,1.39,2.16,4.42,1.05,6.38.52.72-.19.41-1.31-.31-1.12-1.17.32-2.94,1.01-4.14.68-1.65-.46-1.51-2.61-.01-3.13,2.1.33,4.55-.65,6.2-1.62.64-.38.06-1.38-.59-1-1.31.77-2.8,1.39-4.34,1.47-.69.04-1.47,0-2.1-.33-1.26-.67-.43-1.57.52-1.83,2.47-.01,5.08-1.17,6.91-2.52.59-.44.01-1.45-.59-1Z"/>
      <path class="cls-5" d="m332.42,261.42c-1.17,1.45-1.49,3.04-1.91,4.83-.58,2.51-1.76,4.61-4.11,5.83-.66.34-.08,1.34.59,1,1.66-.86,2.92-2.17,3.75-3.84,1.1-2.24.89-5,2.5-7,.46-.58-.35-1.4-.82-.82Z"/>
      <path class="cls-2" d="m196.86,121.72c-.34-.1-.68-.19-1.03-.27-4.23-1-8.6-.82-9.98,4.24-.76,2.81.2,5.34,2,7.23.67.71,1.46,1.33,2.32,1.84.33.2.66.38,1.01.54.35.16.71.31,1.07.44.04.01.07.03.11.04.22.07.48-.03.63-.21.05-.06.09-.13.11-.21.34-1.57.75-3.02,1.29-4.45.14-.38.29-.77.45-1.15.22-.53.47-1.06.73-1.59.86-1.74,1.31-3.43,1.41-5.34.4-.23.46-.96-.12-1.12Z"/>
      <path class="cls-5" d="m195.58,130.07c-2.29-.42-1.26-3.55-1.71-5.26-.31-1.17-1.13-2.09-2.34-2.29-.73-.12-1.04,1-.31,1.12,2.45.4,1.41,3.82,1.73,5.5.23,1.22,1.14,1.84,2.32,2.06.73.14,1.04-.98.31-1.12Z"/>
      <path class="cls-5" d="m193.08,135.53c-.74.44-1.72.2-2.16-.55-.38-.64-1.38-.06-1,.59.76,1.28,2.47,1.73,3.75.96.64-.38.06-1.39-.59-1Z"/>
      <path class="cls-7" d="m219.29,177.66c-6.49,2.86-13.41,4.69-20.57,5.06-11.25.57-22.69-2.62-31.57-9.48.44-.16.87-.32,1.31-.48,8.6,6.4,19.52,9.36,30.27,8.8,6.62-.35,13.03-1.97,19.08-4.5.35.14.7.28,1.05.43.15.06.3.12.45.18Z"/>
    </g>
    <path class="cls-12" d="m500.56,374.08c-.13-.33-.28-.66-.44-.98-.14-.27-.28-.54-.44-.8,0,0,0,0,0,0-.16-.26-.33-.52-.51-.77-1.27-1.81-2.97-3.2-4.88-4.23-.77-.41-1.57-.76-2.4-1.05-.41-.14-.83-.27-1.25-.39-5.2-1.43-10.81-1.06-16.18.15-.18.03-.35.07-.52.12-1.8.43-3.57.94-5.28,1.51-1.08.35-2.14.73-3.18,1.12-6.13,2.32-11.9,5.46-17.42,9.01-2,1.29-3.96,2.63-5.9,4-.49.35-.97.69-1.45,1.04-7.92,5.73-15.56,11.88-23,18.23-.33.28-.65.56-.98.85h0c-14.79,12.71-28.67,26.48-41.51,41.16-13.74,15.71-25.96,32.56-37.82,49.7-6.35,9.18-12.69,18.37-19.04,27.56-4.76,6.9-9.59,13.76-14.22,20.75-.39.59-.79,1.18-1.17,1.77-.04-.04-.07-.08-.12-.12.57-1.02,1.14-2.04,1.71-3.06,6.78-12.11,13.56-24.23,20.31-36.35,2.07-3.72,4.14-7.43,6.21-11.15,8.64-15.53,17.27-31.07,25.87-46.62,10.67-19.28,21.3-38.57,31.91-57.88.52-.94,1.03-1.87,1.54-2.81,0,0,0,0,0,0,4.75-8.65,9.5-17.3,14.24-25.97,1.59-2.92,3.17-5.84,4.72-8.79,3.12-5.93,6.11-11.93,8.76-18.08.24-.55.47-1.11.71-1.66.7-1.67,1.37-3.34,2.01-5.03.64-1.69,1.25-3.4,1.83-5.11,1.73-5.15,3.12-10.4,4.04-15.76.81-4.68,1.24-9.43,1.21-14.19-.01-2.67.06-5.83-.87-8.49-.04-.12-.09-.24-.13-.37-.14-.36-.3-.7-.48-1.04h0c-.12-.23-.26-.45-.39-.65,0,0,0,0,0,0-.29-.43-.61-.82-.98-1.19-.04-.04-.09-.08-.13-.12-.27-.26-.54-.48-.82-.69-1.03-.74-2.15-1.17-3.33-1.36-1.9-.31-3.94,0-5.93.67-3.24,1.07-6.37,3.05-8.6,4.73h0c-.88.66-1.75,1.35-2.61,2.03-.43.35-.86.7-1.29,1.05-.84.71-1.68,1.42-2.5,2.15-.41.37-.82.74-1.23,1.11-1.22,1.12-2.42,2.26-3.59,3.43-2.73,2.73-5.32,5.59-7.78,8.56-9.4,11.36-16.91,24.11-23.62,37.22,0,0,0,0,0,0-1.5,2.91-2.95,5.84-4.38,8.78-8.93,18.38-17.24,37.08-25.05,55.97-7.97,19.24-15.38,38.72-22.22,58.39-5.35,15.38-10.35,30.9-15.01,46.51-.16.53-.31,1.06-.47,1.58-2.68,1.97-5.7,3.59-8.65,5.31-1.75,1.02-3.47,2.07-5.07,3.24-1.56,1.14-3.01,2.4-4.27,3.87-.73.85-1.4,1.77-1.98,2.78-.42.72-.77,1.46-1.06,2.23-1.19,3.08-1.48,6.46-1.72,9.74-.15,1.99-.28,4.04-.34,6.09-.05,1.66-.05,3.34.02,4.99.07,1.57.21,3.13.43,4.65.52,3.51,3.25,3.85,6.36,4.1.6.05,1.2.09,1.79.12,4.6.26,9.26.1,13.86.06.86,0,1.71-.02,2.56-.03.37,0,.74,0,1.12-.01,4.08-.05,8.15-.13,12.22-.31,1.22-.05,2.47-.23,3.64-.2,1.67.04,2.99-.71,4.17-1.76,3.99-3.51,7.82-7.22,11.72-10.81,15.68-14.44,31.44-28.79,47.55-42.74,16.21-14.05,32.77-27.7,49.91-40.6,8.11-6.11,16.42-11.99,24.52-18.13h0c6.56-4.97,12.99-10.11,19.08-15.66,2.02-1.84,4-3.74,5.92-5.68.77-.78,1.54-1.57,2.29-2.37,1.5-1.6,2.98-3.23,4.4-4.9.71-.83,1.4-1.67,2.09-2.53,1.04-1.28,2.04-2.59,3.01-3.92.64-.88,1.29-1.77,1.93-2.68t0-.01c.14-.19.28-.39.41-.58.31-.45.61-.89.92-1.35.31-.46.61-.91.91-1.38.29-.46.59-.93.88-1.39h0c.29-.47.57-.95.85-1.42,1.26-2.15,2.4-4.38,3.33-6.67.81-2.03,1.46-4.11,1.87-6.23h0c.11-.54.19-1.06.27-1.59.39-2.91.21-5.94-.88-8.64Zm-198.93,170.78c.15-.26.29-.53.44-.78h0s.11-.2.11-.2c.13-.23.26-.46.39-.7.03.03.06.06.09.09-.19.28-.37.56-.55.85-.03.05-.06.1-.1.15-.13.2-.25.39-.38.59Z"/>
    <path class="cls-12" d="m115.48,483.84c-3.23,22.08-6.65,44.14-8.86,66.35-.46.77-.83,1.61-1.14,2.54l-14.14,3.4c-3.95.95-10.27,3.75-11.81-1.84-.73-2.67-.85-5.59-1.22-8.32-.35-2.61-.69-5.21-1.04-7.82-.11-.83-.22-1.66-.33-2.49-.03-.19-.05-.37-.07-.55-1.78-13.46-3.54-26.92-5.22-40.39-3.4-27.31-11.51-90.21-11.63-117.65-.12-27.12.99-54.28,3.94-81.25,1.2-11,2.87-22.07,6.62-32.53,1.38-3.84,3.04-7.59,5.07-11.13.64-1.14,1.33-2.26,2.05-3.35,2.82-4.26,6.17-8.43,10.63-11.05.95-.56,1.94-1.02,2.95-1.36.1-.03.2-.07.3-.1.25-.08.49-.15.74-.21.06-.02.12-.03.19-.04,2.96-.72,6.05-.4,8.77,1.46,4.39,2.99,7.24,8.36,9.33,13.09,2.32,5.25,3.81,10.82,5.1,16.39,1.52,6.61,2.81,13.26,3.94,19.94,2.73,16.1,4.47,32.36,5.58,48.65.73,10.64,1.2,21.3,1.5,31.95.78,27.34-7.32,89.43-11.26,116.32Z"/>
    <path class="cls-9" d="m124.72,328.52c-.2-2.56-.43-5.12-.67-7.69-.86-9.2-1.96-18.37-3.37-27.51-.06-.45-.13-.9-.21-1.35-.26-1.66-.53-3.32-.81-4.98-.59-3.49-1.23-6.98-1.92-10.46-.63-3.17-1.3-6.33-2.02-9.48-.32-1.42-.67-2.85-1.04-4.27-.53-2.05-1.11-4.09-1.77-6.1-.11-.32-.21-.64-.32-.96-.01-.02-.02-.04-.02-.06-.59-1.69-1.23-3.36-1.95-5-.63-1.44-1.35-2.94-2.15-4.42-1.82-3.37-4.13-6.6-7.18-8.68-2.73-1.86-5.83-2.19-8.8-1.46-.05.01-.11.02-.16.04-.26.06-.51.14-.77.22-.09.03-.18.05-.27.09-1.02.34-2,.8-2.95,1.36-.05.03-.1.06-.15.09-4.38,2.62-7.69,6.75-10.48,10.96-.72,1.1-1.41,2.21-2.05,3.35.56,2.57,1.21,5.11,2.06,7.61.43,1.25.9,2.48,1.45,3.68,1.32,2.92,3.01,5.65,5.21,8.01,2.4,2.57,5.3,4.55,8.1,6.67.3.23.61.46.91.7,1.33,1.03,2.62,2.11,3.8,3.31.72.73,1.36,1.49,1.94,2.28,1.76,2.39,2.95,5.03,3.82,7.81.62,1.98,1.07,4.02,1.47,6.09.86,4.58,1.39,9.3,2.58,13.69.03.13.07.27.11.39,1.83,6.54,5.6,11.7,10.22,16.27,1.68,1.66,3.48,3.25,5.33,4.8.85.71,1.71,1.41,2.57,2.11,0,0,.02.01.02.02-.17-2.38-.34-4.76-.53-7.13Z"/>
    <path class="cls-6" d="m90.74,446.37c-2.67,30.88-7.53,61.42-13.47,91.77-.11-.83-.22-1.66-.33-2.49-.03-.19-.05-.37-.07-.55.82-4.2,1.61-8.4,2.38-12.61,5.36-29.34,9.3-58.88,11.42-88.64,2.1-29.48,2.68-59.05,2.61-88.59-.1-36.32-.82-72.65-1.7-108.97.25-.08.49-.15.74-.21.06-.02.12-.03.19-.04.23,10.65.45,21.3.67,31.94,1.23,59.45,2.7,119.08-2.43,178.4Z"/>
    <path class="cls-11" d="m72.09,540.62c-1.45-9.4-2.81-18.8-4.05-28.22-.22-1.64-.43-3.27-.64-4.91-1.97-15.32-3.64-30.68-5.05-46.06-.62-6.91-1.19-13.84-1.71-20.76-1.65-22.23-2.71-44.5-3.18-66.78-.05-2.26-.09-4.52-.11-6.78-.01-.68-.02-1.34-.03-2.02-.1-8.35-.12-16.71-.13-25.06,0-7.65-.12-15.37-1.09-22.98-.4-3.18-.95-6.34-1.7-9.47-.9-3.76-1.78-8.81-5.24-11.35-.78-.57-1.63-.95-2.51-1.15-.34-.08-.69-.14-1.05-.18-2.73-.28-5.67.76-8.04,1.96-6.74,3.44-11.7,9.08-15.52,15.23-.71,1.14-1.38,2.3-2.01,3.47-9.2,16.93-13.75,36.19-15.69,54.98-1.27,12.31-1.38,24.69-.73,37.04.3,5.75.77,11.49,1.37,17.22.15,1.46.31,2.91.48,4.36,2.47,21.45,6.39,42.76,11.52,63.79,1.45,5.94,3,11.86,4.65,17.75,2.48,8.88,5.19,17.7,8.13,26.45,2.09,6.24,4.3,12.45,6.62,18.62,1.23,3.27,4.59,13.79,5.49,13.5,2.39-.78,8.07-1.81,14.14-3.02.35-.07.7-.14,1.05-.21,9.17-1.84,18.83-4.04,19.2-6.25.82-5.01-3.42-14.22-4.19-19.17Z"/>
    <path class="cls-11" d="m427.05,281.74c-.04-.12-.09-.24-.13-.37-.14-.36-.29-.7-.48-1.04h0c-.12-.23-.25-.44-.39-.65,0,0,0,0,0,0-.28-.43-.61-.82-.98-1.2-.04-.04-.08-.08-.13-.12-.27-.26-.54-.48-.82-.69-1.03-.74-2.16-1.17-3.34-1.37-1.9-.31-3.94.01-5.93.68-3.24,1.07-6.37,3.05-8.6,4.73h0c-.88.66-1.75,1.35-2.61,2.03-.43.35-.86.7-1.29,1.05-.84.71-1.68,1.42-2.5,2.15-.41.37-.82.74-1.23,1.11-1.22,1.12-2.42,2.26-3.59,3.43-2.73,2.73-5.32,5.59-7.78,8.56-9.4,11.36-16.91,24.11-23.62,37.22.9,9.8,2.8,19.75,7.63,28.43.35.63.71,1.24,1.09,1.84.22.35.44.69.66,1.03,2.36,3.53,5.21,6.61,8.35,9.38,2.82,2.5,5.89,4.76,9.05,6.87,4.75-8.65,9.5-17.3,14.24-25.97,1.59-2.92,3.18-5.84,4.72-8.79,3.12-5.93,6.11-11.93,8.76-18.08.24-.55.47-1.11.71-1.66.7-1.66,1.37-3.34,2.01-5.03.64-1.69,1.25-3.4,1.83-5.11,1.73-5.15,3.13-10.4,4.05-15.76.81-4.68,1.24-9.43,1.21-14.19-.01-2.67.06-5.82-.88-8.49Zm73.52,92.34c-.13-.33-.28-.66-.44-.98-.13-.27-.28-.54-.44-.8,0,0,0,0,0,0-.15-.27-.32-.52-.5-.78-1.27-1.81-2.97-3.21-4.89-4.22-.77-.41-1.57-.76-2.4-1.05-.41-.14-.83-.28-1.25-.39-5.2-1.43-10.81-1.06-16.19.15-.18.03-.35.07-.52.12-1.8.42-3.57.94-5.28,1.51-1.08.35-2.14.73-3.18,1.12-6.13,2.32-11.9,5.46-17.42,9.01-2,1.28-3.97,2.63-5.9,4-.49.35-.97.69-1.45,1.04-7.92,5.73-15.56,11.88-23,18.23-.33.28-.65.56-.98.85,7.71,5.4,15.05,11.27,21.57,18.13.24.26.49.51.72.77.66.7,1.3,1.4,1.93,2.12,4.9,5.56,9.01,11.64,12.32,18.2,6.56-4.97,12.99-10.1,19.08-15.66,2.02-1.84,4-3.74,5.92-5.68.77-.78,1.54-1.57,2.29-2.37,1.5-1.6,2.98-3.23,4.4-4.9.71-.83,1.4-1.67,2.09-2.53,1.04-1.28,2.04-2.59,3.01-3.92.64-.88,1.29-1.77,1.93-2.68t0-.01c.14-.19.28-.39.41-.58.31-.45.62-.89.92-1.35.31-.46.61-.91.91-1.38.3-.46.59-.93.88-1.39h0c.29-.47.57-.95.85-1.42,1.26-2.15,2.4-4.38,3.33-6.67.82-2.04,1.48-4.13,1.89-6.26.1-.52.19-1.04.26-1.57.39-2.91.21-5.94-.88-8.64Z"/>
    <path class="cls-9" d="m160.74,501.48c-.28-1.28-.65-2.75-1.25-4.1-.2-.46-.42-.89-.67-1.31-.7-1.15-1.63-2.1-2.91-2.59-2.86-1.09-5.97.34-7.97,2.42-2.55,2.66-4.18,6.31-5.79,9.59-1.78,3.62-3.38,7.34-4.82,11.11-3.05,7.99-5.45,16.23-7.54,24.52-1.81,7.17-3.33,14.42-4.57,21.7.43-4.71.85-9.42,1.28-14.13.74-8.16,1.53-16.32,1.86-24.51.12-2.97.19-5.96.12-8.95-.1-4.5-.5-8.98-1.48-13.37-.61-2.74-1.39-5.76-2.66-8.37-.26-.55-.55-1.07-.86-1.58-.15-.24-.3-.46-.46-.65-.3-.36-.61-.63-.94-.83-1.42-.86-3.1-.34-4.71.97-1.39,1.14-2.58,2.46-3.59,3.9-2.5,3.55-3.98,7.84-5.05,11.99-3.79,14.8-4.63,30.37-4.06,45.6.02.55.04,1.1.07,1.65.8,18.06,3.66,35.94,6.81,53.71.06.34.57.2.52-.14-.02-.09-.03-.17-.05-.25.1.31.2.62.3.94.05.16.24.25.39.16.23-.14.46-.28.69-.43.36-.21.71-.43,1.06-.65,7.04-4.31,14.06-8.67,21.06-13.07.14-.09.28-.18.42-.27.39-.24.79-.49,1.18-.74,1.3-.82,2.6-1.64,3.91-2.47,1.56-.99,3.48-1.89,4.72-3.29,1.06-1.19,1.31-2.77,1.52-4.3.3-2.15.59-4.3.91-6.44,2.6-17.64,6.27-35.05,10.58-52.34,1.89-7.61,3.71-15.7,1.97-23.5Z"/>
    <path class="cls-11" d="m204.59,663.55c-.09-.59-.54-1.45-.74-1.97-.13-.34-.26-.67-.38-1.02-.17-.46-.35-.93-.52-1.39l-1.31-3.49c-1.36-3.6-2.71-7.21-4.06-10.81-1.11-2.97-2.22-5.93-3.34-8.9-3.68-9.81-7.35-19.63-11.04-29.43-2.19-5.82-4.43-12.27-8.74-16.92-1.53-1.65-3.22-2.62-4.84-2.75-.36-.03-.72-.02-1.07.04-1.47.24-2.85,1.26-3.95,3.2-1.6,2.82-2.55,6.1-3.15,9.27-2.29,12.19.44,25.56,3.92,37.27,3.38,11.42,8.47,22.25,15,32.18.07.11.14.22.21.32,1.07-.01,2.15-.04,3.22-.09,2.59-.1,5.17-.32,7.73-.67.36-.05.71-.1,1.07-.15.36-.05.73-.11,1.09-.17,1.26-.2,2.52-.44,3.78-.7,1.81-.38,4.27-.63,5.92-1.46l.98-.29c.24-.22.4-.45.49-.68.19-.45.1-.93-.28-1.42Z"/>
    <path class="cls-6" d="m424.94,278.36c-12.73,19.7-24.77,39.83-36.1,60.36-26.01,47.14-48.28,96.34-66.53,146.99-6.42,17.81-12.34,35.79-17.75,53.92-.14.47-.28.94-.42,1.41-.21.68-2.95,9.36-4.6,14.59-.37,0-.74.01-1.12.01,1.07-3.4,2.61-8.27,3.6-11.38.02-.06.04-.13.06-.19h0c.48-1.52.81-2.58.87-2.77,14.13-47.68,31.77-94.31,52.68-139.42,19.91-42.94,42.81-84.47,68.49-124.21.28.21.56.43.82.69Z"/>
    <path class="cls-6" d="m500.57,374.08c-19.42,13.37-38.28,27.56-56.5,42.53-38.29,31.46-73.79,66.3-105.97,103.99-8.94,10.47-17.62,21.17-26.04,32.07-.26-.26-.51-.52-.75-.78,25.55-33.06,53.55-64.23,83.71-93.15,32.66-31.32,67.83-59.99,105.1-85.64.16.32.31.65.44.98Z"/>
    <path class="cls-9" d="m294.31,546.17s-.05-.06-.08-.1c-.12-.14-.25-.28-.38-.41-2.32-2.45-5.58-3.83-8.88-4.28-7.06-.95-13.48,2.57-18.84,6.95-1.14.93-2.23,1.9-3.27,2.88-2.45,2.31-4.73,4.77-6.87,7.35-3.6,4.33-6.81,9-9.74,13.8-5.02,8.23-9.29,16.91-13.45,25.59-2.7,5.63-5.31,11.31-7.87,17.01-1.66,3.67-3.29,7.35-4.91,11.04,1.48-3.81,2.95-7.62,4.41-11.43,3.49-9.11,6.94-18.23,10.33-27.37,2.79-7.51,5.73-15,7.8-22.75.97-3.62,1.73-7.31,2.14-11.04.01-.09.02-.19.03-.28.2-1.95.3-3.92.29-5.88-.02-1.44-.07-2.88-.44-4.28-.24-.89-.63-1.72-1.15-2.38-.14-.18-.3-.36-.47-.51-.87-.82-2.03-1.25-3.48-1.01-1.56.26-3.09,1.01-4.52,1.66-1.12.51-2.22,1.06-3.29,1.66-.29.16-.58.32-.87.49-5.37,3.11-10.11,7.19-14.2,11.83-8.75,9.92-14.59,22.19-18.34,34.8-3.14,10.56-4.77,21.58-4.83,32.6-.02,4.06.17,8.12.57,12.16.02.24.12.83.27,1.7.78,4.63,3.1,17.08,4.62,25.12.1.52.2,1.02.29,1.49.24,1.29.46,2.42.64,3.33.02.06,1.87-.23,5.07-.95.28-.06.56-.13.86-.2.22-.05.45-.11.69-.16,5.41-1.28,13.67-3.54,23.1-7.08.26-.1.53-.2.79-.3,6.46-2.45,13.44-5.49,20.4-9.22.12-.06.31-.29.57-.66,1.74-2.49,6.46-11.53,11.98-22.38.32-.63.64-1.27.97-1.91.14-.29.29-.57.44-.86,1.22-2.41,2.48-4.9,3.73-7.4,4.75-9.44,9.59-19.14,13.31-26.49,4.41-8.71,10.14-13.88,12.03-18.44,1.7-4.11,3.21-8.45,3.54-12.91.28-3.83-.45-7.81-2.97-10.8Z"/>
    <path class="cls-9" d="m336.13,605.36c-3.38-5.78-12.33-7.17-18.39-7.28-8.87-.15-17.6,2.4-25.75,6.23-3.19,1.5-6.29,3.2-9.26,5-2.09,1.26-4.12,2.58-6.08,3.92-1.55,1.06-3.07,2.16-4.57,3.3-1.63,1.24-3.23,2.52-4.78,3.84-1.04.88-2.05,1.78-3.06,2.7-1.54,1.4-3.03,2.85-4.5,4.34-6.28,6.41-11.8,13.57-16.39,21.3-.25.42.37.88.63.46.16-.27.32-.53.48-.8.08,1.92,4.02.21,4.76-.1.7-.29,1.39-.6,2.07-.91,1.07-.5,2.12-1.05,3.15-1.62.54-.3,1.07-.6,1.6-.91,1.11-.65,2.22-1.33,3.31-2.02,6.92-4.33,13.79-8.47,21.33-11.65,6.23-2.63,12.66-4.77,19.17-6.57,1.46-.41,2.93-.8,4.4-1.18,7.67-1.96,15.62-3.11,23.16-5.55,3.03-.98,6.61-2.17,8.6-4.84.39-.53.69-1.09.88-1.68.07-.21.13-.42.18-.63.41-1.79.03-3.73-.94-5.36Z"/>
    <path class="cls-12" d="m193.7,668.1c-.36.06-.73.12-1.09.17-11.59-25.89-19.7-53.28-24.05-81.34.35-.06.71-.07,1.07-.04,4.36,28.02,12.46,55.37,24.07,81.21Z"/>
    <path class="cls-12" d="m207.12,629.19c-1.27,11.78-1.45,23.63-.7,35.43-.24.06-.47.11-.69.16-.11-1.64-.19-3.29-.26-4.94-.95-22.68,1.66-45.56,8.7-67.19,6.22-19.12,15.85-37.15,28.79-52.55.17.16.32.33.47.51-6.78,8.09-12.66,16.89-17.6,26.22-10.23,19.32-16.36,40.65-18.71,62.35Z"/>
    <path class="cls-12" d="m270.32,571.74c-13.88,18.35-24.94,39.19-32.75,60.81-2.92,8.08-5.36,16.33-7.25,24.69-.26.1-.53.2-.79.3,4.79-21.24,13.02-41.65,23.68-60.63,10.79-19.22,24.01-36.79,40.65-51.25.13.13.26.27.38.41.03.03.05.07.08.1-8.86,7.66-16.93,16.22-24,25.57Z"/>
    <path class="cls-12" d="m337.07,610.72c-.05.21-.11.42-.18.63-7.41-.48-14.85-.35-22.24.57-11.43,1.42-22.67,4.76-32.8,10.29-10.31,5.62-18.57,13.52-25.81,22.63-.53.31-1.06.61-1.6.91,1.84-2.37,3.73-4.71,5.72-6.95,7.67-8.67,16.91-15.53,27.5-20.23,15.61-6.93,32.57-8.93,49.41-7.85Z"/>
    <path class="cls-12" d="m123.03,491.28c-1.35,8.97-2.55,17.96-3.58,26.97-2.58,22.46-4.15,45.04-4.73,67.64-.19,7.34-.27,14.67-.24,22.01-.35.22-.71.44-1.06.65-.02-5.82.02-11.64.13-17.45.63-33.69,3.51-67.34,8.55-100.66.33.2.64.47.94.83Z"/>
    <path class="cls-12" d="m159.49,497.38c-2.07,6.27-4,12.59-5.8,18.94-7.21,25.46-12.33,51.4-16.56,77.5-.39.25-.79.5-1.18.74,5.37-33.32,12.21-66.48,22.87-98.49.25.41.47.85.67,1.31Z"/>
    <path class="cls-9" d="m57.32,365.09c-.1-8.35-.12-16.71-.13-25.06,0-7.65-.12-15.37-1.09-22.98-.4-3.18-.95-6.34-1.7-9.47-.9-3.76-1.78-8.81-5.24-11.35-.78-.57-1.63-.95-2.51-1.15-.34-.08-.69-.14-1.05-.18-2.73-.28-5.67.76-8.04,1.96-6.74,3.44-11.7,9.08-15.52,15.23.28,3.83,1.05,7.61,2.86,11.06,2.88,5.53,8.32,7.87,13.2,11.32.32.22.64.46.96.7.37.28.74.57,1.1.87,1.86,1.54,3,3.26,3.63,5.19.55,1.66.71,3.47.64,5.44-.14,3.69-.36,7.21,1.87,10.43,2.24,3.23,6.86,5.92,10.15,9.11.31.3.61.61.9.91-.01-.68-.02-1.34-.03-2.02Z"/>
    <path class="cls-12" d="m38.64,484.17c3.92,27.69,10.09,55.07,18.44,81.87-.35.07-.7.14-1.05.21-2.83-9.08-5.41-18.23-7.73-27.44-10.43-41.33-15.75-83.78-15.88-126.24-.12-39.52,4.28-79.03,13.18-117.67.35.03.7.09,1.05.18-4.7,20.39-8.16,41.03-10.34,61.81-4.44,42.32-3.63,85.12,2.34,127.28Z"/>
    <path class="cls-2" d="m233.98,127.08c.02-1.53-1.13-3.04-1.74-4.38-1.11-2.45-1.98-4.98-2.7-7.57-.18-.66-1.21-.38-1.03.28.22.79.46,1.57.71,2.34-.17,0-.35.06-.47.23-3.51,4.84-2.87,12.6-1.47,18.05.08.32.5.51.78.32.9-.6,2.37-1.08,2.7-2.27.4-1.47-1.18-2.2-1.15-3.59,1.98-.53,4.34-1.02,4.37-3.41Z"/>
    <path class="cls-2" d="m227.69,140.11c-.38-.57-1.22.08-.84.65.06.1.12.19.18.29-.13.07-.24.19-.28.38-.12.54-.29,1.05-.49,1.55-.12.29.03.53.25.65-.08.17-.16.34-.25.5-.22.4.3.91.69.7.78-.41,1.9-.93,2.1-1.89.19-.95-.87-2.09-1.35-2.83Z"/>
    <path class="cls-3" d="m221.59,134.62c-.55-.16-.82.49-.52.88,1.77,2.32,4.21,3.71,6.89,4.68.19-1.3.33-2.6.46-3.9-2.31-.36-4.57-.98-6.83-1.66Z"/>
    <path class="cls-3" d="m363.78,220.83c-.33-3.7-3.23-5.51-5.3-8.27-2.78-3.71-3.58-7.77-4.42-12.21-.57-2.97-1.53-6.15-4.01-8.09-5.3-4.14-9.26,2.14-9.25,7.11,0,2.55.87,5.19,2.69,7.03.99,1,2.18,1.57,3.42,2.18,2.51,1.25,3.81,2.77,3.52,5.7-.34,3.41-1.77,6.65-.05,9.92,1.99,3.78,6.35,6.58,9.49,9.34.21.18.45.15.63.02.17.4.91.33.95-.22.29-4.25,2.71-8.19,2.33-12.51Z"/>
    <path class="cls-4" d="m362.9,260.96c-1.81-2.08-3.64.34-4.53,2.49-.8-1.76-2.54-3.46-3.92-1.77-2.98,3.65,2.71,9.21,3.45,12.55.12.55.96.41.96-.13,0-.12,0-.21,0-.29,0-.01.01-.02.02-.03.92-2.89,3.06-5.01,4.15-7.79.55-1.4,1-3.74-.13-5.03Z"/>
  </g>
</svg>