<?xml version="1.0" encoding="UTF-8"?>
<svg id="_圖層_2" data-name="圖層 2" xmlns="http://www.w3.org/2000/svg" viewBox="0 0 500 560">
  <defs>
    <style>
      .cls-1 {
        fill: #f9bf6a;
      }

      .cls-2 {
        fill: #ffa277;
      }

      .cls-3 {
        fill: #fff;
      }

      .cls-4 {
        fill: #ba595a;
      }

      .cls-5 {
        fill: #da8260;
      }

      .cls-6 {
        fill: #1f2144;
      }

      .cls-7 {
        fill: #3e5b48;
      }

      .cls-8 {
        fill: #93b470;
      }

      .cls-9 {
        fill: #565a94;
      }

      .cls-10 {
        fill: #779968;
      }

      .cls-11 {
        fill: #4e705b;
      }
    </style>
  </defs>
  <path class="cls-11" d="m34.48,245.97c-.71-4.77-1.82-9.48-3.32-14.06-.82-2.52-1.7-6.57-4.96-6.84-.53-.05-1.03,0-1.5.14-.35.1-.68.24-.99.43-1.54.9-2.55,2.72-2.86,4.47-.72,4.1.54,8.88,1.49,12.84.94,3.93,2.18,7.75,3.6,11.52-2.04-3.71-4.18-7.38-6.42-10.99-1.81-2.92-3.62-6.46-6.72-8.2-2.06-1.16-4.98-1.21-6.84.4-.09.07-.16.14-.24.22-.18.18-.34.37-.48.56-1.6,2.24-.15,5.1,1.06,7.3,2.06,3.76,4.39,7.37,6.92,10.82,4.86,6.62,10.53,12.58,16.83,17.82.86.72,1.73,1.42,2.62,2.11.14.11.29.23.44.34.38.3.77-.07.78-.45.12-.08.2-.2.23-.37,1.6-9.27,1.74-18.74.36-28.04Z"/>
  <path class="cls-8" d="m487.56,142.08c-.06-1.59-.23-3.19-.56-4.75-.31-1.51-.76-3-1.36-4.43-.78-1.82-2.53-5.65-4.68-6.23-.53-.14-.99-.07-1.41.12-.33.16-.63.42-.89.73-.6.69-1.01,1.65-1.25,2.4-.83,2.59-.53,5.41-.11,8.05.95,5.85,2.68,11.54,4.57,17.16-3.58-6.21-7.16-12.42-10.74-18.63-2.2-3.83-4.4-7.65-6.61-11.47-1.58-2.72-3.31-5.77-6.15-7.36-1.27-.71-2.82-1.07-4.17-.66-.34.1-.66.24-.97.45-.23.15-.45.33-.65.55-1.47,1.55-1.18,3.93-.62,5.82.95,3.16,2.95,6.15,4.69,8.94,2.04,3.28,4.28,6.44,6.71,9.45,4.69,5.82,10.08,11.02,16,15.56,1.05.81,2.12,1.59,3.2,2.35.14.1.29.2.43.3.24.18.66-.03.7-.04.06.1.15.12.29.08.67-.21,2.14-2.11,2.43-4.04.56-3.6,1.31-10.69,1.18-14.34Z"/>
  <g>
    <path class="cls-11" d="m366.43,198.65h0c-.26-5.76-1.55-11.39-4.94-16.19-2.45-3.47-5.79-6.15-9.62-7.48-.42-.14-.84-.27-1.27-.38-2.12-.56-4.37-.71-6.68-.35-.23.03-.45.07-.68.11-7.8,1.52-13.96,7.82-18.35,14.07-1.48,2.11-2.85,4.32-4.11,6.61-3.44,6.18-6.15,12.86-8.55,19.42-.82,2.24-1.6,4.49-2.33,6.76-.48,1.46-.94,2.94-1.38,4.42-1.27,4.18-2.41,8.41-3.47,12.66-.08.34-.17.67-.25,1.01-.22.87-.43,1.75-.64,2.62-.18.75-.35,1.5-.53,2.25-1.08,4.62-2.11,9.26-3.09,13.91-.11.51-.22,1.02-.32,1.53-.18.87-.36,1.73-.54,2.6-.11.54-.22,1.09-.33,1.63-.14.65-.26,1.3-.39,1.95-2.81,14.02-5.21,28.13-7.31,42.25-.34,2.29-1.68,11.99-3.27,23.16-.75,5.24-1.55,10.81-2.34,16.1-.16,1.07-.32,2.13-.47,3.18-2.14,14.23-4.01,25.33-3.99,20.34.04-9.65.06-19.31.06-28.97,0-2.99,0-5.99-.01-8.98,0-1.78,0-3.56,0-5.34,0-.26,0-.51,0-.77,0-.65,0-1.3,0-1.95-.03-13.13-.08-23.73-.17-33.42-.14-14.75-.37-27.41-.75-43.76-.14-6.22-.31-12.97-.5-20.57,0-.37-.02-.73-.03-1.09-.04-1.68-.09-3.36-.14-5.05-.08-2.55-.16-5.09-.27-7.64-.26-6.65-.6-13.31-1.1-19.95-.43-5.7-.96-11.38-1.64-17.05-.57-4.74-.95-9.7-2.21-14.32-.38-1.41-.94-2.86-1.67-4.19-.18-.35-.38-.69-.59-1.02-2.36-3.7-6.07-6.13-10.81-3.48-7.09,3.95-11.08,13.47-13.34,20.82-.84,2.71-1.54,5.47-2.13,8.25-1.5,6.95-2.35,14.08-3.11,21.1-1.2,11.26-1.72,22.59-1.73,33.92,0,7.97,1.47,22.66,3.45,38.74,1.85,15.04,4.13,31.31,6.04,44.48.36,2.49.71,4.87,1.04,7.1,1.35,9.16,2.4,15.97,2.76,18.4.19,1.29.38,2.58.58,3.87-.95-.88-1.99-1.7-3.15-2.43-.38-.24-.77-.47-1.16-.69-.97-.54-1.96-1.02-2.98-1.44-.24-1.81-.73-6.07-1.41-11.86-1.32-11.17-3.34-28.04-5.58-44.16-2.08-14.94-4.36-29.23-6.46-37.73-4.95-19.99-11.27-39.77-20.97-57.1-4.65-8.3-10.05-16.46-16.57-22.7-5.18-4.96-11.46-8.44-17.98-7.78-.35.03-.7.08-1.05.14-.26.04-.52.09-.78.15-.34.08-.68.16-1.02.27-.5.15-1,.31-1.5.51-13.59,5.41-18.8,31.44-9.78,81.12,1.08,5.92,2.36,12.17,3.84,18.77.18.82.37,1.64.56,2.47.78,3.36,1.61,6.81,2.5,10.35,1.5,5.99,3.16,12.23,4.98,18.72.43,1.53,2.49,7.46,5.53,16.13,1.95,5.55,4.29,12.22,6.87,19.58,3.06,8.74,6.45,18.46,9.88,28.41.24.67.47,1.34.7,2.01,1.2,3.49,2.4,6.99,3.6,10.5,2.8,8.2,5.55,16.35,8.1,24.08.13.4.26.8.39,1.19,1.31,3.98,2.56,7.83,3.74,11.51,5.94,18.59,11.01,33.3,14.3,40.67.15.34.3.66.45.97.39.84.75,1.56,1.08,2.15.12.21.23.4.34.58.17.27.46.51.88.71.65.33,1.6.58,2.78.77,1.5.24,3.39.39,5.54.46,4.16.14,9.32,0,14.63-.2.13,0,.27-.01.41-.02.91-.03,1.84-.07,2.76-.11.37-.02.73-.03,1.09-.05.5-.02,1.01-.04,1.51-.07,4.74-.21,9.37-.42,13.29-.49,2.72-.05,5.1-.04,6.94.09.36.02.7.05,1.02.09.17.32.66.35.88.09,2.19.23,4.37.47,6.55.71.37.04.57-.37.51-.67-.56-2.73-1.15-5.46-1.75-8.18.81-1.12,1.59-2.26,2.36-3.41.72-1.09,1.42-2.19,2.1-3.3,3.82-6.25,7.03-12.85,9.85-19.61.75-1.78,1.47-3.58,2.16-5.38.1-.28.22-.55.32-.84.5-1.3.99-2.6,1.47-3.91,1.56-4.23,3.04-8.49,4.47-12.78,3.19-9.56,6.14-19.21,9.24-28.8,1.12-3.49,2.27-6.96,3.45-10.43,6.87-20.12,14.11-40.17,20.68-60.42,4.23-13.03,8.18-26.13,11.57-39.39.44-1.69.87-3.38,1.28-5.08,1.28-5.25,2.48-10.53,3.56-15.84.17-.82.33-1.63.49-2.45.54-2.72,1.06-5.46,1.54-8.2.96-5.42,1.79-10.86,2.41-16.32.11-.94.21-1.89.31-2.83.32-3.21.52-6.52.36-9.8Z"/>
    <path class="cls-11" d="m495.3,247.69c-.5,10.18-1.87,20.29-3.88,30.27-4.15,20.61-43.6,127-52.29,145.67-8.55,18.38-31.98,81.95-42.02,94.3-3.93-.14-13.24-.88-24.08-1.76-.37-.03-.74-.06-1.12-.09-.73-.06-1.48-.12-2.22-.18-.36-.03-.73-.06-1.09-.09-19.14-1.58-41.22-3.45-46.88-3.38-1.15-.14-2.3-.27-3.45-.4-.3-.04-.53-.22-.53-.53-.49-13.8,1.88-27.4,4.02-40.97,1.96-12.5,2.82-25,3.99-37.58.36-3.82,20.21-104.74,24.39-129.76,4.03-24.19,4.63-28.92,8.21-53.17,3.28-22.16,7.37-44.5,16.29-65.19,3.44-7.98,8.13-19.92,18.04-21.33.79-.11,1.55-.16,2.3-.13.36,0,.71.03,1.05.07,7.93.86,13.44,8.85,15.33,16.2,1.48,5.72,1.75,11.77,2.04,17.65.31,6.13.36,12.28.21,18.42-.3,12.42-1.42,24.81-2.94,37.14-3,24.19-23.49,112.56-28.29,128.71,7.69-15.11,15.38-30.22,23.08-45.32,10.76-21.13,26.82-52.27,32.22-62.88,5.04-9.91,9.87-19.99,15.43-29.63,2.64-4.57,5.49-9.03,8.74-13.19,2.91-3.73,6.14-7.3,10.21-9.79,3.58-2.19,7.84-3.4,11.98-2.2.45.13.89.29,1.32.47.1.04.19.08.29.13.22.11.45.21.66.33.1.05.19.1.28.15,2.01,1.13,3.68,2.82,4.93,4.81,4.29,6.82,4.16,15.53,3.78,23.27Z"/>
    <path class="cls-7" d="m310.91,421.8c-.22-3.08-1.39-6.13-2.97-9.18-.28-.54-.57-1.08-.87-1.62-.64-1.14-1.32-2.28-2.02-3.42-3.63-5.91-7.67-11.81-8.19-17.78-.02-.26-.04-.5-.07-.76-1.17-13.57-2.45-27.14-3.85-40.7-.54-5.24-.53-11.29-3.57-15.83-.31-.47-.65-.9-1.02-1.31-.94-1.09-2.04-1.99-3.25-2.74-1.09-.69-2.28-1.24-3.51-1.69-.07-.03-.14-.05-.21-.08-.23-.08-.46-.15-.69-.23-.18-.06-.36-.12-.55-.17-.75-.22-1.51-.41-2.27-.57-7.1-1.54-14.53-1.06-21.54-3.04-.94-.26-1.87-.57-2.8-.93-.91-.36-1.79-.75-2.66-1.18-1.37-.67-2.69-1.43-3.97-2.27.58,4.31,1.17,8.62,1.79,12.92.73,5.21,1.49,10.41,2.26,15.61,0,.05.02.1.02.14.19,1.29.38,2.58.58,3.87-.95-.88-1.99-1.7-3.15-2.43-1.34-.84-2.72-1.54-4.14-2.12-.4-3.01-.8-6.01-1.21-9.02-.76-5.53-1.54-11.06-2.34-16.58-.4-2.77-.81-5.55-1.23-8.32-1.35-1.26-2.64-2.57-3.89-3.91-.73-.79-1.45-1.59-2.16-2.39-8.9-10.08-16.86-22.33-28.16-29.93h0c-.44-.3-.9-.59-1.35-.88h0c-2.37-1.48-4.88-2.75-7.58-3.75-7.23-2.7-14.98-3.36-22.46-5.09-1.74-.4-3.46-.87-5.16-1.43-.05-.02-.1-.03-.15-.05.24.83.48,1.67.72,2.52.88,3.09,1.8,6.29,2.74,9.58,3.16,11.07,6.64,23.14,10.27,35.63,2.06,7.08,4.17,14.29,6.29,21.53,3.26,11.1,6.57,22.24,9.82,33.06.22.73.44,1.45.65,2.18.58,1.92,1.16,3.82,1.73,5.72,3.06,10.11,6.06,19.82,8.88,28.8.31.98.62,1.95.92,2.91.43,1.35.85,2.67,1.27,3.98,1.98,3.14,3.62,6.5,5.03,9.95,4.31,10.56,6.79,22.88,11.44,33.81.07.18.15.36.23.54.11.27.23.53.35.8.05.03.1.05.15.07.85.38,2.12.66,3.72.85,2.48.29,5.75.38,9.43.35,3.96-.03,8.39-.2,12.81-.38.1,0,.2-.01.3-.01.03,0,.05,0,.07,0,.24,0,.48-.02.72-.03.8-.04,1.76-.06,2.86-.08.35-.01.72-.02,1.1-.03.3,0,.6,0,.91-.02,3.73-.06,8.47-.06,13.3-.05,2.37,0,4.75.02,7.05.05,3.33.03,6.48.07,9.13.12,3.93.06,6.74.14,7.35.2.37.04.57-.37.51-.67-.56-2.73-1.15-5.46-1.75-8.18,1.57-2.18,3.06-4.42,4.46-6.71,3.82-6.25,7.03-12.85,9.85-19.61Z"/>
    <path class="cls-8" d="m275.14,448.64c-.37-2.45-1.96-5.23-4.79-5.05-1.97.12-3.93,1.46-5.67,3.04-1.39,1.25-2.64,2.65-3.66,3.67-.76.76-1.49,1.53-2.19,2.33h0c-.27.31-.54.62-.81.93-.69.81-1.37,1.64-2.01,2.48-.2.26-.39.51-.58.77-.05.06-.1.12-.13.19-3.38,4.61-6.01,9.71-7.67,15.25-.35,1.16-.65,2.34-.94,3.51.09-2.79-.01-5.58-.44-8.34-.49-3.21-1.37-7.41-3.68-9.88-.11-.12-.21-.23-.33-.33-.41-.39-.83-.7-1.28-.95-1.69-.96-3.63-.99-5.54-.46-.89.24-1.77.61-2.62,1.05-1.62.85-3.13,2-4.33,3.16-.33.33-.64.65-.93.97-4.86,5.54-7.72,13.21-9.5,20.27-.56,2.22-.99,4.46-1.32,6.71-.04.26-.07.51-.1.76-.85,6.52-.71,13.14.38,19.65.1.6.91.44,1.01-.08.05.01.1.02.16,0,1.01-.15,2.03-.29,3.04-.41,5.98-.77,11.97-1.29,17.98-1.54,4.77-.2,9.55-.23,14.33-.11.17,0,.39-.1.46-.26,4.3-9.94,8.59-19.88,12.89-29.82l.39-.91c1.78-4.12,3.54-8.24,4.99-12.48.66-1.92,1.44-4.01,2.04-6.15.13-.43.24-.86.34-1.28.54-2.25.82-4.53.49-6.69Z"/>
    <path class="cls-6" d="m394.98,163.36c-6.97,41.93-13.61,83.93-19.91,125.96-7.77,51.82-15.03,103.73-21.78,155.7-1.34,10.29-2.61,20.62-4.2,30.9.35.22.67.47.95.75,1.07-6.89,2.01-13.8,2.9-20.7,3.36-25.81,6.76-51.61,10.33-77.4,7.19-51.91,14.88-103.75,23.08-155.5,3.15-19.89,6.38-39.77,9.68-59.64-.35-.04-.7-.06-1.05-.07Z"/>
    <path class="cls-10" d="m265.84,476.13c-2.81,1.68-5.74,3.28-8.94,4.1-1.13.29-2.26.45-3.39.52-1.96.13-3.93,0-5.91-.16-1-.07-2.01-.15-3.01-.21-5.85-.31-11.66.61-17.09,2.59-.9.33-1.79.68-2.67,1.07-2.46,1.08-4.82,2.38-7.05,3.89-.39.26-.78.53-1.16.81-.85,6.52-.71,13.14.38,19.65.1.6.91.44,1.01-.08.05.01.1.02.16,0,1.01-.15,2.03-.29,3.04-.41,5.98-.77,11.97-1.29,17.98-1.54,4.77-.2,9.55-.23,14.33-.11.17,0,.39-.1.46-.26,4.3-9.94,8.59-19.88,12.89-29.82l.39-.91c-.48.29-.96.58-1.44.87Z"/>
    <path class="cls-8" d="m215.87,334.5c-.56-7-1.53-13.98-2.9-20.87-.65-3.27-1.13-6.85-2.34-9.97-.36-.94-.96-1.68-1.71-2.1-.31-.17-.64-.29-1-.35-.57-.1-1.21-.03-1.86.22-2.39.93-3.87,3.27-5.21,5.31-1.75,2.67-3.35,5.43-4.79,8.27-2.8,5.5-5.04,11.27-6.85,17.16-.01.03-.02.06-.03.1-.2.65-.39,1.3-.58,1.95-3.28,11.4-5.01,23.2-6.17,34.98-.67,6.84-1.2,13.7-1.62,20.56-.46,7.49-.79,14.98-1.05,22.47-.42,11.67-.61,23.35-.65,35.03-.09,18.1.18,36.2.49,54.29.04,2.67.1,5.34.15,8.01-4.18-21.78-7.05-43.77-9.37-65.82-1.17-11.06-2.2-22.14-3.18-33.21-.34-3.81-.67-7.61-1-11.42-1.14-13.06-2.26-26.12-3.54-39.17-.84-8.59-1.74-17.18-2.75-25.76-.87-7.38-1.68-14.79-3.08-22.09-.54-2.8-1.19-5.6-1.99-8.34-1.08-3.67-2.46-7.25-4.28-10.62-1.57-2.89-3.48-5.62-5.74-8.01-1.91-2.03-4.32-3.98-7.11-4.61-.26-.06-.53-.11-.79-.14-.09-.01-.18-.02-.27-.03-6.85-.65-8.49,8.22-9.46,13.25-1.52,7.91-1.67,16-1.35,24.02.13,3.12.29,6.23.5,9.35.85,12.89,2.36,25.75,4.25,38.5,2.2,14.87,5.07,29.65,8.58,44.26.25,1.04.5,2.08.76,3.12,1.14,4.63,2.35,9.25,3.63,13.85,7.24,26.16,16.57,51.73,27.89,76.39,1.56,3.42,3.17,6.81,4.82,10.19,0,.01,0,.02.01.03-5.08.8-10.18,1.5-15.29,2.01-.03-.12-.05-.25-.09-.37-5.87-25.84-13.03-51.39-21.47-76.51-1.3-3.86-2.63-7.72-3.99-11.56-1.69-4.78-3.42-9.55-5.2-14.29-6.04-16.11-12.6-32.03-19.69-47.71-2.77-6.13-5.91-14.63-11.38-19.56-2.67-2.42-5.91-3.97-9.92-3.99-.96,0-1.84.09-2.66.28-.36.08-.7.17-1.02.28-6.83,2.29-8.74,11.14-9.12,18.14-.04.73-.06,1.45-.07,2.13-.32,21.85,5.36,43.15,12.91,63.55,1.18,3.18,2.41,6.35,3.66,9.48.45,1.11.89,2.22,1.35,3.33,9.85,24.13,21.6,47.47,35.11,69.75,1.29,2.12,3.88,6.98,5.71,10.16.29.5.56.96.8,1.37.13.22.26.42.37.6-.03.07,6.24-.96,14.27-2.3.01,0,.02,0,.03,0,.35-.06.71-.12,1.06-.18.01,0,.02,0,.03,0,2.52-.42,5.19-.87,7.87-1.31,6.13-1.02,12.35-2.04,17.04-2.79.07.03.15,0,.22-.03.27-.04.54-.09.81-.13.01,0,.03,0,.04,0,.34-.05.68-.11,1.02-.16.01,0,.03,0,.04,0,1.74-.28,3.48-.59,5.22-.89.48-.09.97-.17,1.45-.26.02,0,.04,0,.06-.01.34-.06.69-.13,1.02-.19.02,0,.04,0,.06-.01,4.2-.76,8.4-1.56,12.58-2.36-.03.43-.06.85-.09,1.28-.02.34.51.34.53,0,.5-7.42,1.05-14.83,1.68-22.25,1.21-14.53,2.66-29.05,4.35-43.54.9-7.77,1.87-15.53,2.91-23.28.67-5.02,1.41-10.05,2.15-15.08.41-2.81.83-5.62,1.24-8.43.28-1.93.55-3.86.82-5.78,0,0,0,0,0-.01,1.38-9.87,2.59-19.76,3.24-29.68.62-9.46.72-18.96-.05-28.48Z"/>
    <path class="cls-10" d="m412.46,295.04c-.75-2.53-1.94-5.18-4.47-6.35,0,0-.01,0-.02,0-.32-.15-.65-.26-.98-.35-.56-.15-1.13-.21-1.7-.2-.38,0-.75.04-1.13.09-1.44.22-2.85.81-4.1,1.51-3.12,1.77-5.7,4.48-8.19,7.01-2.72,2.77-5.31,5.67-7.76,8.68-4.94,6.08-9.29,12.54-13.18,19.26-.49.84-.96,1.68-1.43,2.53-6.1,10.95-11.04,22.57-15.33,34.42-1,2.78-1.97,5.58-2.91,8.39-.87,2.6-1.73,5.22-2.56,7.83-1.44,4.55-2.83,9.11-4.19,13.64-4.7,15.76-8.92,31.67-12.65,47.69-2.84,12.16-5.39,24.39-7.66,36.67.23-3.74.35-7.49.26-11.22-.06-2.51-.25-5.38-.89-8.08h0c-.91-3.8-2.71-7.27-6.31-8.97-.15-.07-.3-.14-.46-.21-.98-.4-1.92-.6-2.83-.61-.2,0-.39,0-.58,0-.89.06-1.74.29-2.54.66-2.91,1.31-5.17,4.37-6.61,7.32-2.77,5.68-3.41,12.07-3.64,18.33-.03.65-.05,1.3-.06,1.94-.12,4.71-.1,10.41-.11,16.16-.01,2.79-.03,5.6-.08,8.31-.06,3.48-.17,6.8-.38,9.73-.02.3.27.51.53.53,1.71.12,4.59.48,7.95.92,3.63.48,7.8,1.07,11.58,1.62,1.11.16,2.18.31,3.19.46,4.4.64,7.75,1.12,8.15,1.11.65,0,1.29-.12,1.91-.37.3-.12.57-.26.83-.43.1-.06.19-.12.28-.2.17-.13.34-.27.49-.42.13-.12.26-.26.38-.4.63-.72,1.09-1.59,1.49-2.5.33-.75.61-1.52.9-2.25,2.2-5.51,4.4-11.01,6.6-16.52,1.9-4.74,3.79-9.48,5.68-14.22.07-.18.14-.36.22-.54.08-.2.16-.4.25-.61,1.47-3.69,2.94-7.37,4.42-11.06,1.44-3.62,2.89-7.24,4.34-10.85l2.96-7.39,3.22-8.07,36.82-92.13c1.95-4.88,4.19-10,6.18-15.26,4.39-11.56,7.62-23.8,4.15-35.61Z"/>
    <path class="cls-6" d="m259.06,456.88c-.1-.31-.2-.63-.3-.94-8.65-27.34-17.3-54.69-25.75-82.1-15.22-49.4-29.81-99.01-42.56-149.11-5.08-19.97-9.86-40-14.28-60.12.34-.1.68-.19,1.02-.27,10.64,48.44,23.42,96.39,37.27,144.01,14.36,49.41,29.88,98.48,45.39,147.53.08.24.16.48.23.73.21.65-.82.91-1.03.26Z"/>
    <path class="cls-6" d="m214.44,308.29c-3.47-11.94-6.87-23.9-10.19-35.89-.43-.22-.85-.43-1.28-.63,9.45,34.16,19.59,68.13,30.03,102,8.45,27.41,17.09,54.75,25.75,82.1.37-.02.73-.03,1.09-.05-15.52-49.05-31.03-98.12-45.39-147.53Z"/>
    <path class="cls-10" d="m203.04,443.85c-.87-.37-1.74-.62-2.61-.76-2.63-.45-5.25,0-7.84.77-.37.11-.74.23-1.11.35-.71.24-1.41.49-2.11.75-3.44,1.28-6.83,2.43-10.26,2.3-.09,18.1.18,36.2.49,54.29.04,2.67.1,5.34.15,8.01-4.18-21.78-7.05-43.77-9.37-65.82-2.79-2.15-5.17-4.89-7.62-7.35-1.63-1.65-3.32-3.2-5.15-4.56-.42-.32-.85-.62-1.29-.91-1.42-.94-2.93-1.77-4.57-2.4-2.63-1.02-5.4-1.58-8.2-1.8,7.24,26.16,16.57,51.73,27.89,76.39,1.56,3.42,3.17,6.81,4.82,10.19,0,.01,0,.02.01.03-5.08.8-10.18,1.5-15.29,2.01-.03-.12-.05-.25-.09-.37-5.87-25.84-13.03-51.39-21.47-76.51-1.3-3.86-2.63-7.72-3.99-11.56-7.44.82-14.54,3.22-21.72,5.26-.33.09-.66.18-.99.28-4.86,1.35-9.77,2.49-14.85,2.8-1.68.11-3.32.1-4.93-.03.45,1.11.89,2.22,1.35,3.33,9.85,24.13,21.6,47.47,35.11,69.75,1.29,2.12,3.88,6.98,5.71,10.16.29.5.56.96.8,1.37.13.22.26.42.37.6-.03.07,6.24-.96,14.27-2.3.01,0,.02,0,.03,0,.35-.06.71-.12,1.06-.18.01,0,.02,0,.03,0,2.52-.42,5.19-.87,7.87-1.31,6.13-1.02,12.35-2.04,17.04-2.79.07.03.15,0,.22-.03.27-.04.54-.09.81-.13.01,0,.03,0,.04,0,.34-.05.68-.11,1.02-.16.01,0,.03,0,.04,0,1.74-.28,3.48-.59,5.22-.89.48-.09.97-.17,1.45-.26.02,0,.04,0,.06-.01.34-.06.69-.13,1.02-.19.02,0,.04,0,.06-.01,4.2-.76,8.4-1.56,12.58-2.36-.03.43-.06.85-.09,1.28-.02.34.51.34.53,0,.5-7.42,1.05-14.83,1.68-22.25,1.21-14.53,2.66-29.05,4.35-43.54-.79-.54-1.63-1.01-2.52-1.39Z"/>
    <path class="cls-10" d="m319.35,409.49c-.62-2.42-.94-4.86-1.06-7.32-.24-5.34.49-10.76,1.26-16.03.07-.45.13-.9.2-1.35.72-5.02,1.56-10.27,1.04-15.37-.16-1.55-.45-3.09-.89-4.6-1.92-6.43-7.24-10.09-11.26-15.06-2.4,7.14-4.61,14.34-6.75,21.47-1.76,5.91-3.46,11.84-5.09,17.79-2.17,7.93-4.22,15.88-6.14,23.87-1.6,6.65-3.12,13.33-4.56,20.02-.01.06-.03.12-.04.18-1.59,7.42-3.08,14.86-4.46,22.32-.08.41-.16.82-.23,1.23-1.41,7.66-2.71,15.33-3.89,23.03-.09.6-.19,1.2-.27,1.79,1.55,3.51,3.68,6.68,6.57,9.1,1.45,1.22,3.1,2.24,4.96,3.02.65,0,1.29-.12,1.91-.37.27-.11.53-.24.76-.39.82-.51,1.43-1.23,1.93-2.05.71-1.16,1.18-2.52,1.67-3.76,1.86-4.65,3.72-9.3,5.58-13.95,3.41-8.55,6.83-17.1,10.25-25.65,1.89-4.73,3.78-9.46,5.67-14.19l6.18-15.46c-1.24-2.71-2.6-5.4-3.35-8.29Z"/>
    <g>
      <path class="cls-2" d="m257.52,446.66c-.18-.05-.38-.04-.58,0h0c-.36.06-.72.2-1.02.29-.03.01-.06.02-.09.03-1.03.29-2.05.57-3.08.85-7.1,1.97-14.21,3.95-21.32,5.92-.49.14-.98.28-1.48.41.13-.86.26-1.71.39-2.56.16-1.12.34-2.24.51-3.36.05-.37-.51-.5-.57-.13l-.38,2.52-.56,3.71-.99.28c-.62.17-1.23.34-1.85.51-.36.1-.18.65.18.55.63-.18,1.27-.35,1.9-.52.22-.06.44-.12.66-.18-.05.35-.11.7-.16,1.05-.2,1.34-.4,2.68-.61,4.01-1.17,7.74-2.34,15.48-3.52,23.23-.04.26-.08.52-.12.78-.18,1.21-.37,2.42-.55,3.63-.51,3.37-1.02,6.73-1.53,10.11-.52,3.37-1.02,6.74-1.53,10.12-.11.75-.23,1.5-.34,2.25-.04.24-.08.49-.11.73-.04.25-.08.49-.11.74-.36,2.38-.72,4.76-1.08,7.13-.49,3.28-.99,6.55-1.49,9.81-.03.17.1.39.29.36,4.55-.72,9.13-1.18,13.72-1.38.13,0,.23-.1.27-.22.9-2.76,1.8-5.52,2.69-8.27.87-2.66,1.73-5.31,2.6-7.97.16-.5.32-1,.49-1.49.35-1.08.7-2.16,1.05-3.24,1.28-3.94,2.57-7.88,3.85-11.82.81-2.48,1.61-4.96,2.42-7.43.58-1.79,1.16-3.57,1.74-5.36.03-.08.06-.17.08-.25.1-.3.2-.61.3-.92,2.31-7.12,4.63-14.22,6.95-21.34l.73-2.24.06-.18.25-.76.75-2.32c.3-.89.58-1.78.87-2.68,0-.02.02-.05.02-.07.16-.48.38-1.01.58-1.53h0c.2-.54.37-1.08.41-1.6.05-.6-.09-1.06-.72-1.22Z"/>
      <path class="cls-2" d="m340.06,436.21c-.1-.58-.35-1.01-1-1-.55,0-1.13.48-1.56.73l-2.77,1.59c-.96.55-1.92,1.1-2.88,1.66-2.34,1.35-4.67,2.7-7.02,4.04-2.52,1.46-5.05,2.91-7.58,4.36-1.01.58-2.02,1.17-3.03,1.75-.08-.86-.17-1.71-.26-2.56-.12-1.13-.23-2.26-.35-3.39-.04-.37-.62-.36-.58,0l.34,3.39.29,2.87c-.85.49-1.7.98-2.55,1.47-.32.19-.02.68.31.49.76-.44,1.54-.89,2.31-1.33,1.22,12.13,2.45,24.25,3.68,36.37.17,1.65.33,3.3.5,4.95.12,1.25.25,2.49.37,3.74.13,1.33.27,2.67.41,4,.24,2.4.49,4.81.73,7.21.19,1.89.39,3.78.58,5.67,0,.02,0,.05,0,.07.03.23.05.47.07.71.39,3.78.77,7.57,1.15,11.35.02.16.19.36.37.27,4.23-1.83,8.54-3.41,12.95-4.75.13-.04.19-.15.2-.28.14-2.15.28-4.31.41-6.46.01-.07.02-.13.01-.2.02-.3.04-.59.06-.89.03-.46.06-.91.08-1.37.29-4.48.57-8.97.86-13.45.13-2.01.26-4.02.39-6.04.13-2,.26-3.99.39-5.99.29-4.48.57-8.95.85-13.43.5-7.87,1.01-15.75,1.51-23.63.12-1.92.25-3.84.37-5.76.06-.96.12-1.92.18-2.88.06-1.03.36-2.27.19-3.28Z"/>
      <path class="cls-5" d="m242.58,482.05c-3.19.21-6.39.42-9.58.65-1.78.13-3.65.14-5.49.27-.87.07-1.72.15-2.55.29-.04.26-.08.52-.12.78-.18,1.21-.37,2.42-.55,3.63-.51,3.37-1.02,6.73-1.53,10.11.19-.12.38-.25.58-.36,3.43-2.04,7.01-2.17,10.83-1.39,2.11.43,4.29.87,6.37.02.91-.37,1.69-.99,2.52-1.5.81-2.48,1.61-4.96,2.42-7.43.58-1.79,1.16-3.57,1.74-5.36.03-.08.06-.17.08-.25-1.64.05-3.51.47-4.73.55Z"/>
      <path class="cls-5" d="m332.75,485.71c-3.19.21-6.39.42-9.58.65-1.25.09-2.55.12-3.84.18-.64.03-1.28.06-1.9.11.17,1.65.33,3.3.5,4.95.12,1.25.25,2.49.37,3.74.13,1.33.27,2.67.41,4,1.83-.21,3.69-.05,5.64.34,2.11.43,4.29.87,6.37.02,1.42-.58,2.52-1.76,4.01-2.21.48-.15.98-.23,1.47-.26.13-2.01.26-4.02.39-6.04.13-2,.26-3.99.39-5.99-1.5.1-3.12.44-4.21.51Z"/>
      <path class="cls-6" d="m235.5,519.11c-.14-.02-.28-.04-.42-.05-5.65-.65-9.78-.47-15.49-.3-.1,0-.21.01-.31.01-.29.01-.18.28-.92,1.64-5.73,7.36-11.65,12.85-19.15,18.42-1.86,1.39-3.76,2.7-5.71,3.95-1.94,1.25-4.01,2.34-5.87,3.74-1.47,1.11-2.82,2.57-3.59,4.23-.71,1.52-.93,3.21-.32,4.97.05.16.21.22.37.19,10.15-2.22,20.31-4.43,30.47-6.65.29-.07.58-.13.87-.19,1.95-.42,3.91-.85,5.86-1.28.4-.09.81-.18,1.21-.27,2.33-.51,4.67-1.02,7-1.53,1.44-.32,3.46-.35,4.13-1.94.38-.91.41-2.01.56-2.99,0-.02,0-.04.01-.06.06-.36.13-1.75.23-3.69.25-5.02.65-13.73,1.3-17.86.02-.14-.05-.33-.22-.35Z"/>
      <path class="cls-6" d="m336.71,513.25c-.03-.09-.1-.16-.2-.18-.45-.05-.89-.1-1.32-.13-.27-.03-.54-.06-.81-.08-2.41-.2-4.59-.25-6.8-.22-1.41.01-2.85.06-4.37.11-.93.04-1.9.08-2.91.12-.1,0-.15.04-.21.13-.11.19-.23.61-.7,1.51-1.87,2.44-3.76,4.69-5.72,6.79-4,4.29-8.28,8.01-13.28,11.79-1.85,1.4-3.74,2.73-5.68,4-.51.34-1.04.66-1.57.99-.32.2-.65.4-.98.6-1.12.69-2.24,1.39-3.28,2.2-1.46,1.11-2.77,2.56-3.54,4.2-.72,1.54-.94,3.26-.3,5.04.05.16.2.22.37.19,3.13-.71,6.26-1.42,9.39-2.13.37-.08.74-.17,1.11-.26.72-.16,1.44-.32,2.16-.49,1.64-.37,3.27-.74,4.9-1.11,4.28-.97,8.56-1.94,12.84-2.91,1.57-.36,3.15-.72,4.73-1.07,3.4-.77,6.8-1.54,10.19-2.31,1.45-.33,3.47-.39,4.12-1.98.38-.93.39-2.06.53-3.05.05-.34.11-1.5.18-3.16.21-4.92.55-14.13,1.18-18.4.01-.06,0-.12-.02-.18Z"/>
      <path class="cls-2" d="m352.2,78.79c.08-.09.14-.15.19-.21.02-.04.05-.08.08-.13.02-.04.04-.09.06-.13.03-.09.07-.22.13-.4.05-.4.16-.8.25-1.2,0-.16.06-.76.07-1.11,0-.19,0-.38,0-.57-.51-1.3-1.02-2.6-1.54-3.91-.48-1.21-.96-2.41-1.46-3.61-.58-1.38-.48-1.16-1.11-2.51-1.07-2.28-2.24-4.52-3.57-6.66-2.5-4.01-5.34-7.17-9.28-9.57-5.18-3.15-11.24-4.78-17.24-5.37-.46-.04-.9-.13-1.33-.23-3.29,1.71-6.35,3.8-8.84,6.58-5.64,6.31-6.31,15.26-7.54,23.26-.74,4.83-1.42,9.67-1.9,14.53-.42,4.27-.91,8.69-.6,12.98.21,2.91,1,6.24,3.55,8,2.89,1.99,7.11,1.33,10.5,1.04.06,10.1-.11,20.2-.52,30.29,0,.17.13.37.33.33,5.4-1.13,10.79-2.25,16.19-3.38,2.67-.56,5.39-1.02,8.03-1.68,1.93-.48,2.06-1.7,2.17-3.5.64-9.69-.5-19.77,3.54-28.9,2.37-5.35,5.98-9.93,9.58-14.52-2.17-2.54-2.78-6.35.25-9.43Z"/>
      <path class="cls-2" d="m236.53,178.29c-1.18.24-2.37.46-3.55.68-1.29-6.86-2.58-13.71-3.87-20.57-.35-1.86-.87-3.53-1.49-5.11-1.51-3.86-3.6-7.19-5.17-11.57-4.11-11.42-9.79-23.12-15.02-34.02-1.56-3.26-2.99-6.59-4.15-10-1.04-3.05-1.87-6.16-2.41-9.35-.03-.19-.2-.3-.39-.24-2.99.93-4.8,1.55-6.84,2.61-.53.28-1.07.58-1.66.93-.55.32-1.13.69-1.78,1.1-.26.17-.06.53.19.52.88,2.18,1.74,4.65,2.57,7.34,6.28,20.34,10.96,53.1,12.32,64.01.45,3.65,1.92,7.29,3.52,10.62,1.18,2.46,3,4.33,5.6,5.24,2.92,1.03,6.14.91,9.17.56.33-.04.66-.08,1-.12,2.67-.34,5.32-.78,7.97-1.27.14.21.51.16.53-.09,1.17-.22,2.35-.45,3.52-.69.36-.08.31-.66-.06-.58Z"/>
      <path class="cls-6" d="m349.5,424.8c-.38-21.66-.75-43.32-1.13-64.98-.19-10.83-.38-21.66-.56-32.49-.19-10.9-3.75-33.52-4.75-44.37-1.96-21.19-4.06-30.16-9.83-50.65-.68-2.4-1.17-4.93-2.15-7.25-.63-1.5-1.68-2.77-3.43-3.31-2.21-.68-4.88-.41-7.18-.44-2.96-.03-5.92-.06-8.88-.08-12.15-.12-24.3-.23-36.46-.35-1.66-.02-3.32-.03-4.98-.05-.76.65-1.73,1.12-2.91,1.3-8.07,15.29-14.87,31.09-20.31,47.25-5.75,17.08-39.4,140.93-43.37,158.74-4.01,17.99-7.18,36.1-10.26,54.22-.38,2.23-.76,4.46-1.14,6.7-.03.17.12.31.31.3,20.35-1.38,40.73-2.15,61.1-2.31.15,0,.29-.16.26-.29-2.06-12.28,4.98-23.82,9.22-35.21,4.65-12.49,5.11-25.68,8.46-38.41,3.47-13.2,9.21-25.86,13.02-38.99.6-2.07,1.17-4.15,1.73-6.23.07.32.15.64.22.96,2.26,9.9,2.82,20,3.4,30.1,1.12,19.48,2.14,39.05.54,58.59-.89,10.88-2.62,21.72-5.55,32.35-.04.13.08.29.23.3,21.65,1.84,43.5,1.89,65.25.15.16-.01.27-.15.26-.29l-1.13-65.25Z"/>
      <path class="cls-3" d="m390.44,181.51c-.96-6.42-2.77-12.68-4.69-18.88-1.99-6.44-4-12.87-6.01-19.31-1.55-4.99-2.81-10.8-6.87-14.43-4.12-3.68-10.38-4.97-15.61-6.21-3.36-.79-6.75-1.43-10.16-2-.32-.05-.63-.1-.95-.15-1.75,1.1-4.2.95-6.18.94-2.08-.02-4.15-.34-6.23-.39-2.53-.07-4.86.56-7.33,1-4.38.77-8.79.99-13.2,1.46-4.7.51-9.39,1.17-14.09,1.66-.52.05-.93-.19-1.18-.56-.32.08-.65.17-.97.25-5.09,1.31-10.2,2.58-15.23,4.14-5.59,1.73-51.5,19.46-52.86,21.29-1.32,1.78-.98.51-1.23,2.64-.69,5.97-3.45,29.49-3.17,29.91.36.54,43.57-1.57,43.87-1.38.54.35-2.15,41.94-1.57,42.9.92,1.55,3.12,1.44,4.66,1.51,5.91.26,53.85-.49,56.88-.78,2.12-.2,3.18-.75,3.97-2.8,2.08-5.39,15.99-26.86,20.58-35.83.92,2.67,1.85,5.33,2.8,7.98.67,1.89,1.1,4.93,3.57,5.12,1.18.09,2.45-.24,3.61-.41,1.67-.25,3.33-.52,4.99-.81,6.3-1.1,12.55-2.49,18.73-4.16,2.3-.62,4.44-1.03,4.55-3.78.12-2.97-.25-6.03-.7-8.95Z"/>
      <path class="cls-4" d="m371.71,233.72c-.53-.37-1.07-.77-1.64-1.18-2.01-1.45-4.27-3.12-6.72-4.95-.36-.26-.71-.53-1.08-.81-3.6-2.69-7.56-5.69-11.68-8.84-3.63-2.78-7.39-5.66-11.13-8.54-2.48-1.91-4.95-3.81-7.37-5.68-3.96-3.05-7.78-6-11.3-8.69-8.94-6.87-15.87-12.09-17.81-13.21-.14-.08-.3-.03-.4.1-.16.2-.31.41-.47.61-.05-.2-.38-.32-.55-.09-7.75,9.93-15.03,20.23-21.82,30.84-1.61,2.51-3.19,5.04-4.74,7.59-1.03,1.68-2.04,3.37-3.04,5.07-1.45,2.45-2.86,4.91-4.25,7.39-.84,1.51-1.49,2.69-.13,4.09.5.52,5.71,4.54,13.09,10.21,1.08.83,2.22,1.7,3.39,2.6,1.01.77,2.05,1.57,3.12,2.39.42.32.84.65,1.27.98,3.56,2.73,7.36,5.64,11.21,8.59.35.27.69.53,1.04.8.2.16.41.31.61.47,15.26,11.73,30.83,23.8,35.11,27.69.13.13.36.12.46-.05,2-3.36,4.01-6.68,6.01-9.96,4.53-7.42,9.06-14.68,13.59-21.97.23-.37.46-.74.69-1.11,4.88-7.85,9.76-15.76,14.64-23.95.08-.14.03-.31-.1-.4Z"/>
      <path class="cls-2" d="m379.22,228.63c-1.88,1.31-47.33,19.28-68.92,25.12-.11.03-.27.02-.33-.1l-1.94-3.38c-.62-1.02-1.66-2.31-1.03-3.56.67-1.33,36.46-24.73,43.34-28.64,2.53-1.44,8.89-3.43,10.6-5.86,2.29-3.24,1.54-12.5,1.39-12.92.36-.06.7-.12,1.04-.17,1.67-.25,3.33-.52,4.99-.81,5.83-1.02,11.62-2.28,17.34-3.79.02,3.42.18,10.26-.56,21.03-.3,4.33-.61,9.38-5.92,13.08Z"/>
      <path class="cls-2" d="m339.21,119.51c-.36-.05-.72-.1-1.09-.15-.57-.08-1.15-.16-1.72-.24-6.83-.96-13.93-1.78-20.56.66-.11.04-.16.12-.17.21-1.02.27-2.04.54-3.07.81-4.46,1.18-8.92,2.36-13.38,3.53-.42.11-.85.22-1.27.34-.32.08-.65.17-.97.25.37,2.53,1.74,4.9,3.72,6.61,3.18,2.74,7.47,3.75,11.58,3.84.19,0,.38,0,.57,0,9.58.02,18.22-4.68,26.22-9.58.88-.55,1.76-1.09,2.63-1.63,1.61-1,3.21-2.02,4.8-3.05.21-.13.42-.27.63-.4-2.63-.43-5.27-.82-7.9-1.19Z"/>
      <path class="cls-2" d="m321.24,241.75c-1.23-.91-2.05-1.29-3.44-1.93.33-.09.66-.21.99-.36.33-.15.16-.71-.18-.55-3.28,1.51-6.72,1.44-10.12.92-3.03-.47-5.75-1.15-8.61.26-1.57.77-3.1,1.64-4.64,2.46-1.15.61-6.85,3.79-9.85,5.67-1.21.76-1.74,2.36-1.02,3.6,0,0,0,0,0,0,.16.62.75.89,1.35.98,1.06.19,3.35-.79,4.37-1.36.54-.3,1.3-.7,1.96-1.17,0,.01.02.02.03.04.13.18.26.35.4.53-2.15,1.41-3.71,2.19-4.41,3.24-.92,2.64,2.17,2.84,3.68,2.72.58-.04.82.6.62,1.05-1.37,3.1,2.93,3.32,4.53,3.18.28-.03.63.23.68.51.34,1.81,1.71,2.81,3.12,2.26.18-.1.37-.2.56-.3.32-.22,16.33-8.81,16.83-9.74.93-1.74,1.9-3.46,2.92-5.15.56-.92,1.13-1.83,1.72-2.73.3-.46.87-1.01.88-1.6.01-1.05-1.67-1.98-2.38-2.51Z"/>
      <path class="cls-2" d="m203.35,97.34c-.17-2.18-.11-4.4-.28-6.57-.11-1.41-.17-5.35-3.68-7.49-1.42-.86-2.81-1.77-4.16-2.73-1.8-1.27-3.02-2.92-4.44-4.56-.54-.61-1.23-1.2-2.01-.57-.91.73-.58,2.28-.24,3.2.71,1.93,2.19,3.65,3.84,5.15-1.73-.1-3.35-.37-5.12-.71-.16-.03-.31-.04-.46-.06-1.46-.72-2.8-1.61-3.81-2.97-1.2-1.61-1.93-3.53-2.58-5.41-.37-1.05-1.73-3.98-3.04-1.86-.62,1,.08,2.48.42,3.43.58,1.64,1.31,3.23,2.18,4.74.61,1.07,1.19,1.99,1.84,2.78-2-1.58-3.71-3.46-5.02-5.67-1.44-2.42-2.14-5.16-3.44-7.63-.44-.84-1.25-1.94-2.37-1.43-1.01.47-.9,1.9-.68,3.02-.39-.14-.82.05-1.26.86-1.41,2.56,1.06,6.51,2.16,8.74,1.32,2.68,3,5.16,5.47,6.75-.2.18-.4.35-.6.52-3.27-2.33-5.62-5.57-6.88-9.45-.22-.68-2.25-6.99-3.69-4.01-.52,1.06.3,2.99.57,4,.55,2.05,1.29,4.03,2.2,5.95,1.3,2.74,3.28,5.39,6.85,7.19,5.21,2.63,12.11,5.26,17.37,7.8.24.15.39.22.52.26.15.06.27.07.42.15.45.22.82-.38.52-.68,3.51-.7,5.7-1.87,9.26-2.34.05,0,.08-.02.11-.03.1-.05.08-.17.07-.37Z"/>
      <path class="cls-6" d="m374.06,117.81c-.44-1.78-1.11-3.41-1.96-4.94-.16-.31-.34-.61-.53-.91-.92-1.51-2.03-2.92-3.26-4.28-.95-1.03-1.86-2.14-2.2-3.53-.38-1.56-.15-3.15.22-4.68.54-2.25,1.25-4.42,1.56-6.71.52-3.78.34-7.63-.49-11.34-.05-.27-.11-.53-.18-.79-1.02-4.15-2.87-8.11-5.45-11.52-1.43-1.89-3.34-3.66-3.77-6.08-.4-2.28.43-4.63.25-6.95-.58-7.78-6.86-14.07-14.02-16.38-4.8-1.55-9.97-1.57-14.91-.75-5.09.86-10.32,2.48-14.49,5.59-.08.05-.12.13-.12.21-.02.13.06.27.17.32-.08.13-.08.3.1.38,2.75,1.12,5.13,3.01,6.73,5.54,1.75,2.76,2.28,6,2.76,9.18.75,4.85,1.75,10.46,6.44,13.08,2.63,1.48,6.07,2.03,7.26,5.21,1.18,3.18-.23,6.58-1.71,9.39-1.47,2.79-2.97,5.44-3.39,8.62-.39,2.93-.02,5.91.62,8.77.84,3.68,2.13,7.25,3.32,10.82.19.58.53,2.17,1.11,3.31.28.56.63,1.01,1.05,1.17.02.01.04.02.05.02.04.03.09.06.15.06,1.99.1,3.95.22,5.89.39.4.04.81.07,1.21.11,3.47.33,6.89.8,10.39,1.51.11.02.22.05.33.07.02,0,.04.01.06.02.67.13,1.35.29,2.04.45,1.52.34,3.07.75,4.53,1.22,0,0,.01,0,.02,0,.52.16,1.02.34,1.51.52,2.99,1.12,5.35,2.59,7.84,4.54.14.05.31.26.43.21.03-.01.06-.05.08-.11,1.2-3.8,1.31-7.85.35-11.72Z"/>
      <path class="cls-9" d="m283.84,140.3c-5.28,12.32-22.48,23.2-16.7,38.44.26.69,1.38.38,1.11-.32-5.61-14.79,11.42-25.49,16.59-37.55.29-.68-.72-1.26-1.01-.57Z"/>
      <path class="cls-9" d="m349.25,163.2c-.17-.73-1.29-.4-1.11.32,1.23,5.2,2.37,10.41,3.42,15.64.15.73,1.26.4,1.11-.32-1.06-5.23-2.2-10.45-3.42-15.64Z"/>
      <path class="cls-5" d="m296.14,254.18c-.84.55-1.67,1.1-2.51,1.64-.62.41-.03,1.4.6.99.84-.55,1.67-1.1,2.51-1.64.62-.41.03-1.4-.6-.99Z"/>
      <path class="cls-5" d="m300.25,258.17c-.76.51-1.52,1.01-2.28,1.52-.62.41-.02,1.41.6.99l2.28-1.52c.62-.41.02-1.41-.6-.99Z"/>
      <path class="cls-2" d="m313.23,240.15c-.06-.04-.13-.06-.21-.06-2.69-.25-5.31-1.2-7.97-1.8-2.18-.49-4.37-.75-6.64-.21-2.28.54-4.56,1.74-6.69,2.7-1.37.62-5.16,1.76-5.8,3.26-.76,1.79,1.23,2.08,3.15,1.98,1.24-.06,2.44-.28,2.83-.35,4.25-.77,8.38-1.95,12.27-3.76,1.03-.48,2.05-1,3.05-1.58.12-.08.19-.18.23-.28,1.84.49,3.67,1.01,5.6,1.18.66.06.72-.86.2-1.1Z"/>
      <path class="cls-5" d="m179.89,85.17c-3.46-1.84-5.12-5.32-6.53-8.81-.28-.69-1.4-.37-1.11.32,1.52,3.77,3.34,7.51,7.07,9.49.66.35,1.23-.66.57-1.01Z"/>
      <path class="cls-5" d="m198.01,96.22c-.52-2.29-1.74-4.53-4.05-5.4-1.55-.58-3.25-.36-4.86-.34-2.57.03-5.01-.15-7.45-.99-.71-.24-1,.88-.29,1.12,2.54.87,5.09,1.06,7.76,1.03,1.75-.02,3.47-.24,5.04.65,1.63.93,2.35,2.46,2.75,4.25.17.73,1.28.4,1.11-.32Z"/>
      <path class="cls-5" d="m333.98,77.89c-1.14.15-2.01.79-2.57,1.79-.64,1.15-.54,3.31-1.69,4.06-.62.41-.03,1.4.6.99,1.95-1.27,1.04-5.33,3.68-5.69.73-.1.72-1.26-.02-1.16Z"/>
      <path class="cls-5" d="m332.6,90.17c-.54.6-1.47.61-2.02.02-.51-.54-1.32.29-.81.83.97,1.03,2.71,1,3.66-.05.5-.55-.33-1.37-.83-.81Z"/>
      <path class="cls-9" d="m286.93,351.38c-1.83-8.18-3.66-16.37-5.49-24.55-.16-.73-1.28-.4-1.11.32,1.83,8.18,3.66,16.37,5.49,24.55.16.73,1.28.4,1.11-.32Z"/>
      <path class="cls-9" d="m225.08,539.35c-1.86.42-3.71.86-5.56,1.31-11.96,2.89-23.79,6.26-35.49,10.09-.71,1.52-.93,3.21-.32,4.97.05.16.21.22.37.19,10.15-2.22,20.31-4.43,30.47-6.65.29-.07.58-.13.87-.19,1.95-.42,3.91-.85,5.86-1.28.4-.09.81-.18,1.21-.27,2.33-.51,4.67-1.02,7-1.53,1.44-.32,3.46-.35,4.13-1.94.38-.91.41-2.01.56-2.99,0-.02,0-.04.01-.06.06-.36.13-1.75.23-3.69-3.12.65-6.23,1.33-9.33,2.04Z"/>
      <path class="cls-9" d="m318.74,535.6c-8.2,2-16.34,4.21-24.41,6.66-.36.11-.72.22-1.08.33-2.64.8-5.28,1.63-7.91,2.48-.72,1.54-.94,3.26-.3,5.04.05.16.2.22.37.19,3.13-.71,6.26-1.42,9.39-2.13.37-.08.74-.17,1.11-.26.72-.16,1.44-.32,2.16-.49,1.64-.37,3.27-.74,4.9-1.11,4.28-.97,8.56-1.94,12.84-2.91,1.57-.36,3.15-.72,4.73-1.07,3.4-.77,6.8-1.54,10.19-2.31,1.45-.33,3.47-.39,4.12-1.98.38-.93.39-2.06.53-3.05.05-.34.11-1.5.18-3.16-5.63,1.15-11.23,2.41-16.81,3.78Z"/>
    </g>
    <path class="cls-6" d="m407.98,288.69c-5.84,15.15-11.51,30.36-17,45.63-13.02,36.27-25.03,72.9-36,109.84-6.44,21.7-12.52,43.49-18.25,65.38-.47,1.08-1.04,2.11-1.86,2.9,1.76-6.79,3.56-13.58,5.4-20.35,10.08-37.19,21.19-74.11,33.33-110.68,10.39-31.29,21.52-62.32,33.39-93.07.33.09.66.2.98.35,0,0,.01,0,.02,0Z"/>
    <path class="cls-6" d="m486.32,219.43s-.01.02-.02.03c-10.24,24.61-20.37,49.27-30.37,73.98-19.66,48.58-38.85,97.35-57.56,146.3-9.29,24.31-18.43,48.68-27.52,73.07-.38,1.03-.77,2.06-1.16,3.09-.36-.03-.73-.06-1.09-.09,1.69-4.53,3.37-9.07,5.06-13.59,18.3-49.11,37.08-98.03,56.34-146.77,18.04-45.65,36.49-91.13,55.36-136.44.01-.02.02-.04.03-.06.32.15.63.31.94.48Z"/>
    <path class="cls-10" d="m151.64,517.92c-.37.06-.73.12-1.09.18-1.92-4.1-3.83-8.22-5.72-12.34-6.94-15.08-13.72-30.23-20.35-45.44-6.44-14.77-12.87-29.56-17.95-44.87-5.28-15.93-9.52-32.2-14-48.37-2.33-8.39-4.65-16.78-6.97-25.18.33-.11.67-.21,1.02-.28,2.85,10.27,5.69,20.53,8.53,30.79,4.41,15.95,8.64,31.98,14.09,47.61,5.4,15.47,12.1,30.46,18.68,45.46,7.71,17.57,15.63,35.05,23.75,52.43Z"/>
    <path class="cls-10" d="m178.67,513.48c-.35.05-.71.12-1.06.17-1.95-6.9-3.87-13.8-5.75-20.71-10.3-37.79-19.53-75.93-25.74-114.64-5.2-32.42-8.36-65.14-9.49-97.95.09,0,.18.02.27.03.27.04.53.08.79.14.53,15.61,1.53,31.21,3,46.78,3.69,39.19,10.55,77.94,19.61,116.23,5.55,23.47,11.83,46.74,18.37,69.95Z"/>
    <path class="cls-10" d="m208.92,301.56c-2.16,9.63-3.87,19.36-5.26,29.12-5.04,35.23-7.28,70.92-10.46,106.35-2.25,25.03-4.49,50.06-6.74,75.09-.36.07-.72.13-1.08.2.86-9.57,1.72-19.15,2.58-28.72,3.25-36.2,6.46-72.39,9.75-108.59,2.24-24.72,4.8-49.57,10.22-73.8.36.06.69.18,1,.35Z"/>
    <g>
      <path class="cls-1" d="m227.41,16.99c-2.89-3.8-5.94-7.68-10.01-10.35-2.15-1.41-6.79-3.87-8.35-1.69-1.54,2.16,2.38,5.74,4.28,7.19,1.9,1.46,4,2.68,6.15,3.76-2.77-.59-5.47-.69-7.93.21-3.31,1.21-9.04,4.78-7.34,9.47,1.71,4.71,8.21,4.13,11.21,3.38,1.33-.33,2.43-.97,3.42-1.75.92-.72,1.73-1.57,2.52-2.43.9-.96,2.62-2.72,4.05-4.27.75-.81,1.43-1.56,1.87-2.11.39-.47.59-.79.53-.87-.13-.17-.27-.35-.4-.53Z"/>
      <path class="cls-1" d="m240.13,26.76c-3.28-3.82-7.66-6.4-11.93-8.86-.06-.03-.12-.07-.18-.1-.09-.05-.36.18-.75.58-.48.5-1.15,1.26-1.87,2.11-1.37,1.63-2.93,3.59-3.78,4.62-.7.85-1.41,1.72-1.99,2.66-.7,1.12-1.24,2.34-1.41,3.77-.36,3.07-.12,9.59,4.77,10.7,4.86,1.1,7.68-5.05,8.46-8.48.58-2.55.14-5.22-.79-7.9,1.34,2,2.82,3.92,4.51,5.63,1.68,1.7,5.72,5.14,7.68,3.33,1.96-1.82-1.05-6.11-2.73-8.07Z"/>
      <path class="cls-6" d="m236.33,13.32c-2.79.15-5.36,1.09-7.55,2.72.23-1.17.18-2.45.07-3.52-.21-1.99-.92-3.78-2.22-5.31-.44-.52-1.16.27-.72.78,1.1,1.3,1.7,2.88,1.88,4.57.15,1.39.28,3.52-.58,4.72-.03.05-.05.1-.07.14-.06.07-.1.15-.12.24-3.27,3.91-4.63,5.55-8.07,9.31-.46.5.32,1.22.78.72,3.56-3.88,5.04-5.66,8.41-9.71.02-.02.03-.05.05-.07,2.24-2.14,5.03-3.35,8.13-3.52.68-.04.68-1.1,0-1.06Z"/>
    </g>
    <path class="cls-11" d="m178.71,513.47c-.04-.13-.08-.27-.11-.4-6.5-23.05-12.73-46.18-18.24-69.49-.92-3.9-1.82-7.79-2.69-11.7-.02-.01-.03-.02-.05-.04-.41-.3-.82-.6-1.24-.88,4.65,20.8,9.94,41.47,15.55,62.03,1.83,6.74,3.71,13.46,5.6,20.18.04.15.09.31.13.47,0,.02.01.04.02.06.35-.05.71-.12,1.06-.17,0-.02-.01-.04-.02-.06Zm13.87-69.54c-.35.1-.7.21-1.05.33-1.17,13.13-2.34,26.26-3.52,39.39-.86,9.55-1.71,19.11-2.58,28.66,0,.02,0,.04,0,.06l1.08-.2s0-.04,0-.06c2.04-22.73,4.08-45.47,6.13-68.2-.02,0-.04.01-.06.02Zm-40.91,73.98c-.05-.1-.1-.2-.14-.3-.22-.47-.44-.93-.66-1.4-7.83-16.8-15.48-33.7-22.93-50.67-4.85-11.05-9.76-22.1-14.17-33.33-.01,0-.02,0-.03,0-.32.09-.64.18-.97.27,3.7,9.39,7.72,18.65,11.76,27.9,6.63,15.21,13.41,30.36,20.35,45.44,1.62,3.52,3.24,7.03,4.88,10.54.21.47.44.93.65,1.4.05.11.11.23.16.34.01.02.02.04.03.06.36-.06.72-.12,1.09-.18-.01-.02-.02-.04-.03-.06Z"/>
    <path class="cls-2" d="m303.21,90.73c-.04.26-.07.52-.11.78-.05.29-.09.58-.15.87-.25,1.43-.59,2.84-.98,4.23-.16.55-.26,1.9-.9,2.17-.68.29-1.15-.53-1.46-.97-.9-1.28-1.75-1.63-2.13-3.15-.1-.4.1-.94.34-1.41.29-.57.66-1.04.66-1.04,0,0-.04-.66.02-1.06,0-.02,0-.03,0-.04-.67-.47-1.34-1.04-1.39-1.69-.05-.57.29-1.08.57-1.54.57-.98.88-1.9.91-2.99-.11-.02-.22-.03-.33-.05-.78-.13-1.87-.15-2.54-.63-1.28-.91-.55-2.86.1-3.94,1.19-1.98,2.89-3.55,4-5.6,1.28-2.36,2.06-4.94,2.38-7.61.04-.37.62-.38.58,0-.23,2.03-.75,4.02-1.52,5.89.15-.06.35-.02.4.17.21.72.08,1.57.08,2.32,0,.44,0,.87,0,1.31,1.77,4.42,2.1,9.25,1.47,13.99Z"/>
    <path class="cls-3" d="m304.1,91.69c-.34.24-.73.47-1.15.68-1.53.78-3.49,1.29-5.12.87.29-.57.66-1.04.66-1.04,0,0-.04-.66.02-1.06.82.04,1.64.03,2.47-.05.67-.07,1.5-.35,2.24-.37.27-.02.52,0,.76.09.45.15.5.62.13.88Z"/>
  </g>
</svg>