<?xml version="1.0" encoding="UTF-8"?>
<svg id="_圖層_2" data-name="圖層 2" xmlns="http://www.w3.org/2000/svg" viewBox="0 0 599.68 467.26">
  <defs>
    <style>
      .cls-1 {
        fill: #ffa277;
      }

      .cls-2 {
        fill: #fff;
      }

      .cls-3 {
        fill: #ba595a;
      }

      .cls-4 {
        fill: #da8260;
      }

      .cls-5 {
        fill: #1f2144;
      }

      .cls-6 {
        fill: #45477a;
      }

      .cls-7 {
        fill: #3e5b48;
      }

      .cls-8 {
        fill: #93b470;
      }

      .cls-9 {
        fill: #565a94;
      }

      .cls-10 {
        fill: #779968;
      }

      .cls-11 {
        fill: #4e705b;
      }
    </style>
  </defs>
  <g>
    <path class="cls-11" d="m316.53,46.95h0c-.24-5.76-1.5-11.4-4.86-16.22-2.43-3.48-5.76-6.17-9.59-7.52-.41-.14-.84-.28-1.27-.39-2.12-.57-4.37-.73-6.68-.38-.23.03-.45.07-.68.11-7.81,1.49-13.99,7.75-18.41,13.99-1.49,2.11-2.87,4.31-4.14,6.59-3.47,6.17-6.2,12.83-8.64,19.38-.83,2.23-1.62,4.48-2.36,6.75-.48,1.46-.95,2.93-1.4,4.41-1.29,4.18-2.45,8.4-3.53,12.64-.08.33-.17.67-.25,1-.22.87-.44,1.75-.65,2.62-.18.75-.36,1.5-.54,2.25-1.1,4.62-2.16,9.25-3.16,13.9-.11.5-.22,1.02-.33,1.53-.19.87-.37,1.73-.55,2.6-.12.54-.23,1.08-.34,1.63-.14.65-.27,1.3-.4,1.95-2.88,14.01-5.34,28.1-7.5,42.22-.35,2.29-1.73,11.98-3.38,23.14-.77,5.24-1.6,10.81-2.41,16.08-.16,1.07-.33,2.13-.49,3.18-2.21,14.22-4.13,25.31-4.08,20.32.09-9.65.15-19.31.19-28.97.02-2.99.02-5.98.03-8.98.01-1.78.01-3.56.02-5.34,0-.26,0-.51,0-.77,0-.65,0-1.3,0-1.95.03-13.13.02-23.73-.02-33.42-.07-14.75-.24-27.42-.55-43.77-.11-6.22-.25-12.97-.4-20.58,0-.37-.02-.73-.03-1.09-.03-1.68-.08-3.36-.12-5.05-.06-2.55-.14-5.09-.23-7.64-.23-6.65-.54-13.31-1.01-19.96-.4-5.7-.91-11.39-1.56-17.06-.54-4.75-.91-9.71-2.15-14.33-.38-1.41-.93-2.86-1.65-4.2-.18-.35-.38-.69-.58-1.02-2.34-3.71-6.04-6.15-10.8-3.53-7.11,3.92-11.14,13.42-13.44,20.75-.85,2.71-1.56,5.46-2.17,8.24-1.53,6.94-2.41,14.06-3.2,21.08-1.26,11.26-1.83,22.58-1.88,33.91-.04,7.97,1.37,22.66,3.27,38.76,1.78,15.05,3.98,31.33,5.84,44.5.35,2.49.69,4.87,1.01,7.11,1.31,9.17,2.33,15.98,2.68,18.42.19,1.29.37,2.58.56,3.87-.95-.88-1.98-1.71-3.14-2.44-.38-.24-.77-.47-1.16-.69-.97-.55-1.96-1.03-2.97-1.45-.23-1.81-.7-6.07-1.36-11.87-1.27-11.17-3.21-28.06-5.38-44.19-2.01-14.95-4.22-29.25-6.29-37.76-4.86-20.01-11.08-39.82-20.7-57.2-4.61-8.32-9.98-16.5-16.47-22.78-5.16-4.98-11.43-8.49-17.95-7.87-.35.03-.7.07-1.05.14-.26.04-.52.09-.78.14-.34.07-.68.16-1.03.26-.5.14-1,.31-1.5.51-13.61,5.35-18.94,31.35-10.15,81.08,1.05,5.92,2.3,12.18,3.76,18.78.18.82.37,1.64.55,2.47.76,3.36,1.58,6.82,2.45,10.36,1.47,6,3.1,12.25,4.9,18.75.43,1.53,2.45,7.47,5.45,16.16,1.92,5.56,4.23,12.24,6.78,19.61,3.02,8.75,6.37,18.48,9.75,28.45.23.67.46,1.34.69,2.01,1.19,3.49,2.37,7,3.55,10.51,2.76,8.21,5.48,16.38,7.99,24.11.13.4.26.8.39,1.2,1.29,3.99,2.53,7.84,3.69,11.52,5.85,18.62,10.86,33.36,14.11,40.74.15.34.3.66.44.97.38.84.74,1.56,1.07,2.16.12.21.23.4.34.58.16.27.46.51.87.72.65.33,1.59.58,2.77.78,1.5.25,3.39.4,5.54.48,4.16.16,9.32.05,14.63-.14.13,0,.27-.01.41-.02.91-.03,1.84-.06,2.76-.1.37-.02.73-.03,1.09-.04.5-.02,1.01-.04,1.51-.06,4.74-.19,9.37-.37,13.29-.43,2.72-.04,5.1-.01,6.94.13.36.02.7.05,1.02.09.17.32.65.35.88.1,2.18.24,4.37.49,6.55.74.37.04.57-.37.51-.67-.55-2.74-1.12-5.46-1.71-8.19.81-1.12,1.6-2.25,2.37-3.4.73-1.08,1.43-2.18,2.12-3.29,3.85-6.24,7.09-12.82,9.94-19.57.75-1.78,1.48-3.57,2.19-5.37.11-.28.22-.55.32-.83.5-1.3,1-2.6,1.49-3.9,1.58-4.23,3.08-8.48,4.53-12.76,3.23-9.55,6.23-19.18,9.37-28.76,1.14-3.48,2.3-6.95,3.5-10.41,6.96-20.09,14.3-40.11,20.96-60.33,4.29-13.01,8.3-26.09,11.75-39.34.45-1.69.88-3.38,1.3-5.08,1.31-5.25,2.53-10.52,3.63-15.82.17-.82.34-1.63.5-2.45.56-2.72,1.09-5.45,1.58-8.2.98-5.42,1.84-10.85,2.49-16.31.11-.94.22-1.89.32-2.83.34-3.21.55-6.52.41-9.8Z"/>
    <path class="cls-11" d="m445.17,96.59c-.54,10.17-1.96,20.28-4.01,30.26-4.25,20.59-44.18,126.8-52.96,145.43-8.63,18.35-32.36,81.8-42.45,94.1-3.93-.16-13.24-.94-24.07-1.87-.37-.03-.74-.06-1.12-.1-.73-.06-1.48-.13-2.22-.19-.36-.03-.73-.06-1.09-.1-19.13-1.67-41.2-3.63-46.86-3.59-1.15-.14-2.3-.28-3.44-.42-.3-.04-.53-.22-.53-.53-.43-13.8,2.01-27.39,4.2-40.96,2.02-12.49,2.94-24.99,4.17-37.56.38-3.82,20.69-104.65,24.98-129.65,4.14-24.17,4.76-28.89,8.46-53.13,3.38-22.15,7.58-44.46,16.59-65.11,3.47-7.97,8.22-19.89,18.14-21.25.79-.11,1.55-.15,2.3-.12.36.01.71.04,1.05.07,7.93.9,13.4,8.92,15.26,16.27,1.45,5.73,1.7,11.78,1.96,17.66.28,6.13.3,12.28.13,18.42-.36,12.42-1.53,24.81-3.11,37.13-3.11,24.17-24,112.45-28.88,128.58,7.76-15.07,15.52-30.15,23.28-45.22,10.85-21.08,27.06-52.15,32.51-62.73,5.09-9.89,9.96-19.95,15.56-29.56,2.66-4.56,5.54-9,8.8-13.15,2.93-3.72,6.17-7.27,10.26-9.75,3.59-2.17,7.85-3.37,11.99-2.15.45.13.89.29,1.31.47.1.04.19.08.29.13.22.11.45.21.66.33.1.05.19.1.28.15,2.01,1.14,3.67,2.83,4.91,4.83,4.25,6.84,4.09,15.55,3.67,23.29Z"/>
    <path class="cls-7" d="m259.99,269.85c-.21-3.08-1.36-6.14-2.93-9.19-.28-.54-.56-1.08-.87-1.62-.63-1.14-1.31-2.29-2-3.43-3.6-5.93-7.62-11.85-8.11-17.82-.02-.26-.04-.51-.06-.76-1.1-13.58-2.33-27.15-3.66-40.71-.52-5.24-.48-11.29-3.5-15.84-.31-.47-.64-.9-1.01-1.32-.93-1.09-2.03-2-3.24-2.76-1.09-.69-2.27-1.25-3.5-1.71-.07-.03-.14-.05-.21-.08-.23-.08-.46-.15-.69-.23-.18-.06-.36-.12-.55-.17-.75-.22-1.5-.41-2.26-.58-7.09-1.58-14.53-1.13-21.52-3.13-.94-.27-1.87-.58-2.79-.95-.9-.36-1.79-.76-2.65-1.2-1.37-.68-2.68-1.44-3.96-2.28.56,4.31,1.13,8.62,1.73,12.93.71,5.21,1.44,10.41,2.19,15.62,0,.05.02.1.02.14.19,1.29.37,2.58.56,3.87-.95-.88-1.98-1.71-3.14-2.44-1.33-.84-2.71-1.55-4.13-2.14-.38-3.01-.77-6.02-1.17-9.03-.73-5.53-1.49-11.07-2.26-16.59-.39-2.77-.79-5.55-1.19-8.32-1.34-1.26-2.63-2.58-3.87-3.93-.73-.79-1.45-1.59-2.15-2.4-8.86-10.12-16.75-22.4-28.03-30.05h0c-.44-.3-.89-.6-1.35-.88h0c-2.36-1.49-4.87-2.77-7.56-3.79-7.21-2.73-14.96-3.42-22.43-5.19-1.74-.41-3.46-.88-5.15-1.45-.05-.02-.1-.03-.15-.05.23.83.47,1.67.71,2.52.87,3.1,1.77,6.3,2.69,9.59,3.11,11.08,6.53,23.17,10.1,35.67,2.03,7.09,4.1,14.31,6.19,21.56,3.21,11.11,6.47,22.27,9.67,33.1.22.73.43,1.45.64,2.18.57,1.92,1.14,3.83,1.71,5.72,3.02,10.12,5.96,19.85,8.75,28.84.31.98.61,1.96.91,2.92.42,1.35.84,2.68,1.25,3.99,1.97,3.15,3.59,6.52,4.98,9.97,4.27,10.58,6.69,22.91,11.28,33.86.07.18.15.36.22.54.11.27.23.53.35.8.05.03.1.05.15.07.85.39,2.12.67,3.72.87,2.48.3,5.75.41,9.43.4,3.96-.01,8.39-.16,12.81-.32.1,0,.2-.01.3-.01.03,0,.05,0,.07,0,.24,0,.48-.02.72-.03.8-.03,1.76-.05,2.86-.07.35-.01.72-.02,1.1-.02.3,0,.6,0,.91-.01,3.73-.04,8.47-.02,13.3.01,2.37.02,4.75.05,7.05.08,3.33.04,6.48.1,9.13.16,3.93.08,6.73.17,7.35.24.37.04.57-.37.51-.67-.55-2.74-1.12-5.46-1.71-8.19,1.58-2.17,3.08-4.41,4.49-6.69,3.85-6.24,7.09-12.82,9.94-19.57Z"/>
    <path class="cls-8" d="m224.1,296.53c-.36-2.45-1.94-5.23-4.77-5.07-1.97.11-3.93,1.45-5.68,3.02-1.39,1.24-2.65,2.64-3.68,3.66-.76.76-1.49,1.53-2.21,2.32h0c-.28.31-.55.62-.82.93-.7.8-1.38,1.63-2.02,2.47-.2.26-.39.51-.58.77-.05.06-.1.12-.13.19-3.4,4.59-6.06,9.69-7.74,15.22-.35,1.16-.66,2.33-.96,3.51.11-2.79.01-5.58-.4-8.34-.48-3.22-1.34-7.41-3.63-9.9-.11-.12-.21-.23-.32-.33-.4-.39-.83-.71-1.27-.96-1.69-.97-3.63-1-5.54-.48-.89.24-1.77.6-2.62,1.04-1.63.85-3.14,1.98-4.34,3.14-.33.32-.64.65-.93.97-4.89,5.51-7.78,13.18-9.59,20.22-.57,2.22-1.01,4.45-1.35,6.7-.04.26-.07.5-.11.76-.88,6.51-.77,13.13.29,19.65.1.6.91.44,1.02-.07.05.01.1.02.16.01,1.02-.14,2.03-.28,3.05-.4,5.98-.75,11.98-1.23,17.99-1.46,4.77-.18,9.55-.19,14.33-.05.17,0,.39-.1.46-.26,4.34-9.92,8.68-19.84,13.02-29.76l.4-.91c1.8-4.11,3.57-8.22,5.05-12.46.67-1.92,1.46-4.01,2.07-6.15.13-.43.24-.86.35-1.28.55-2.25.84-4.53.52-6.69Z"/>
    <path class="cls-5" d="m345.25,11.8c-7.16,41.9-14,83.86-20.49,125.87-8.01,51.79-15.51,103.66-22.5,155.59-1.39,10.28-2.71,20.61-4.34,30.88.35.22.67.47.95.75,1.1-6.88,2.07-13.79,3-20.68,3.48-25.8,7-51.58,10.69-77.35,7.43-51.87,15.36-103.68,23.79-155.4,3.24-19.88,6.56-39.74,9.95-59.59-.35-.04-.7-.06-1.05-.07Z"/>
    <path class="cls-10" d="m214.68,323.97c-2.82,1.67-5.76,3.25-8.96,4.06-1.13.28-2.26.44-3.39.51-1.96.12-3.93-.03-5.91-.18-1-.08-2.01-.16-3.01-.22-5.85-.34-11.66.56-17.1,2.51-.9.32-1.8.68-2.67,1.06-2.46,1.07-4.83,2.36-7.06,3.86-.39.26-.78.53-1.16.8-.88,6.51-.77,13.13.29,19.65.1.6.91.44,1.02-.07.05.01.1.02.16.01,1.02-.14,2.03-.28,3.05-.4,5.98-.75,11.98-1.23,17.99-1.46,4.77-.18,9.55-.19,14.33-.05.17,0,.39-.1.46-.26,4.34-9.92,8.68-19.84,13.02-29.76l.4-.91c-.48.29-.96.57-1.44.86Z"/>
    <path class="cls-8" d="m165.35,182.12c-.53-7.01-1.47-13.98-2.8-20.88-.63-3.27-1.1-6.86-2.29-9.98-.36-.95-.95-1.68-1.7-2.11-.31-.18-.64-.3-1-.36-.57-.1-1.21-.04-1.87.21-2.39.91-3.89,3.25-5.24,5.28-1.76,2.66-3.37,5.41-4.83,8.25-2.83,5.49-5.09,11.24-6.93,17.13-.01.03-.02.06-.03.1-.2.65-.4,1.3-.59,1.95-3.33,11.39-5.12,23.18-6.33,34.95-.7,6.84-1.27,13.69-1.71,20.55-.49,7.48-.86,14.97-1.16,22.46-.47,11.67-.72,23.34-.81,35.02-.17,18.1.01,36.2.24,54.29.03,2.67.07,5.34.11,8.01-4.08-21.8-6.85-43.8-9.07-65.86-1.12-11.07-2.1-22.15-3.03-33.22-.32-3.81-.63-7.62-.95-11.43-1.08-13.06-2.14-26.13-3.36-39.18-.8-8.59-1.66-17.19-2.63-25.77-.84-7.38-1.61-14.8-2.98-22.11-.53-2.8-1.16-5.6-1.95-8.34-1.06-3.68-2.43-7.26-4.23-10.63-1.55-2.9-3.45-5.63-5.7-8.04-1.9-2.04-4.31-4-7.09-4.64-.26-.06-.53-.11-.79-.15-.09-.01-.18-.02-.27-.03-6.85-.68-8.52,8.18-9.52,13.21-1.56,7.9-1.74,15.99-1.46,24.01.11,3.12.26,6.23.45,9.35.8,12.89,2.25,25.76,4.08,38.52,2.14,14.88,4.94,29.67,8.38,44.3.24,1.04.49,2.08.75,3.13,1.12,4.64,2.31,9.26,3.57,13.87,7.12,26.19,16.33,51.8,27.54,76.52,1.55,3.42,3.14,6.83,4.78,10.21,0,.01,0,.02.01.03-5.09.78-10.19,1.45-15.3,1.94-.03-.12-.05-.25-.09-.37-5.75-25.87-12.8-51.45-21.12-76.61-1.28-3.87-2.59-7.73-3.94-11.58-1.67-4.79-3.37-9.56-5.13-14.32-5.96-16.14-12.46-32.08-19.47-47.8-2.74-6.14-5.85-14.65-11.29-19.61-2.66-2.43-5.89-4-9.9-4.04-.96-.01-1.84.08-2.66.27-.36.07-.7.17-1.03.28-6.85,2.26-8.79,11.1-9.2,18.1-.04.73-.07,1.45-.08,2.13-.42,21.85,5.16,43.17,12.62,63.6,1.16,3.19,2.38,6.36,3.62,9.5.44,1.12.88,2.23,1.33,3.33,9.74,24.17,21.38,47.57,34.79,69.91,1.28,2.13,3.85,7,5.66,10.18.29.5.55.97.79,1.37.13.22.26.42.37.6-.03.07,6.25-.93,14.28-2.24.01,0,.02,0,.03,0,.35-.06.71-.11,1.06-.17.01,0,.02,0,.03,0,2.52-.4,5.19-.84,7.87-1.27,6.14-.99,12.36-1.99,17.06-2.71.07.03.15.01.22-.03.27-.04.54-.09.81-.13.01,0,.03,0,.04,0,.34-.05.68-.11,1.02-.16.01,0,.03,0,.04,0,1.74-.28,3.48-.57,5.22-.87.48-.09.97-.17,1.45-.25.02,0,.04,0,.06-.01.34-.06.69-.12,1.03-.18.02,0,.04,0,.06-.01,4.2-.74,8.4-1.52,12.59-2.31-.03.43-.07.85-.1,1.28-.03.34.51.34.53,0,.53-7.41,1.12-14.83,1.78-22.24,1.28-14.53,2.79-29.04,4.55-43.52.93-7.77,1.94-15.52,3.02-23.27.69-5.02,1.45-10.04,2.22-15.07.42-2.81.85-5.61,1.28-8.42.29-1.92.57-3.85.84-5.78,0,0,0,0,0-.01,1.43-9.87,2.68-19.75,3.37-29.66.67-9.46.81-18.95.08-28.48Z"/>
    <path class="cls-10" d="m362.12,143.55c-.73-2.53-1.92-5.19-4.45-6.37,0,0-.01,0-.02,0-.32-.15-.65-.27-.98-.36-.56-.15-1.13-.21-1.7-.21-.38,0-.75.03-1.13.09-1.44.21-2.85.79-4.11,1.49-3.13,1.75-5.72,4.45-8.23,6.98-2.74,2.75-5.34,5.64-7.8,8.64-4.97,6.06-9.35,12.49-13.27,19.2-.49.83-.97,1.67-1.45,2.52-6.15,10.92-11.14,22.52-15.48,34.35-1.01,2.78-2,5.57-2.95,8.37-.89,2.6-1.75,5.21-2.6,7.82-1.47,4.55-2.87,9.1-4.25,13.62-4.77,15.74-9.06,31.63-12.86,47.63-2.89,12.15-5.5,24.37-7.83,36.63.24-3.74.39-7.48.32-11.22-.05-2.51-.22-5.38-.85-8.08h0c-.89-3.81-2.68-7.28-6.27-9-.15-.07-.3-.14-.46-.21-.98-.4-1.92-.61-2.82-.62-.2,0-.39,0-.58,0-.89.06-1.74.28-2.54.64-2.91,1.3-5.19,4.34-6.64,7.29-2.79,5.67-3.46,12.06-3.73,18.31-.03.65-.05,1.3-.07,1.94-.14,4.71-.15,10.41-.19,16.16-.03,2.79-.06,5.6-.11,8.31-.08,3.48-.21,6.8-.43,9.73-.02.3.27.51.53.53,1.71.13,4.59.5,7.94.96,3.63.49,7.79,1.11,11.57,1.67,1.11.16,2.17.32,3.19.47,4.4.66,7.74,1.15,8.15,1.15.65,0,1.29-.11,1.91-.36.3-.12.57-.26.83-.43.1-.06.19-.12.28-.2.18-.13.34-.27.49-.41.13-.12.26-.26.38-.39.63-.72,1.09-1.58,1.5-2.49.33-.74.62-1.52.91-2.25,2.23-5.5,4.45-10.99,6.68-16.49,1.92-4.73,3.83-9.46,5.75-14.19.07-.18.14-.36.22-.54.08-.2.16-.4.25-.61,1.49-3.68,2.97-7.36,4.47-11.04,1.46-3.61,2.93-7.22,4.39-10.83l2.99-7.38,3.26-8.05,37.24-91.96c1.98-4.87,4.23-9.98,6.25-15.23,4.44-11.54,7.73-23.76,4.31-35.59Z"/>
    <path class="cls-5" d="m207.98,304.69c-.1-.31-.2-.63-.29-.94-8.53-27.38-17.05-54.77-25.37-82.21-15-49.46-29.35-99.15-41.87-149.3-4.99-19.99-9.68-40.05-14.01-60.19.35-.1.69-.19,1.03-.26,10.42,48.49,22.98,96.5,36.61,144.18,14.14,49.48,29.43,98.62,44.72,147.74.08.24.15.48.23.73.21.65-.83.9-1.03.26Z"/>
    <path class="cls-5" d="m164.04,155.9c-3.42-11.96-6.76-23.93-10.03-35.93-.43-.22-.85-.43-1.28-.63,9.3,34.2,19.28,68.22,29.56,102.13,8.32,27.45,16.84,54.83,25.37,82.21.37-.02.73-.03,1.09-.04-15.29-49.12-30.58-98.26-44.72-147.74Z"/>
    <path class="cls-10" d="m152.02,291.41c-.87-.37-1.74-.63-2.61-.78-2.63-.47-5.25-.03-7.84.73-.37.11-.74.22-1.11.35-.71.23-1.41.48-2.12.74-3.45,1.26-6.85,2.39-10.27,2.25-.17,18.1.01,36.2.24,54.29.03,2.67.07,5.34.11,8.01-4.08-21.8-6.85-43.8-9.07-65.86-2.78-2.16-5.15-4.91-7.59-7.38-1.62-1.65-3.3-3.22-5.13-4.59-.42-.32-.85-.63-1.29-.92-1.41-.95-2.92-1.78-4.56-2.42-2.63-1.04-5.39-1.61-8.19-1.84,7.12,26.19,16.33,51.8,27.54,76.52,1.55,3.42,3.14,6.83,4.78,10.21,0,.01,0,.02.01.03-5.09.78-10.19,1.45-15.3,1.94-.03-.12-.05-.25-.09-.37-5.75-25.87-12.8-51.45-21.12-76.61-1.28-3.87-2.59-7.73-3.94-11.58-7.44.79-14.56,3.16-21.74,5.16-.33.09-.66.18-.99.27-4.87,1.33-9.78,2.44-14.86,2.74-1.68.1-3.32.08-4.93-.06.44,1.12.88,2.23,1.33,3.33,9.74,24.17,21.38,47.57,34.79,69.91,1.28,2.13,3.85,7,5.66,10.18.29.5.55.97.79,1.37.13.22.26.42.37.6-.03.07,6.25-.93,14.28-2.24.01,0,.02,0,.03,0,.35-.06.71-.11,1.06-.17.01,0,.02,0,.03,0,2.52-.4,5.19-.84,7.87-1.27,6.14-.99,12.36-1.99,17.06-2.71.07.03.15.01.22-.03.27-.04.54-.09.81-.13.01,0,.03,0,.04,0,.34-.05.68-.11,1.02-.16.01,0,.03,0,.04,0,1.74-.28,3.48-.57,5.22-.87.48-.09.97-.17,1.45-.25.02,0,.04,0,.06-.01.34-.06.69-.12,1.03-.18.02,0,.04,0,.06-.01,4.2-.74,8.4-1.52,12.59-2.31-.03.43-.07.85-.1,1.28-.03.34.51.34.53,0,.53-7.41,1.12-14.83,1.78-22.24,1.28-14.53,2.79-29.04,4.55-43.52-.79-.54-1.63-1.01-2.51-1.4Z"/>
    <path class="cls-10" d="m268.48,257.58c-.61-2.42-.92-4.86-1.02-7.32-.22-5.34.54-10.75,1.33-16.03.07-.45.13-.9.2-1.34.75-5.02,1.61-10.26,1.11-15.37-.15-1.55-.43-3.09-.87-4.6-1.89-6.44-7.19-10.12-11.19-15.11-2.44,7.13-4.68,14.32-6.85,21.44-1.79,5.91-3.51,11.83-5.17,17.77-2.2,7.92-4.29,15.86-6.25,23.84-1.64,6.64-3.19,13.32-4.66,20-.01.06-.03.12-.04.18-1.62,7.42-3.15,14.85-4.56,22.3-.08.41-.16.82-.23,1.23-1.44,7.65-2.78,15.32-4,23.01-.1.6-.19,1.2-.28,1.79,1.54,3.52,3.65,6.7,6.52,9.13,1.45,1.22,3.09,2.25,4.95,3.04.65,0,1.29-.11,1.91-.36.27-.11.53-.24.77-.39.82-.51,1.44-1.22,1.94-2.04.71-1.16,1.19-2.51,1.69-3.75,1.88-4.64,3.76-9.29,5.64-13.93,3.45-8.53,6.91-17.07,10.37-25.6,1.91-4.72,3.82-9.45,5.74-14.17l6.25-15.43c-1.23-2.72-2.58-5.41-3.31-8.31Z"/>
    <path class="cls-5" d="m357.67,137.19c-5.91,15.12-11.65,30.31-17.21,45.56-13.19,36.21-25.36,72.79-36.5,109.67-6.54,21.67-12.72,43.43-18.55,65.3-.48,1.08-1.05,2.11-1.88,2.89,1.79-6.78,3.63-13.56,5.49-20.33,10.25-37.15,21.53-74.01,33.84-110.53,10.53-31.24,21.81-62.22,33.81-92.92.33.09.66.21.98.36,0,0,.01,0,.02,0Z"/>
    <path class="cls-5" d="m436.33,68.28s-.01.02-.02.03c-10.36,24.56-20.6,49.18-30.71,73.84-19.89,48.49-39.29,97.17-58.23,146.03-9.41,24.27-18.65,48.6-27.86,72.94-.39,1.03-.78,2.06-1.17,3.09-.36-.03-.73-.06-1.09-.1,1.72-4.52,3.41-9.05,5.12-13.57,18.53-49.02,37.53-97.86,57.01-146.51,18.24-45.56,36.91-90.97,55.98-136.19.01-.02.02-.04.03-.06.32.15.63.31.94.49Z"/>
    <path class="cls-10" d="m100.28,365.23c-.37.06-.73.12-1.09.18-1.9-4.11-3.79-8.24-5.66-12.36-6.87-15.11-13.58-30.29-20.14-45.53-6.38-14.8-12.74-29.62-17.74-44.96-5.2-15.95-9.37-32.24-13.78-48.43-2.29-8.4-4.57-16.81-6.86-25.21.33-.11.67-.2,1.03-.28,2.8,10.28,5.59,20.55,8.39,30.83,4.34,15.97,8.49,32.02,13.88,47.68,5.32,15.49,11.96,30.52,18.47,45.54,7.63,17.6,15.47,35.12,23.51,52.54Z"/>
    <path class="cls-10" d="m127.33,360.92c-.35.05-.71.11-1.06.17-1.92-6.9-3.8-13.81-5.66-20.73-10.13-37.84-19.18-76.02-25.22-114.75-5.05-32.44-8.07-65.18-9.04-97.99.09,0,.18.02.27.03.27.04.53.08.79.15.46,15.62,1.39,31.22,2.78,46.79,3.51,39.2,10.2,77.99,19.07,116.32,5.44,23.49,11.61,46.8,18.05,70.03Z"/>
    <path class="cls-10" d="m158.55,149.15c-2.2,9.62-3.95,19.34-5.4,29.1-5.2,35.2-7.61,70.89-10.95,106.3-2.36,25.02-4.72,50.04-7.08,75.06-.36.06-.72.13-1.08.19.91-9.57,1.81-19.14,2.71-28.71,3.41-36.18,6.79-72.36,10.25-108.54,2.36-24.71,5.02-49.55,10.56-73.76.36.06.69.18,1,.36Z"/>
    <path class="cls-11" d="m127.37,360.91c-.04-.13-.07-.27-.11-.4-6.39-23.08-12.51-46.23-17.92-69.57-.9-3.9-1.78-7.8-2.64-11.71-.02-.01-.03-.02-.05-.04-.4-.3-.81-.6-1.24-.88,4.56,20.82,9.75,41.51,15.26,62.1,1.8,6.74,3.64,13.48,5.51,20.21.04.15.09.31.13.47,0,.02.01.04.02.06.35-.05.71-.11,1.06-.17,0-.02-.01-.04-.02-.06Zm14.19-69.47c-.35.1-.7.21-1.05.32-1.23,13.12-2.46,26.25-3.7,39.38-.91,9.55-1.8,19.1-2.71,28.64,0,.02,0,.04,0,.06l1.08-.19s0-.04,0-.06c2.15-22.72,4.29-45.45,6.44-68.17-.02,0-.04.01-.06.02Zm-41.25,73.79c-.05-.1-.1-.2-.14-.3-.22-.47-.43-.94-.65-1.4-7.75-16.84-15.32-33.77-22.7-50.78-4.8-11.07-9.66-22.14-14.02-33.4-.01,0-.02,0-.03,0-.32.09-.64.18-.97.27,3.65,9.41,7.64,18.68,11.63,27.95,6.56,15.24,13.28,30.42,20.14,45.53,1.6,3.52,3.21,7.05,4.83,10.56.21.47.43.94.64,1.4.05.11.11.23.16.34.01.02.02.04.03.06.36-.06.72-.12,1.09-.18-.01-.02-.02-.04-.03-.06Z"/>
  </g>
  <g>
    <path class="cls-10" d="m467.05,314.23c-.09-.59-.54-1.45-.74-1.97-.13-.34-.26-.67-.38-1.02-.17-.46-.35-.93-.52-1.39l-1.31-3.49c-1.36-3.6-2.71-7.21-4.06-10.81-1.11-2.97-2.22-5.93-3.34-8.9-3.68-9.81-7.35-19.63-11.04-29.43-2.19-5.82-4.43-12.27-8.74-16.92-1.53-1.65-3.22-2.62-4.84-2.75-.36-.03-.72-.02-1.07.04-1.47.24-2.85,1.26-3.95,3.2-1.6,2.82-2.55,6.1-3.15,9.27-2.29,12.19.44,25.56,3.92,37.27,3.38,11.42,8.47,22.25,15,32.18.07.11.14.22.21.32,1.07-.01,2.15-.04,3.22-.09,2.59-.1,5.17-.32,7.73-.67.36-.05.71-.1,1.07-.15.36-.05.73-.11,1.09-.17,1.26-.2,2.52-.44,3.78-.7,1.81-.38,4.27-.63,5.92-1.46l.98-.29c.24-.22.4-.45.49-.68.19-.45.1-.93-.28-1.42Z"/>
    <path class="cls-8" d="m556.77,196.85s-.05-.06-.08-.1c-.12-.14-.25-.28-.38-.41-2.32-2.45-5.58-3.83-8.88-4.28-7.06-.95-13.48,2.57-18.84,6.95-1.14.93-2.23,1.9-3.27,2.88-2.45,2.31-4.73,4.77-6.87,7.35-3.6,4.33-6.81,9-9.74,13.8-5.02,8.23-9.29,16.91-13.45,25.59-2.7,5.63-5.31,11.31-7.87,17.01-1.66,3.67-3.29,7.35-4.91,11.04,1.48-3.81,2.95-7.62,4.41-11.43,3.49-9.11,6.94-18.23,10.33-27.37,2.79-7.51,5.73-15,7.8-22.75.97-3.62,1.73-7.31,2.14-11.04.01-.09.02-.19.03-.28.2-1.95.3-3.92.29-5.88-.02-1.44-.07-2.88-.44-4.28-.24-.89-.63-1.72-1.15-2.38-.14-.18-.3-.36-.47-.51-.87-.82-2.03-1.25-3.48-1.01-1.56.26-3.09,1.01-4.52,1.66-1.12.51-2.22,1.06-3.29,1.66-.29.16-.58.32-.87.49-5.37,3.11-10.11,7.19-14.2,11.83-8.75,9.92-14.59,22.19-18.34,34.8-3.14,10.56-4.77,21.58-4.83,32.6-.02,4.06.17,8.12.57,12.16.02.24.12.83.27,1.7.78,4.63,3.1,17.08,4.62,25.12.1.52.2,1.02.29,1.49.24,1.29.46,2.42.64,3.33.02.06,1.87-.23,5.07-.95.28-.06.56-.13.86-.2.22-.05.45-.11.69-.16,5.41-1.28,13.67-3.54,23.1-7.08.26-.1.53-.2.79-.3,6.46-2.45,13.44-5.49,20.4-9.22.12-.06.31-.29.57-.66,1.74-2.49,6.46-11.53,11.98-22.38.32-.63.64-1.27.97-1.91.14-.29.29-.57.44-.86,1.22-2.41,2.48-4.9,3.73-7.4,4.75-9.44,9.59-19.14,13.31-26.49,4.41-8.71,10.14-13.88,12.03-18.44,1.7-4.11,3.21-8.45,3.54-12.91.28-3.83-.45-7.81-2.97-10.8Z"/>
    <path class="cls-8" d="m598.59,256.04c-3.38-5.78-12.33-7.17-18.39-7.28-8.87-.15-17.6,2.4-25.75,6.23-3.19,1.5-6.29,3.2-9.26,5-2.09,1.26-4.12,2.58-6.08,3.92-1.55,1.06-3.07,2.16-4.57,3.3-1.63,1.24-3.23,2.52-4.78,3.84-1.04.88-2.05,1.78-3.06,2.7-1.54,1.4-3.03,2.85-4.5,4.34-6.28,6.41-11.8,13.57-16.39,21.3-.25.42.37.88.63.46.16-.27.32-.53.48-.8.08,1.92,4.02.21,4.76-.1.7-.29,1.39-.6,2.07-.91,1.07-.5,2.12-1.05,3.15-1.62.54-.3,1.07-.6,1.6-.91,1.11-.65,2.22-1.33,3.31-2.02,6.92-4.33,13.79-8.47,21.33-11.65,6.23-2.63,12.66-4.77,19.17-6.57,1.46-.41,2.93-.8,4.4-1.18,7.67-1.96,15.62-3.11,23.16-5.55,3.03-.98,6.61-2.17,8.6-4.84.39-.53.69-1.09.88-1.68.07-.21.13-.42.18-.63.41-1.79.03-3.73-.94-5.36Z"/>
    <path class="cls-11" d="m456.16,318.78c-.36.06-.73.12-1.09.17-11.59-25.89-19.7-53.28-24.05-81.34.35-.06.71-.07,1.07-.04,4.36,28.02,12.46,55.37,24.07,81.21Z"/>
    <path class="cls-11" d="m469.57,279.86c-1.27,11.78-1.45,23.63-.7,35.43-.24.06-.47.11-.69.16-.11-1.64-.19-3.29-.26-4.94-.95-22.68,1.66-45.56,8.7-67.19,6.22-19.12,15.85-37.15,28.79-52.55.17.16.32.33.47.51-6.78,8.09-12.66,16.89-17.6,26.22-10.23,19.32-16.36,40.65-18.71,62.35Z"/>
    <path class="cls-11" d="m532.78,222.42c-13.88,18.35-24.94,39.19-32.75,60.81-2.92,8.08-5.36,16.33-7.25,24.69-.26.1-.53.2-.79.3,4.79-21.24,13.02-41.65,23.68-60.63,10.79-19.22,24.01-36.79,40.65-51.25.13.13.26.27.38.41.03.03.05.07.08.1-8.86,7.66-16.93,16.22-24,25.57Z"/>
    <path class="cls-11" d="m599.52,261.4c-.05.21-.11.42-.18.63-7.41-.48-14.85-.35-22.24.57-11.43,1.42-22.67,4.76-32.8,10.29-10.31,5.62-18.57,13.52-25.81,22.63-.53.31-1.06.61-1.6.91,1.84-2.37,3.73-4.71,5.72-6.95,7.67-8.67,16.91-15.53,27.5-20.23,15.61-6.93,32.57-8.93,49.41-7.85Z"/>
  </g>
  <g>
    <path class="cls-1" d="m148.89,360.81c-.49-.12-1.25.15-1.76.27l-3.26.73c-8.06,1.81-16.11,3.62-24.17,5.43.26-.57.52-1.15.78-1.72.04-.08.08-.17.12-.26.49-1.1.99-2.19,1.48-3.29.14-.32-.38-.45-.53-.12l-1.68,3.74-.2.44-.62,1.37c-.81.18-1.62.36-2.43.54-.19.05-.39.09-.58.13-.23.05-.31.26-.24.39.04.09.13.14.28.11.9-.2,1.81-.4,2.72-.61-4.73,10.5-9.45,21-14.18,31.5-1,2.23-2.01,4.46-3.02,6.69-.13.3-.27.6-.4.9-1.6,3.57-3.21,7.14-4.82,10.72-.02.04-.04.08-.05.12-2.35,5.21-4.69,10.42-7.04,15.64-.06.14,0,.35.2.32,4.68-.61,9.33-.97,13.94-1.1.13,0-.59-1.56-.52-1.67,2.82-4.37,5.73-8.59,8.67-12.75,1-1.41,2.01-2.83,3.02-4.24,1.83-2.57,3.67-5.13,5.5-7.7,2.12-2.99,4.23-6,6.3-9.06,1.18-1.74,2.35-3.5,3.51-5.29,4.3-6.67,8.6-13.34,12.9-20.02,1.05-1.63,2.1-3.25,3.15-4.88.53-.81,1.05-1.63,1.58-2.44.56-.88,1.42-1.88,1.77-2.79.2-.53.18-.95-.4-1.09Z"/>
    <path class="cls-1" d="m91.57,375.63c-.49-.14-1.25.12-1.78.23-1.09.21-2.18.44-3.27.65-8.1,1.62-16.19,3.24-24.3,4.86.84-1.74,1.67-3.48,2.5-5.22.16-.32-.37-.46-.52-.13l-2.63,5.49c-1.01.2-2.01.4-3.02.61-.38.07-.36.57.03.49.91-.18,1.82-.36,2.73-.54-4.78,9.97-9.55,19.94-14.32,29.91-1.73,3.6-3.45,7.2-5.17,10.8-.29.6-.58,1.2-.87,1.8-1.07,2.25-2.15,4.5-3.23,6.75-.02.04-.04.08-.06.12-2.47,5.16-4.94,10.31-7.41,15.46-.07.15-.02.35.2.33,2.54-.27,5.05-.46,7.56-.59,2.14-.11,4.28-.17,6.4-.18.13,0-.56-1.57-.48-1.68,2.92-4.3,5.93-8.44,8.96-12.54.14-.19.28-.38.43-.57,2.43-3.26,4.88-6.5,7.32-9.76.34-.45.68-.9,1.01-1.35,3.45-4.62,6.87-9.29,10.19-14.17,3.13-4.62,6.27-9.24,9.42-13.87,1.32-1.95,2.64-3.89,3.96-5.84,1.09-1.6,2.17-3.2,3.27-4.81.54-.8,1.08-1.6,1.63-2.4.59-.86,1.48-1.83,1.84-2.74.21-.53.2-.94-.38-1.11Z"/>
    <path class="cls-4" d="m125.63,397.14c-4.83-.85-10.13.38-14.93,1.07-1.95.28-4.33.22-6.08,1.24-1,2.23-2.01,4.46-3.02,6.69-.13.3-.27.6-.4.9.58.84,1.09,1.78,1.88,2.5,1.09.99,2.22,1.2,3.64,1.46,2.99.53,5.37,1.01,7.8,3.03.02.02.05.04.07.06,1.83-2.57,3.67-5.13,5.5-7.7,2.12-2.99,4.23-6,6.3-9.06-.22-.07-.48-.13-.76-.18Z"/>
    <path class="cls-4" d="m61.2,410.99c-.2-.03-.39-.06-.59-.09-4.43-.63-9.22.4-13.63,1.06-1.73,3.6-3.45,7.2-5.17,10.8-.29.6-.58,1.2-.87,1.8.43.11.87.2,1.34.28,2.16.39,4,.74,5.76,1.67.69.35,1.37.8,2.04,1.36,1.31,1.08,2.36,2.37,3.22,3.79,2.43-3.26,4.88-6.5,7.32-9.76.34-.45.68-.9,1.01-1.35.22-.55.44-1.1.64-1.66,1.18-3.21,3.45-7.11-1.08-7.91Z"/>
    <path class="cls-5" d="m111.78,418.34c-.07,0-.14,0-.21-.01-6.59-.29-9.58-.52-15.24-.44-.14,0-.3,0-.45,0-.3,0-.45,1-1.2,2.36-5.83,7.29-11.58,11.95-19.15,17.42-1.88,1.36-3.8,2.65-5.77,3.87-1.96,1.22-4.04,2.29-5.91,3.66-1.49,1.1-2.87,2.54-3.66,4.18-.73,1.51-.97,3.19-.38,4.96.03.1.11.16.2.19.05.02.11.02.16,0,.38-.07.78-.16,1.21-.24,11.18-2.28,39.53-8.06,44.34-9.04,1.46-.3,3.47-.31,4.15-1.88.4-.93.44-2.06.61-3.05.05-.29.12-1.13.2-2.35.3-4.35.79-13.5,1.32-19.28.01-.14-.05-.35-.21-.36Z"/>
    <path class="cls-5" d="m53.1,432.26c-.07,0-.14-.01-.21-.02-3.32-.22-5.73-.41-8.03-.56-2.25-.14-4.4-.23-7.2-.25-.14,0-.29,0-.44,0-.3,0-.48,1-1.26,2.33-6,7.15-11.86,11.68-19.56,16.96-1.91,1.31-3.86,2.56-5.86,3.73-1.99,1.18-4.1,2.19-5.99,3.52-2.41,1.68-4.53,4.23-4.54,7.17,0,0,0,.02,0,.03,0,.6.09,1.22.28,1.85.05.16.2.23.36.2,6.72-1.2,22.18-3.97,33.43-5.99,5.88-1.05,10.6-1.9,12.33-2.21,1.46-.26,3.48-.22,4.19-1.78.42-.92.49-2.05.68-3.03.07-.37.2-1.67.37-3.52.41-4.66,1.05-12.78,1.66-18.07.02-.14-.04-.35-.2-.36Z"/>
    <path class="cls-3" d="m177.82,285.97c-18.52-7.28-42.97-11.14-50.91-7.28-3.55,1.72-7,3.69-10.09,6.15-3.1,2.47-5.68,5.46-7.91,8.73-4.93,7.19-9.1,14.95-13.52,22.46-4.75,8.08-50.14,88.78-60.4,106.91-.1.18.08.43.29.41,16.02-1.77,24.05-.43,41.31-3.13.12-.02.25-.12.26-.24.39-4.19,1.82-8.22,4.25-11.66,2.41-3.43,5.7-5.85,9.19-8.09,3.25-2.09,6.2-4.55,9.22-7.01,6.8-5.52,6.13-15.86,10.42-21.07,4.99-6.06,13.52-6.7,19.12-12.04,9.71-9.26,3.91-13.48,11.93-23.9,2.59-3.36,5.88-6.07,8.95-8.97,3.04-2.87,5.59-5.99,7.63-9.65,2.07-3.71,3.9-7.55,5.98-11.26,1.94-3.45,3.98-6.85,6.02-10.25,7.09-11.78,19.76-5.6,8.27-10.12Z"/>
    <path class="cls-1" d="m328.79,58.26c-2.21-1.27-4.72-1.59-7.18-1.3-.8-1.44-1.71-2.83-2.66-4.18-1.73-2.44-3.72-4.77-6.29-6.36-9.38-5.8-21.18-.93-26.34,8.09-3.75,3.4-7.49,6.77-9.73,11.33-2.42,4.93-1.33,16.9-.57,24.96.78,8.22,3.53,22.49,5.2,26.45,1.14,2.69,2.95,5.59,5.94,6.43,3.37.95,9.92-.58,13.03-1.93.32,7.7-.4,27.8,2.46,37.49.05.17.24.31.41.2,4.75-2.8,9.49-5.6,14.24-8.4,2.35-1.39,4.77-2.7,7.07-4.17,1.67-1.08.94-2.21.93-4.02-.03-14.91-.04-27.2.85-37.14.81-9.02,5.04-17.25,7.32-25.92,1.83-6.97,2.67-17.31-4.67-21.54Z"/>
    <path class="cls-3" d="m331.31,289.37c-.55-2.77-3.56-4.41-5.66-5.93-2.95-2.14-5.95-4.23-9.02-6.19-2.5-1.59-4.9-2.43-7.83-1.55-3.15.94-6.18,2.66-9.06,4.21-2.05,1.11-4.06,2.29-6.03,3.54-18.97-6.15-37.97-12.27-57.37-16.95-9.85-2.38-19.8-4.38-29.84-5.8-4.86-.69-9.74-1.24-14.63-1.63-4.7-.38-9.54-.81-14.21.06-8.08,1.5-13.45,7.7-17.54,14.4-4.95,8.11-9.21,16.71-13.47,25.19-8.82,17.57-16.92,35.48-25.26,53.27-8.37,17.85-25.29,53.66-25.11,53.69,7.5,1.27,39.73.38,41.59.64,1.37.19,2.8.29,4.12-.22,5.35-2.07,4.89-9.84,5.21-14.42.41-5.8,1.06-5.66,5.16-9.67,3.64-3.56,8.4-6.93,13.03-15.19,2.71-4.84,3.78-10.66,5.6-15.9.9-2.6,2.04-5.13,3.64-7.39,1.82-2.56,4.24-4.48,6.82-6.23,2.26-1.53,4.6-2.98,6.62-4.83.92-.85,1.76-1.78,2.48-2.82.95-1.37,1.69-3.01,3.2-3.85,3.12-1.75,7.7.48,10.79,1.39,3.49,1.03,7,2.02,10.51,2.98,14.14,3.87,52.13,15.34,59.36,16.78,13.06,2.61,18.02.87,24.38-1.46,5.46-2,10.36-8.2,13.8-12.73,3.86-5.09,7.2-10.6,10.04-16.32,2.95-5.93,5.35-12.14,7.14-18.52.41-1.47.8-2.94,1.14-4.42.31-1.33.68-2.76.41-4.13Z"/>
    <path class="cls-2" d="m366,203.03c-.43,7.1-1.72,14.16-3.88,20.95-2.13,6.69-5.21,13-8.12,19.38-.91,2-1.8,4.01-2.64,6.04-.15.35-.3.71-.44,1.07-1.73,4.32-3.17,8.75-3.95,13.36-1.01,6.02-1.02,12.19-2.08,18.2-.08.46-.17.93-.26,1.39-.08.4-.17.81-.27,1.21-.02.11-.05.22-.08.33-.81,3.31-2.1,6.41-3.87,9.32-1.84,3.04-4.03,5.84-5.92,8.85-3.88,6.18-6.53,13.06-7.89,20.22-.03.21-.34.29-.48.13-5.33-6-10.67-12-16.28-17.74-4.99-5.11-10.21-10.01-15.8-14.47-5.74-4.58-11.94-8.34-18.16-12.2-1.63-1.01-4.2-2.04-7.16-3.11-.31-.12-.63-.23-.95-.35-7.71-2.78-17.55-5.93-20.4-10.08-14.26-5.92-10.88-12.07-25.54-16.92-2.3-.76-4.49-1.87-4.22-4.65.34-3.42,1.42-6.93,2.2-10.27,1.69-7.23,17.48-54.76,20.44-60.53,2.73-5.33,6.07-10.45,10.47-14.57,4.9-4.59,10.97-7.23,17.17-9.61,9.15-3.51,15.38-6.48,23.18-8.98.37-.12.74-.23,1.11-.34,2.58-.8,5.33-1.54,8.43-2.24.23.16.48.28.77.37,4.29,1.22,7.93-.65,11.67-2.61,2.23-1.18,3.88-1.5,6.4-1.32,1.75.13,3.27.03,4.82-.5,1.43,1.97,2.99,3.84,4.64,5.63.26.3.53.59.81.87,2.91,3.07,6.11,5.89,9.44,8.52,3.13,2.47,6.37,4.8,9.65,7.07,3.09,2.14,6.3,4.25,8.7,7.19.02.02.03.03.05.05.24.3.48.6.7.92,3.73,5.16,5.24,12.06,6.39,18.17.02.12.05.24.06.37.01.05.02.09.03.14,1.25,6.83,1.66,13.82,1.25,20.76Z"/>
    <path class="cls-2" d="m328.62,137.86c-.58-1.15-1.18-2.29-1.77-3.44-.43-.84-.87-2.24-1.57-2.93-.03-.04-.06-.07-.1-.1-.62-.54-1.39-.35-2.15-.29l-3.95.33c-1.51.13-3.01.25-4.52.38-.07,0-.18.03-.3.08-1.39.51-5.57,3.31-6.95,4.63-.18-.13-.35-.27-.52-.4-.98-.72-1.98-1.42-3-2.1-.93-.61-1.97-1.5-3.02-1.88-.16-.06-.32-.09-.47-.1-1.29-.07-2.27,1.45-3.08,2.33-1.19,1.3-2.26,2.68-3.23,4.14-.16.24-.31.48-.46.72-.11.16-.22.33-.32.5-.08.13-.04.27.05.35-.14.14-.14.42.1.5.12.04.23.07.35.1.83.21,1.64.21,2.52.22,1.36.02,2.68.22,3.99.56.1.03.19.05.29.08,1.03.28,2.04.62,3.05.95.43.14.85.28,1.28.4.18.06.35.11.53.16.37.11.74.21,1.12.3.1.02.19.04.28.06.24.05.47.11.71.15.27.05.54.1.8.14.65.1,1.31.18,1.97.22,3.49.24,7.02-.25,10.37-1.24,1.59-.47,3.15-1.05,4.67-1.72.31-.14.62-.28.93-.43.19-.08.37-.17.55-.26.92-.45,1.8-.68,2.04-1.25.02-.04.04-.09.04-.14.06-.27,0-.6-.22-1.05Z"/>
    <path class="cls-5" d="m154.61,282.42c-10.56,19.38-20.95,38.86-31.17,58.43-.35.66.66,1.25,1,.59,10.22-19.57,20.6-39.05,31.17-58.43.36-.66-.64-1.24-1-.59Z"/>
    <path class="cls-5" d="m196.67,306.67c-.33-3.81-1.93-7.93-1.72-11.71.04-.75-1.12-.74-1.16,0-.21,3.82,1.38,7.88,1.72,11.71.36,4.05.28,8.11-.14,12.16-.08.74,1.09.74,1.16,0,.42-4.05.5-8.1.14-12.16Z"/>
    <path class="cls-5" d="m190.82,312.16c-.05,4.57-.92,8.95-2.62,13.19-.28.69.85.99,1.12.31,1.74-4.35,2.61-8.82,2.66-13.5,0-.75-1.15-.75-1.16,0Z"/>
    <path class="cls-9" d="m329.73,139.85c-2.73,1.6-5.48,3.19-8.21,4.79-2.47,1.44-5.1,3.52-7.79,4.49-3.64,1.31-6.23-4.27-7.67-7.08-2.11,1.45-4.2,3.07-6.42,4.28-1.06.57-2.11,1-3.33.63-2.56-.79-4.13-4.28-5.25-6.96.37-.12.74-.23,1.11-.34,1.31,3.04,3.28,7.01,6.83,5.7,2.38-.87,4.83-3.22,6.95-4.64.24-.16.66-.1.8.17.87,1.62,1.79,3.61,3.05,4.99,3.01,3.3,5.25,1.18,8.11-.48,3.66-2.14,7.32-4.27,10.99-6.41.26.3.53.59.81.87Z"/>
    <path class="cls-9" d="m306.59,142.91c-3.31,12.97-5.68,26.12-7.17,39.42-.57,5.06-1.13,10.2-3.01,14.98-1.64,4.16-4.3,7.78-7.01,11.3-2.82,3.66-5.79,7.32-7.67,11.58-2.34,5.31-2.44,11.14-2.49,16.84-.05,4.75.25,10.17-1.43,14.71-.78,2.11-2.34,3.14-3.85,4.69-1.97,2.03-2.96,4.64-3.5,7.38-.74,3.72-.76,8.17-1.73,12.13-.31-.12-.63-.23-.95-.35,1.48-6.06.54-13.62,4.15-18.56,1.73-2.36,4.2-3.51,5.04-6.53.71-2.53.88-5.24,1-7.85.23-5.08-.1-10.19.61-15.25,1.27-9.17,7.08-15.41,12.26-22.64,3.02-4.21,5.14-8.67,6.19-13.77,1.08-5.22,1.4-10.59,2.11-15.87,1.47-10.96,3.6-21.81,6.34-32.52.19-.73,1.31-.41,1.12.31Z"/>
    <path class="cls-1" d="m305.93,254.7c-.44-.14-1.14-.38-2.04-.68-5.68-1.93-19.32-6.65-24.88-8.02-.48-.12-.9-.21-1.24-.28-.2-.04-.37-.07-.52-.08-3.4-.4-6.76-.13-10.05.9-3.06.96-5.93,2.43-8.66,4.17-3.48,2.22-6.75,4.89-9.93,7.5-.15.13-.18.36-.04.51,2.63,2.75,5.95.24,8.31-1.51,1-.74,2.04-1.41,3.11-2.02,2.38-1.35,4.9-2.36,7.52-3.03-2.28,1.68-4.59,3.33-6.88,5-1.79,1.31-3.57,2.64-5.3,4.03-.33.26-.66.52-.99.79-.89.72-2.1,2.11-.94,3.24,1.18,1.15,3.37.19,4.53-.38.81-.4,2.67-1.44,4.78-2.68,3.51-2.07,7.73-4.72,9.02-5.94.06-.06.35-.02.78.08.33.08.75.21,1.23.36,1.4.44,3.29,1.1,4.84,1.62,2.49.83,4.79,2.26,7.34,2.91,2.28.58,4.8.58,6.79-.89,0,0,.01,0,.02-.01,3,1.22,6.01,3.53,9.12,4.8.84.35,1.68.61,2.54.76.21.04.35-.11.36-.33.2-2.68,1.14-7.74,1.39-10.42.02-.18-.06-.33-.23-.39Z"/>
    <path class="cls-2" d="m373.03,254.83h0c-.1-3.13-.41-6.23-.93-9.31-.28-1.67-.61-3.32-.92-4.97-.13-.69-.27-1.38-.39-2.08-.29-1.61-.57-3.21-.78-4.83-.26-1.93-.43-3.87-.46-5.86-.04-3.14.05-6.26.07-9.38,0-.02,0-.04,0-.06,0-.6,0-1.2,0-1.8,0-1.89-.06-3.78-.19-5.68-.01-.16-.03-.33-.04-.5-.44-5.59-1.33-11.14-2.45-16.63,0-.03-.01-.05-.02-.08-.2-.96-.38-1.92-.56-2.89-.54-2.85-1.03-5.68-1.6-8.51-.02-.04-.02-.09-.03-.14-.35-1.75-.75-3.51-1.19-5.26-.72-2.79-1.63-6.01-3.53-8.35-.88-1.08-1.97-1.97-3.35-2.55-.85-.36-1.72-.56-2.59-.64-.16-.02-.31-.03-.47-.04-1.79-.08-3.57.34-5.24,1.04-1.29.54-2.5,1.25-3.62,2.04-.23.17-.47.34-.71.52l-.12.09c-1.03.77-2.02,1.59-2.99,2.46-2.32,2.07-4.46,4.37-6.41,6.74-.99,1.2-1.93,2.45-2.83,3.72-.32.46-.64.92-.95,1.39-3.99,6.01-6.94,12.69-8.64,19.7-.92,3.81-1.29,7.84-1.68,11.87-.65,6.56-1.39,13.12-4.82,18.76-1.32,2.16-3.04,4.07-5.2,5.41-1.17.72-2.43,1.28-3.71,1.73-1.11.39-2.39.56-3.44,1.06-3.22,1.54-.34,6.38,1.57,8.07-.31,1.37-.61,2.74-.89,4.12-.76,3.67-1.44,7.36-2.03,11.06-.03.15-.05.31-.07.46-.05.33-.1.65-.15.98-.15.98-.29,1.96-.43,2.93-.02.19.08.36.28.37.96.04,1.91.11,2.85.21,1.99.19,3.98.49,5.93.91.24.05.49.11.73.16.58.13,1.15.27,1.73.42,1.55.41,3.09.89,4.6,1.45,2.6.96,5.13,2.12,7.55,3.49,2.16,1.22,4.18,2.78,6.47,3.78,2.45,1.05,5.02.98,7.64,1.04,1.99.04,3.96.29,5.89.74.82.19,1.63.42,2.43.69,1.37.46,2.68,1.03,3.96,1.71,1.05.56,2.06,1.34,3.22,1.68,1.81.51,3.94-.21,5.6-.93,8.96-3.84,12.07-14.01,12.77-22.94.19-2.46.25-4.93.16-7.4Z"/>
    <path class="cls-9" d="m344.63,283.41c-.08.4-.17.81-.27,1.21-1.33-.59-4.09.16-5.3-.02-1.76-.25-3.38-1.01-4.99-1.73-2.54-1.15-4.77-1.97-7.62-1.9-2.06.06-4.13.31-6.12-.36-3.04-1.03-4.91-3.74-6.76-6.19-3.16-4.17-6.73-6.24-11.71-7.79-.71-.22-.41-1.34.31-1.12,4.16,1.29,7.98,2.92,10.84,6.31,3.2,3.81,5.23,8,10.87,8.1,2.4.05,4.64-.31,6.98.38,1.97.59,3.76,1.64,5.67,2.38,2.41.94,4.39.49,6.85.54.48.01.89.06,1.25.19Z"/>
    <path class="cls-9" d="m363.14,261.65c-2.46-1.63-4.92-3.25-7.39-4.86-2.04-1.33-4.05-2.73-6.53-3-2.23-.24-4.42.4-6.64.41-2.68.01-5.21-.8-7.71-1.67-3.81-1.32-7.59-2.8-11.69-2.15-2.59.41-5,1.53-7.58,2-3.36.62-6.71.3-9.97-.67-.72-.22-1.02.9-.31,1.12,4.53,1.36,8.97,1.26,13.48-.07,2.97-.87,5.73-1.72,8.86-1.2,2.07.34,4.06,1.09,6.03,1.78,1.99.7,3.98,1.42,6.06,1.78,2.44.42,4.72-.05,7.15-.17,5.83-.29,11.02,4.64,15.64,7.7.62.41,1.21-.59.59-1Z"/>
    <path class="cls-9" d="m355.51,262.11c-.38-.64-1.39-.06-1,.59,1.24,2.06,2.42,4.12,2.81,6.53.12.74,1.24.42,1.12-.31-.4-2.49-1.64-4.67-2.92-6.8Z"/>
    <path class="cls-6" d="m300.57,273.59c-.12.78-.52,1.72-1.29,1.97-.39.13-34.98-2.66-39.59-3.06-.44-.04-.88-.08-1.34-.12-23.69-2.11-76.26-7.87-79.61-8.39-3.1-.48-6.37-1.29-8.56-3.71-2.06-2.27-17.33-42.67-24.38-62.81-.15-.41-.28-.81-.42-1.2-.6-1.74-1.14-3.3-1.58-4.63-.05-.16.02-.27.13-.33-.24-1.21.97-2.29,2.2-2.55.41-.09,2.61.02,6.09.26,19.76,1.36,80.48,7.12,82.97,7.49.75.11,1.6.18,2.43.31.55.09,1.08.21,1.58.39.71.25,1.36.63,1.85,1.22,1.48,1.76,1.91,4.58,2.59,6.7,0,0,14.88,45.5,18.35,56.24.08.25.15.48.22.68,3.19.59,29.45,4.6,33.65,5.97,2.44.8,5.12,2.58,4.68,5.54Z"/>
    <path class="cls-5" d="m300.48,271.95c-.54-1.99-2.64-3.26-4.59-3.91-2.9-.95-16.27-3.15-25.34-4.61-.37-.06-.73-.12-1.08-.18-3.07-.5-5.54-.9-6.74-1.1-.2-.03-.36-.06-.48-.09-.07-.21-.14-.43-.22-.68-2.23-.04-4.46-.08-6.68-.21-4.28-.23-8.53-.75-12.63-2.09-9.07-2.96-14.27-10.36-19.84-17.58-1.24-1.62-2.53-3.15-3.87-4.58-3.65-3.89-7.75-7.1-12.8-9.47-6.72-3.16-13.95-4.99-20.95-7.41-4.87-1.68-9.73-3.7-13.93-6.65-2.11-1.48-4.06-3.2-5.77-5.22-5.04-5.97-7.66-13.72-13.3-19.15-1.16-.08-2.18-.14-3.03-.19-1.72-.1-2.79-.13-3.06-.07-.72.15-1.43.59-1.84,1.16-.31.41-.46.89-.36,1.39-.11.06-.19.17-.13.33.44,1.33.98,2.89,1.58,4.62.13.39.28.79.42,1.2,7.04,20.14,22.32,60.53,24.38,62.81.39.43.81.81,1.26,1.13.18.14.37.27.55.39,1.99,1.28,4.41,1.82,6.75,2.18,3.34.53,55.74,6.26,79.48,8.38.04,0,.08,0,.12.01.26.02.5.04.75.06.2.02.39.04.58.06,1.2.11,4.43.37,8.56.71.32.02.66.05,1,.08,7.8.63,18.32,1.46,24.61,1.93,3.21.24,5.32.38,5.42.34.77-.26,1.17-1.2,1.29-1.97.09-.59.05-1.14-.09-1.64Z"/>
    <path class="cls-5" d="m338.79,65.51c.02-2.53-1.8-5.56-4.16-6.22,2.85-3.08,1.94-8.43-2.4-10.49-3.6-1.71-8.1-1.68-11.98-1.34-1.1.1-2.34.46-3.44.46-2.25,0-1.57-.59-2.24-1.97-.6-1.23-1.67-2.19-2.82-2.89-6.84-4.17-15.2-.86-20.86,3.58-3.49,2.73-8.16,4.04-10.81,7.72-2.22,3.1-3.02,6.95-3.52,10.66-.02.16-.08.51-.05.62.11.44.45.61.98.39,5.74-2.4,16.63-3.51,21.58,1.62,2.66,2.76,4.24,6.31,5.48,9.88.61,1.75.99,3.91,1.79,5.74,1.33,1.63,3.71,1.52,5.99,2.16,1.79.5,3.24,1.67,4.11,3.32,1.14,2.17.93,4.66,1.21,7.02.42,3.46,1.55,4.42,3.4,6.81.68.88.92,1.76,1.25,2.81.64,2.04.91,1.99,2.4,3.24.55.46.9,1.01,1.11,1.61.22-.17.35-.52.51-.89,2.18-7.01,5.09-13.5,7.26-20.52,1.76-5.69,3.3-11.41,2.72-17.37,1.5-1.55,2.48-3.53,2.5-5.98Z"/>
    <path class="cls-4" d="m311.65,87.83c-.87.35-1.4,1.55-1.72,2.37-.53,1.4-.08,3.18-.82,4.46-.37.65.63,1.23,1,.59.5-.87.49-1.7.54-2.67.03-.64.1-1.26.32-1.87.11-.3.53-1.4.89-1.69.28-.03.51-.28.51-.57,0-.02,0-.04,0-.06,0-.34-.38-.7-.73-.56Z"/>
    <path class="cls-4" d="m315,96.79c-.11.88-.34,1.82-1.06,2.41-.67.55-1.66,1.08-2.52,1.15-.74.05-.75,1.21,0,1.16,1.2-.09,2.48-.72,3.38-1.51.93-.82,1.22-2.02,1.37-3.2.09-.74-1.07-.73-1.16,0Z"/>
    <path class="cls-4" d="m273.81,252.57c-4.29-.06-7.76,2.21-10.83,5-.55.5.27,1.32.82.82,2.85-2.59,6.02-4.72,10.01-4.66.75.01.75-1.15,0-1.16Z"/>
    <path class="cls-4" d="m271.8,247.37c-1.61-.46-3.27-.4-4.83.21-.69.27-.39,1.39.31,1.12,1.38-.54,2.79-.62,4.21-.21.72.21,1.03-.91.31-1.12Z"/>
    <path class="cls-5" d="m203.45,228.46c2.21,1.47,2.91,4.29,1.57,6.3-1.34,2.01-4.21,2.44-6.42.97-2.21-1.47-2.91-4.29-1.57-6.3,1.34-2.01,4.21-2.44,6.42-.97Z"/>
    <path class="cls-9" d="m35.87,453.55c-11.76,2.39-23.4,5.25-35.03,8.55-.5.94-.81,1.97-.83,3.05,0,0,0,.02,0,.03-.02.61.06,1.23.25,1.88.04.16.19.23.36.21,10.26-1.82,20.52-3.63,30.78-5.44.89-.15,1.78-.31,2.67-.47,4.15-.73,8.29-1.46,12.44-2.2,1.46-.26,3.48-.22,4.23-1.77.44-.92.52-2.04.73-3.03.08-.35.17-1.66.19-3.66v-.05c-5.29.88-10.54,1.85-15.77,2.92Z"/>
    <path class="cls-9" d="m110.67,437.97c-17.09,2.85-33.78,6.68-50.49,11.41t-.01,0c-.79,1.49-1.1,3.17-.59,4.95.05.16.2.23.36.21.02,0,.04,0,.06-.01.46-.08.91-.16,1.37-.24,9.78-1.73,19.57-3.46,29.35-5.19,5.04-.89,10.07-1.78,15.11-2.66,1.46-.26,3.48-.22,4.23-1.78.44-.91.51-2.04.73-3.03.07-.36.16-1.68.19-3.71-.1.02-.21.03-.31.05Z"/>
    <path class="cls-5" d="m267.18,271.14c-1.13-2.48-2.23-4.98-3.31-7.48-.29-.68-1.29-.09-1,.59,1.08,2.51,2.18,5,3.31,7.48.31.68,1.31.09,1-.59Z"/>
    <path class="cls-9" d="m337.43,194.15c.15-.73-.97-1.04-1.12-.31-1.57,7.91-2.05,15.93-1.39,23.97.06.74,1.22.75,1.16,0-.65-7.94-.21-15.85,1.34-23.66Z"/>
    <path class="cls-9" d="m332.96,193.87c-.99-3.78-1.32-7.58-1.02-11.47.06-.75-1.1-.74-1.16,0-.3,4,.05,7.9,1.07,11.78.19.72,1.31.42,1.12-.31Z"/>
    <path class="cls-9" d="m255.27,187.67c-2.66,6.76-4.14,13.81-4.44,21.06-.03.75,1.13.75,1.16,0,.3-7.16,1.78-14.09,4.4-20.76.27-.7-.85-1-1.12-.31Z"/>
  </g>
</svg>