<?xml version="1.0" encoding="UTF-8"?>
<svg id="_圖層_1" data-name="圖層 1" xmlns="http://www.w3.org/2000/svg" viewBox="0 0 95.09 32.96">
  <defs>
    <style>
      .cls-1 {
        fill: #00afaa;
      }

      .cls-2 {
        fill: #ed8419;
      }

      .cls-3 {
        fill: #fff;
      }

      .cls-4 {
        fill: #28a59d;
      }
    </style>
  </defs>
  <g>
    <path class="cls-4" d="m91.84,26h-3.07v-1.21h3.07v1.21Zm-3.07-3.73h3.07v1.21h-3.07v-1.21Zm-5.54,10.69l.75-2.9-.6-1.77h-2.55l.6,1.77-.71,2.9h2.51Zm10.06-2.9l.58-1.77h-2.76l-.58,1.77.75,2.9h2.72l-.71-2.9Zm-13.97-10.38h15.17v-1.29h-5.02v-.87h-4.35v.87h-8.62l-.5,14.58h2.88l.44-13.29Zm.99,3.81v1.31h5.24v1.21h-5.12l.41,1.31h4.7v4.34h-.79l.41,1.31h2.55c.28,0,.52-.1.73-.3.21-.2.31-.44.31-.71v-4.64h4.58c.29,0,.54-.1.74-.3.2-.2.3-.44.3-.71v-1.51h.44v-1.31h-.44v-2.52h-5.41l-.21-.81h-3.22v.81h-5.12v1.31h5.12v1.21h-5.24Zm12.42-16.37h-1.45v-1.55h1.45v1.55Zm-1.45-4.42h1.45v1.55h-1.45v-1.55Zm-11.11,13.61V.21l-3.97,2.48v2.34l1.57-.81v12.08h2.4Zm.92-15.41v1.31h.75l-.6,5.99v.28c0,.2.05.38.16.53.1.15.24.28.4.37l-.56,5.81c-.03.3.06.55.27.78.21.22.46.33.77.33h12.16l.41-1.31h-11.33l.64-6.8h-.68l.73-7.3h-3.11Zm13.57.5h-3.38V.45h-3.15v.95h-3v1.29h3v1.55h-3.19v1.31h3.19v1.55h-3v1.29h3v1.01h-3v1.31h3v1.19h-3v1.29h3v1.17h3.15v-1.17h3.28v-1.29h-3.28v-1.19h3.28v-1.31h-3.28v-1.01h2.34c.28,0,.52-.1.73-.29.21-.19.31-.43.31-.72v-1.83h.44v-1.31h-.44V1.4Z"/>
    <path class="cls-4" d="m56.25,19.86h-2.13l.43-1.61h1.7v1.61Zm11.02,3.46h-6.26v-.94h6.26v.94Zm-24.26,5.81h24.26v1.1h-24.26v-1.1Zm4.92-6.76l-1.06,3.65h5.44l1.06-3.65h2.88v1.49c0,.55.2,1.02.59,1.39.39.38.85.57,1.37.57h9.06v1.62h-24.26v-5.07h4.92Zm24.66-4.12v-2.3h-35.36v2.3h11.82l-.47,1.61h-11.23v10.96c0,.52.2.98.59,1.37.39.39.85.59,1.38.59h31.23c.52,0,.98-.2,1.38-.59.39-.39.59-.85.59-1.37v-10.96h-11.62v-1.61h11.7Z"/>
    <path class="cls-4" d="m24.98,19.15h6.64c.56,0,1.04-.19,1.43-.58.39-.39.58-.86.58-1.43V3.08h-11.71V.46h-8.61v2.61H0v27.56c0,.54.19,1,.58,1.41.39.4.86.6,1.43.6h7.93l8.1-13.42-12.18,10.8v-10.89h19.12Zm2.78-9.74H5.87v-3.72h21.9v3.72Zm-21.9,3.84h21.9v3.33H5.87v-3.33Z"/>
  </g>
  <polygon class="cls-1" points="28.1 32.79 14.14 18.7 20.64 18.7 34.6 32.79 28.1 32.79"/>
  <g>
    <path class="cls-1" d="m32.29,25.72c.33-.14.61-.33.86-.57.25-.25.44-.54.59-.87.15-.34.22-.7.22-1.08,0-.76-.26-1.41-.79-1.94-.53-.53-1.17-.79-1.94-.79-.38,0-.74.07-1.08.22-.34.15-.63.34-.87.59-.25.25-.44.53-.57.86-.14.33-.2.68-.2,1.06s.07.74.2,1.08c.14.34.33.63.57.87.25.25.54.44.87.57.34.14.7.2,1.08.2s.74-.07,1.06-.2"/>
    <path class="cls-2" d="m60.38,2.67c-.24,0-.51.06-.81.19-.79.34-1.33,1.06-1.44,1.91-.02.19-.03.39-.01.59.03.37-.24.69-.61.72-.02,0-.04,0-.06,0-.34,0-.63-.26-.66-.61-.03-.3-.02-.59.02-.88.17-1.33,1.01-2.44,2.24-2.97.47-.2.91-.3,1.34-.3.37,0,.67.3.67.67s-.3.67-.67.67m9.4-2.26c-3.21-1.07-4.85,1.02-5.63,1.02s-2.52-2.36-5.63-1.02c-3.58,1.54-4.61,6.66,0,10.24,1.36,1.06,2.81,2.28,4.1,3.07.38.24,1.54,1.02,1.54,1.02,0,0,1.15-.79,1.54-1.02,1.28-.79,3.31-1.93,4.61-3.07,4.1-3.58,2.56-9.22-.51-10.24"/>
  </g>
  <polygon class="cls-3" points="65.5 3.7 62.74 3.7 62.74 6 60.45 6 60.45 8.75 62.74 8.75 62.74 11.04 65.5 11.04 65.5 8.75 67.79 8.75 67.79 6 65.5 6 65.5 3.7"/>
  <path class="cls-1" d="m50.58,12.62c.32.32.71.48,1.16.48s.86-.16,1.17-.48c.32-.32.48-.71.48-1.17s-.16-.84-.48-1.16c-.32-.32-.71-.49-1.17-.49s-.84.16-1.16.49c-.32.32-.49.71-.49,1.16s.16.85.49,1.17m2.61-7.83l.37-1.17h-6.18l.42-1.14h-4.78l-.48,1.28c-.1.24-.07.48.07.7.15.22.35.33.62.33h3.33l-1.19,2.62h-3.2v1.19h2.67l-2,4.4h3.91l2-4.4h4.95v-1.19h-4.42l1.19-2.62h2.71Zm-12.17,8.63V1.66h12.52V.46h-16.31v13.23c0,.24.09.46.27.64.18.18.39.27.65.27h15.18l.37-1.19h-12.67Z"/>
</svg>