<?xml version="1.0" encoding="UTF-8"?>
<svg id="_圖層_2" data-name="圖層 2" xmlns="http://www.w3.org/2000/svg" xmlns:xlink="http://www.w3.org/1999/xlink" viewBox="0 0 250 500">
  <defs>
    <style>
      .cls-1 {
        clip-path: url(#clippath);
      }

      .cls-2 {
        fill: #f86d4d;
      }

      .cls-3 {
        fill: #faaf70;
      }

      .cls-4 {
        fill: #ffbf42;
      }

      .cls-5 {
        fill: #ba595a;
      }

      .cls-6 {
        fill: #d5200f;
      }

      .cls-7 {
        fill: #d1d3d4;
      }

      .cls-8 {
        fill: #e08b43;
      }

      .cls-9 {
        fill: #246896;
      }

      .cls-10 {
        fill: #1f2144;
      }

      .cls-11 {
        fill: #129687;
      }

      .cls-12 {
        fill: #0e786c;
      }

      .cls-13 {
        fill: #93b470;
      }

      .cls-14 {
        fill: #779968;
      }

      .cls-15 {
        fill: #4e705b;
      }
    </style>
    <clipPath id="clippath">
      <path class="cls-13" d="m113.31,236.59c1.34-8.19,2.79-11.02-1.35-18.2-4.14-7.18-38.32-29.9-45.27-24.4-6.96,5.5-14.37,31.25-2.51,48.8,11.86,17.55,27.24,29.91,27.24,36.26,0,6.35-6.24,9.23-3.77,11.7,2.47,2.47,42.38,17.88,44.55,17.88,2.17,0,9.86-24.4,4.68-38.27-5.18-13.87-23.56-33.77-23.56-33.77Z"/>
    </clipPath>
  </defs>
  <path class="cls-4" d="m151.19,461.5c3.19,4.56,4.11,9.42,4.47,9.63.36.21,20.68-3.5,20.68-3.5,0,0-6.77-7.27-8.19-11.11-1.42-3.84-16.96,4.99-16.96,4.99Z"/>
  <path class="cls-4" d="m67.46,442.14c-4.19,6.1-7.27,8.44-7.27,8.44,0,0,10.65,12.88,12.95,12.88s2.42-2.44,2.42-2.44l2.52-10.61-10.63-8.27Z"/>
  <path class="cls-10" d="m135.48,301.93c0,25.25-.69,60.38-17.98,96.44-11.41,23.79-34.05,56.39-39.63,55.36-8.29-1.54-13.52-9.55-13.52-13.06s26.15-75.39,27.9-84.91c1.75-9.53,7.18-61,8.52-59.66,1.34,1.34,34.7,5.83,34.7,5.83Z"/>
  <g>
    <path class="cls-5" d="m63.65,448.02c-.6-1.82-2.88-2.4-4.27-1.08-4.46,4.22-12.37,11.84-12.55,13.06-.26,1.71,16.13,17.03,21.48,20.37,4.01,2.51,19.2,4.41,19.82,3.64.62-.77,4.64-5.85,1.32-9.5-2.41-2.65-12.33-4.86-12.33-4.86l-.04-11.67c-.14-1.11-2.52-.84-3.47-1.43l-3.19.24c-3.16-1.98-5.53-5.01-6.69-8.56l-.07-.22Z"/>
    <path class="cls-7" d="m89.44,474.51c-.76-.83-2.26-1.62-3.95-2.31-2.94,1.41-5.72,4.52-5.72,4.52l-10.36-1.58c-3.25-1.93-17.25-17.15-18.96-19.48-2.04,2.11-3.54,3.81-3.62,4.34-.26,1.71,16.13,17.03,21.48,20.37,4.01,2.51,19.2,4.41,19.82,3.64.62-.77,4.64-5.85,1.32-9.5Z"/>
    <path class="cls-7" d="m76.95,462.47c-.53-.55-1.36-.54-2.08-.65-.78-.11-1.57-.23-2.35-.32-1.27-.13-1.55,1.71-.3,1.96.83.16,1.66.29,2.5.42.82.13,1.46.29,2.2-.13.51-.28.34-.96.03-1.29Z"/>
    <path class="cls-7" d="m77.59,466.87c-.6-.51-1.41-.6-2.16-.71-.78-.12-1.59-.2-2.38-.14-.96.07-.9,1.44-.03,1.63.7.15,1.42.23,2.12.37.68.13,1.35.4,2.04.27.67-.13.95-.95.41-1.42Z"/>
  </g>
  <g>
    <path class="cls-6" d="m153.34,189.97c18.83-1.9,34.17,6.58,33.06,29.95-1.11,23.37-40.8,64.08-51.3,62.32-10.5-1.76-43-56.26-32.33-79.32,10.67-23.06,37.25-18.4,41.25-16.84,4,1.55,9.33,3.89,9.33,3.89Z"/>
    <path class="cls-2" d="m170.86,207.32c.18-.96-.21-2.06.34-2.92.32-.52.88-.62,1.42-.39,1.34.57,1.36,2.67,1.2,3.88-.18,1.34-.77,3.32-2.41,3.32-.58,0-.95-.37-1.16-.87-.42-.99.44-2.05.62-3.03Z"/>
    <path class="cls-2" d="m164.61,229.17c.26-.58.45-1.11.48-1.75.02-.45.04-.9.07-1.35.02-.24.04-.48.07-.72,0-.09.02-.18.04-.27-.1-.36,0-.83.26-1.06.05-.04.1-.09.16-.13.54-.45,1.32-.56,1.86-.02.97.97.8,3.13.64,4.39-.2,1.59-1.11,2.88-2.85,2.65-.84-.11-1.01-1.14-.73-1.76Z"/>
    <path class="cls-2" d="m147.37,225.51c.14-.6.3-1.38.33-2-.27-.67.11-1.6,1.01-1.59,1.58.01,1.8,1.72,1.75,2.97-.05,1.39-.28,3.48-1.66,4.19-.7.37-1.66.09-1.87-.74-.25-.99.2-1.87.43-2.83Z"/>
    <path class="cls-2" d="m129.06,222.4c.41-1.16,1.05-2.42,2.38-2.57.46-.05,1,.37,1.09.82.22,1.08-.53,2.06-.64,3.14-.07.65,0,1.35-.5,1.86-.48.49-1.18.63-1.79.29-1.22-.67-.93-2.43-.54-3.53Z"/>
    <path class="cls-2" d="m121.18,204.43c.36-.93.82-1.89,1.67-2.46,0,.02,0,.03,0,.05.76-.4,1.97,0,1.79,1.3-.1.71-.54,1.42-.77,2.1-.25.73-.37,1.54-.81,2.18-.58.85-1.88.77-2.21-.27-.31-.96-.02-1.99.33-2.9Z"/>
    <path class="cls-2" d="m114.62,220.26c.08-1.09.19-2.26.52-3.31.44-1.4,2.22-1.02,2.41.3.13.92.07,1.88.01,2.81-.05.83.08,1.75-.16,2.55-.26.86-1.36,1.21-2.02.55-.78-.78-.83-1.85-.75-2.9Z"/>
    <path class="cls-2" d="m130.25,235.89c.51-1.11,2.2-.54,2.22.58.02,1.04-.12,2.07-.09,3.11.03,1.05.15,1.91-.26,2.91-.27.64-1.3.73-1.74.24-1.49-1.68-1.01-4.94-.13-6.84Z"/>
    <path class="cls-2" d="m152.13,246.31c.2-.92.87-1.69,1.31-2.5.37-.67.65-1.38.92-2.1,0-.13.04-.26.12-.37.02-.03.05-.06.07-.1.45-.61,1.31-.88,1.91-.26.98,1,.3,2.64-.17,3.74-.53,1.28-1.28,2.58-2.62,3.11-.94.37-1.73-.67-1.54-1.52Z"/>
    <path class="cls-2" d="m151.7,261.61c.48-1.11,1.52-1.94,2.38-2.74.88-.82,1.79-1.65,2.79-2.32.89-.6,2.16.59,1.53,1.5-.72,1.04-1.6,1.99-2.47,2.9-.88.92-1.72,1.85-2.91,2.35-1.04.44-1.67-.89-1.32-1.69Z"/>
    <path class="cls-2" d="m121.66,252.61c.49-1.23,2.12-1.05,2.29.29.1.81.17,1.59.46,2.36.33.88.83,1.4.69,2.39-.1.7-.92.99-1.51.88-1.15-.21-1.72-1.6-1.99-2.62-.28-1.07-.35-2.26.07-3.3Z"/>
    <g>
      <path class="cls-12" d="m166.51,185.87c-2.41-1.36-13.14,3.52-13.85,2.32s-16.74-9.46-17.06-7.47,9.36,7.74,6.91,8.36c-2.45.62-9.47,8.58-11.66,9.47-2.18.88,8.5,3.93,11.62.75,3.12-3.18,4.15-3.49,4.15-3.49,0,0,5.29,10.93,7.03,11.91,1.74.98.28-14.56,2.58-13.26,2.31,1.3,14.52,5.7,13.83,3.52-.68-2.18-9.02-6.91-9.03-7.55s5.46-4.56,5.46-4.56Z"/>
      <path class="cls-12" d="m152.5,192.04c4.25-7.52,2.25-19.39.1-18.12-2.16,1.27-2.63,2.88-3.07,5.01-.44,2.13-2.43,10.11-2.43,10.11l5.4,3Z"/>
    </g>
    <g>
      <path class="cls-11" d="m153.81,189.21c1.31-.17,2.98.42,4.2.9,1.01.4,2.44,1.01,2.64,2.19.11.68-.38,1.16-1.05,1.05-.53-.09-.85-.4-1.3-.67-.5-.3-1.03-.48-1.59-.65-1.11-.34-2.4-.43-3.37-1.1-.79-.55-.44-1.6.46-1.72Z"/>
      <path class="cls-11" d="m150.51,190.68c.88,1.92,1.75,4.51,1.76,6.63,0,.86-1.21,1.21-1.64.44-1.03-1.85-1.57-4.54-1.74-6.64-.07-.84,1.27-1.22,1.62-.44Z"/>
      <path class="cls-11" d="m139.01,193.82c.85-.7,1.96-1.04,2.9-1.63.98-.61,1.86-1.34,2.78-2.03.7-.53,1.74.52,1.22,1.22-.76,1.02-1.71,1.85-2.77,2.55-1,.65-2.26,1.41-3.48,1.45-.74.02-1.27-1.05-.64-1.55Z"/>
    </g>
  </g>
  <path class="cls-3" d="m74.09,183.39c0,5.28-5.31,12.36-5.31,12.36,0,0,13.85,10.9,15.32,9.43.6-.6,2.64-10.54,3.17-11.46.53-.91-13.18-10.33-13.18-10.33Z"/>
  <g>
    <path class="cls-13" d="m113.31,236.59c1.34-8.19,2.79-11.02-1.35-18.2-4.14-7.18-38.32-29.9-45.27-24.4-6.96,5.5-14.37,31.25-2.51,48.8,11.86,17.55,27.24,29.91,27.24,36.26,0,6.35-6.24,9.23-3.77,11.7,2.47,2.47,42.38,17.88,44.55,17.88,2.17,0,9.86-24.4,4.68-38.27-5.18-13.87-23.56-33.77-23.56-33.77Z"/>
    <g class="cls-1">
      <g>
        <path class="cls-14" d="m80.82,276.53c5.44-1.71,11.2-4.25,17-4.11,5.61.14,10.62,2.85,15.76,4.78,2.8,1.06,5.67,1.87,8.68,1.9,3.12.02,6.21-.6,9.32-.19,4.68.63,9.02,3.28,11.52,7.31.48.77-.68,1.71-1.28.98-3.6-4.36-8.24-6.58-13.92-6.3-2.78.14-5.51.55-8.29.19-2.41-.31-4.72-1.04-6.98-1.9-4.67-1.77-9.32-4.29-14.41-4.51-5.94-.26-11.14,2.81-16.81,3.98-1.39.29-1.96-1.7-.59-2.13Z"/>
        <path class="cls-14" d="m71.86,264.73c2.74-3.94,8.69-5.84,13.2-6.47,6.02-.84,12.13.31,17.82,2.31,2.83.99,5.66,2.41,8.7,2.6,3.12.2,6.14-.86,9.2-1.25,6.15-.77,11.94,1.68,17.36,4.31,1.19.58.15,2.24-1.02,1.74-5.8-2.47-11.37-4.75-17.79-3.51-2.41.47-4.83,1.12-7.31,1.07-2.55-.05-4.95-.87-7.32-1.76-5.25-1.96-10.63-3.54-16.3-3.39-2.77.07-5.55.57-8.15,1.57-2.66,1.03-4.58,2.77-6.97,4.2-.86.51-2.04-.55-1.43-1.43Z"/>
        <path class="cls-14" d="m61.64,244.1c5.23.48,9.22-3.96,14.33-4.4,5.14-.45,9.51,2.84,14.3,4.05,5.74,1.44,10.67-2.23,16.26-2.68,2.87-.23,5.64.53,8.36,1.36,3.26,1,6.53,1.98,9.74,3.11,1.19.42.72,2.24-.53,1.91-5.88-1.57-12.71-5.15-18.9-3.93-5.06,1-9.51,3.73-14.82,2.65-4.89-1-9.46-4.74-14.62-4.07-5.01.64-8.83,4.98-14.13,4.36-1.47-.17-1.52-2.48,0-2.34Z"/>
        <path class="cls-14" d="m47.66,220.83c6.37,2.3,12.76-1.38,19.07-2.18,2.68-.34,5.31-.14,7.84.84,2.88,1.11,5.4,2.97,8.29,4.05,3.94,1.47,7.22-.01,10.98-1.22,2.95-.95,6.05-1.45,9.15-1.52,6.36-.13,13.13,1.57,18.36,5.28.96.68.12,2.19-.93,1.6-6.17-3.45-12.75-5.34-19.87-4.56-6.57.72-12.33,5.04-18.95,2.33-2.74-1.12-5.19-2.87-7.97-3.89-3.17-1.17-6.4-.85-9.62-.1-5.55,1.29-11.29,3.68-16.95,1.56-1.36-.51-.79-2.71.61-2.21Z"/>
        <path class="cls-14" d="m47.43,207.23c1.47-1.8,4.83-2.09,6.98-2.31,3.07-.32,6.19,0,9.18.74,3.36.84,6.35,2.58,9.65,3.56,3.84,1.13,6.67-.45,10.22-1.6,2.78-.89,5.71-1.36,8.63-1.43,6.12-.13,12.28,1.51,17.38,4.93.95.64.11,2.14-.91,1.56-4.56-2.63-9.56-4.26-14.85-4.38-2.6-.06-5.21.21-7.74.85-2.4.61-4.6,1.77-6.98,2.4-4.77,1.26-8.8-1.3-13.14-2.84-2.59-.92-5.31-1.51-8.06-1.62-1.45-.06-2.91,0-4.34.24-.66.11-4.37,1.48-4.62,1.29.87.66.38,1.98-.75,1.77-1.63-.3-1.55-2.05-.66-3.15Z"/>
        <path class="cls-14" d="m53.72,192.45c5.31-2.3,10.73,2.09,15.67,3.46,3.1.86,5.78-.25,8.85-.19,2.73.05,5.41.92,7.89,2.01.95.42.27,1.94-.7,1.66-3-.88-5.84-1.96-9.03-1.5-2.15.31-4.09.77-6.28.38-2.31-.42-4.44-1.45-6.57-2.39-3.21-1.41-5.86-2-9.37-1.73-.87.07-1.29-1.34-.46-1.7Z"/>
      </g>
    </g>
  </g>
  <path class="cls-10" d="m90.32,283.55c-15.34,19.89-13.94,27.09-8.26,52.49,5.68,25.4,63.84,124,66.51,126.67,2.67,2.67,21.22-.29,23.09-3.52,1.86-3.23-42.25-133.16-43.81-135.85-1.55-2.69,9.25-15.55,10.19-27.56.27-3.47-47.72-12.23-47.72-12.23Z"/>
  <g>
    <path class="cls-3" d="m73.06,184.58c4.77,4.77,12.61,11.72,21.41,12.25,7.67.46,16.81-37.8,3.8-43.63-13.01-5.83-25.37-6.76-29.41,2.22-4.04,8.98,1.51,21.29,1.51,21.29l2.69,7.86Z"/>
    <path class="cls-5" d="m106.55,156.43c-3.22,5.76-16.97,6.09-20.29,7.92-3.32,1.83-1.92,15.17,3.59,19.04,0,0-3.33,4.96-19.23,4.45-15.71-.5-16.46-12.66-16.04-12.92,3.97-2.43,7.6-2.33,8.4-7.27s1.6-15.62,7.64-19.83c4.67-3.26,21.67-3.99,25.61-1.51,3.94,2.48,4.32,2.58,7.95,3.63,3.63,1.05,2.76,5.79,2.37,6.48Z"/>
    <path class="cls-5" d="m105.85,157.24c1.1,5.49-16,11.64-20.88,9.04-4.89-2.6-1.5-9.68-1.5-9.68l22.39.64Z"/>
    <path class="cls-3" d="m79.14,169.27c-.8,2.77.8,5.66,3.57,6.46,2.77.8,5.66-.8,6.46-3.57.8-2.77-.8-5.66-3.57-6.46-2.77-.8-5.66.8-6.46,3.57Z"/>
    <path class="cls-2" d="m88.08,158.52c2.19.32,4.42.34,6.13-1.28,1.37-1.3,1.46-2.9,2.21-4.49.29-.62,1.16-.37,1.35.18.78,2.23-1.02,4.97-2.73,6.29-2.13,1.65-5.21,2.19-7.61.85-.89-.5-.24-1.66.65-1.53Z"/>
    <path class="cls-2" d="m58.03,175.75c1.2-.13,2.26-.17,3.25-.98.85-.7,1-1.95,1.87-2.54.33-.22.73-.04.93.24.96,1.31-.79,3.33-1.79,4.09-1.29.98-3.18,1.57-4.7.78-.82-.43-.34-1.51.43-1.59Z"/>
    <path class="cls-2" d="m64.62,179.08c1.61-.47,4.51-.54,4.16-2.97-.12-.86.91-1.39,1.44-.61.84,1.24.25,2.93-.75,3.9-1.17,1.13-3.04,1.55-4.62,1.4-.95-.09-1.23-1.43-.23-1.72Z"/>
    <path class="cls-2" d="m73.3,152.1c1.1-1,3.55-2.53,5.03-1.61.33.21.49.77.14,1.05-.54.44-1.09.45-1.75.67-.77.26-1.47.69-2.07,1.24-1.17,1.07-1.83,2.5-2.08,4.05-.15.9-1.49.63-1.53-.21-.1-1.99.8-3.86,2.26-5.19Z"/>
    <path class="cls-3" d="m104.02,176.86c1.3,2.25,3.43,3.1,3.43,3.85,0,.75-5.19,2.68-5.19,1.64,0-1.04,1.76-5.49,1.76-5.49Z"/>
    <path class="cls-8" d="m80.5,169.98c.51-2.2,2.84-3.25,4.84-2.33.55.25.15,1.09-.4.95-1.18-.3-2.45.14-2.95,1.24.65-.21,1.45.02,2.04.3.6.29.18,1.31-.46,1.09-.28-.1-.55-.16-.84-.17-.31-.02-.61.05-.91-.04.2,1.03,1.49,1.33,2.49,1.62.76.23.65,1.48-.19,1.43-1.13-.07-2.22-.64-3.03-1.41-.76-.72-.82-1.69-.58-2.68Z"/>
    <path class="cls-5" d="m82.83,169.09c2.33-.19,4.64.17,6.91-.58,2.61-.86,4.1-2.8,5.71-4.88.45-.58,1.34-.1,1,.59-2.57,5.29-8.22,7.18-13.79,6.13-.75-.14-.5-1.2.17-1.26Z"/>
  </g>
  <path class="cls-3" d="m175.92,243.75c-8.77,10.78-49.41,21.51-56.18,20-6.77-1.5-55.64-40.22-52.92-51.25,2.72-11.03,9.87-8.98,14.04-6.57,4.17,2.41,45.53,38.8,45.53,38.8,0,0,39.89-7.32,43.4-7.32s6.13,6.33,6.13,6.33Z"/>
  <path class="cls-3" d="m186.76,234.6c-2.01,5.68-11.95,10.61-11.95,10.61l-9.41-5.91s4.98-12.22,4.98-16.23,3.21-11.64,4.43-9.53.08,12.32,1.27,14.37c1.19,2.06,12.18-3.18,12.18-1.67s-1.5,8.36-1.5,8.36Z"/>
  <path class="cls-13" d="m100.48,214.38c0,10.28-13.1,26.68-20.68,22.31-7.58-4.37-20.8-25.21-14.16-31.85,6.64-6.64,16.71-4.09,23.79,0,7.08,4.09,11.05,9.54,11.05,9.54Z"/>
  <g>
    <path class="cls-5" d="m150.53,469.18c.96,8.1-.25,13.87.66,14.75.92.88,45.45-.66,48.35-.75,4.93-.15,4.45-8.22.96-8.68-3.49-.46-9.86-2.99-16.35-5.82-6.5-2.82-6.18-9.72-9.86-8.15-3.68,1.57-4.89,6.88-11.49,7.31-5.82.38-12.93-4.23-12.26,1.34Z"/>
    <path class="cls-7" d="m199.54,483.17c4.93-.15,4.45-8.22.96-8.68-1.4-.18-3.27-.7-5.41-1.44-1.03,1.69-2.97,4.75-3.85,5.28-1,.6-29.55.82-40.36.89-.07,2.59-.15,4.27.31,4.71.92.88,45.45-.66,48.35-.75Z"/>
    <path class="cls-7" d="m180.43,466.52c-.47.35-.91.74-1.36,1.12-.45.37-.91.71-1.18,1.23-.28.54.21,1.18.81,1.01.57-.17.99-.54,1.45-.91.46-.37.93-.72,1.37-1.11.73-.64-.29-1.94-1.08-1.35Z"/>
    <path class="cls-7" d="m187.37,469.96c-.32-.3-.97-.36-1.27.03-.55.73-1.18,1.45-1.64,2.24-.47.83.65,1.61,1.31.97.6-.59,1.1-1.31,1.62-1.97.3-.38.35-.91-.03-1.27Z"/>
  </g>
  <path class="cls-15" d="m68.22,219.57c2.96,7.09,7.77,12.81,13.92,17.35.6.44.06,1.44-.6,1.02-6.63-4.29-11.65-10.75-14.67-17.99-.35-.83,1.01-1.19,1.35-.37Z"/>
  <path class="cls-15" d="m92.07,205.53c2.28,3.03,5.1,6.14,6.83,9.51.26.5-.37,1.02-.79.61-2.78-2.68-4.95-6.32-7.24-9.42-.53-.72.67-1.4,1.19-.7Z"/>
  <path class="cls-15" d="m93.87,274.9c3.93.32,7.58.52,11.52.18.64-.05.77.98.15,1.11-3.77.82-8.1.93-11.84-.08-.65-.18-.55-1.27.16-1.21Z"/>
  <path class="cls-15" d="m94.02,278.5c1.65.33,3.23.97,4.9,1.29,1.87.37,3.75.46,5.65.56.68.04.66.98,0,1.05-3.46.34-7.92-.12-10.96-1.93-.54-.32-.17-1.09.41-.98Z"/>
  <path class="cls-9" d="m115.67,306.24c2.14,1.18,3.85,3.37,5.44,5.2,1.74,2.01,3.36,4.13,4.83,6.34.1.16.21.31.31.47.44-.75.97-1.46,1.42-2.18.98-1.56,1.94-3.13,2.97-4.66.4-.59.85-1.58,1.74-1.43.5.08.8.46.77.95,0,.16-.06.28-.14.38-.57,1.52-1.6,2.93-2.44,4.31-.9,1.49-1.74,3.43-2.96,4.77,2.23,3.69,4.14,7.69,5.08,11.86.17.74-.93,1.31-1.3.55-2.22-4.65-4.21-9.31-7.07-13.62-1.44-2.18-3.03-4.26-4.75-6.22-1.63-1.87-3.72-3.48-5.12-5.52-.53-.77.48-1.63,1.22-1.22Z"/>
  <path class="cls-9" d="m89.07,289.27c3.69-1.24,8.18.68,11.77,1.6,4.32,1.11,8.64,2.25,12.95,3.41,4.31,1.16,8.61,2.35,12.9,3.58,2.23.63,4.45,1.27,6.67,1.95,1.3.4,2.5.58,3.28,1.76.21.31.15.86-.14,1.1-.09.08-.19.16-.28.23-.4.34-.93.19-1.11-.29-.33-.86-5.15-1.6-6.12-1.87-1.91-.53-3.82-1.06-5.74-1.58-3.67-1-7.34-1.99-11.02-2.96-3.68-.97-7.36-1.92-11.05-2.85-3.92-.99-7.75-2.26-11.83-1.98-1.26.09-1.38-1.74-.28-2.11Z"/>
  <path class="cls-9" d="m94.82,360.82c1.46,7.49,5.89,13.93,9.66,20.42,3.97,6.85,8.51,13.62,11.8,20.83.44.97-.79,1.69-1.42.83-4.85-6.66-8.67-14.25-12.85-21.35-3.73-6.34-8.08-12.76-9.43-20.12-.27-1.45,1.94-2.08,2.23-.61Z"/>
  <path class="cls-9" d="m127.15,391.95c3.67,10.79,7.79,21.21,13.59,31.06,5.78,9.81,12.82,18.65,20.6,26.94.72.77-.4,1.89-1.16,1.16-8.25-7.96-15.26-17.28-21.08-27.14-5.78-9.79-10.78-20.52-13.56-31.58-.26-1.04,1.26-1.44,1.6-.44Z"/>
  <path class="cls-14" d="m80.2,229.54c2.89-2.1,5.6-4.02,8.01-6.69,1.03-1.14,2.02-2.33,2.97-3.54.97-1.23,2.61-2.81,3.12-4.31.14-.41.64-.69,1.04-.42.08.05.16.11.25.16.32.21.6.67.44,1.07-1.23,2.99-3.83,5.89-5.9,8.35-2.4,2.84-5.33,5.81-8.77,7.35-1.34.6-2.35-1.1-1.15-1.97Z"/>
</svg>