<?xml version="1.0" encoding="UTF-8"?>
<svg id="_圖層_2" data-name="圖層 2" xmlns="http://www.w3.org/2000/svg" xmlns:xlink="http://www.w3.org/1999/xlink" viewBox="0 0 250 500">
  <defs>
    <style>
      .cls-1 {
        fill: none;
      }

      .cls-2 {
        clip-path: url(#clippath);
      }

      .cls-3 {
        fill: #faaf70;
      }

      .cls-4 {
        fill: #fef1c1;
      }

      .cls-5 {
        fill: #feeca8;
      }

      .cls-6 {
        fill: #b3472d;
      }

      .cls-7 {
        fill: #d1d3d4;
      }

      .cls-8 {
        fill: #e08b43;
      }

      .cls-9 {
        fill: #17405c;
      }

      .cls-10 {
        fill: #16405c;
      }

      .cls-11 {
        fill: #1f2144;
      }

      .cls-12 {
        fill: #129687;
      }

      .cls-13 {
        fill: #0e7367;
      }

      .cls-14 {
        fill: #194969;
      }

      .cls-15 {
        fill: #93b470;
      }

      .cls-16 {
        fill: #8a3723;
      }

      .cls-17 {
        fill: #2773a6;
      }

      .cls-18 {
        fill: #779968;
      }

      .cls-19 {
        clip-path: url(#clippath-1);
      }
    </style>
    <clipPath id="clippath">
      <path class="cls-10" d="m93.85,310.72c5.74,27.88-6.6,88.91-12.17,102.29-5.57,13.38-46.58,64.16-49.21,64.16s-11.46-10.02-14.59-18.68c-3.13-8.65,33.45-61.92,33.45-67.49,0-1.08,5.25-70.15,8.97-72.29,3.72-2.15,33.54-7.99,33.54-7.99Z"/>
    </clipPath>
    <clipPath id="clippath-1">
      <path class="cls-1" d="m39.33,308.55c-1,8.05-7.02,21.64-2.08,37.96,2.14,7.09,46.38,59.57,49.2,64.45,2.82,4.89,34.67,68.55,39.39,68.55s21.42-7.48,19.85-14.56c-1.57-7.08-29-73.13-33.7-81.27-4.7-8.14-23-44.05-23-47.86s-1.65-14.49-1.65-14.49l-48.02-12.8Z"/>
    </clipPath>
  </defs>
  <g>
    <path class="cls-3" d="m22.86,460.39c-5.8,7.9-8.14,9.49-8.14,9.49l11.04,11.65,4.6-10.57-7.5-10.57Z"/>
    <g>
      <path class="cls-10" d="m93.85,310.72c5.74,27.88-6.6,88.91-12.17,102.29-5.57,13.38-46.58,64.16-49.21,64.16s-11.46-10.02-14.59-18.68c-3.13-8.65,33.45-61.92,33.45-67.49,0-1.08,5.25-70.15,8.97-72.29,3.72-2.15,33.54-7.99,33.54-7.99Z"/>
      <g class="cls-2">
        <g>
          <path class="cls-17" d="m59.73,466.56c-1.24-1.45-3.09-2.31-4.68-3.32-1.73-1.09-3.46-2.19-5.17-3.32-3.39-2.23-6.71-4.57-9.85-7.14-3.01-2.47-5.84-5.15-8.43-8.06-1.39-1.57-2.69-3.21-3.87-4.94-1.05-1.54-1.87-3.31-3.19-4.63-1-1.01-2.46.05-2.23,1.3.65,3.6,3.79,7.16,6.05,9.93,2.69,3.31,5.82,6.25,9.11,8.96,3.17,2.61,6.51,5.02,9.92,7.31,1.7,1.14,3.43,2.24,5.16,3.33,1.79,1.12,3.64,2.59,5.71,3.08,1.51.36,2.41-1.38,1.46-2.5Z"/>
          <path class="cls-17" d="m80.06,443.92c-3.28-2.81-7.41-4.66-11.06-6.94-3.82-2.39-7.55-4.93-11.17-7.61-7.38-5.47-14.11-11.56-20.84-17.8-1.42-1.31-3.36.67-2.1,2.1,6.01,6.87,13.08,12.96,20.36,18.45,3.6,2.71,7.31,5.28,11.11,7.7,3.8,2.42,7.87,5.35,12.27,6.55,1.35.37,2.58-1.47,1.43-2.46Z"/>
          <path class="cls-17" d="m86.08,414.64c-2.78-2.26-6.09-3.87-9.14-5.73-3.21-1.95-6.35-4.02-9.44-6.16-6.29-4.36-12.42-9.02-18.23-14-1.32-1.13-3.22.7-1.94,1.94,5.54,5.33,11.34,10.26,17.59,14.74,3.05,2.19,6.19,4.26,9.39,6.24,3.26,2.03,6.62,4.3,10.31,5.46,1.36.43,2.64-1.54,1.46-2.5Z"/>
        </g>
      </g>
    </g>
    <g>
      <path class="cls-12" d="m20.06,465.3c-.58-1.75-2.78-2.31-4.12-1.05-4.31,4.07-11.93,11.42-12.11,12.6-.25,1.65,15.56,16.43,20.72,19.65,3.87,2.42,18.52,4.26,19.12,3.51.6-.75,4.48-5.64,1.28-9.17-2.32-2.56-11.9-4.69-11.9-4.69l-.04-11.26c-.13-1.07-2.43-.81-3.34-1.38l-3.08.24c-3.05-1.91-5.33-4.83-6.46-8.25l-.07-.21Z"/>
      <path class="cls-7" d="m44.94,490.86c-.73-.8-2.18-1.57-3.82-2.23-2.84,1.36-5.52,4.36-5.52,4.36l-9.99-1.52c-3.13-1.86-6.4-4.84-9.34-7.96.33.09.7.03.99-.29,3.04-3.32,2.7-12.26-2.53-13.33-.84-.17-1.11,1.03-.41,1.39,3.35,1.72,3.78,8.08,1.42,10.71-.2.23-.27.47-.24.69-3.53-3.83-6.53-7.75-8.17-10-1.97,2.03-3.42,3.68-3.49,4.18-.25,1.65,15.56,16.43,20.72,19.65,3.87,2.42,18.52,4.26,19.12,3.51.6-.75,4.48-5.64,1.28-9.17Z"/>
      <path class="cls-7" d="m32.89,479.23c-.51-.53-1.31-.53-2-.62-.76-.11-1.51-.22-2.27-.3-1.22-.13-1.5,1.65-.29,1.89.8.16,1.61.28,2.41.41.79.12,1.41.28,2.12-.12.49-.27.33-.93.03-1.24Z"/>
      <path class="cls-7" d="m33.5,483.48c-.57-.5-1.36-.57-2.09-.69-.76-.12-1.53-.19-2.29-.13-.93.07-.87,1.39-.03,1.57.68.15,1.37.22,2.05.35.65.13,1.3.39,1.97.26.65-.12.92-.92.39-1.37Z"/>
    </g>
  </g>
  <path class="cls-3" d="m128.04,476.28c1.93,7.08,2.18,9.98,2.18,9.98l19.1-8.84-7.13-8.01-14.15,6.88Z"/>
  <path class="cls-14" d="m39.33,308.55c-1,8.05-7.02,21.64-2.08,37.96,2.14,7.09,46.38,59.57,49.2,64.45,2.82,4.89,34.67,68.55,39.39,68.55s21.42-7.48,19.85-14.56c-1.57-7.08-29-73.13-33.7-81.27-4.7-8.14-23-44.05-23-47.86s-1.65-14.49-1.65-14.49l-48.02-12.8Z"/>
  <path class="cls-15" d="m68.33,217.52c7.89-2.87,15.25,4.33,25.83,14.91,10.58,10.58,19.25,19.58,19.25,19.58l-23.45,22.38-21.63-56.88Z"/>
  <g>
    <path class="cls-12" d="m127.79,486.2c3.45,7.07,4.17,12.71,5.28,13.22,1.11.51,41.19-15.04,43.8-16.03,4.44-1.7,1.44-8.9-1.88-8.21-3.33.69-9.93.4-16.74-.11-6.82-.51-8.71-6.89-11.57-4.3s-2.27,7.82-8.14,10.31c-5.18,2.19-13.12.25-10.75,5.12Z"/>
    <path class="cls-7" d="m176.88,483.39c4.44-1.7,1.44-8.9-1.88-8.21-1.33.28-3.2.4-5.39.41-.4,1.86-1.2,5.27-1.83,6.03-.72.87-26.66,10.13-36.48,13.62.76,2.38,1.22,3.93,1.78,4.19,1.11.51,41.19-15.04,43.8-16.03Z"/>
    <path class="cls-7" d="m154.19,474.29c-.31.47-.59.97-.89,1.45-.29.48-.6.93-.68,1.5-.09.58.57,1.01,1.06.66.47-.33.73-.81,1.03-1.29.3-.48.62-.95.9-1.44.46-.82-.88-1.68-1.41-.88Z"/>
    <path class="cls-7" d="m161.6,475.22c-.39-.18-1-.02-1.15.43-.27.84-.62,1.69-.78,2.56-.17.9,1.11,1.26,1.5.47.36-.73.58-1.54.85-2.31.16-.44.03-.94-.43-1.15Z"/>
    <path class="cls-7" d="m144.09,482.04c-.89,1.02-1.41,2.11-2.73,2.68-1.33.57-2.77.35-4.15.13-2.38-.37-5.13-.83-7.11.89-.76.66.04,1.77.91,1.27,3.01-1.72,6.26.33,9.45-.1,2.11-.28,4.78-1.92,5-4.24.07-.76-.84-1.24-1.37-.63Z"/>
  </g>
  <path class="cls-15" d="m50.73,219.51c-16.06-2.3-26.67.62-29.64,11.02-2.97,10.41,18.15,46.89,16.92,64.46-1.22,17.57-5.43,23.89-2.68,28.53,2.75,4.64,38.7,8.68,61.45-1.16,12.31-5.32-2.28-43.91-6.83-56.71-4.55-12.8-12.12-47.74-17.71-48.66-5.6-.92-11.72,3.91-21.52,2.51Z"/>
  <path class="cls-18" d="m84.92,245.91c-1.26-3.09-2.43-6.22-4.71-8.73-.48-.53-1.43.18-1,.77,3.73,5.21,5.5,11.84,7.01,17.94.2.82,1.36.59,1.41-.19.21-3.46-1.43-6.67-2.71-9.8Z"/>
  <g>
    <g>
      <path class="cls-12" d="m183.91,137.61c26.1,7.78,31.61,19.13,36.88,64.06,5.26,44.92,23.57,46.11,23.99,81.22.41,35.11-50.09,92.36-109.22,67.73-59.13-24.63-68.3-90.34-29.9-131.76,38.4-41.42,42.57-43.67,51.36-60.1,8.79-16.43,15.12-24.65,26.91-21.13Z"/>
      <path class="cls-5" d="m183.86,148.87c24.76,7.38,29.45,12.57,34.44,55.18,4.99,42.62,22.36,43.74,22.75,77.05.39,33.31-47.52,87.62-103.61,64.25-56.1-23.37-64.8-85.71-28.37-125,36.43-39.29,40.38-41.43,48.72-57.02,8.34-15.59,14.89-17.8,26.07-14.46Z"/>
      <path class="cls-16" d="m206.96,289.78c-7.7,25.83-33.61,37.11-59.14,29.5-25.53-7.61-35.64-37.07-27.94-62.9,7.7-25.83,30.3-38.25,55.83-30.63,25.53,7.61,38.95,38.21,31.25,64.04Z"/>
      <path class="cls-6" d="m198.66,257.42c-1.19-4.58-3.71-8.79-6.94-12.22-2.8-2.97-7.71-7.48-12.08-7.09-2.26.2-2.98,2.48-2.06,4.28.84,1.64,2.51,2.62,3.91,3.74,1.39,1.12,2.7,2.35,3.87,3.71,2.52,2.93,4.36,6.17,5.27,9.94.91,3.74,1.69,8.69,1.12,12.52-.64,4.33-5.27,6.9-5.82,11.15-.48,3.71,3.12,5.77,6.24,4.11,2.19-1.16,3.53-3.96,4.88-5.99,1.56-2.34,2.86-4.74,3.26-7.57.76-5.32-.31-11.42-1.65-16.58Z"/>
      <path class="cls-6" d="m151.51,294.77c-2.03-1.54-4.71-1.75-6.98-2.93-2.32-1.2-4.41-2.87-6.39-4.55-4.44-3.76-6.73-8.42-6.67-14.3.02-2.58-4.06-3.36-5-.97-3.02,7.65-.13,14.82,5.55,20.35,4.08,3.98,13.22,11.87,19.22,7.56,1.61-1.16,2.01-3.85.28-5.16Z"/>
    </g>
    <g>
      <path class="cls-12" d="m211.84,153.72c-1.02-1.11-2.66-2.01-4.11-2.58-.22-.28-.6-.42-.96-.21-.36.21-.49.41-.65.79-.13.31-.01.8.24,1.02,1,.87,2.37,1.2,3.4,2.08.61.52.96,1.1,1.14,1.89.17.75.1,1.4.53,2.06.33.51,1.22.7,1.55.05.81-1.61.03-3.82-1.14-5.1Z"/>
      <path class="cls-12" d="m215.56,172.09c-.5-.63-1.59-.01-1.37.74.29.95.6,1.81.57,2.82-.03.94-.43,1.8-.47,2.73-.03.7.84,1.04,1.34.6,1.77-1.57,1.28-5.2-.06-6.89Z"/>
      <path class="cls-12" d="m156.28,159.27c-.27-.89-1.51-.74-1.59.17-.28,2.94-3.49,4.89-3.13,7.87.09.75,1.26.89,1.6.26.43-.78.7-1.61,1.16-2.37.44-.74.97-1.42,1.37-2.19.61-1.18.99-2.44.59-3.74Z"/>
      <path class="cls-12" d="m138,183.31c-1.1-.43-2.28.91-2.56,1.86-.31,1.04.04,2.47,1.13,2.88.52.2,1-.36.89-.85-.12-.55-.51-1-.27-1.58.24-.57.89-.67,1.26-1.13.35-.44-.02-1.02-.45-1.19Z"/>
      <path class="cls-12" d="m124.31,199.87c-1.93-.38-3.43,1.92-2.86,3.65.25.75,1.53.74,1.47-.16-.08-1.14.65-1.61,1.53-2.11.52-.3.53-1.25-.14-1.38Z"/>
      <path class="cls-12" d="m100.99,223.28c.15-.82-.9-1.42-1.4-.63-.66,1.03-1.07,2.22-1.52,3.36-.46,1.15-.94,2.25-1.12,3.48-.12.82,1.06,1.01,1.45.43.65-.95,1.01-2.05,1.42-3.11.44-1.15.96-2.3,1.18-3.52Z"/>
      <path class="cls-12" d="m87.82,254.61c.09-.93-.06-1.87.02-2.8.08-.99.34-1.95.56-2.92.18-.81-.9-1.38-1.37-.62-1.11,1.82-1.61,4.71-.62,6.68.36.71,1.34.36,1.41-.34Z"/>
      <path class="cls-12" d="m86.95,290.67c-.48-.98-1.28-1.74-1.74-2.73-.71-1.53.05-2.62-.02-4.14-.12-2.56-3.34-2.59-2.79-5.62.1-.52-.43-1.15-.98-.8-.91.59-1.24,1.37-1.07,2.49.25,1.68,1.85,2.35,2.4,3.8.52,1.39-.22,2.98.33,4.54.49,1.37,1.43,2.8,2.65,3.59.75.49,1.6-.39,1.23-1.15Z"/>
      <path class="cls-12" d="m96.27,317.58c-.85-.94-4.93-2.26-3.49-4.05.38-.47-.21-.98-.66-.92-1.68.22-1.69,2.3-.9,3.41.48.67,1.17,1.18,1.83,1.65.78.55,1.63,1.19,2.6,1.28.73.07,1.06-.88.61-1.37Z"/>
      <path class="cls-12" d="m120.9,342.5s-.03.04-.05.07h0c-.9-.59-2.06-1.15-3.09-1.49-.19-.06-.38-.01-.53.1-.4-.38-.72-.71-.88-.89-.57-.59-1.51.1-1.15.83,1.03,2.09,5.96,5.88,7.33,2.11.34-.94-1.15-1.64-1.62-.73Z"/>
      <path class="cls-12" d="m141.28,351.82c-.11-.09-.24-.14-.41-.13-.45.03-.9.1-1.36.11-.3,0-.58-.04-.87-.08-.21-.17-.41-.33-.56-.45-.49-.38-1.26.33-.9.84.09.13.19.26.29.39.06.24.21.47.46.57.02,0,.04,0,.06.02.58.59,1.27,1.04,2.13,1.1,1.1.08,2.09-.47,2.51-1.5.31-.78-.82-1.38-1.35-.87Z"/>
      <path class="cls-12" d="m174.01,355.51c-.33-.93-1.63-.83-1.72.19-.09,1-2.87-.43-3.27-.55-.54-.16-1.08-.31-1.62-.08-.6.25-.66.74-1.06,1.17-.5.52-.29.39-1.14.13-.61-.19-1.22-.41-1.82-.63-.88-.33-1.23,1.01-.41,1.37,1.02.45,2.56,1.61,3.75,1.16.5-.19.66-.55.99-.93.19-.22.18-.43.43-.55.24-.11,1.36.48,1.4.5,1.03.47,2.1,1.07,3.24.62.99-.39,1.6-1.38,1.24-2.39Z"/>
      <path class="cls-12" d="m201.04,345.66c-.18-.67-1.02-.76-1.4-.23-.63.87-.38,2.05-1.55,2.51-.66.26-1.36.24-1.96.67-.24.18-.44.39-.6.65-.07.12-.26.91-.26.91-.18.12-1.5-.4-1.75-.46-.5-.11-.77-.12-1.27-.06-.63.08-.58.89-.19,1.2.8.64,2.51,1.27,3.55,1.13,1.31-.18.96-1.54,1.87-2.01.94-.49,1.84-.31,2.62-1.19.69-.78,1.2-2.1.93-3.13Z"/>
      <path class="cls-12" d="m244.26,271.61c-.75-.27-1.05.87-.35,1.17.54.23.74.65.77,1.13-.26,0-.53.14-.62.44-.28.92-.37,1.84-.44,2.8-.08,1.14,1.44,1.18,1.83.29.88-2.02,1.41-4.87-1.2-5.82Z"/>
      <path class="cls-12" d="m234.16,240.68c-.14-.49-.41-.93-.81-1.24-.23-.18-.48-.29-.76-.36-.04,0-.16-.02-.28-.03.03-.53.08-1.02-.18-1.6-.32-.72-.83-1.24-1.55-1.54-.68-.28-1.14.67-.71,1.15.56.63.81,1.08.66,1.94-.1.54-.2.95.21,1.41.4.46,1.11.32,1.42.73.33.44-.1.77-.24,1.2-.1.34-.08.57-.02.92.09.54.7.68,1.13.5,1.04-.43,1.43-2.06,1.14-3.08Z"/>
      <path class="cls-12" d="m226.95,223.52c-.16-.58-.52-1.1-1-1.47-.55-.42-1.24-.54-1.85-.86-.73-.38-1.35.44-.89,1.08.46.63,1.34.63,1.8,1.22.5.64.1,1.31-.52,1.62-1.1.55-.2,2.1.89,1.65,1.24-.5,1.92-1.96,1.56-3.24Z"/>
      <path class="cls-12" d="m220.41,189.98c-.39-1.41-1.39-2.66-2.81-3.1-.32-.1-.79.03-.95.36-.03.06-.06.13-.09.19,0,0,0,0,0,.01-.09.35.04.76.36.95.66.39,1.19.87,1.48,1.59.13.32.2.67.2,1.01,0,.14,0,.29-.03.43-.01.07-.04.13-.06.2-.1.04-.19.09-.26.17-.02.02-.04.05-.06.07-.35.42-.45.98-.05,1.42.03.03.06.07.09.1.24.25.65.41,1,.3,1.43-.46,1.52-2.48,1.18-3.71Z"/>
    </g>
    <path class="cls-13" d="m189.82,142.71c-1.13-1.84-4.27-2.97-6.71-3-1.79-.33-4.02.4-3.64,2.62.42,2.47,4.46,3.6,6.52,3.77,1.97.16,5.49-.69,3.83-3.38Zm-2.24,1.25c-.95.5-3.03-.26-3.91-.65-.49-.21-1.36-.52-1.66-.98-.61-.36-.31-.54.87-.56.26.05.53.07.8.05.02,0,.03,0,.05,0,.36.06.73.13,1.1.22.63.16,1.3.32,1.88.62.42.2.79.47,1.12.8.28.41.19.58-.26.5Z"/>
    <path class="cls-4" d="m162.57,174.42c-3.07,4.09-2.68,9.32-6.58,13.05-3.53,3.37-8.25,5.29-12.04,8.34-1.36,1.09.26,3,1.69,2.35,4.83-2.2,10.38-5.29,14.04-9.24,3.4-3.66,3.85-8.76,5.8-13.19.78-1.76-1.9-2.65-2.9-1.31Z"/>
    <path class="cls-4" d="m203.75,210.76c-.18-2.88-.97-5.69-1.54-8.52-.29-1.44-.58-2.89-.87-4.33-.19-.95-.96-3-.97-4.27.52-.68.59-1.77-.31-2.19-3.24-1.49-3.09,2.7-2.87,4.63.57,5.08,1.28,10.75,3.38,15.44.68,1.51,3.29.9,3.18-.77Z"/>
    <path class="cls-4" d="m227.23,273.79c.06-2.17-.07-4.37-.44-6.51-.37-2.15-2.6-6.26-2.11-8.32.47-1.98-2.25-2.75-3-.89-1.38,3.43,1.26,7.98,1.54,11.58.46,5.72-1.07,10.69-2.63,16.11-.52,1.81,2.01,2.98,3.03,1.37,2.49-3.94,3.47-8.71,3.6-13.33Z"/>
    <path class="cls-4" d="m153.75,336.55c-9.31-3.07-17.22-6.62-25.21-12.12-.08-.42-.36-.8-.87-.93-.34-.09-.69-.19-1.03-.28-1.45-.39-2.82,1.48-1.62,2.62,7.5,7.12,17.93,12.5,28.24,13.82,1.83.23,2.13-2.57.49-3.11Z"/>
    <path class="cls-4" d="m190.83,328.79c-3.96,2.02-7.95,3.34-12.42,3.44-1.71.04-1.78,2.7-.06,2.67,4.78-.08,9.67-1.21,13.72-3.83,1.39-.9.28-3.06-1.24-2.29Z"/>
    <path class="cls-4" d="m105.43,270.56c-.86-5.92-1.11-11.6.21-17.48,1.07-4.77,3.04-11.94,7.21-14.93,1.3-.93.3-3-1.21-2.24-5.07,2.54-7.58,10.22-8.89,15.35-1.67,6.52-1.84,13.47-.06,19.98.49,1.78,3.01,1.11,2.75-.67Z"/>
  </g>
  <path class="cls-3" d="m44.99,220.84c-2.27,2.27,10.24,19.12,19.83,11.23,4.2-3.46.44-13.07-1.68-13.07s-18.15,1.84-18.15,1.84Z"/>
  <path class="cls-3" d="m60.31,204.98c.53,8.06,3.43,15.04,3.43,15.04,0,0-6.22,4.43-10.92,4.43s-6.9-2.49-6.9-2.49c0,0,1.15-12-2.86-16.02-4.02-4.02,17.25-.96,17.25-.96Z"/>
  <path class="cls-8" d="m63.15,219.82s-.62-2.72-1.62-6.96l-13.88-1.23c1.24,4.76,4.26,8.98,8.18,10.76,1.3.59,2.8.56,4.07-.09,2.22-1.13,3.26-2.48,3.26-2.48Z"/>
  <g>
    <path class="cls-3" d="m72.56,186.93c2.22,12.32,3.56,26.91-6.29,31.24s-20.46-5.15-21.34-6.45c-.88-1.3-10.41-20.25-6.32-24.9,4.09-4.64,16.89-11.44,23.09-10.23,6.2,1.21,10.11,6.2,10.86,10.34Z"/>
    <path class="cls-11" d="m50.41,183.49c.08,5.19-.92,10.38-2.7,11.58-1.78,1.2-1.26,12.43-4.01,15.14-1.27,1.25-8.9-12.54-9.44-19.9-.29-3.93,6.84-10.99,8.61-11.11,0,0-1.53-3.13,10.58-5.8,12.11-2.67,20.09,2.62,21.81,1.46,1.72-1.16,1.77,1.39.45,2.78l-1.31,1.39s1.62-.13,1.33,1.35-2.15,2.37-2.15,2.37c0,0-1.55,3.41-4.11,1.94-2.56-1.47-6.59-6.8-11.48-5.42-4.9,1.39-7.58,4.23-7.58,4.23Z"/>
    <path class="cls-3" d="m39.92,202.1c1.6,2.38,4.83,3.01,7.21,1.4,2.38-1.6,3.01-4.83,1.4-7.21-1.6-2.38-4.83-3.01-7.21-1.4-2.38,1.6-3.01,4.83-1.4,7.21Z"/>
    <path class="cls-11" d="m48.8,192c.93,5.21,3.25,17.05,8.6,15.11,5.35-1.94,12.99-5.87,16.65-1.68,0,0,.59,9.09-5.7,12.98-6.29,3.89-14.97-.23-17.19-2.79-2.22-2.57-4.88-21.91-4.88-21.91l2.52-1.7Z"/>
    <path class="cls-9" d="m46.74,178.86c3.55-2.24,8.57-3.46,12.75-3.02.73.08.58,1.13-.08,1.22-2.2.28-4.36.38-6.53.89-1.96.45-3.8,1.19-5.7,1.81-.53.17-.93-.58-.44-.89Z"/>
    <path class="cls-9" d="m72.16,209.84c.36-.24.84-.38.99-.83.16-.47-.16-.85-.49-1.14-.36-.32-.25-1.12.37-1.01,1.03.19,1.7,1.27,1.53,2.29-.16.99-1.16,2-2.22,1.68-.39-.12-.54-.74-.17-.99Z"/>
    <path class="cls-9" d="m71.09,213.52c.36-.24.84-.38.99-.83.16-.47-.16-.85-.49-1.14-.36-.32-.25-1.12.37-1.01,1.03.19,1.7,1.27,1.53,2.29-.16.99-1.16,2-2.22,1.68-.39-.12-.54-.74-.17-.99Z"/>
    <path class="cls-9" d="m67.72,217.68c.42-.07.92-.01,1.24-.36.34-.36.2-.85.02-1.24-.2-.44.23-1.13.74-.78.87.59,1.03,1.85.47,2.72-.55.85-1.88,1.36-2.71.63-.31-.27-.19-.9.24-.97Z"/>
    <path class="cls-9" d="m67.02,213.37c.33.06.67.24,1.01.15.37-.1.58-.48.58-.84,0-.81,1.18-.9,1.26-.08.09.89-.37,1.75-1.19,2.13-.72.33-1.8.26-2.23-.49-.23-.41.07-.96.57-.86Z"/>
    <path class="cls-9" d="m55.36,211.26c.6-.02.99-.28,1.15-.87.14-.52.98-.69,1.14-.08.36,1.35-1.25,2.72-2.51,2.07-.51-.26-.39-1.1.22-1.12Z"/>
    <path class="cls-9" d="m62.55,217.04c.69.24,1.02-.19,1.16-.8.12-.55.91-.61,1.09-.07.56,1.64-1.64,2.92-2.87,1.82-.52-.46.03-1.15.62-.95Z"/>
    <path class="cls-9" d="m54.94,215.71c.91.24,1.82.12,2.56-.47.54-.43,1.34.45.82.92-1.02.93-2.47,1.27-3.72.57-.51-.28-.29-1.19.34-1.02Z"/>
    <path class="cls-9" d="m50.81,207.12c-.21-.55.52-1.04.95-.64.21.2.39.45.56.69.2.29.35.54.31.9-.03.29-.39.53-.67.45-.36-.1-.53-.33-.72-.63-.16-.24-.33-.5-.43-.78Z"/>
    <path class="cls-9" d="m50.15,201.59c.16.23.32.46.39.73.13.51-.42.88-.83.56-.23-.17-.38-.41-.53-.64-.42-.63.55-1.28.97-.66Z"/>
    <path class="cls-9" d="m41.72,183.22c.29-.47,1.18-.29,1,.33-.21.71-.38,1.4-.33,2.15.06.76.4,1.37.57,2.1.11.49-.46,1.02-.89.6-1.25-1.21-1.2-3.77-.35-5.18Z"/>
    <path class="cls-9" d="m37.35,186.27c.21-.49,1.06-.22.9.3-.28.9-.41,1.82-.31,2.76.1.96.5,1.75.78,2.65.19.62-.6.95-.98.48-1.33-1.64-1.16-4.36-.39-6.19Z"/>
    <path class="cls-3" d="m65.74,209.43c.65.29,1.34.45,2.05.46.6.01,1.27-.25,1.85-.13.24.05.38.37.2.56-.49.52-1.5.56-2.18.54-.82-.02-1.6-.21-2.36-.53-.6-.26-.16-1.17.44-.91Z"/>
    <path class="cls-8" d="m41.09,199.58c-.13-1.89,1.43-3.7,3.4-3.14.58.16.41,1.09-.18.93-.93-.24-1.67.25-2,1,.24.06.47.12.7.18.38.09.79.11,1.15.25.48.2.26.86-.18.92-.41.06-.9-.1-1.28-.23-.2-.07-.4-.14-.59-.23,0,.04,0,.08,0,.12.02.62.27,1.22.62,1.73.1.14.3.51.46.58.31.12.87-.16,1.12-.29.65-.33,1.3.62.64.95-.74.37-1.74.74-2.47.16-.79-.63-1.32-1.94-1.39-2.93Z"/>
  </g>
  <path class="cls-3" d="m96.78,322.37c3.16,5.97,3.18,11.64,4.47,14.07,1.29,2.44,16.33,10.97,17.98,8.32,1.66-2.64-4.79-5.9-5.49-9.48-.59-3.02-3.21-8.46-1.6-8.4,1.61.06,13.59.67,13.7-2.2s-2.69-2.53-8.44-3.54c-5.75-1.01-11.22-5.53-11.22-5.53l-9.4,6.76Z"/>
  <path class="cls-15" d="m25.56,225.77c-5.06,23.28,26.1,50.42,36.85,61.17,10.75,10.75,31.07,43.77,36.71,40.52,5.64-3.25,11.21-8.18,9.9-12.64-1.31-4.46-22.39-35.65-30.67-45.19-10.9-12.55-18.55-32.15-28.01-43.16-9.46-11.02-23.47-6.73-24.79-.7Z"/>
  <path class="cls-18" d="m89.16,320.86c-11.59-10.4-22.04-22.05-30.99-34.8-4.43-6.31-9.05-12.33-14.01-18.22-5.14-6.1-10.1-12.25-14.34-19.02-.43-.69-1.44-.09-1.08.63,3.28,6.71,8.34,12.56,13.1,18.25,5.41,6.47,10.46,13.06,15.32,19.95,8.9,12.62,19.21,24.2,30.68,34.53.89.81,2.22-.52,1.33-1.33Z"/>
  <path class="cls-18" d="m81.16,271.96c-3.24-5.79-8.1-10.27-12.75-14.9-5.25-5.22-9.31-10.56-11.52-17.7-.19-.62-1.24-.54-1.18.16.54,6.54,5.14,12.23,9.5,16.8,5.06,5.31,10.78,10.05,14.4,16.54.56,1.01,2.12.1,1.55-.91Z"/>
  <g class="cls-19">
    <g>
      <path class="cls-17" d="m97.66,328.96c-5.73.84-11.4,3.12-16.77,5.21-5.22,2.03-10.35,4.31-15.35,6.85-5.1,2.59-10.07,5.44-14.88,8.54-2.35,1.51-4.65,3.09-6.9,4.74-2.14,1.56-4.88,3.16-6.36,5.38-.69,1.03.47,2.61,1.67,2.17,2.42-.89,4.46-2.89,6.55-4.38,2.28-1.61,4.59-3.17,6.94-4.68,4.69-3.02,9.54-5.8,14.52-8.34,4.95-2.52,10.03-4.8,15.22-6.79,5.34-2.06,10.94-3.44,16.24-5.59,1.94-.79,1.21-3.42-.86-3.12Z"/>
      <path class="cls-17" d="m103.81,353.29c-4.76,0-9.96,2.27-14.39,3.84-4.71,1.67-9.32,3.61-13.82,5.79-9.11,4.4-17.66,9.8-25.51,16.19-1.36,1.1.47,3.5,1.89,2.44,7.85-5.88,16.21-11.11,25.06-15.37,4.47-2.15,9.06-4.05,13.74-5.71,2.22-.78,4.45-1.51,6.71-2.18,2.36-.7,4.87-1.18,7.06-2.31,1.3-.67.66-2.7-.73-2.69Z"/>
      <path class="cls-17" d="m124.48,375.38c-4.87.12-10.04,2.34-14.62,3.88-4.81,1.62-9.55,3.43-14.21,5.41-9.6,4.07-18.83,8.94-27.59,14.59-1.62,1.05-.15,3.6,1.52,2.6,8.69-5.21,17.7-9.88,27.03-13.84,4.65-1.98,9.39-3.76,14.19-5.36,4.67-1.56,10.02-2.38,14.4-4.64,1.26-.65.66-2.68-.72-2.65Z"/>
      <path class="cls-17" d="m141.52,401.87c-10.54,1.77-20.88,5.78-30.69,9.95-4.88,2.08-9.69,4.34-14.4,6.78-2.49,1.29-4.95,2.62-7.37,4.03-1.69.99-4.28,1.89-4.75,3.98-.15.65.09,1.39.7,1.73.79.44,1.33.41,2.13,0,.5-.26.75-.83.73-1.38.6-.32,1.45-.67,1.7-.81,1.16-.64,2.34-1.26,3.51-1.89,2.21-1.18,4.43-2.35,6.68-3.46,4.62-2.29,9.32-4.41,14.08-6.38,9.3-3.83,18.94-6.53,28.41-9.87,1.71-.6,1.02-2.98-.74-2.69Z"/>
      <path class="cls-17" d="m147.62,431.42c-8.29,1.07-16.5,4.36-24.14,7.64-7.63,3.28-16.08,7.05-22.54,12.36-1.42,1.17.36,3.1,1.84,2.37,0,.01,0,.02.01.03,3.58-1.76,6.93-4.06,10.46-5.95,3.67-1.96,7.42-3.76,11.24-5.4,7.68-3.29,15.71-5.28,23.53-8.13,1.46-.53,1.39-3.17-.4-2.94Z"/>
      <path class="cls-17" d="m155.37,454.38c-7.66,1.4-15.08,4.05-22.22,7.13-7.26,3.13-14.42,6.78-20.89,11.33-1.5,1.05-.18,3.44,1.46,2.5,6.7-3.86,13.42-7.61,20.54-10.64,7.12-3.03,14.48-5.3,21.85-7.64,1.72-.55,1-2.99-.74-2.67Z"/>
    </g>
  </g>
</svg>