<?xml version="1.0" encoding="UTF-8"?>
<svg id="_圖層_2" data-name="圖層 2" xmlns="http://www.w3.org/2000/svg" xmlns:xlink="http://www.w3.org/1999/xlink" viewBox="0 0 250 500">
  <defs>
    <style>
      .cls-1 {
        fill: none;
      }

      .cls-2 {
        clip-path: url(#clippath);
      }

      .cls-3 {
        fill: #faaf70;
      }

      .cls-4 {
        fill: #fad0ac;
      }

      .cls-5 {
        fill: #f5b12c;
      }

      .cls-6 {
        fill: #ffd37d;
      }

      .cls-7 {
        fill: #ffbf42;
      }

      .cls-8 {
        fill: #b3472d;
      }

      .cls-9 {
        fill: #d99511;
      }

      .cls-10 {
        fill: #c74a2e;
      }

      .cls-11 {
        fill: #e08b43;
      }

      .cls-12 {
        fill: #13374f;
      }

      .cls-13 {
        fill: #1f2144;
      }

      .cls-14 {
        fill: #3d5f75;
      }

      .cls-15 {
        fill: #93b470;
      }

      .cls-16 {
        fill: #8a3723;
      }

      .cls-17 {
        fill: #266e9e;
      }

      .cls-18 {
        fill: #779968;
      }

      .cls-19 {
        fill: #4e705b;
      }

      .cls-20 {
        clip-path: url(#clippath-1);
      }

      .cls-21 {
        clip-path: url(#clippath-4);
      }

      .cls-22 {
        clip-path: url(#clippath-3);
      }

      .cls-23 {
        clip-path: url(#clippath-2);
      }
    </style>
    <clipPath id="clippath">
      <path class="cls-1" d="m125.48,287.05c2.98,21.67-1.32,89.62-5.63,114.89-4.3,25.28-11.59,57.45-11.59,57.45h-22.18l3.75-165.45,35.65-6.89Z"/>
    </clipPath>
    <clipPath id="clippath-1">
      <path class="cls-1" d="m29.44,449.06c7.76,13.33,13.62,17.12,13.62,17.12,0,0,61.05-92.47,64.12-104.29,3.06-11.82,1.74-74.85,1.74-74.85l-30.79,3.28s-13.31-1.53-15.56,10.44c-1.47,7.8-4.88,23.83,6.76,35.36-3.64,18.78-7.21,37.23-8.09,38.73-1.92,3.3-31.79,74.19-31.79,74.19Z"/>
    </clipPath>
    <clipPath id="clippath-2">
      <path class="cls-18" d="m68.02,193.83c18.68,7.58,36.49,10.21,36.49,20.31s-.99,15.14,2.3,17.02c4.86,2.77,21.67,48.45,19.99,59.17-1.68,10.73-11.78,12.54-30.18,12.54s-33.08-3.09-31.91-8.49,11.06-26.32,6.12-31.22c-4.94-4.9-31.53-24.14-33.98-34.52-2.45-10.38.41-16.67,10.51-22.45,10.1-5.78,20.67-12.35,20.67-12.35Z"/>
    </clipPath>
    <clipPath id="clippath-3">
      <path class="cls-1" d="m36.8,224.8c13.73,13.61,21.15,6.73,25.15-.14,4-6.87,19.86-47.29,19.86-55.71s10.83-49.4,5.45-49.4-7.76-1.35-11.04,8.7c-3.28,10.05-12.96,41.26-12.96,43.5s-20.29,34.09-23.89,40.27c-3.6,6.18-2.57,12.78-2.57,12.78Z"/>
    </clipPath>
    <clipPath id="clippath-4">
      <path class="cls-1" d="m87.27,211.98c3.77-16.84,20.35-42.41,22.8-49.52,2.45-7.11,29.62-33.35,28.58-35.14-1.04-1.79-5.23-10.56-11.46-5.63-6.23,4.93-27.47,25.55-33.69,35.66-6.23,10.1-25.95,39.75-22.84,45.09,3.11,5.34,16.61,9.54,16.61,9.54Z"/>
    </clipPath>
  </defs>
  <path class="cls-3" d="m138.7,113.83l-.02-.26s-.16.05-.44.19l-1.15-.19.05.87c-1.56,1.15-4.03,3.71-6.07,9.16,0,0,4.14,4.91,4.63,4.91.29,0,1.58-.6,2.58-1.09,9.61-2.39,20.32.54,22.24-1.36s6.2-7.63,6.2-7.63l-28.02-4.59Z"/>
  <path class="cls-18" d="m87.27,211.98c3.77-16.84,20.35-42.41,22.8-49.52,2.45-7.11,29.62-33.35,28.58-35.14-1.04-1.79-5.23-10.56-11.46-5.63-6.23,4.93-27.47,25.55-33.69,35.66-6.23,10.1-25.95,39.75-22.84,45.09,3.11,5.34,16.61,9.54,16.61,9.54Z"/>
  <path class="cls-16" d="m16.1,174.38c.68-2.74,16.57-9.11,18.59-5.65,2.02,3.46-8.04,12.43-12.17,12.27-4.14-.16-6.41-6.62-6.41-6.62Z"/>
  <path class="cls-3" d="m15.09,181.74c3.65-8.39,14.33-13.65,21.62-11.21,7.29,2.43,18.88,11.81,18.88,16.36s-9.44,21.78-10.68,23.01-17.84,1.68-26.18-8.13-3.65-20.01-3.65-20.01Z"/>
  <path class="cls-3" d="m42.93,175.2c3.13-1.16,6.32-2.13,6.64-.65.33,1.48-1.38,4.41-1.38,4.41l-5.26-3.77Z"/>
  <path class="cls-16" d="m24.53,171.03c-2.4,3.1-.37,5.11,4.19,12.94,4.56,7.83-2.03,11.99,1.7,13.32,3.73,1.33,12.34-.54,14.82,5.15,2.49,5.69,11.91,34.45,10.35,43.1s-12.11,6.97-13.54,8.39c-1.43,1.42-10.68,1.66-12.44.65,0,0-3.58,5.16-10.22,2.58-6.64-2.58-5.34-3.49-7.03-3.49s.51-.71,2.74-6.07c2.23-5.36,6.12-16.33-4.36-31.52-9.71-14.06-6.27-35.79,4.19-41.78,10.46-5.99,9.61-3.27,9.61-3.27Z"/>
  <g>
    <path class="cls-7" d="m241.34,69.33c-2.37-4.07-8.28-16.04-13.27-27.44-2.83-.19-6.73-.42-8.92-.42-3.72,0-4.14-4.29-3.69-6.45.35-1.67,5.18-2.52,8.35-3.37-1.06-2.74-1.96-5.25-2.61-7.36-3.79-12.45-2.39-20.35-4.98-20.35s-54.01-7.31-77.93-1.98c-23.92,5.34-67.96,22.13-67.96,27.27,0,17.78,3.44,79.1,6.78,81.01,2.61,1.49,44.53,9.33,80.43,15.23,1.94-3.71,5.65-6.54,9.01-5.22,4.36,1.71,4.76,4.18,4.76,4.18,0,0,5.58-1.13,7.48,2.14.45.77.87,1.61,1.25,2.45,1.82.27,3.59.53,5.29.78,37.07,5.33,57.09,7.67,58.79,4.74,1.71-2.93.95-58.77-2.79-65.2Z"/>
    <path class="cls-6" d="m241.34,69.33c-2.37-4.07-8.28-16.04-13.27-27.44-2.83-.19-6.73-.42-8.92-.42-3.72,0-4.14-4.29-3.69-6.45.35-1.67,5.18-2.52,8.35-3.37-1.06-2.74-1.96-5.25-2.61-7.36-3.79-12.45-2.39-20.35-4.98-20.35s-54.01-7.31-77.93-1.98c-23.92,5.34-67.96,22.13-67.96,27.27,0,.33,0,.68,0,1.04,2.37.99,7.15,2.46,18.33,6.27,24.91,8.5,24.51,9.48,51.62,17.78,27.1,8.3,53.81,9.68,68.36,11.46,11.47,1.4,27.42,5.13,33.67,6.65-.3-1.42-.63-2.48-.99-3.1Z"/>
    <path class="cls-5" d="m223.74,104.13c-2.5,1.77-10.52,2.47-10.19-2.39.07-1.01.81-1.67,1.16-2.56.98-2.43-.44-3.11-.79-5.1-.25-1.41.22-2.7,1.2-3.56,1.98-3.3,8.06.02,9.87,2.09,2.98,3.41,2.5,8.85-1.26,11.52Z"/>
    <path class="cls-5" d="m189.18,75.26c-.91-.09-2.22-.37-2.81-1.15-.47-.61-.35-1.35-.3-2.07-.26-.48-.24-1.1,0-1.63.37-.78,1.16-1.19,2-1.3,1.96-.25,4.29.76,4.72,2.82.45,2.2-1.63,3.53-3.62,3.33Z"/>
    <path class="cls-5" d="m164.88,85.02c-2.34,2.34-7.33,2.12-10.36,1.94-1.19-.06-2.48-.2-3.39-.8-2.73-.3-6.31-1.84-7.25-4.37-.82-2.18.74-3.04,1.99-4.47,1.71-1.93.32-4.78,2.86-5.9,2.98-1.3,7.93.6,10.64,1.73,4.13,1.72,10.12,7.25,5.49,11.86Z"/>
    <path class="cls-5" d="m127.86,72.77c-.85.51-2.11.25-3.01.02-1.13-.29-2.14-.91-2.64-2-.96-2.14.71-4.71,3.12-4.52.11,0,.22.04.29.08,1.32.21,2.58,1.16,2.01,2.49-.13.31-.79.74-.68.99.12.28,1,.5,1.26.81.58.69.41,1.68-.36,2.14Z"/>
    <path class="cls-5" d="m148.39,109.82c-.85.51-2.11.25-3.01.02-1.13-.29-2.14-.91-2.64-2-.96-2.14.71-4.71,3.12-4.52.11,0,.22.04.29.08,1.32.21,2.58,1.16,2.01,2.49-.13.31-.79.74-.68.99.12.28,1,.5,1.26.81.58.69.41,1.68-.36,2.14Z"/>
    <path class="cls-5" d="m176.04,89.65c-1.99,1.14-4.6-.04-5.19-2.23-.54-1.99.98-4.51,3.15-4.59.11,0,.21.02.3.06,1.59-.61,3.47-.8,4.29,1.05.83,1.85-.92,4.79-2.54,5.71Z"/>
    <path class="cls-5" d="m111.14,95.91c-1.17,2.13-3.28,4.01-5.67,4.66-1.67.46-4.93.58-5.74-1.38-.77-1.86,1.04-3.11,1.75-4.56,1.12-2.32-1.79-3.55-2.61-5.59-.7-.9-.95-2.02-.02-3.07,1.32-1.51,4.01-.88,5.68-.47,4.56,1.09,9.32,5.45,6.61,10.41Z"/>
    <path class="cls-7" d="m114.14,42.9c-1.68,1.05-3.35.96-4.25,3.13-.36.87-.22,1.97-.64,2.89-.83,1.88-7.3,7.68-8.46,3.49-.14-.5.15-.85.52-.98-1.19-2.33-2.59-5.2-2.38-7.65.17-2.11,1.64-3.08,3.4-4.05,2.54-1.41,5.39-2.24,8.29-2.44,1.67-.11,4.19-.37,5.14,1.38.88,1.62-.23,3.37-1.62,4.24Z"/>
    <path class="cls-7" d="m181.44,33.84c-.68,1.92-3.09,2.21-4.82,1.87-.69-.13-1.85-.5-2.42-1.09-.28-.09-.5-.31-.46-.67.47-4.35,9.03-3.87,7.71-.11Z"/>
    <path class="cls-7" d="m207.88,53.59c-.68,1.92-3.09,2.21-4.82,1.87-.69-.13-1.85-.5-2.42-1.09-.28-.09-.5-.31-.46-.67.47-4.35,9.03-3.87,7.71-.11Z"/>
    <path class="cls-7" d="m188.5,27.74c-1.29,1.37-3.68,1.53-5.41,1.21-1.47-.28-2.66-1.08-4.1-1.5-2-.58-3.61-.17-5.64.03-3.65.37-6.45-1.33-4.46-4.24-.03-.17,0-.36.15-.56,3.27-4.23,10.87-3.81,15.4-2.15,2.72.99,7.04,4.05,4.07,7.22Z"/>
    <path class="cls-9" d="m217.8,6.28c-.31-1.53-.73-2.35-1.57-2.35-2.59,0-54.01-7.31-77.93-1.98-23.92,5.34-67.96,22.13-67.96,27.27,0,17.78,3.44,79.1,6.78,81.01.35.2,1.44.52,3.12.94-3.35-24.54-3.92-74.15-3.92-79.18,0-5.93,40.86-23.32,52.81-24.7,11.96-1.38,11.96.4,22.92-1.58,10.96-1.98,20.93-3.95,34.68-1.78,11.65,1.84,26.72,2.26,31.06,2.35Z"/>
    <path class="cls-5" d="m216.23,3.92c-2.59,0-54.01-7.31-77.93-1.98-23.92,5.34-67.96,22.13-67.96,27.27,0,.33,0,.68,0,1.04,1.2.5,3.02,1.13,5.98,2.12,0-.15,0-.28,0-.39,0-5.93,40.86-23.32,52.81-24.7,11.96-1.38,11.96.4,22.92-1.58,10.96-1.98,20.93-3.95,34.68-1.78,11.65,1.84,26.72,2.26,31.06,2.35-.31-1.53-.73-2.35-1.57-2.35Z"/>
    <path class="cls-7" d="m130.17,18.68c-1.02-.75-2.53-.88-3.9-.62-.11-.13-.25-.23-.41-.25-1.46-.21-2.67,1.09-3.55,2.13-.66.78-.24,1.98.84,2.01.67.02,1.4-.02,2.13-.03-.02.11-.05.21-.06.31-.05.82.52,1.62,1.25,1.95,1.57.72,4.02-.32,4.65-1.83.1-.23.05-.49-.07-.72.37-1.01.05-2.26-.89-2.95Z"/>
    <path class="cls-7" d="m158.79,41.51c-.24-.3-.59-.53-.96-.65-.08-.02-.17-.04-.25-.05-.06-.42-.31-.8-.79-.9-1.13-.23-3.47-.62-4.07.69-.04.09-.06.18-.08.28-.09.08-.18.15-.26.24-1.29,1.41-.06,3.01,1.54,3.21,1.4.18,3.62.45,4.74-.62.61-.58.65-1.55.13-2.2Z"/>
    <path class="cls-7" d="m165.71,43.81c-.4-.44-1-.51-1.56-.57-.46-.05-.95-.06-1.37.19-1.1.65-.36,2.27.85,2.01-.35.08.05.04.14.05.2.02.09,0,.28.04.41.09.75.17,1.17.07.83-.2,1-1.22.48-1.79Z"/>
  </g>
  <g>
    <path class="cls-4" d="m43.33,460.24c-.5-.49-4.8,22.16-9.44,23.96-4.64,1.81-12.7-22.69-8.61-26.75,4.66-4.62,8.68-9.19,8.68-9.19l9.37,11.98Z"/>
    <path class="cls-13" d="m27.07,455.87c-1.64-1.71-7.53,7.69-8.83,10.05-1.3,2.36-2,26.41-2,26.41l3.54.65,2.1-13.42,4.17,17.32,22.54,2.92s.34-5.5-2.23-7.05c-2.57-1.55-7.39-3.17-7.39-3.17l.16-14.41s-6.21,1.95-10.26-2.28c-4.05-4.23-1.82-17.03-1.82-17.03Z"/>
    <path class="cls-17" d="m45.9,495.21c-.32-1.48-1.92-2.45-3.4-2.36-.59.04-.8.96-.15,1.09,1.09.22,1.81.85,2.44,1.74.39.56,1.26.22,1.11-.47Z"/>
    <path class="cls-12" d="m38.53,489.15c-1.41,0-2.82.44-4.18.75-1,.23-.57,1.72.42,1.51,1.37-.29,2.81-.48,4.09-1.08.6-.28.28-1.18-.32-1.18Z"/>
    <path class="cls-12" d="m47.65,498.21c-7.25-.94-14.51-1.95-21.8-2.66-.8-.08-.99,1.27-.19,1.4,7.3,1.19,14.65,2.09,21.99,3.04,1.14.15,1.13-1.63,0-1.78Z"/>
    <path class="cls-12" d="m20.13,492.85c-.37-.52-.93-.67-1.51-.89-.57-.22-1.14-.46-1.73-.62-.8-.22-1.29.92-.57,1.34.53.31,1.09.54,1.65.8.58.26,1.07.55,1.72.45.45-.07.69-.71.44-1.06Z"/>
  </g>
  <g>
    <polygon class="cls-4" points="88.92 451.89 86.14 472.9 98.06 484.5 106.3 452.76 88.92 451.89"/>
    <path class="cls-13" d="m84.85,472.35c.48,8.9,2.29,25.36,2.29,25.36h3.31c.33,0,2.07-9.03,2.07-9.03l6.79,9.52h26.99s-.24-5.9-2.98-7.47c-1.31-.75-8.56-.84-13.78-4.14-5.69-3.59-9.32-10.37-9.32-10.37h0c-2.66,2.45-6.81,2.34-9.33-.26l-4.13-4.27c-.61-.85-1.96-.38-1.9.66Z"/>
    <path class="cls-17" d="m122.07,492.53c-1.35-1.62-4.68-1.98-6.62-1.58-.59.12-.63,1.13,0,1.22,1.08.16,2.18.25,3.24.54,1,.27,1.88.83,2.91.96.65.09.8-.76.48-1.15Z"/>
    <path class="cls-12" d="m123.64,496.49c-1.84-.44-3.83-.24-5.72-.24-2.06,0-4.12,0-6.17.02-1.95.01-3.9.03-5.85.04-1.9.01-4.2-.32-5.99.39-.48.19-.48.79,0,.98,1.7.67,3.86.37,5.66.38,2.06.02,4.12.03,6.17.04,1.95.01,3.9.02,5.85.02,1.99,0,4.1.23,6.04-.24.7-.17.7-1.23,0-1.4Z"/>
    <path class="cls-12" d="m90.46,496.71c-.45-.35-.89-.32-1.43-.29-.5.03-.92.05-1.34.33-.35.23-.35.7,0,.93.43.28.84.3,1.34.33.2.01.41.03.61.02.35,0,.55-.11.82-.31.28-.22.28-.79,0-1.01Z"/>
  </g>
  <path class="cls-19" d="m125.85,290.34c2.98,21.67-1.69,86.34-6,111.61-4.3,25.28-11.59,57.45-11.59,57.45h-22.18l3.75-165.45,36.02-3.61Z"/>
  <g class="cls-2">
    <g>
      <path class="cls-13" d="m134.31,448.64c-4.29-.53-8.81-.16-13.13-.16h-13.13c-8.74,0-17.54-.29-26.27.1-.98.04-.98,1.47,0,1.52,8.73.38,17.53.1,26.27.1,4.27,0,8.54,0,12.81,0,4.43,0,9.07.38,13.46-.16.9-.11.9-1.27,0-1.38Z"/>
      <path class="cls-13" d="m134.31,430.69c-4.29-.53-8.81-.16-13.13-.16h-13.13c-8.74,0-17.54-.29-26.27.1-.98.04-.98,1.47,0,1.52,8.73.38,17.53.1,26.27.1,4.27,0,8.54,0,12.81,0,4.43,0,9.07.38,13.46-.16.9-.11.9-1.27,0-1.38Z"/>
      <path class="cls-13" d="m134.31,412.75c-4.29-.53-8.81-.16-13.13-.16h-13.13c-8.74,0-17.54-.29-26.27.1-.98.04-.98,1.47,0,1.52,8.73.38,17.53.1,26.27.1,4.27,0,8.54,0,12.81,0,4.43,0,9.07.38,13.46-.16.9-.11.9-1.27,0-1.38Z"/>
      <path class="cls-13" d="m134.31,394.81c-4.29-.53-8.81-.16-13.13-.16h-13.13c-8.74,0-17.54-.29-26.27.1-.98.04-.98,1.47,0,1.52,8.73.38,17.53.1,26.27.1,4.27,0,8.54,0,12.81,0,4.43,0,9.07.38,13.46-.16.9-.11.9-1.27,0-1.38Z"/>
      <path class="cls-13" d="m134.31,376.86c-4.29-.53-8.81-.16-13.13-.16h-13.13c-8.74,0-17.54-.29-26.27.1-.98.04-.98,1.47,0,1.52,8.73.38,17.53.1,26.27.1,4.27,0,8.54,0,12.81,0,4.43,0,9.07.38,13.46-.16.9-.11.9-1.27,0-1.38Z"/>
      <path class="cls-13" d="m134.31,358.92c-4.29-.53-8.81-.16-13.13-.16h-13.13c-8.74,0-17.54-.29-26.27.1-.98.04-.98,1.47,0,1.52,8.73.38,17.53.1,26.27.1,4.27,0,8.54,0,12.81,0,4.43,0,9.07.38,13.46-.16.9-.11.9-1.27,0-1.38Z"/>
      <path class="cls-13" d="m134.31,340.98c-4.29-.53-8.81-.16-13.13-.16h-13.13c-8.74,0-17.54-.29-26.27.1-.98.04-.98,1.47,0,1.52,8.73.38,17.53.1,26.27.1,4.27,0,8.54,0,12.81,0,4.43,0,9.07.38,13.46-.16.9-.11.9-1.27,0-1.38Z"/>
      <path class="cls-13" d="m134.31,323.03c-4.29-.53-8.81-.16-13.13-.16h-13.13c-8.74,0-17.54-.29-26.27.1-.98.04-.98,1.47,0,1.52,8.73.38,17.53.1,26.27.1,4.27,0,8.54,0,12.81,0,4.43,0,9.07.38,13.46-.16.9-.11.9-1.27,0-1.38Z"/>
      <path class="cls-13" d="m134.31,305.09c-4.29-.53-8.81-.16-13.13-.16h-13.13c-8.74,0-17.54-.29-26.27.1-.98.04-.98,1.47,0,1.52,8.73.38,17.53.1,26.27.1,4.27,0,8.54,0,12.81,0,4.43,0,9.07.38,13.46-.16.9-.11.9-1.27,0-1.38Z"/>
      <path class="cls-10" d="m134.31,287.15c-4.29-.53-8.81-.16-13.13-.16h-13.13c-8.74,0-17.54-.29-26.27.1-.98.04-.98,1.47,0,1.52,8.73.38,17.53.1,26.27.1,4.27,0,8.54,0,12.81,0,4.43,0,9.07.38,13.46-.16.9-.11.9-1.27,0-1.38Z"/>
      <path class="cls-13" d="m96.05,448.12c0-5.8,0-11.6,0-17.4,0-11.71,0-23.42,0-35.13,0-23.31-.02-46.61-.04-69.92-.01-13.13.12-26.27-.11-39.39-.02-.91-1.41-.91-1.43,0-.4,23.3-.11,46.62-.13,69.92-.02,23.31-.02,46.61-.03,69.92,0,6.46,0,12.91,0,19.37,0,6.66-.26,13.38.13,20.02.06.95,1.44.96,1.5,0,.34-5.78.13-11.61.13-17.4Z"/>
      <path class="cls-13" d="m113.79,448.12c0-5.8,0-11.6,0-17.4,0-11.71,0-23.42,0-35.13,0-23.31-.02-46.61-.04-69.92-.01-13.13.12-26.27-.11-39.39-.02-.91-1.41-.91-1.43,0-.4,23.3-.11,46.62-.13,69.92-.02,23.31-.02,46.61-.03,69.92,0,6.46,0,12.91,0,19.37,0,6.66-.26,13.38.13,20.02.06.95,1.44.96,1.5,0,.34-5.78.13-11.61.13-17.4Z"/>
    </g>
  </g>
  <path class="cls-19" d="m29.44,449.06c7.76,13.33,13.62,17.12,13.62,17.12,0,0,61.05-92.47,64.12-104.29,3.06-11.82,1.74-74.85,1.74-74.85l-30.79,3.28s-14.97,81.23-16.89,84.53c-1.92,3.3-31.79,74.19-31.79,74.19Z"/>
  <path class="cls-19" d="m70.29,289.69c-14.01,8.02-9.64,37.8-3.29,44.1,6.35,6.3,5.97,6.95,6.35,6.3.38-.66,8.83-48.4,8.83-48.4l-11.9-1.99Z"/>
  <g class="cls-20">
    <g>
      <path class="cls-13" d="m63.86,457.91c-.27-.67-.49-.72-1.11-1.12-.73-.47-1.44-1.07-2.13-1.61-1.6-1.27-2.92-2.82-4.09-4.48-1.12-1.6-2.44-2.95-3.79-4.35-1.41-1.47-2.68-3.06-4.02-4.6-2.7-3.1-5.68-6.01-8.67-8.84-1.52-1.44-3.12-2.77-4.67-4.17-1.25-1.13-2.36-2.39-3.93-3.1-.82-.38-1.55.82-.72,1.22,1.57.76,2.66,2.13,3.93,3.26,1.52,1.35,3.03,2.69,4.49,4.11,2.95,2.86,5.93,5.76,8.62,8.87,2.6,3.01,5.54,5.83,7.81,9.09.96,1.38,2.12,2.52,3.35,3.67.67.63,1.44,1.12,2.18,1.66.44.32,1.31.65,1.63,1.04.41.49,1.36-.04,1.11-.64Z"/>
      <path class="cls-13" d="m78.63,438.73c-1.44-.45-2.89-2.04-4.15-2.87-1.83-1.21-3.54-2.55-5.27-3.89-3.33-2.57-6.73-5.05-10.13-7.54-3.48-2.54-6.73-5.36-10.04-8.11-1.45-1.21-2.93-2.37-4.36-3.61-1.17-1.02-2.34-1.93-3.81-2.49-.65-.25-1.12.84-.48,1.13,1.66.73,2.92,1.98,4.26,3.16,1.56,1.38,3.21,2.67,4.81,4.02,3.15,2.66,6.3,5.3,9.63,7.74,3.55,2.6,7.08,5.23,10.54,7.95,1.56,1.23,3.16,2.35,4.82,3.44,1.21.8,2.33,2.13,3.82,2.35.84.12,1.2-1.02.36-1.28Z"/>
      <path class="cls-13" d="m83.8,408.54c-3.97-2.45-8.16-4.54-12.12-7.01-4.06-2.55-8.23-5-12.16-7.74-1.93-1.34-3.87-2.62-5.87-3.85-1.51-.93-3.5-2.36-5.33-2.4-.82-.02-.8,1.2,0,1.25.95.07,2.28.96,3.11,1.43.95.54,1.85,1.15,2.77,1.73,1.73,1.09,3.38,2.27,5.05,3.44,3.53,2.47,7.27,4.64,10.88,6.99,3.45,2.24,7.14,4.09,10.69,6.18,2.35,1.39,6.25,3.01,7.23,5.72.25.68,1.36.63,1.34-.18-.07-2.74-3.59-4.31-5.6-5.55Z"/>
      <path class="cls-13" d="m100.28,387.64c-1.07-.82-2.56-1.08-3.82-1.53-2.02-.72-4-1.5-5.96-2.34-3.98-1.7-7.92-3.52-11.8-5.43-3.77-1.85-7.49-3.81-11.31-5.55-3.57-1.62-7.18-3.47-10.94-4.62-.8-.25-1.14,1-.35,1.25,3.92,1.24,7.73,3.2,11.45,4.96,3.7,1.75,7.32,3.67,11,5.48,3.7,1.82,7.43,3.55,11.22,5.18,1.72.74,3.45,1.47,5.22,2.1,1.44.51,3.4.76,4.68,1.56.68.42,1.22-.58.61-1.04Z"/>
      <path class="cls-13" d="m105.6,349.79c-3.86-.23-7.73-.26-11.58-.7-3.91-.45-7.77-.39-11.7-.38-3.8,0-7.6-.04-11.4,0-2.03.02-4.02.34-6.04.4-1.99.06-3.98-.02-5.97-.03-.88,0-.88,1.35,0,1.35,1.88.01,3.77.1,5.65.06,2.02-.04,4.01-.36,6.03-.38,3.91-.05,7.82.04,11.73.04,3.82,0,7.59-.1,11.4.34,3.91.45,7.93.76,11.87.54.8-.04.8-1.19,0-1.24Z"/>
      <path class="cls-13" d="m107.98,329.48c-1.95-.09-3.83.16-5.77.34-1.98.18-3.97.17-5.95.21-4.1.09-8.17.55-12.24.95-3.91.39-7.83.61-11.74.96-1.85.16-3.7.33-5.53.61-1.49.23-3.01.76-4.52.61-.19-.34-.71-.53-1.04-.2-.08.09-.17.17-.25.26-.35.36-.18.95.29,1.09,1.36.41,2.74.2,4.11-.06,1.88-.36,3.77-.59,5.68-.76,4.12-.37,8.25-.58,12.36-.98,4.07-.4,8.14-.88,12.24-1,2.09-.06,4.19-.02,6.28-.19,2.03-.17,4.04-.47,6.08-.55.83-.03.83-1.24,0-1.28Z"/>
      <path class="cls-13" d="m110.75,310.68c-1.73-.23-3.68.03-5.43.1-2.27.09-4.54.06-6.81.14-4.53.16-9.07.49-13.59.79-4.39.29-8.77.72-13.16.89-2.4.09-4.78.01-7.18-.03-2.2-.04-4.41.25-6.6.05-.85-.08-.99,1.23-.13,1.32,2.2.21,4.4-.07,6.6-.02,2.14.05,4.27.14,6.41.09,4.46-.11,8.91-.52,13.36-.81,4.52-.3,9.05-.61,13.58-.78,4.32-.17,8.72.06,13.01-.43.76-.09.67-1.2-.04-1.3Z"/>
      <path class="cls-10" d="m110.26,293.87c-1.73-.23-3.68.03-5.43.1-2.27.09-4.54.06-6.81.14-4.53.16-9.07.49-13.59.79-4.39.29-8.77.72-13.16.89-2.4.09-4.78.01-7.18-.03-2.2-.04-4.41.25-6.6.05-.85-.08-.99,1.23-.13,1.32,2.2.21,4.4-.07,6.6-.02,2.14.05,4.27.14,6.41.09,4.46-.11,8.91-.52,13.36-.81,4.52-.3,9.05-.61,13.58-.78,4.32-.17,8.72.06,13.01-.43.76-.09.67-1.2-.04-1.3Z"/>
      <path class="cls-13" d="m85.5,288.55c-3.79,25.65-7.07,51.54-16.01,76.05-8.19,22.46-20.56,43.1-30.36,64.86-2.69,5.98-5.2,12.04-7.38,18.22-2.19,6.23-4.34,12.71-5.28,19.26-.14.94,1.22,1.38,1.48.41,1.56-5.71,2.88-11.45,4.77-17.07,1.92-5.71,4.13-11.32,6.54-16.84,4.76-10.93,10.21-21.55,15.53-32.22,5.27-10.57,10.4-21.22,14.67-32.23,4.64-12.01,7.98-24.46,10.52-37.06,2.88-14.29,4.84-28.76,6.55-43.23.07-.58-.95-.72-1.04-.14Z"/>
      <path class="cls-13" d="m100.26,285.71c-1.73,13.9-3.32,27.81-5.49,41.66-2.08,13.3-4.09,26.77-7.69,39.76-1.78,6.43-4.09,12.67-7.12,18.62-2.87,5.65-6.24,11.04-9.75,16.32-7,10.55-14.31,20.83-20.36,31.97-6.9,12.71-12.54,26.08-16.86,39.87-.33,1.06,1.34,1.51,1.67.46,3.92-12.5,8.92-24.65,15-36.28,5.98-11.44,13.22-22.01,20.42-32.7,7.13-10.58,13.59-21.48,17.43-33.7,4.06-12.89,6.07-26.44,8.16-39.75,2.41-15.32,4.59-30.76,5.74-46.22.06-.75-1.07-.72-1.16,0Z"/>
    </g>
  </g>
  <path class="cls-14" d="m74.35,408.74c-5.77,6.88-11.45,13.84-17.35,20.61-2.89,3.31-5.8,6.59-8.75,9.84-2.96,3.27-6.25,6.38-8.93,9.87-.35.46.31.95.74.73.27-.14.55-.28.82-.43.04.01.09.02.13.02.22,0,.44,0,.66,0,.27,0,.53-.24.52-.51-.01-.28-.23-.51-.52-.51h-.01c2.78-2.61,5.28-5.61,7.84-8.39,3.04-3.31,6.03-6.66,8.99-10.05,5.8-6.66,11.53-13.41,16.86-20.44.43-.56-.53-1.3-.99-.76Z"/>
  <path class="cls-14" d="m67.63,399.66c-3.17,5.1-6.38,10.15-9.95,14.99-3.66,4.96-7.75,9.51-11.66,14.25-.46.56.27,1.33.82.81,4.36-4.17,8.16-9.04,11.75-13.87,3.69-4.97,7.18-10.12,10.13-15.56.38-.7-.66-1.31-1.08-.63Z"/>
  <path class="cls-13" d="m96.83,419.18c-.07-8.88-.16-17.92-1.19-26.75-.09-.81-1.34-.86-1.32,0,.22,8.92.85,17.82.92,26.75.03,4.35,0,8.71-.1,13.06-.11,4.56-.46,9.14-.41,13.7,0,.86,1.21.81,1.31,0,1.06-8.8.85-17.91.79-26.76Z"/>
  <g>
    <path class="cls-18" d="m68.02,193.83c18.68,7.58,36.49,10.21,36.49,20.31s-.99,15.14,2.3,17.02c4.86,2.77,21.67,48.45,19.99,59.17-1.68,10.73-11.78,12.54-30.18,12.54s-33.08-3.09-31.91-8.49,11.06-26.32,6.12-31.22c-4.94-4.9-31.53-24.14-33.98-34.52-2.45-10.38.41-16.67,10.51-22.45,10.1-5.78,20.67-12.35,20.67-12.35Z"/>
    <g class="cls-23">
      <g>
        <path class="cls-15" d="m117.03,237.08c-.58-1.36-1.69-2.4-3.16-2.8-3.03-.81-5.88,1.05-7.96,3.09-2.27,2.23-3.9,5.44-2.21,8.49,1.26,2.26,4.05,2.65,6.23,1.62.52-.25,1.03-.66,1.41-1.09.14-.18.28-.36.42-.54.02-.02.06-.06.11-.13.47-.42.93-.87,1.4-1.29.22-.14.44-.29.66-.43,1.12-.66,2.29-1.4,2.84-2.63.66-1.47.89-2.78.25-4.3Z"/>
        <path class="cls-15" d="m123.39,261.5c-1.59-.72-3.06-1.16-4.77-1.6-.51-.13-1.05-.23-1.53-.42-.38-.19-.75-.39-1.13-.57-.17-.12-.29-.19-.39-.24-2.59-3.98-9.2-1.94-8.12,3.35,1.26,6.13,10.91,9.91,15.94,6.21,2.1-1.55,2.97-5.38,0-6.72Z"/>
        <path class="cls-15" d="m101.03,263.9c-.94-2.72-2.71-4.94-5.19-6.45-2.17-1.32-5.18-.47-6.45,1.68-1.34,2.27-.45,5.02,1.69,6.39.06.04.1.07.14.09.01.02.03.04.06.07.03.03.17.2.27.32.06.11.15.26.22.38.04.1.11.27.15.44.01.05.04.24.07.39,0,.06.01.12.02.2.06.42.11.84.17,1.26-.18-1.08.08.57.13.78.14.56.46,1.15.72,1.67.9,1.8,3.95,2.75,5.63,1.46,2.87-2.18,3.52-5.34,2.36-8.69Z"/>
        <path class="cls-15" d="m79.9,276.24c-2.02-1.22-4.04-.85-6.26-1.09-.84-.09-1.55-.34-2.59-.99-1.65-1.04-4.02-.65-5.36.69-1.45,1.44-1.57,3.56-.69,5.32,2.62,5.24,11.52,6.84,15.77,2.78,2.03-1.94,1.46-5.31-.87-6.71Z"/>
        <path class="cls-15" d="m107.44,287.77c-1.44-1.34-3.45-2.36-5.33-2.91-1.77-.52-3.85-.83-5.65-.31-2.93.85-4.43,3.71-3.73,6.56.46,1.89,2.41,3.27,4.34,3.27.36,0,.74-.06,1.12-.16.15.04.3.08.45.14.02,0,.03.01.04.02.04.02.1.05.2.1.4.2.79.39,1.18.61,1.72,1.03,3.33,2.28,5.46,2.2,1.69-.06,3.9-1.27,4.15-3.14.35-2.51-.33-4.61-2.24-6.39Z"/>
        <path class="cls-15" d="m74.16,237.44c-1.98-1.44-5.07-.33-6.22,1.62-1.34,2.27-.37,4.74,1.63,6.17-.36-.26.12.12.21.21.04.04.71.81.59.64.19.27.43.75.52,1.03.08.26.15.51.21.77.01.08.04.29.05.4.1,1.32.33,2.3.92,3.48,1.11,2.19,4.76,2.75,6.39.82,4.16-4.93.13-11.93-4.3-15.13Z"/>
        <path class="cls-15" d="m92.7,216.49c-.14-1.71-.69-3.32-1.56-4.8-1.93-3.32-5.01-5.76-9.03-5.02-2.3.42-3.66,3.01-3.38,5.13.24,1.75,1.75,3.68,3.63,4.02.1.17.2.34.31.51.05.09.09.15.12.2,0,.01,0,.05.04.14.51,1.42.73,2.97,1.63,4.21,1.38,1.91,4.74,3.12,6.54.84,1.27-1.6,1.86-3.16,1.69-5.22Z"/>
      </g>
    </g>
  </g>
  <g>
    <path class="cls-3" d="m79.12,121.15c-.66-.9-4.67-6.12-6.25-8.83-1.58-2.71-2.17-3.3-.84-4.61,2.31-2.29,10.61-4.79,13.58-2.47,2.97,2.32,1.96,15.03,1.96,15.03l-8.45.89Z"/>
    <path class="cls-3" d="m71.3,109.03s-3.22-5.27-3.64-8.03c-.42-2.76,1.35-10.79,3-9.62s1.23,2.1.99,4.63c-.24,2.53.56,4.58,1.62,6.4,1.06,1.83,2.38,4.08,2.38,4.08l-4.35,2.53Z"/>
    <path class="cls-3" d="m75.35,108.53c-3.34-5.73-4.57-11.09-4.05-13.89.52-2.81,1.57-5.6,2.67-5.6s2.23.83,2.23,3.15-.92,5.27-.5,6.01c.43.73,4.25,7.75,4.25,7.75l-4.6,2.6Z"/>
    <path class="cls-3" d="m81.09,108.54c-1.1-1.33-4.92-7.51-4.5-9.82.42-2.32,1.98-5.09,3.4-4.28,1.42.81,2.12,2.88,2.12,3.72s1.8.81,2.76,1.75,1.92,9.12,1.92,9.12l-5.7-.49Z"/>
  </g>
  <path class="cls-18" d="m36.8,224.8c13.73,13.61,21.15,6.73,25.15-.14,4-6.87,19.86-47.29,19.86-55.71s10.83-49.4,5.45-49.4-7.76-1.35-11.04,8.7c-3.28,10.05-12.96,41.26-12.96,43.5s-20.29,34.09-23.89,40.27c-3.6,6.18-2.57,12.78-2.57,12.78Z"/>
  <path class="cls-13" d="m112.19,317.7c-.06-.82-1.2-.81-1.27,0-.5,5.29-.66,10.57-1.43,15.84-.76,5.17-1.83,10.3-3.23,15.34-1.36,4.9-3,9.72-4.95,14.41-1.86,4.46-4.3,8.92-4.54,13.83-.04.87,1.34,1.06,1.53.21,1.16-5.04,3.28-9.59,5.22-14.36,1.97-4.85,3.63-9.82,4.94-14.89,2.52-9.68,4.45-20.35,3.73-30.39Z"/>
  <path class="cls-19" d="m77.83,178.92c-1.16,1.5-1.58,3.3-2.12,5.09-.69,2.29-1.46,4.56-2.29,6.81-1.7,4.64-3.61,9.21-5.54,13.76-1.72,4.05-4.29,8.44-5.04,12.79-.31,1.82.07,3.5.63,5.24.74,2.28,1.43,4.63,2.41,6.82.41.9,1.76.24,1.55-.65-1.09-4.68-3.87-8.61-2.05-13.47,1.46-3.88,3.15-7.68,4.74-11.51,1.61-3.87,3.19-7.75,4.61-11.7,1.47-4.1,2.3-8.63,4.2-12.54.37-.76-.61-1.29-1.11-.64Z"/>
  <path class="cls-19" d="m88.95,201.8c-1.92-.97-4.19-1.2-6.28-1.61-2.38-.47-4.76-.98-7.16-1.3-1.01-.14-1.49,1.29-.44,1.57,2.34.62,4.72,1.08,7.08,1.61,2.09.47,4.27,1.22,6.42,1.15.72-.03,1.1-1.06.39-1.41Z"/>
  <path class="cls-19" d="m100.42,228.26c-1.5.2-2.92,1.16-4.09,2.05-.95.72-2.51,1.84-2.69,3.09-.05.38.25.9.72.72,1.14-.46,1.9-1.71,2.88-2.45,1.16-.88,2.5-1.37,3.71-2.15.7-.45.22-1.36-.53-1.26Z"/>
  <path class="cls-3" d="m34.69,193.81c0,2.78-2.27,5.04-5.08,5.04s-5.08-2.25-5.08-5.04,2.27-5.04,5.08-5.04,5.08,2.25,5.08,5.04Z"/>
  <path class="cls-8" d="m17.65,186.7c-1.1-2.95-2.45-5.07-1.21-8.24.24-.62-.73-1.19-1.15-.66-2.21,2.78-.73,6.87,1.15,9.41.4.54,1.49.25,1.2-.5Z"/>
  <path class="cls-8" d="m19.09,206.08c-.5-2.29-2.04-3.69-3.94-4.93-1.57-1.02-3.03-1.97-3.6-3.86-.3-.99-.77-5.04.44-5.76.54-.32.16-1.04-.4-.95-2.56.39-1.83,5.75-1.26,7.42.45,1.33,1.27,2.34,2.38,3.19,2.14,1.64,4.11,2.57,5.2,5.21.3.72,1.37.47,1.2-.33Z"/>
  <path class="cls-8" d="m28.87,233.4c-.47-1.64-1.15-3.21-1.86-4.75-1.05-2.29-2.82-4.82-2.38-7.45.12-.71-.91-1.03-1.11-.3-.86,3.11,1.24,6.08,2.44,8.83,1.93,4.4,2.67,8.24,1.3,12.92-.19.65.75,1.04,1.1.46,1.73-2.87,1.4-6.62.5-9.71Z"/>
  <path class="cls-8" d="m36.91,240.38c-.2-.73-1.28-.42-1.13.31.59,2.79.86,5.16-1.15,7.41-.47.53.12,1.39.78,1.01,3.06-1.77,2.24-5.96,1.49-8.73Z"/>
  <path class="cls-8" d="m32.33,203.66c-.54-.33-1.07.41-.66.85,1.11,1.19,1.64,2.5,1.54,4.13-.04.68,1.05.82,1.2.16.44-1.93-.36-4.07-2.08-5.14Z"/>
  <path class="cls-19" d="m84.32,254.66c-4.56,1.44-8.55,4.97-10.83,9.12-.34.62.53,1.08.93.54,2.85-3.76,6.22-6.32,10.38-8.53.61-.33.2-1.34-.48-1.12Z"/>
  <path class="cls-19" d="m83.22,264.78c-3.2-.64-6.48.24-9.15,2.03-.68.46-.07,1.54.65,1.11,2.62-1.57,5.31-2.01,8.33-1.91.7.02.87-1.08.17-1.22Z"/>
  <g class="cls-22">
    <g>
      <path class="cls-15" d="m56.76,218.02c-1.56-.28-3.15-.61-4.69-.98-.52-.12-1.08-.27-1.58-.47-.42-.2-.84-.42-1.24-.66-.06-.05-.11-.08-.16-.12-.58-1.83-2.15-3.22-4.24-3.22-2.3,0-4.63,2.03-4.47,4.44.47,7.12,10.42,10.53,16.37,8.19,1.57-.61,2.76-1.83,2.76-3.6,0-1.53-1.16-3.31-2.76-3.59Z"/>
      <path class="cls-15" d="m65.49,188.46c-1.41-2.08-3.31-3.84-5.6-4.93-2.04-.97-4.52-.56-5.73,1.49-1.2,2.04-.38,4.43,1.5,5.68.18.12.28.18.33.2.04.05.11.12.2.21.21.21.42.41.62.63.11.12.18.18.22.22.02.06.06.14.13.29.03.05.23.42.34.61.07.2.26.7.26.69.12.35.23.7.35,1.04.49,1.39,1.15,2.78,2.6,3.42,1.86.82,3.49.65,5.05-.65,2.74-2.27,1.41-6.45-.27-8.92Z"/>
      <path class="cls-15" d="m86.65,158.56c-2.55-.29-3.87-.06-5.53-1.94-3.64-4.11-10.01,2.09-6.09,6.04,3.16,3.19,9.36,5.44,13.44,2.54,3.01-2.14,1.78-6.23-1.81-6.64Z"/>
      <path class="cls-15" d="m85.44,134.26c-2.21-4.11-7.43-3.79-11.14-2.32-2.36.93-3.84,3.17-2.76,5.7,1.06,2.49,3.71,3.06,6.04,2.02.72-.32,0-.06.7-.28.51-.16,1.03-.33,1.56-.41.32-.07.3-.06-.05.02.21,0,.41,0,.62.01,0,0,0,0,.01,0,.04.02.1.05.16.07,1.48.63,3.09.65,4.3-.55,1.14-1.13,1.3-2.88.55-4.26Z"/>
    </g>
  </g>
  <g class="cls-21">
    <g>
      <path class="cls-15" d="m104.21,183.76c-1.73-.74-3.52-1.19-5.26-1.86-1.01-.39-1.42-.75-1.83-1.57-1.08-2.14-4.13-2.75-6.12-1.59-2.19,1.27-2.71,3.93-1.61,6.07,1.17,2.28,3.21,3.95,5.54,4.96,2.78,1.21,5.41,1.32,8.38.75,2.98-.57,3.82-5.51.89-6.77Z"/>
      <path class="cls-15" d="m118.8,161.84c-.99-5.37-8.43-6.56-12.83-5.4-2.34.62-3.76,3.16-3.13,5.46.7,2.53,3.11,3.46,5.5,3.1-.93.14.96.14.56.04.47.09.94.24,1.39.42-.37-.13.92.54,1.06.62.74.42,1.45.74,2.29.89,3.28.57,5.75-1.84,5.15-5.11Z"/>
      <path class="cls-15" d="m121.63,127.38c-.85-.45-1.86-.62-2.81-.36-.84.23-1.76.88-2.18,1.66-.45.84-.67,1.85-.37,2.78.28.87.82,1.69,1.65,2.14.66,1.24,1.96,1.99,3.43,1.8.7-.09,1.43-.38,1.93-.92.63-.68.92-1.43.98-2.35.14-1.89-.97-3.86-2.64-4.75Z"/>
    </g>
  </g>
  <path class="cls-11" d="m31.98,194.67c-.92.59-1.91.68-2.89.23.07-.06.13-.14.17-.24.03-.03.06-.07.08-.09.02-.02.05-.05.07-.07.02-.02.02-.03.02-.03,0,0,0,0,0,0,0,0,.04-.02.06-.04.02,0,.06-.02.06-.03.13-.04.24-.09.36-.15.44-.23.39-.86,0-1.1-.46-.28-.99-.11-1.38.21-.05.04-.09.09-.13.14.02-.08.05-.15.08-.23.13-.36.39-1.06.76-1.25.35-.19.38-.78,0-.96-1.09-.52-1.68.46-2.09,1.34-.46.99-.7,2.21.07,3.13,1.24,1.47,4.99,2.15,5.76-.1.19-.55-.51-1.07-1-.76Z"/>
  <path class="cls-11" d="m78.75,102.82c-.21-.51-.56-.94-.85-1.41-.3-.48-.58-.97-.9-1.43-.33-.47-1.11-.19-.95.4.15.56.39,1.09.69,1.6.28.49.58,1.05,1.03,1.42.4.33,1.24.03.99-.57Z"/>
  <path class="cls-11" d="m81.96,100.56c0-.67-1.05-.67-1.05,0,0,.43-.02.86.01,1.29.05.65.98.66,1.03,0,.03-.43,0-.86.01-1.29Z"/>
  <path class="cls-11" d="m73.24,103.28c-.38-1.71-1.82-2.96-1.66-4.72.16-1.89.84-3.58.75-5.51-.02-.36-.52-.35-.56,0-.14,1.35-.37,2.63-.75,3.94-.26.89-.55,1.75-.32,2.69.32,1.34,1.34,2.62,1.94,3.86.17.34.67.09.6-.25Z"/>
</svg>