<?xml version="1.0" encoding="UTF-8"?>
<svg id="_圖層_2" data-name="圖層 2" xmlns="http://www.w3.org/2000/svg" xmlns:xlink="http://www.w3.org/1999/xlink" viewBox="0 0 250 500">
  <defs>
    <style>
      .cls-1 {
        clip-path: url(#clippath);
      }

      .cls-2 {
        fill: #faaf70;
      }

      .cls-3 {
        fill: #e6e7e8;
      }

      .cls-4 {
        fill: #fee691;
      }

      .cls-5 {
        fill: #fef4d0;
      }

      .cls-6 {
        fill: #ba251c;
      }

      .cls-7 {
        fill: #98c0db;
      }

      .cls-8 {
        fill: #b0462d;
      }

      .cls-9 {
        fill: #e08b43;
      }

      .cls-10 {
        fill: #cadff0;
      }

      .cls-11 {
        fill: #16405c;
      }

      .cls-12 {
        fill: #1f2144;
      }

      .cls-13 {
        fill: #21608a;
      }

      .cls-14 {
        fill: #129687;
      }

      .cls-15 {
        fill: #0e786c;
      }

      .cls-16 {
        fill: #93b470;
      }

      .cls-17 {
        fill: #8a3723;
      }

      .cls-18 {
        fill: #779968;
      }

      .cls-19 {
        clip-path: url(#clippath-1);
      }
    </style>
    <clipPath id="clippath">
      <path class="cls-12" d="m54.45,448.31c0-4.48,12.52.87,13.17,5.53.65,4.65-.89,13.45.57,15.99,1.46,2.53,10.53,8.24,13.17,8.81,2.64.57,2.64,6.53,2.64,6.53h-18.45c-.91,0-1.79-.31-2.5-.87-4.16-3.32-18.58-15.13-17.23-18.5,1.57-3.94,8.62-16.37,8.62-17.48Z"/>
    </clipPath>
    <clipPath id="clippath-1">
      <path class="cls-12" d="m132.91,461.47c2.32-3.73,9.59-10.32,13.46-3.07,3.87,7.25,7.05,13.44,12.87,14.73,5.82,1.29,17.15,3.46,18.51,7.1,1.36,3.64,1.07,5.5,1.07,5.5l-43.39-1.45-2.52-22.82Z"/>
    </clipPath>
  </defs>
  <g>
    <path class="cls-9" d="m182.83,296.09c1.03,3.53,6.24,8.2,9.92,4.52,3.93-3.93,6.88-9.36,5.63-9.25-1.17.1-3.57-4.81-7.65-2.46-4.08,2.35-8.17,6.29-7.9,7.19Z"/>
    <path class="cls-9" d="m197.33,294.58c2.66-6.09,6.26-9.6,6.26-10.82s-1.52-2.97-3.13-1.37c-1.6,1.6-6.14,6.55-6.14,6.55l3.01,5.65Z"/>
    <path class="cls-9" d="m181.31,288.9c-.18,2.68-.99,4.17,0,5.16s1.83,2.9,2.29,2.64,2-2.12,1.7-2.64-2.19-2.24-2.19-3.76-1.69-2.91-1.79-1.41Z"/>
    <path class="cls-9" d="m195.51,288.78c-2.29-1.32-5.37-4.33-5.37-5.61s-2.33-7.59-3.69-6.8c-1.36.79-.79,3.35,0,6.93.8,3.59,4.05,6.39,4.95,6.91.9.52,4.09-1.44,4.09-1.44Z"/>
    <path class="cls-9" d="m192.49,290.74c-2.29-1.32-5.04-4.89-5.04-6.17s-1.54-5.21-2.9-4.42c-1.36.79-1.37,1.83-.56,5.42.8,3.59,3.52,6.08,4.42,6.6.9.52,4.09-1.44,4.09-1.44Z"/>
    <path class="cls-9" d="m182.12,291.64c-.3-1.91.16-5.18,1.43-5.46,1.28-.28,3.1,2.02,3.23,2.23s3.23,4.14,3.23,4.14c0,0-4.26,3.87-4.46,3.87s-2.03-1.55-2.15-1.67-1.28-3.11-1.28-3.11Z"/>
  </g>
  <g>
    <g>
      <polygon class="cls-2" points="76.44 439.8 65.8 458.88 53.94 453.81 59.27 434.34 76.44 439.8"/>
      <path class="cls-12" d="m63.35,451.58c.66-2.18,1.95-3.05,3.65-2.07,1.7.98,4.57,1.74,4.14,3.38-.44,1.63-3.35,5.12-3.35,5.12l-4.43-6.42Z"/>
      <g>
        <path class="cls-12" d="m54.45,448.31c0-4.48,12.52.87,13.17,5.53.65,4.65-.89,13.45.57,15.99,1.46,2.53,10.53,8.24,13.17,8.81,2.64.57,2.64,6.53,2.64,6.53h-18.45c-.91,0-1.79-.31-2.5-.87-4.16-3.32-18.58-15.13-17.23-18.5,1.57-3.94,8.62-16.37,8.62-17.48Z"/>
        <g class="cls-1">
          <g>
            <path class="cls-10" d="m67.87,461.11l-4.55-.94c-.61-.13-.88.81-.26.94,1.52.31,3.03.63,4.55.94.61.13.88-.81.26-.94Z"/>
            <path class="cls-10" d="m68.25,466.74c-1.73,0-3.39-.31-5-.94-.59-.23-.84.71-.26.94,1.69.66,3.44.98,5.26.97.63,0,.63-.98,0-.98Z"/>
            <path class="cls-10" d="m71.15,472.23c-1.08.37-2.17.52-3.31.45-.63-.04-.62.94,0,.98,1.22.08,2.41-.08,3.57-.48.59-.2.34-1.15-.26-.94Z"/>
            <path class="cls-6" d="m64.38,453.11c.08-1.14.28-2.3.11-3.44-.05-.33-.52-.27-.61,0-.36,1.17-.34,2.49-.42,3.71-.09,1.3-.19,2.65.32,3.87.14.34.75.36.72-.1-.11-1.37-.21-2.67-.12-4.05Z"/>
            <path class="cls-6" d="m50.59,455.75c-.24-.34-.83-.14-.7.29.03.1.06.2.09.29.02.08.09.14.16.17,1.12,2.05,1.77,4.27,1.61,6.64-.17,2.47-1.35,4.17-2.37,6.32-.17.35.24.67.54.42,1.72-1.47,2.52-4.29,2.71-6.47.23-2.71-.49-5.43-2.03-7.66Z"/>
            <path class="cls-6" d="m83.88,477.06c-3.56-.22-7.52.14-11.01.9-2.62.57-3.3,2.52-2.8,4.99.07.33.59.25.58-.08-.03-1.51-.12-3.18,1.56-3.85,1.19-.48,2.75-.51,3.98-.66,2.56-.3,5.12-.3,7.69-.48.53-.04.53-.79,0-.82Z"/>
          </g>
        </g>
      </g>
      <path class="cls-10" d="m83.45,481.2h-17.86l-18.55-18.02c-.52,1.05-.94,1.96-1.2,2.62-1.35,3.37,13.07,15.18,17.23,18.5.71.57,1.59.87,2.5.87h18.45s0-2.14-.57-3.97Z"/>
    </g>
    <g>
      <polygon class="cls-2" points="133.37 444.07 134.57 467.02 148.88 465.94 152.72 444.71 133.37 444.07"/>
      <g>
        <path class="cls-12" d="m152.11,467.18c-.52-3.03,1.84-8.89,1.14-9.33-.7-.43-5.85.47-5.85.47l4.7,8.86Z"/>
        <path class="cls-12" d="m132.91,461.47c2.32-3.73,11.9-10.24,15.78-2.99,3.87,7.25,4.74,13.36,10.55,14.65,5.82,1.29,17.15,3.46,18.51,7.1,1.36,3.64,1.07,5.5,1.07,5.5l-43.39-1.45-2.52-22.82Z"/>
        <path class="cls-10" d="m146.23,467.04c-.07,2.17-1.89,3.88-4.07,3.81s-3.88-1.89-3.81-4.07c.07-2.17,1.89-3.88,4.07-3.81,2.17.07,3.88,1.89,3.81,4.07Z"/>
        <g>
          <path class="cls-12" d="m132.91,461.47c2.32-3.73,9.59-10.32,13.46-3.07,3.87,7.25,7.05,13.44,12.87,14.73,5.82,1.29,17.15,3.46,18.51,7.1,1.36,3.64,1.07,5.5,1.07,5.5l-43.39-1.45-2.52-22.82Z"/>
          <g class="cls-19">
            <g>
              <path class="cls-10" d="m152.64,467.51c-.93.64-1.93,1.16-3,1.53-.56.19-.35,1.1.22.91,1.15-.4,2.22-.93,3.22-1.61.49-.34.05-1.16-.44-.82Z"/>
              <path class="cls-10" d="m155.85,469.95c-.81.95-1.8,1.68-2.95,2.17-.55.24-.11,1.06.44.82,1.22-.52,2.28-1.3,3.14-2.31.39-.45-.25-1.14-.64-.68Z"/>
              <path class="cls-10" d="m160.07,472.96c-.21.78-.45,1.55-.72,2.32-.2.57.69.84.89.28.28-.76.52-1.53.72-2.32.15-.58-.74-.86-.89-.28Z"/>
            </g>
            <path class="cls-6" d="m170.79,478.92c-.03-1.53.16-3.03.27-4.55.03-.39-.59-.5-.68-.12-.68,2.78-.87,6.62.18,9.34.12.3.6.16.6-.14,0-1.51-.34-3.01-.37-4.53Z"/>
            <path class="cls-6" d="m133.06,473.27c-.42.01-.44.6-.02.65,2.78.29,5.35,1.13,7.42,3.1,1.9,1.81,2.66,3.95,3.36,6.41.11.38.75.36.72-.07-.31-5.6-6.03-10.27-11.48-10.08Z"/>
          </g>
        </g>
        <path class="cls-6" d="m151.49,464.55c-.45-1.09-1.1-2.12-1.66-3.15-.51-.93-.97-1.95-1.62-2.8-.2-.26-.59-.02-.49.28.37,1.11,1.03,2.16,1.57,3.19.5.96.95,1.95,1.55,2.85.24.36.81.02.65-.38Z"/>
        <path class="cls-10" d="m135.59,485.74h43.23s.25-1.57-.77-4.64l-43.01-.33.55,4.97Z"/>
      </g>
    </g>
    <path class="cls-16" d="m129.41,444.07c4.96,4.96,21.62,4.85,26.47,0,4.85-4.85,7.14-90.28,7.14-95.38s-16.74-65.26-16.74-65.26l-46.19,4.93s24.24,60.65,24.24,65.43.12,85.32,5.08,90.28Z"/>
    <path class="cls-16" d="m56.64,433.24c0,6.42,15.87,11.29,21.34,8.13,5.47-3.16,36.76-57.62,40.82-71.01s17.11-61.92,17.11-61.92l-45.32,4.3-10.11,49.13s-23.84,69.22-23.84,71.37Z"/>
    <path class="cls-18" d="m143.71,428.54c-1.64-5.67-3.26-11.33-4.79-17.02-1.58-5.86-3.51-11.74-3.94-17.82-.42-5.91-.14-11.84-.68-17.76-.56-6.21-1.19-12.43-2.01-18.61-.09-.66-1.11-.7-1.06,0,.43,6.36,1.2,12.7,1.75,19.05.53,6.23.1,12.49.71,18.71.56,5.73,2.37,11.28,3.87,16.82,1.54,5.7,2.77,11.65,5.08,17.1.26.63,1.27.18,1.09-.46Z"/>
    <path class="cls-18" d="m154.51,357.26c-1.78-3.32-2.47-6.27-2.83-10-.05-.49-.85-.7-.94-.13-.52,3.62.7,7.74,2.88,10.64.39.52,1.21.08.89-.52Z"/>
    <path class="cls-18" d="m110.99,368.07c-9.75,8.71-18.52,18.65-26.54,28.96-7.8,10.02-15.68,20.78-21.22,32.25-.25.51.45.94.77.45,3.49-5.38,6.63-10.98,10.18-16.33,3.68-5.53,7.57-10.92,11.67-16.15,7.93-10.14,16.73-19.42,25.81-28.52.43-.43-.21-1.06-.66-.66Z"/>
  </g>
  <path class="cls-15" d="m136.89,192.09c-8.61-11-19.49-20.32-32.64-19.37s-11.48,30.96-8.49,35.03,41.12-15.66,41.12-15.66Z"/>
  <path class="cls-15" d="m102.89,186.13c2.04-2.38,6.66-5.47,21.96-3.08,15.3,2.39,24.05,10.71,26.76,17.33,2.71,6.61-7.47,50.68-3.64,65.6,3.83,14.92,7.64,22.91-1.01,26.42-8.65,3.51-47.28,6.7-49.92,2.13-2.64-4.57-11.72-31.07-10.52-50.32,1.2-19.25,16.37-58.08,16.37-58.08Z"/>
  <path class="cls-3" d="m119.08,183.59c-2.73,1.58,2.7,13.62,12.12,16.25,9.42,2.63,5.72-9.74,1.52-12.72-4.2-2.98-12.13-4.4-13.64-3.53Z"/>
  <path class="cls-2" d="m137.43,184.13c-2.51,2.51-4.5,5.79-5.68,7.98-.7,1.29-1.07,2.28-2.5,1.99-5.4-1.11-10.1-7.34-10.5-10.17,0,0,4.17-7.31,4.17-10.18s14.52,10.38,14.52,10.38Z"/>
  <path class="cls-9" d="m122.87,174.26c1.07,7.62,5.51,15.34,9.06,17.51,1.2-2.18,3.11-5.25,5.5-7.64,0,0-8.68-7.91-12.61-10.18-1.16.18-1.95.31-1.95.31Z"/>
  <g>
    <path class="cls-2" d="m150.08,154.49c2.26,6.07,2.28,36.13-6.09,34.99s-21.71-10.29-23.66-15.53c-1.95-5.25-9.52-28.87,3.02-29.14s25.49,6.36,26.73,9.68Z"/>
    <path class="cls-11" d="m127.13,171.47c1.31,9.96,11.83,21.68,16.31,21.12,7.4-.94,8.57-9.48,6.66-9.8-1.91-.32-2.56,4.28-9.55.38-7-3.9-9.23-12.65-9.31-15.48-.08-2.82-4.1,3.78-4.1,3.78Z"/>
    <path class="cls-11" d="m140.43,156.6c10.73,3.43,14.31-1.3,13.37-2.62s-2.65-2.74-2.65-2.74c0,0,4.09.09,1.22-1.59-2.88-1.68-24.63-10.9-33.05-5.49-8.09,5.19-6.65,19.08-.78,29.82,3.88,7.09,11.03,1.3,11.98-4.37.96-5.67,9.91-13.02,9.91-13.02Z"/>
    <path class="cls-11" d="m145.82,164.82c1.78-1.78,5.51-2.02,5.51-.83s.63.82,0,1.19c-.63.37-6.17.3-5.51-.36Z"/>
    <path class="cls-2" d="m150.37,167.39c1.34,1.93,4.43,6.03,2.7,6.54-1.73.51-3.39.29-3.39.29l.69-6.83Z"/>
    <ellipse class="cls-11" cx="147.65" cy="169.13" rx="1.23" ry="1.7"/>
    <path class="cls-11" d="m150.39,180.26c-.37-.25-.85-.18-1.28-.24-.5-.07-.98-.21-1.47-.32-.41-.1-.72.52-.3.71.51.23,1.04.37,1.59.46.47.08,1.02.23,1.45-.03.22-.14.21-.44,0-.58Z"/>
    <path class="cls-13" d="m146.9,149.63c-.72-.18-1.35-.19-2.09-.2-.76,0-.88,1.08-.18,1.3.26.08-1.28.09-1.25.09-.67-.07-1.34-.21-2-.36-1.14-.26-2.25-.6-3.36-.93-.76-.23-1.06.93-.33,1.18,1.6.55,3.22,1.05,4.89,1.31.92.14,2.43.52,3.29.06.73-.39.81-.92.59-1.4.14-.02.29-.04.44-.08.49-.11.47-.85,0-.97Z"/>
    <path class="cls-13" d="m120.39,147.93c-.78.18-1.38,1.11-1.85,1.71-.52.67-1.1,1.38-1.34,2.21-.15.5.49.84.85.5.6-.58,1.03-1.35,1.54-2,.44-.55,1.19-1.14,1.35-1.85.08-.35-.21-.65-.56-.56Z"/>
    <path class="cls-13" d="m120.7,153.31c-.88.91-1.74,1.95-2.15,3.17-.19.58.6.81.91.39.68-.93,1.2-1.96,1.91-2.88.36-.47-.23-1.13-.68-.68Z"/>
    <path class="cls-13" d="m121.29,169.6c-.49-.76-.98-1.49-1.25-2.37-.23-.74-.53-1.94-.11-2.66.26-.45-.27-1.02-.73-.73-.89.57-.72,1.94-.59,2.85.2,1.33.79,2.67,1.84,3.54.43.36,1.18-.1.83-.64Z"/>
    <path class="cls-13" d="m147,185.82c-.16-.54-1.01-.32-.85.24.22.81-.22,1.39-.64,2.02-.27.4.24.81.62.62,1.01-.52,1.17-1.9.88-2.87Z"/>
    <path class="cls-13" d="m142.92,186.23c-.42.68-.99,1.2-1.48,1.82-.32.41.07,1.04.58.76.79-.45,1.34-1.29,1.73-2.08.28-.56-.51-1.03-.84-.49Z"/>
    <path class="cls-13" d="m137.28,183.23c-.28.35-.61.65-1,.86-.39.2-.83.29-1.23.48-.41.19-.24.76.12.88,1.15.39,2.45-.6,2.89-1.62.2-.46-.39-1.08-.78-.6Z"/>
  </g>
  <path class="cls-14" d="m96.64,249.61c-2.52-.85-6.2-.03-8.6.93-1.13.45-.72,2.14.51,1.86,1.44-.34,2.86-.7,4.33-.84,1.25-.12,2.52.02,3.75-.24.91-.19.77-1.44,0-1.7Z"/>
  <path class="cls-14" d="m95.66,253.12c-1.63-.32-3.5.59-4.53,1.85-.58.71.18,1.99,1.06,1.38.56-.39,1.13-.81,1.76-1.08.63-.27,1.28-.43,1.9-.72.59-.28.45-1.3-.19-1.43Z"/>
  <path class="cls-14" d="m121.82,203.33c-.15-2.92-.5-6.42-2.57-8.66-.48-.53-1.27.03-1.13.66.56,2.6,1.46,4.87,1.59,7.59.13,2.62.11,5.03-1.11,7.41-.48.94.62,1.69,1.39,1.08,2.29-1.82,1.96-5.47,1.82-8.07Z"/>
  <path class="cls-14" d="m113.95,184.84c-1.78-2.15-5.42-1.03-7.64-.26-3.06,1.05-5.86,2.72-8.26,4.88-.96.87.43,2.19,1.4,1.4,3.78-3.11,8.75-5.88,13.71-4.67.83.2,1.29-.74.79-1.35Z"/>
  <path class="cls-2" d="m137.42,167.95c0,2.6-2.1,4.7-4.7,4.7s-4.7-2.1-4.7-4.7,2.1-4.7,4.7-4.7,4.7,2.1,4.7,4.7Z"/>
  <path class="cls-9" d="m133.83,165.21c-1.63-1.3-3.61.15-3.86,1.97-.19,1.44.86,4,2.63,3.76.28-.04.4-.43.26-.65-.5-.75-1.32-1.02-1.58-2-.02-.08-.04-.17-.05-.26.12.07.24.12.37.17.27.11.56.25.86.14.27-.09.46-.36.37-.65-.13-.43-.57-.63-.98-.72-.16-.03-.33-.06-.49-.04.26-.67.84-1.14,1.68-.72.61.3,1.38-.53.78-1.01Z"/>
  <g>
    <path class="cls-17" d="m209.15,244.24c.07,1.3.11,2.59.09,3.91h0c0,1.42-.05,2.83-.16,4.25-.1,1.53-.26,3.06-.49,4.59-5.75,39.95-47.88,66.95-94.09,60.29-46.2-6.65-79-44.44-73.25-84.39.14-.99.31-1.97.5-2.94.41-2.15.93-4.27,1.56-6.32v-.02c.26-.86.53-1.71.82-2.54t0-.02l165.01,23.2Z"/>
    <ellipse class="cls-8" cx="126.26" cy="236" rx="29.13" ry="83.88" transform="translate(-125.32 327.33) rotate(-81.8)"/>
    <ellipse class="cls-5" cx="126.26" cy="236.02" rx="25.48" ry="73.35" transform="translate(-125.34 327.34) rotate(-81.8)"/>
    <path class="cls-5" d="m191.83,244.31c14.97-15.28.62-33.25-3.81-34.4,0,0-6.61,14.36-17.33,12.88-10.72-1.48-11.82-2.57-11.82-2.57l32.96,24.1Z"/>
    <path class="cls-5" d="m187.1,233.78c5.31-1.55,2.5-6.26,6.29-3.62,3.8,2.64,4.35,15.55,2.12,15.81-2.23.26-8.41-12.19-8.41-12.19Z"/>
    <path class="cls-4" d="m149.49,246.89c-6.34,3.74-14.37,2.16-21.28,1.28-6.86-.87-13.68-2.09-20.43-3.63-7.09-1.62-14.17-3.52-20.94-6.18-5.16-2.03-21.26-8.56-15.77-16.76.42-.63-.45-1.35-.93-.74-4.01,5.03,1.29,10.93,5.49,13.77,6.97,4.71,15.5,7.25,23.54,9.45,9.45,2.59,19.09,4.51,28.81,5.76,7.47.96,15.72,2.43,22.54-1.58.94-.55-.08-1.91-1.02-1.36Z"/>
    <path class="cls-4" d="m149.22,230.8c-4.52-6.17-15.84-7.35-22.69-6.24-.71.11-.57,1.15.14,1.1,5.35-.38,10.53.11,15.5,2.28,1.1.48,2.15,1.01,3.16,1.66,2.25,1.45,2.73,1.63,2.32,4.49-.38,2.64-.61,2.75-2.86,3.68-1.49.61-3.1.98-4.65,1.36-.73.18-.63,1.23.15,1.18,4.56-.31,13.23-3.64,8.94-9.5Z"/>
    <path class="cls-4" d="m104.34,234.45c-2.68-1.64-5.51-3.03-7.95-5.02-2.78-2.27-4.08-5.34-6.45-7.9-.43-.47-1.17.06-.8.6,1.96,2.87,3.3,5.8,5.98,8.12,2.53,2.18,5.57,3.88,8.61,5.22.6.27,1.21-.66.61-1.02Z"/>
    <path class="cls-7" d="m142.38,236.26c4.09-8.13,12.55-10.01,22.23-5.53,9.68,4.48,5.46,15.58,5.46,15.58,0,0-6.7-.56-10.69-2.8-3.99-2.24-8.41-.23-12.83-1.85-4.42-1.62-4.17-5.4-4.17-5.4Z"/>
    <path class="cls-7" d="m159.09,236.82c-.89,0-1.79-.29-2.54-.88-1.68-1.33-2.06-3.7-.92-5.47,1.46-2.52,23.72-44.47,38.43-72.24,1.06-2.01,3.56-2.78,5.57-1.71,2.01,1.06,2.78,3.56,1.71,5.57-38.2,72.14-38.71,72.78-39.01,73.17-.81,1.03-2.02,1.57-3.24,1.57Zm-3.23-6.66s-.11.13-.2.28c.06-.1.13-.19.2-.28Z"/>
    <path class="cls-8" d="m174.07,293.44c-7.76,9.69-20.46,14.15-32.48,15.65-.95.12-.75,1.5.18,1.45,11.91-.54,26.41-6.23,33.55-16.11.6-.83-.61-1.81-1.25-1Z"/>
    <path class="cls-8" d="m77.39,270.59c-10.74-3.53-18.72-8.11-25.99-16.97-.52-.64-1.45.07-1.01.76,5.58,8.79,16.14,16.31,26.61,17.58.77.09,1.19-1.11.39-1.37Z"/>
    <path class="cls-8" d="m76.03,277.88c-5.97-1.91-11.25-4.1-16.65-7.33-.58-.35-1.13.61-.61,1.01,4.84,3.75,10.84,6.57,16.89,7.58.72.12,1.08-1.03.36-1.26Z"/>
    <path class="cls-8" d="m111.85,307.18c-8.13-.68-15.84-2.39-23.35-5.64-.64-.28-1.08.71-.44,1,7.51,3.31,15.41,5.37,23.63,5.71.68.03.86-1.01.15-1.07Z"/>
    <path class="cls-4" d="m120.29,232c-.42.91-3.56-.29-4.16-.51-1.1-.41-3.03-2.18-1.28-3.18.49-.28.02-1.1-.49-.86-2.32,1.09-1.3,3.9.54,4.89,1.23.66,6.41,2.69,6.48-.03.01-.61-.8-.93-1.08-.31Z"/>
  </g>
  <g>
    <path class="cls-15" d="m107.11,185.99c-13.87,11.48-34,57.95-30.17,71.99s8.57,52.81,20.37,56.84c3.89,1.33,9.27-11,11.45-15.23.64-1.25.86-2.66.64-4.04-1.37-8.36-6.39-39.17-6.39-43.3,0-4.78,17.92-36.56,17.92-41.82s-13.81-24.45-13.81-24.45Z"/>
    <path class="cls-2" d="m94.61,310.22c1.34,6.37,3.79,19.13,8.57,19.13s7.02.09,10.13-2.3,8.45-8.9,6.69-9.92c-1.77-1.02-5.35.28-8.69-2.25-1.51-1.15-1.55-5.41-3.24-8.67-2.05-3.95-6.17-5.96-6.17-5.96-1.58-1.16-8.87,8.82-7.28,9.97Z"/>
    <path class="cls-2" d="m102.08,302.36c2.45-1.79,4.45-.78,9.22-3.05,5.36-2.55,8.23-4.66,9.13-2.15s-5.13,9.02-6.28,9.68c-1.14.66-7.05,3.94-7.05,3.94l-5.02-8.43Z"/>
  </g>
</svg>