<?xml version="1.0" encoding="UTF-8"?>
<svg id="_圖層_2" data-name="圖層 2" xmlns="http://www.w3.org/2000/svg" xmlns:xlink="http://www.w3.org/1999/xlink" viewBox="0 0 250 500">
  <defs>
    <style>
      .cls-1 {
        clip-path: url(#clippath);
      }

      .cls-2 {
        fill: #e6e7e8;
      }

      .cls-3 {
        fill: #ffbf42;
      }

      .cls-4 {
        fill: #854713;
      }

      .cls-5 {
        fill: #ba595a;
      }

      .cls-6 {
        fill: #98c0db;
      }

      .cls-7 {
        fill: #ad6120;
      }

      .cls-8 {
        fill: #d1d3d4;
      }

      .cls-9 {
        fill: #246896;
      }

      .cls-10 {
        fill: #1f2144;
      }

      .cls-11 {
        fill: #22638f;
      }

      .cls-12 {
        fill: #129687;
      }

      .cls-13 {
        fill: #452c69;
      }

      .cls-14 {
        fill: #93b470;
      }

      .cls-15 {
        fill: #8a3723;
      }

      .cls-16 {
        fill: #4e3dab;
      }
    </style>
    <clipPath id="clippath">
      <path class="cls-5" d="m84.81,304.65c-.43-1.87-.66-3.31-.66-4.24l38.27-1.52c8.36,23.83,20.78,58.55,20.78,72.49s-2.25,86.47-2.25,88.49-18.23,15.33-21.49,9.67c-3.27-5.66-6.92-80.93-6.92-85.87,0,0-7.9-20.35-15.37-41.07-.29,18.33-.73,38.15-1.36,43.98-1.27,11.66,3.86,77.27.97,78.94-2.89,1.67-17.85,3.07-20.79,1.37-2.94-1.7-12.25-73.76-13.13-82.58-2.16-21.57-3.76-46.14-3.76-85.42l25.72,5.76Z"/>
    </clipPath>
  </defs>
  <path class="cls-14" d="m150.12,204.12c11.11-5.31,16.6-4.59,16.6-4.59l-3.08,12.7-10.4,5.05-3.12-13.16Z"/>
  <path class="cls-14" d="m157.43,208.22c-.32-4.95,4.26-7.44,8.26-8.71,4-1.27,10.42,6.34,9.81,9.21-.61,2.87-12.33,6.67-14.05,5.09-1.72-1.58-4.02-5.59-4.02-5.59Z"/>
  <polygon class="cls-7" points="138.32 460.93 137.7 473.01 123.03 474.29 122.28 467.02 138.32 460.93"/>
  <g>
    <path class="cls-3" d="m59.08,298.89c0,39.29,1.6,63.86,3.76,85.42.89,8.83,10.19,80.89,13.13,82.58,2.94,1.7,17.9.3,20.79-1.37,2.89-1.67-2.24-67.28-.97-78.94,1.27-11.66,1.77-79.08,1.77-79.08l-38.49-8.62Z"/>
    <path class="cls-3" d="m122.41,298.89c8.36,23.83,20.78,58.55,20.78,72.49s-2.25,86.47-2.25,88.49-18.23,15.33-21.49,9.67-6.92-80.93-6.92-85.87c0,0-28.39-73.12-28.39-83.26l38.27-1.52Z"/>
    <g>
      <path class="cls-5" d="m84.81,304.65c-.43-1.87-.66-3.31-.66-4.24l38.27-1.52c8.36,23.83,20.78,58.55,20.78,72.49s-2.25,86.47-2.25,88.49-18.23,15.33-21.49,9.67c-3.27-5.66-6.92-80.93-6.92-85.87,0,0-7.9-20.35-15.37-41.07-.29,18.33-.73,38.15-1.36,43.98-1.27,11.66,3.86,77.27.97,78.94-2.89,1.67-17.85,3.07-20.79,1.37-2.94-1.7-12.25-73.76-13.13-82.58-2.16-21.57-3.76-46.14-3.76-85.42l25.72,5.76Z"/>
      <g class="cls-1">
        <path class="cls-15" d="m69.94,438.94c0-11.71,0-23.42,0-35.12,0-23.42.03-46.83-.01-70.25-.02-13.18.29-26.41-.24-39.58-.05-1.14-1.73-1.15-1.78,0-.47,11.69-.21,23.43-.23,35.12-.02,11.71-.02,23.42-.02,35.12,0,23.42,0,46.83,0,70.25,0,13.14-.6,26.46.25,39.58.07,1.15,1.71,1.15,1.79,0,.75-11.65.24-23.46.24-35.12Z"/>
        <path class="cls-15" d="m79.23,438.94c0-11.71,0-23.42,0-35.12,0-23.42.03-46.83-.01-70.25-.02-13.18.29-26.41-.24-39.58-.05-1.14-1.73-1.15-1.78,0-.47,11.69-.21,23.43-.23,35.12-.02,11.71-.02,23.42-.02,35.12,0,23.42,0,46.83,0,70.25,0,13.14-.6,26.46.25,39.58.07,1.15,1.71,1.15,1.79,0,.75-11.65.24-23.46.24-35.12Z"/>
        <path class="cls-15" d="m88.51,438.94c0-11.71,0-23.42,0-35.12,0-23.42.03-46.83-.01-70.25-.02-13.18.29-26.41-.24-39.58-.05-1.14-1.73-1.15-1.78,0-.47,11.69-.21,23.43-.23,35.12-.02,11.71-.02,23.42-.02,35.12,0,23.42,0,46.83,0,70.25,0,13.14-.6,26.46.25,39.58.07,1.15,1.71,1.15,1.79,0,.75-11.65.24-23.46.24-35.12Z"/>
        <path class="cls-15" d="m97.79,438.94c0-11.71,0-23.42,0-35.12,0-23.42.03-46.83-.01-70.25-.02-13.18.29-26.41-.24-39.58-.05-1.14-1.73-1.15-1.78,0-.47,11.69-.21,23.43-.23,35.12-.02,11.71-.02,23.42-.02,35.12,0,23.42,0,46.83,0,70.25,0,13.14-.6,26.46.25,39.58.07,1.15,1.71,1.15,1.79,0,.75-11.65.24-23.46.24-35.12Z"/>
        <path class="cls-15" d="m107.07,438.94c0-11.71,0-23.42,0-35.12,0-23.42.03-46.83-.01-70.25-.02-13.18.29-26.41-.24-39.58-.05-1.14-1.73-1.15-1.78,0-.47,11.69-.21,23.43-.23,35.12-.02,11.71-.02,23.42-.02,35.12,0,23.42,0,46.83,0,70.25,0,13.14-.6,26.46.25,39.58.07,1.15,1.71,1.15,1.79,0,.75-11.65.24-23.46.24-35.12Z"/>
        <path class="cls-15" d="m116.35,438.94c0-11.71,0-23.42,0-35.12,0-23.42.03-46.83-.01-70.25-.02-13.18.29-26.41-.24-39.58-.05-1.14-1.73-1.15-1.78,0-.47,11.69-.21,23.43-.23,35.12-.02,11.71-.02,23.42-.02,35.12,0,23.42,0,46.83,0,70.25,0,13.14-.6,26.46.25,39.58.07,1.15,1.71,1.15,1.79,0,.75-11.65.24-23.46.24-35.12Z"/>
        <path class="cls-15" d="m125.63,438.94c0-11.71,0-23.42,0-35.12,0-23.42.03-46.83-.01-70.25-.02-13.18.29-26.41-.24-39.58-.05-1.14-1.73-1.15-1.78,0-.47,11.69-.21,23.43-.23,35.12-.02,11.71-.02,23.42-.02,35.12,0,23.42,0,46.83,0,70.25,0,13.14-.6,26.46.25,39.58.07,1.15,1.71,1.15,1.79,0,.75-11.65.24-23.46.24-35.12Z"/>
        <path class="cls-15" d="m134.92,438.94c0-11.71,0-23.42,0-35.12,0-23.42.03-46.83-.01-70.25-.02-13.18.29-26.41-.24-39.58-.05-1.14-1.73-1.15-1.78,0-.47,11.69-.21,23.43-.23,35.12-.02,11.71-.02,23.42-.02,35.12,0,23.42,0,46.83,0,70.25,0,13.14-.6,26.46.25,39.58.07,1.15,1.71,1.15,1.79,0,.75-11.65.24-23.46.24-35.12Z"/>
        <path class="cls-15" d="m144.2,438.94c0-11.71,0-23.42,0-35.12,0-23.42.03-46.83-.01-70.25-.02-13.18.29-26.41-.24-39.58-.05-1.14-1.73-1.15-1.78,0-.47,11.69-.21,23.43-.23,35.12-.02,11.71-.02,23.42-.02,35.12,0,23.42,0,46.83,0,70.25,0,13.14-.6,26.46.25,39.58.07,1.15,1.71,1.15,1.79,0,.75-11.65.24-23.46.24-35.12Z"/>
      </g>
    </g>
    <path class="cls-15" d="m96.59,338.87c.32-1.54,1.07-3.02,1.6-4.49.54-1.5,1.05-3.01,1.53-4.53.45-1.45.86-2.91,1.25-4.37.43-1.6.71-3.3,1.32-4.84.19-.48.96-.46.95.13-.03,3.15-1.16,6.49-2.04,9.49-.45,1.53-.95,3.05-1.49,4.55-.55,1.52-1.05,3.21-1.95,4.57-.41.61-1.33.23-1.18-.5Z"/>
    <path class="cls-15" d="m115.15,383.12c1.74-.36,3.59-.22,5.37-.24,1.89-.02,3.81-.1,5.7.06.83.07.81,1.19,0,1.28-1.88.21-3.81.17-5.7.2-1.77.03-3.61.21-5.37-.11-.6-.11-.58-1.07,0-1.19Z"/>
    <path class="cls-15" d="m113.99,381.24c1.44-1.03,3.03-1.84,4.52-2.8,1.49-.96,2.89-2.04,4.34-3.05.6-.42,1.31.52.78,1.01-2.56,2.38-5.86,4.78-9.16,5.97-.7.25-1.01-.75-.48-1.13Z"/>
    <path class="cls-15" d="m85.67,398.98c2.91-5.95,3.73-12.17,3.21-18.72-.05-.66,1.03-.81,1.16-.16,1.35,6.54-.12,13.7-3.41,19.44-.36.63-1.28.08-.96-.56Z"/>
    <path class="cls-15" d="m69.89,396.55c1.4,8.23,2.99,16.35,5.46,24.34,1.23,3.98,2.62,7.91,4.17,11.77.78,1.94,1.6,3.87,2.46,5.77.84,1.87,1.88,3.7,2.52,5.65.23.7-.75,1.02-1.13.48-1.22-1.75-2.04-3.83-2.91-5.77-.85-1.89-1.66-3.8-2.43-5.72-1.55-3.86-2.94-7.79-4.16-11.77-2.45-7.97-4.43-16.27-5.26-24.58-.07-.73,1.16-.9,1.29-.17Z"/>
  </g>
  <g>
    <g>
      <path class="cls-10" d="m117.54,464.47c.75,7.67-.35,19.99.5,20.84.85.85,43.3.37,45.67-1,2.37-1.37,7.38-9.47,4.09-9.97-3.29-.5-12.27,0-18.35-2.79-6.08-2.79-5.65-9.3-9.15-7.89-3.51,1.41-5.11,8.77-10.99,6.68-5.88-2.08-12.28-11.15-11.77-5.87Z"/>
      <path class="cls-8" d="m163.71,484.32c1.32-.76,3.45-3.6,4.52-6.06-5.35-2.14-26.04,5.72-31.94,2.77-5.27-2.63-12.49-4.04-18.57-1.61-.05,3.19-.03,5.55.32,5.9.85.85,43.3.37,45.67-1Z"/>
    </g>
    <path class="cls-8" d="m145.77,468.98c-.89.52-1.58,1.4-2.15,2.25-.51.77-1.23,1.83-1.02,2.78.11.51.71.55,1.05.28.64-.51.88-1.58,1.32-2.27.5-.77,1.15-1.4,1.7-2.13.42-.55-.38-1.23-.91-.91Z"/>
    <path class="cls-8" d="m150.6,472.41c-.06-.23-.27-.38-.5-.38-.86-.03-1.41,1.09-1.75,1.75-.42.82-.8,1.7-.67,2.64.09.61.91.56,1.19.16.46-.65.61-1.49.98-2.2.31-.6.95-1.25.76-1.96Z"/>
  </g>
  <g>
    <g>
      <path class="cls-9" d="m99.59,485.74h-28.72s5.79-15.62,17.13-16.03c11.34-.41,11.59,16.03,11.59,16.03Z"/>
      <path class="cls-10" d="m75.92,466.21c.58,8.17-2.28,16.1-2.28,16.1h24.18l-.79-15.83c-.05-1.02-.88-1.83-1.9-1.86l-17.13-.56c-1.19-.04-2.16.96-2.08,2.15Z"/>
      <path class="cls-8" d="m98.94,480.71c-1.41-1.36-3.43-3.2-9.62-4.16-7.06-1.1-11.18,2.43-15.98,4.16-1.64,2.8-2.47,5.03-2.47,5.03h28.72s-.03-2.23-.65-5.03Z"/>
    </g>
    <path class="cls-10" d="m80.06,468.61c-1.42-3.5.28-7.84,5.67-8.31,5.38-.47,7.46,2.17,7.46,4.82s-.76,3.97-.76,3.97l-12.38-.47Z"/>
    <path class="cls-8" d="m90.22,471.31c-2.38-.45-5.1-.35-7.51-.17-1.06.08-1.04,1.53,0,1.63,2.4.24,5.12.4,7.51,0,.73-.12.71-1.32,0-1.46Z"/>
    <path class="cls-8" d="m89.2,466.61c-1.81-.34-3.71.03-5.44.6-.93.31-.55,1.75.41,1.49,1.61-.45,3.19-.48,4.83-.63.77-.07,1.08-1.29.2-1.45Z"/>
  </g>
  <path class="cls-14" d="m59.2,300.44c1.95,4.68,70.16,11.38,67.63,1.52-.91-3.53,9.83-97.46,0-103.14-9.83-5.68-49.31-5.26-57.27-5.26s-12.17,3.86-7.22,42.9c1.73,13.62.96,16.46.82,27.61-.24,18.86-5.9,31.69-3.95,36.37Z"/>
  <path class="cls-12" d="m122.27,295.37c-10.09,2.31-20.43,2.16-30.7,1.52-5.26-.33-10.5-.76-15.68-1.77-4.8-.93-9.34-2.57-14.05-3.81-.64-.17-1.09.79-.46,1.1,9.01,4.47,19.84,5.54,29.72,6.19,10.58.69,21.25.87,31.64-1.51,1.12-.26.65-1.98-.47-1.72Z"/>
  <path class="cls-7" d="m83.89,196.54c1.01,4.44,9.61,10.39,14,7.41,5.09-3.46,5.4-7.41,5.4-7.41,0-3.08-19.4-3.08-19.4,0Z"/>
  <path class="cls-7" d="m86.18,187.32c-.64,5.47-1.27,10.98-1.27,10.98h16.6v-10.09c0-1.87-15.33-.89-15.33-.89Z"/>
  <path class="cls-4" d="m101.51,188.2c0-1.87-15.33-.89-15.33-.89-.25,2.17-.51,4.34-.72,6.17,2.44,3.78,5.5,4.64,10.99,3.58,2.38-.46,3.92-1.09,5.06-2.66v-6.2Z"/>
  <path class="cls-12" d="m86.62,209.62c-.42-.41-1.08.11-.81.62,1.01,1.9,2.5,3.51,3.68,5.31,1.14,1.75,1.85,3.65,2.73,5.53.3.65,1.21.16,1.09-.46-.74-4-3.81-8.22-6.69-11Z"/>
  <g>
    <path class="cls-10" d="m83.43,184.36c-6.07,1.19-13.86-12.5-9.15-15.74,0,0-2.46-4.66-1.14-8.58.97-2.87,3.32-3.99,3.32-3.99,0,0-.32-6.48,5.45-7.7,2.85-.6,5.09-.21,5.09-.21,0,0,4.57-1.97,7.77-1.97s6.96,2.45,6.96,2.45c0,0,4.16-.33,7.14,1.39,2.98,1.72,3.51,4.12,3.51,4.12,0,0,3.46,1.48,3.46,6.9,0,4.99-2.35,5.88-2.35,5.88,0,0,2.49,3.38,1.66,6.66-1.57,6.15-9.52,8.65-9.52,8.65l-22.21,2.15Z"/>
    <path class="cls-7" d="m78.58,163.54c-1.94,11.01,3.67,30.44,14.59,31.43,10.92,1,16.83-12.47,16.83-20.19s1.88-16.7-7.7-19.76c-9.58-3.06-22.08-.84-23.73,8.51Z"/>
    <path class="cls-2" d="m91.02,186.17c2.31.51,4.62.6,6.93,0,0,0-.42,2.39-3.47,2.39s-3.47-2.39-3.47-2.39Z"/>
    <path class="cls-10" d="m84.61,159.19c1.44,2.49,7.43,3.21,8.28,1.73,0,0,1.48,3.98,5.58,3.02,4.11-.96,4.11-1.48,4.11-1.48,0,0,1.03,3.46,3.85,3.08s4.3-3.66,4.3-3.66c0,0,1.6-4.84-2.25-7.06-3.85-2.22-6.09-3.98-12.83-3.98s-12.41.67-14.24,2.5c-1.83,1.83,3.21,5.84,3.21,5.84Z"/>
    <path class="cls-10" d="m84.61,154.95c1.48,6.29-5.84,19.36-7.06,17.26-1.22-2.11-2.88-10.98-1.15-13.97,1.73-2.99,5.71-4.38,5.71-4.38l2.5,1.09Z"/>
    <path class="cls-10" d="m87.2,174.37c-.05.94.6,1.73,1.44,1.78.85.05,1.57-.68,1.62-1.61.05-.94-.6-1.73-1.44-1.78-.85-.05-1.57.68-1.62,1.61Z"/>
    <path class="cls-10" d="m98.45,174.41c-.05.94.6,1.73,1.44,1.78.85.05,1.57-.68,1.62-1.61s-.6-1.73-1.44-1.78-1.57.68-1.62,1.61Z"/>
    <path class="cls-10" d="m85.25,169.52c1.54-.89,5.34-1.62,5.68-.7.32.87-.2,1.42-1.6,1.89-1.4.47-3.71.21-4.09-.46-.38-.67,0-.73,0-.73Z"/>
    <path class="cls-10" d="m103.17,169.3c-1.54-.89-5.8-1.28-5.8-.3s.1,1.24,1.49,1.71c1.4.47,3.71.21,4.09-.46.38-.67.21-.95.21-.95Z"/>
    <circle class="cls-7" cx="108.7" cy="174.37" r="4.13"/>
    <circle class="cls-7" cx="78.84" cy="174.37" r="4.13"/>
    <path class="cls-4" d="m110.33,172.64c-.69-.36-1.28.64-.61,1.05.87.54.3,1.37-.15,1.96-.3.39.19.78.56.73.85-.12,1.35-.98,1.37-1.78.03-.82-.45-1.58-1.17-1.95Z"/>
    <path class="cls-4" d="m77.92,176c-.37-.46-.86-.75-.93-1.39-.08-.68.4-1.09.62-1.67.14-.37-.27-.69-.61-.61-1,.26-1.38,1.62-1.25,2.54.14.94.8,1.92,1.81,2,.49.04.61-.56.36-.87Z"/>
    <path class="cls-11" d="m102.64,153.73c-.22-.19-.61-.31-.87-.11-.06.05-.12.09-.18.14-.41.32-.37.91.14,1.09-1.14.7-2.21.78-3.22.23-.45-.16-.88-.37-1.29-.63-.3-.17-.81-.11-.96.25-.63.26-1.25.51-1.88.77-.56-.13-1.05-.39-1.47-.78-.49-.37-.89-.84-1.35-1.25-.36-.31-1-.02-.84.49.72,2.33,4.77,4.3,6.41,2.06,1.46.75,3.16,1.34,4.68.42.86-.53,1.78-1.84.81-2.68Z"/>
    <path class="cls-11" d="m112.72,156.94c-.18-.68-1.2-2.09-1.86-1.03-.09.14-.11.39,0,.54.02.02.03.04.05.06.09.12.21.19.34.21.17.25.22.66.2.91-.04.44-.34.75-.44,1.16-.1.43.27.79.7.7,1.02-.24,1.25-1.69,1.02-2.55Z"/>
    <path class="cls-11" d="m80.16,152.47c-1.51.8-1.39,2.82-.55,4.06.33.49,1.06.18.95-.4-.17-.83-.78-2.08.21-2.63.68-.37.08-1.4-.61-1.04Z"/>
    <path class="cls-11" d="m77.45,163.48c-.25-.25-.59-.48-.77-.78-.12-.19-.12-.39.04-.47.7-.35.09-1.33-.6-1.03-.64.28-.87,1.06-.73,1.69.18.76.86,1.23,1.55,1.48.52.19.87-.53.52-.89Z"/>
    <path class="cls-10" d="m108.21,162.77c-.67,5.07.87,7.92,1.94,7.92s1.64-5.68,1.64-5.68l-1.64-2.82-1.94.58Z"/>
  </g>
  <path class="cls-12" d="m90.01,289.25c-4.27-.25-8.06-1.02-11.86-3.08-1.5-.81-2.93-1.74-4.33-2.71-1.37-.96-4.49-2.55-5.15-4.06-.21-.49-.98-.22-.98.26.02,1.6,2.03,2.55,3.17,3.44,1.95,1.53,3.97,2.98,6.12,4.22,3.9,2.23,8.63,3.98,13.17,3.04.65-.13.46-1.07-.15-1.1Z"/>
  <g>
    <path class="cls-16" d="m90.93,219.43c-16.77,15.18-18.73,75.07,22.06,84.56,40.79,9.49,83.17-12.94,79.14-51.98-4.35-42.17-51.85-53.55-69.05-49.12-17.2,4.43-32.15,16.55-32.15,16.55Z"/>
    <path class="cls-13" d="m124.96,237.19c-2.46-7.58-5.1-15.8-.84-15.01,4.26.8,15.07,9.55,15.07,9.55,0,0,11.51-2.29,17.32.19l5.82,2.48s-10.08,9.32-16.44,10.1l-6.37.78s5.04,12.43,2.98,17.27l-2.06,4.84s-11.65-9.52-13.53-13.23c0,0-14.44-.76-18.89-3.17,0,0,1.93-9.32,6.94-12.23,5.01-2.91,10-1.55,10-1.55Z"/>
    <path class="cls-6" d="m180.07,247.29c-.83-1.71-3.88-1.74-4.03.49-.26,3.83,1.72,7.23,1.5,11.04-.25,4.08-2.69,7.52-4.61,10.99-1.54,2.79,2.75,5.08,4.66,2.77,6.22-7.55,6.67-16.67,2.48-25.28Z"/>
  </g>
  <path class="cls-14" d="m58.7,198.92c-8.96,15.28,39.32,98.38,49.72,96.78,10.4-1.59,15.17-6.92,11.59-16.44-1.77-4.7-10.93-19.93-19.4-38.03-8.68-18.53-16.71-39.93-22.24-44.08-10.94-8.21-17.52-1.91-19.67,1.77Z"/>
  <path class="cls-7" d="m113.35,293.73c7.39,8.06,9.68,12.37,13.27,12.1,3.59-.27,15.36,2.28,17.59-.32.94-1.1-14.57-6.83-13.09-9.91,1.48-3.07,13.77-6.1,10.19-8.2-4-2.35-17.17,2.34-20.65.29-1.1-.64-7.3,6.05-7.3,6.05Z"/>
  <path class="cls-4" d="m127.95,292.99c-.86.91-1.26,2.54-.24,3.51.33.31.97,0,.8-.47-.28-.79-.54-1.7.05-2.43.34-.43-.22-1.03-.61-.61Z"/>
  <path class="cls-4" d="m136.47,305.06c-.95-.57-2.05-.85-3.01-1.42-.96-.57-1.76-1.34-2.67-1.98-.35-.24-.82.24-.58.58,1.18,1.72,3.91,3.56,6.02,3.71.49.04.63-.66.24-.89Z"/>
  <path class="cls-12" d="m119.53,282.99c-3.21.28-6.67,2.4-9.2,4.32-1.26.96-3.4,2.68-3.68,4.47-4.67-4.59-8.74-9.81-12.97-14.8-4.74-5.59-9.01-11.26-12.32-17.83-6.8-13.5-12.17-27.71-18.61-41.39-.3-.63-1.4-.17-1.13.48,2.92,7.08,6.06,14.07,9.15,21.09,3.08,7.02,5.99,14.16,9.46,21.01,3.17,6.26,7.24,11.72,11.75,17.06,4.78,5.65,9.35,11.64,14.77,16.7.27.25.59.26.85.15.78.21,1.74.22,2.34.29,1.21.15,2.36.26,3.5-.23.9-.39.12-1.72-.77-1.32-.81.36-1.88.14-2.73.07-.7-.06-1.4-.16-2.09-.26.27-1.71,1.85-3.18,3.42-4.28.02.03.03.06.05.09.42.54,1.11.93,1.67,1.32.56.39,1.15.95,1.84,1.05.46.07.93-.37.65-.84-.37-.62-1.09-.95-1.69-1.32-.5-.31-1.02-.69-1.57-.93.28-.18.55-.34.79-.49.95-.57,2-1.2,3.08-1.72,0,0,0,0,0,0,.01.04.02.08.04.11.2.58.52,1.11.74,1.68.24.61.38,1.29.83,1.79.26.29.85.16.91-.24.14-.84-.28-1.66-.65-2.4-.18-.37-.46-1.04-.86-1.38.8-.32,1.62-.55,2.43-.64,1.01-.11,1.04-1.7,0-1.61Z"/>
  <path class="cls-12" d="m93.64,259.91c-4.31-3.62-7.95-7.36-10.98-12.09.35-.24.12-.79-.28-.81-.2-.01-.4-.02-.61-.03-.49-.03-.74.54-.53.93,2.71,5.07,6.82,9.84,11.75,12.85.51.31,1.12-.44.65-.84Z"/>
  <g>
    <path class="cls-7" d="m178.24,207.69c4.5,5.01,4.83,8.32-.46,11.72-4.59,2.95-7.18-3.82-7.91-2.04-1.09,2.65-7.07,10.62-5.61,3.38,1.45-7.24-.21-7.07.24-9.32.45-2.25,4.29-7.76,7.19-7.95,2.9-.19,6.55,4.21,6.55,4.21Z"/>
    <path class="cls-7" d="m172.53,218.94c1.1,1.65,10.8,8.98,12.21,7.33,1.11-1.31-6.25-7.43-6.25-7.43,0,0,.51-.21,1.91.99,1.69,1.45,3.38,4.39,3.98,3.92.81-.65-.54-5.08-1.08-5.7-1.58-1.81-2.35-2.31-2.35-2.31,0,0,1.05,1.26,1.83-.09.81-1.4-2.04-4.7-2.04-4.7l-8.21,7.99Z"/>
  </g>
</svg>