<?xml version="1.0" encoding="UTF-8"?>
<svg id="_圖層_2" data-name="圖層 2" xmlns="http://www.w3.org/2000/svg" viewBox="0 0 311.25 554.97">
  <defs>
    <style>
      .cls-1 {
        fill: #f9bf6a;
      }

      .cls-2 {
        fill: #ffa277;
      }

      .cls-3 {
        fill: #fff;
      }

      .cls-4 {
        fill: #ba595a;
      }

      .cls-5 {
        fill: #da8260;
      }

      .cls-6 {
        fill: #1f2144;
      }

      .cls-7 {
        fill: #3e5b48;
      }

      .cls-8 {
        fill: #565a94;
      }

      .cls-9 {
        fill: #779968;
      }

      .cls-10 {
        fill: #4e705b;
      }
    </style>
  </defs>
  <g>
    <path class="cls-7" d="m225.63,269.53c.59,4.95,1.63,10.05,2.8,14.8.73,2.95,1.49,5.76,2.22,8.32,7.1,24.88,15.36,56.86,23.49,86.82,4.61,16.99,9.17,33.32,13.47,47.35,4.9,16.03,9.49,32.16,13.44,48.45.81,3.32,1.59,6.65,2.34,9.99,1.56,6.93,2.99,13.89,4.27,20.88.55,3,1.07,6,1.56,9.01,1,6.12,1.98,12.31,2.69,18.5-.31,1.42-.67,2.84-1.07,4.24-.07.02-.13.03-.2.05-.53.14-.51.85-.12,1.02-.97,3.17-2.18,6.28-3.62,9.31-.16.35.03.82.46.8,2.99-.13,5.99-.26,8.98-.39,1.59-.07,3.76.25,5.25-.41,1.2-.53,1.53-1.53,1.76-2.74.45-2.3.48-4.71.78-7.03.48-3.66.91-7.3,1.28-10.93.09-.83.18-1.66.25-2.49.17-1.65.32-3.3.46-4.94,1.63-18.79,1.98-37.12,1.5-54.49-.32-11.57-1.01-22.71-1.94-33.28-.08-.87-.16-1.73-.24-2.59-.12-1.32-.24-2.63-.38-3.93-1.51-15.26-3.49-29.2-5.53-41.38-.12-.74-.24-1.47-.37-2.19-.94-5.51-1.89-10.63-2.8-15.32-.44-2.23-.86-4.36-1.27-6.39-2.07-10.15-3.84-17.78-4.77-22.27-.57-2.74-1.25-5.81-2.02-9.11-2.65-11.39-6.38-25.53-10.5-38.45-.59-1.84-1.19-3.67-1.79-5.45-.27-.8-.54-1.59-.81-2.37-1.04-2.97-2.09-5.83-3.14-8.5-.84-2.12-1.68-4.12-2.52-5.99-.57-1.27-1.14-2.48-1.71-3.61-3.8-7.59-8.54-15.38-16.19-19.61-3.4-1.88-7.3-3.05-11.1-3.05-.21,0-.41,0-.62.01-.04,0-.07,0-.1,0-.18,0-.36.02-.53.03-.27.02-.54.04-.8.07-.32.04-.64.08-.96.14-.13.02-.26.04-.38.07-.13.03-.25.05-.38.08-.07.02-.15.04-.22.05-.14.04-.28.07-.42.11-.12.03-.23.06-.35.1h0s-.03,0-.04.01c-.18.05-.36.11-.54.18-.18.06-.36.13-.54.2-.13.05-.25.1-.37.15-.13.05-.26.11-.39.17-.07.03-.13.06-.2.09-.1.05-.2.1-.3.15-.15.07-.3.15-.45.23-.19.1-.38.21-.56.32-.03.02-.07.04-.1.06-.16.1-.33.21-.49.32-.38.26-.74.53-1.11.82-1.39,1.15-2.48,2.6-3.31,4.3-.19.4-.37.81-.53,1.23-1.93,4.93-2.01,11.55-1.19,18.48Z"/>
    <path class="cls-10" d="m225.63,269.53s.03,0,.04.01c2.85.69,5.42,1.81,8.39,1.16,1.06-.23,2.07-.59,3.05-1,.12-.05.24-.1.36-.15,0,0,0,0,0,0,.08-.03.16-.07.24-.1,1.12-.48,2.22-1,3.36-1.41.57-.21,1.16-.39,1.76-.54.06-.01.13-.03.19-.04.37-.08.75-.14,1.14-.18.14-.02.29-.03.44-.04.09,0,.19-.01.28-.01.37-.03.73-.03,1.1-.02.29,0,.58.02.87.03.26.02.5.04.76.07.45.05.9.12,1.35.2,1.8.32,3.58.89,5.27,1.59.49.2.98.41,1.45.63.31.14.62.3.94.46.09.05.19.1.28.14,3.75,1.97,7.82,4.95,12.09,4.79.84-.03,1.68-.19,2.53-.49.19-.07.37-.14.54-.22-.84-2.12-1.68-4.12-2.52-5.99-.57-1.27-1.14-2.48-1.71-3.61-3.8-7.59-8.54-15.38-16.19-19.61-3.4-1.88-7.3-3.05-11.1-3.05-.21,0-.41,0-.62.01-.04,0-.07,0-.1,0-.18,0-.36.02-.53.03-.27.02-.54.04-.8.07-.32.04-.64.08-.96.14-.13.02-.26.04-.38.07-.13.03-.25.05-.38.08-.07.02-.15.04-.22.05-.14.04-.28.07-.42.11-.12.03-.23.06-.35.1h0s-.03,0-.04.01c-.18.05-.36.11-.54.18-.18.06-.36.13-.54.2-.13.05-.25.1-.37.15-.13.05-.26.11-.39.17-.07.03-.13.06-.2.09-.1.05-.2.1-.3.15-.15.07-.3.15-.45.23-.19.1-.38.21-.56.32-.03.02-.07.04-.1.06-.16.1-.33.21-.49.32-.38.26-.74.53-1.11.82-1.39,1.15-2.48,2.6-3.31,4.3-.19.4-.37.81-.53,1.23-1.93,4.93-2.01,11.55-1.19,18.48Z"/>
    <path class="cls-6" d="m235.74,243.26c6.24,15.18,11.71,30.66,16.56,46.34,17.32,55.91,27.04,113.74,39.62,170.81.14.66,1.2.52,1.05-.15-3.58-16.24-6.94-32.54-10.3-48.83-11.77-57.06-23.75-114.49-45.96-168.58-.04-.11-.11-.19-.19-.23-.26.06-.52.13-.77.21h0c-.07.12-.09.27-.02.44Z"/>
    <path class="cls-10" d="m83.17,381.93c.07.53.16,1.06.27,1.58h0c.41,2.13,1.06,4.21,1.87,6.24.92,2.29,2.06,4.51,3.33,6.67.28.48.56.95.85,1.42h0c.29.47.58.94.88,1.4.3.47.61.93.91,1.38.31.46.61.9.92,1.35.13.2.27.39.41.58t0,.01c.64.91,1.29,1.81,1.93,2.68.97,1.33,1.98,2.64,3.01,3.92.69.85,1.38,1.7,2.09,2.53,1.42,1.67,2.9,3.3,4.4,4.9.75.8,1.52,1.58,2.29,2.37,1.93,1.95,3.91,3.84,5.92,5.68,6.08,5.56,12.51,10.69,19.08,15.66h0c8.1,6.15,16.41,12.03,24.52,18.14,17.14,12.91,33.7,26.55,49.91,40.6,16.11,13.95,31.87,28.3,47.55,42.74,3.91,3.59,7.74,7.29,11.72,10.81,1.18,1.05,2.5,1.8,4.17,1.76,1.17-.03,2.42.15,3.64.2,4.07.18,8.15.26,12.22.31.37,0,.74.01,1.12.01.86.01,1.71.02,2.56.03,4.6.04,9.25.19,13.86-.06.6-.03,1.2-.07,1.79-.12,3.11-.25,5.84-.59,6.36-4.1.22-1.53.36-3.08.43-4.65.07-1.65.07-3.33.02-4.99-.06-2.05-.19-4.09-.34-6.09-.24-3.27-.53-6.66-1.72-9.74-.29-.77-.64-1.51-1.06-2.23-.58-1-1.25-1.92-1.98-2.78-1.25-1.47-2.7-2.73-4.27-3.87-1.6-1.18-3.32-2.23-5.07-3.24-2.94-1.72-5.97-3.33-8.65-5.31-.16-.53-.31-1.06-.47-1.58-4.66-15.61-9.65-31.12-15.01-46.51-6.84-19.67-14.25-39.15-22.22-58.39-7.81-18.88-16.12-37.58-25.05-55.97-1.43-2.93-2.88-5.86-4.38-8.78,0,0,0,0,0,0-6.71-13.11-14.22-25.87-23.62-37.22-2.46-2.97-5.05-5.83-7.78-8.56-1.17-1.17-2.36-2.31-3.59-3.43-.41-.37-.82-.74-1.23-1.11-.82-.73-1.66-1.45-2.5-2.15-.42-.35-.86-.7-1.29-1.05-.86-.69-1.73-1.37-2.61-2.03h0c-2.23-1.68-5.36-3.66-8.6-4.73-1.99-.66-4.03-.98-5.93-.67-1.18.19-2.31.62-3.33,1.36-.28.21-.56.43-.82.69-.04.04-.09.08-.13.12-.37.37-.7.77-.98,1.19,0,0,0,0,0,0-.14.21-.27.43-.39.65h0c-.18.34-.34.69-.48,1.04-.05.12-.1.24-.13.37-.93,2.67-.86,5.82-.87,8.49-.03,4.76.41,9.5,1.21,14.19.92,5.35,2.31,10.61,4.04,15.76.57,1.71,1.18,3.42,1.83,5.11.64,1.69,1.32,3.36,2.01,5.03.23.56.47,1.11.71,1.66,2.66,6.16,5.64,12.16,8.76,18.08,1.55,2.95,3.13,5.87,4.72,8.79,4.73,8.67,9.48,17.32,14.24,25.97,0,0,0,0,0,0,.52.94,1.03,1.87,1.54,2.81,10.61,19.31,21.24,38.6,31.91,57.88,8.6,15.55,17.23,31.09,25.87,46.62,2.07,3.72,4.14,7.44,6.21,11.15,6.76,12.13,13.53,24.24,20.31,36.35.57,1.02,1.14,2.04,1.71,3.06-.04.04-.08.08-.12.12-.39-.59-.78-1.18-1.17-1.77-4.63-6.99-9.46-13.85-14.22-20.75-6.34-9.19-12.68-18.38-19.04-27.56-11.87-17.14-24.09-34-37.82-49.7-12.84-14.68-26.72-28.45-41.51-41.16h0c-.32-.29-.65-.57-.98-.85-7.43-6.35-15.08-12.51-23-18.23-.48-.35-.96-.69-1.45-1.04-1.94-1.37-3.91-2.71-5.9-4-5.51-3.55-11.28-6.69-17.42-9.01-1.04-.39-2.09-.77-3.18-1.12-1.72-.57-3.49-1.08-5.28-1.51-.17-.04-.35-.09-.52-.12-5.38-1.21-10.98-1.58-16.18-.15-.43.12-.84.24-1.25.39-.83.29-1.63.64-2.4,1.05-1.91,1.03-3.61,2.42-4.88,4.23-.18.25-.35.51-.51.77,0,0,0,0,0,0-.15.26-.3.53-.44.8-.16.32-.31.65-.44.98-1.09,2.71-1.27,5.73-.88,8.64Zm199.43,161.55s-.06-.1-.1-.15c-.19-.29-.37-.57-.55-.85.03-.03.06-.06.09-.09.13.23.26.46.39.7l.11.19h0c.15.27.29.53.44.79-.13-.2-.26-.39-.38-.59Z"/>
    <path class="cls-9" d="m156.68,289.43c-.03,4.76.41,9.5,1.21,14.19.92,5.36,2.31,10.61,4.05,15.76.57,1.71,1.18,3.42,1.83,5.11.64,1.69,1.31,3.37,2.01,5.03.23.56.47,1.11.71,1.66,2.66,6.16,5.64,12.16,8.76,18.08,1.55,2.95,3.13,5.87,4.72,8.79,4.73,8.67,9.48,17.32,14.24,25.97,3.16-2.11,6.23-4.37,9.05-6.87,3.14-2.77,5.99-5.85,8.35-9.38.23-.34.45-.68.66-1.03.38-.6.74-1.21,1.09-1.84,4.83-8.68,6.73-18.63,7.63-28.43-6.71-13.11-14.22-25.87-23.62-37.22-2.46-2.97-5.05-5.83-7.78-8.56-1.17-1.17-2.36-2.31-3.59-3.43-.41-.37-.82-.74-1.23-1.11-.82-.73-1.66-1.45-2.5-2.15-.42-.35-.86-.7-1.29-1.05-.86-.69-1.73-1.37-2.61-2.03h0c-2.23-1.68-5.36-3.66-8.6-4.73-1.99-.67-4.03-.99-5.93-.68-1.18.19-2.31.62-3.34,1.37-.28.21-.56.43-.82.69-.04.04-.08.08-.13.12-.37.37-.7.77-.98,1.2,0,0,0,0,0,0-.14.21-.28.43-.39.65h0c-.19.34-.34.69-.48,1.04-.05.12-.1.24-.13.37-.94,2.67-.87,5.81-.88,8.49Zm-73.52,92.49c.07.53.16,1.05.26,1.57.41,2.13,1.06,4.22,1.89,6.26.92,2.29,2.06,4.51,3.33,6.67.28.48.56.95.85,1.42h0c.29.47.58.94.88,1.4.3.47.61.93.91,1.38.3.46.61.9.92,1.35.13.2.27.39.41.58t0,.01c.64.91,1.29,1.81,1.93,2.68.97,1.33,1.98,2.64,3.01,3.92.69.85,1.38,1.7,2.09,2.53,1.42,1.67,2.9,3.3,4.4,4.9.75.8,1.52,1.58,2.29,2.37,1.93,1.95,3.91,3.84,5.92,5.68,6.08,5.56,12.51,10.69,19.08,15.66,3.31-6.56,7.42-12.63,12.32-18.2.63-.72,1.27-1.42,1.93-2.12.23-.26.47-.52.72-.77,6.52-6.87,13.87-12.73,21.57-18.13-.32-.29-.65-.56-.98-.85-7.43-6.35-15.08-12.51-23-18.23-.48-.35-.96-.69-1.45-1.04-1.93-1.37-3.9-2.72-5.9-4-5.51-3.55-11.28-6.69-17.42-9.01-1.04-.39-2.09-.77-3.18-1.12-1.72-.57-3.49-1.09-5.28-1.51-.17-.04-.35-.09-.52-.12-5.38-1.21-10.99-1.59-16.19-.15-.42.12-.84.25-1.25.39-.83.29-1.63.64-2.4,1.05-1.92,1.01-3.61,2.41-4.89,4.22-.18.26-.35.51-.5.78,0,0,0,0,0,0-.16.26-.31.53-.44.8-.16.32-.31.65-.44.98-1.09,2.71-1.27,5.73-.88,8.64Z"/>
    <path class="cls-6" d="m159.67,277.57c12.73,19.7,24.77,39.83,36.1,60.36,26.01,47.14,48.28,96.34,66.53,146.99,6.42,17.81,12.34,35.79,17.75,53.92.14.47.28.94.42,1.41.21.68,2.95,9.36,4.6,14.59.37,0,.74.01,1.12.01-1.07-3.4-2.61-8.27-3.6-11.38-.02-.06-.04-.13-.06-.19h0c-.48-1.52-.81-2.58-.87-2.77-14.13-47.68-31.77-94.31-52.68-139.42-19.91-42.94-42.81-84.47-68.49-124.21-.28.21-.56.43-.82.69Z"/>
    <path class="cls-6" d="m84.04,373.28c19.42,13.37,38.28,27.56,56.5,42.53,38.29,31.46,73.79,66.3,105.97,103.99,8.94,10.47,17.62,21.17,26.04,32.07.26-.26.51-.52.75-.78-25.55-33.06-53.55-64.23-83.71-93.15-32.66-31.32-67.83-59.99-105.1-85.64-.16.32-.31.65-.44.98Z"/>
  </g>
  <g>
    <g>
      <path class="cls-2" d="m90.53,443.94c-.18-.05-.38-.04-.58,0h0c-.36.06-.72.2-1.02.29-.03.01-.06.02-.09.03-1.03.28-2.06.56-3.08.84-7.11,1.94-14.23,3.88-21.34,5.83-.49.13-.98.27-1.48.4.13-.86.27-1.71.4-2.56.17-1.12.35-2.24.53-3.35.05-.37-.51-.5-.57-.13l-.39,2.51-.57,3.7-.99.27c-.62.16-1.23.34-1.85.51-.36.1-.19.65.18.55.63-.18,1.27-.35,1.9-.52.22-.06.44-.12.66-.18-.05.35-.11.7-.16,1.05-.21,1.33-.41,2.67-.63,4.01-1.2,7.74-2.41,15.47-3.62,23.22-.04.26-.08.52-.12.78-.19,1.21-.38,2.42-.56,3.63-.53,3.36-1.05,6.73-1.58,10.1-.53,3.37-1.06,6.74-1.58,10.12-.12.75-.23,1.5-.35,2.25-.04.24-.08.49-.12.73-.04.25-.08.49-.12.74-.37,2.38-.74,4.75-1.11,7.12-.51,3.27-1.02,6.54-1.53,9.81-.03.17.1.39.29.36,4.55-.7,9.13-1.14,13.73-1.32.13,0,.23-.1.27-.22.91-2.75,1.82-5.51,2.73-8.26.88-2.65,1.76-5.31,2.63-7.96.16-.5.33-.99.49-1.49.36-1.08.71-2.16,1.07-3.23,1.3-3.93,2.6-7.87,3.9-11.8.82-2.47,1.64-4.95,2.45-7.42.59-1.79,1.18-3.57,1.77-5.35.03-.08.06-.16.08-.25.1-.3.2-.61.3-.91,2.35-7.11,4.7-14.2,7.05-21.31l.74-2.23.06-.18.25-.76.76-2.31c.3-.89.59-1.78.89-2.67,0-.02.02-.05.02-.07.16-.48.39-1,.59-1.53h0c.2-.54.37-1.08.42-1.59.05-.6-.09-1.06-.71-1.22Z"/>
      <path class="cls-2" d="m173.12,433.87c-.1-.58-.35-1.01-.99-1-.55,0-1.13.47-1.57.72l-2.77,1.58c-.96.55-1.92,1.1-2.89,1.64-2.34,1.34-4.69,2.67-7.04,4.01-2.53,1.45-5.06,2.89-7.6,4.32-1.02.58-2.02,1.16-3.04,1.73-.08-.86-.16-1.71-.25-2.56-.11-1.13-.22-2.26-.33-3.4-.04-.37-.62-.37-.58,0l.33,3.4.28,2.87c-.85.48-1.7.97-2.56,1.46-.32.19-.02.67.31.49.77-.44,1.54-.88,2.32-1.32,1.17,12.13,2.34,24.26,3.51,36.39.16,1.65.31,3.3.48,4.95.12,1.25.24,2.49.36,3.74.13,1.33.26,2.67.39,4,.23,2.4.46,4.81.69,7.22.18,1.89.37,3.78.55,5.68,0,.02,0,.05,0,.07.03.23.05.47.07.71.37,3.78.73,7.57,1.1,11.36.02.16.19.36.37.27,4.24-1.81,8.56-3.37,12.97-4.69.13-.04.19-.15.2-.28.15-2.15.3-4.31.44-6.46.01-.07.02-.13.02-.2.02-.3.04-.59.06-.89.03-.46.06-.91.09-1.37.31-4.48.61-8.97.92-13.45.14-2.01.28-4.02.41-6.04.14-2,.28-3.99.41-5.99.31-4.48.61-8.95.92-13.43.54-7.87,1.08-15.75,1.61-23.62.13-1.92.26-3.84.4-5.76.07-.96.13-1.92.2-2.88.07-1.03.37-2.26.2-3.28Z"/>
      <path class="cls-5" d="m75.43,479.27c-3.19.19-6.39.4-9.58.61-1.78.12-3.65.12-5.49.24-.87.06-1.72.14-2.55.28-.04.26-.08.52-.12.78-.19,1.21-.38,2.42-.56,3.63-.53,3.36-1.05,6.73-1.58,10.1.19-.12.38-.24.58-.36,3.44-2.02,7.02-2.13,10.84-1.34,2.11.44,4.28.89,6.37.05.91-.36,1.69-.98,2.53-1.49.82-2.47,1.64-4.95,2.45-7.42.59-1.79,1.18-3.57,1.77-5.35.03-.08.06-.16.08-.25-1.64.04-3.51.45-4.74.53Z"/>
      <path class="cls-5" d="m165.59,483.34c-3.19.19-6.39.4-9.58.61-1.25.09-2.55.11-3.84.16-.64.03-1.28.05-1.9.1.16,1.65.31,3.3.48,4.95.12,1.25.24,2.49.36,3.74.13,1.33.26,2.67.39,4,1.83-.2,3.69-.03,5.63.37,2.11.44,4.28.89,6.37.05,1.42-.57,2.53-1.74,4.02-2.2.48-.14.98-.23,1.47-.26.14-2.01.28-4.02.41-6.04.14-2,.28-3.99.41-5.99-1.5.09-3.12.43-4.21.5Z"/>
      <path class="cls-6" d="m68.18,516.29c-.14-.02-.28-.04-.42-.05-5.65-.68-9.78-.52-15.49-.37-.1,0-.21.01-.31.01-.29.01-.19.28-.93,1.64-5.76,7.34-11.71,12.79-19.24,18.33-1.87,1.38-3.77,2.68-5.73,3.92-1.95,1.24-4.02,2.32-5.88,3.71-1.48,1.11-2.83,2.56-3.61,4.22-.72,1.52-.95,3.21-.34,4.96.05.16.21.22.37.2,10.16-2.17,20.33-4.34,30.5-6.51.29-.06.58-.12.87-.19,1.96-.42,3.91-.84,5.87-1.25.4-.09.81-.18,1.21-.26,2.33-.5,4.67-1,7.01-1.5,1.45-.31,3.47-.34,4.13-1.92.38-.91.42-2.01.57-2.99,0-.02,0-.04.01-.06.06-.36.14-1.75.24-3.69.27-5.02.71-13.73,1.38-17.85.02-.14-.05-.33-.22-.35Z"/>
      <path class="cls-6" d="m169.43,510.89c-.03-.09-.1-.16-.2-.18-.45-.05-.89-.1-1.32-.14-.27-.03-.54-.06-.81-.08-2.41-.21-4.59-.27-6.8-.25-1.41,0-2.85.04-4.37.09-.93.03-1.9.07-2.91.1-.1,0-.15.04-.21.13-.11.19-.23.61-.71,1.5-1.88,2.43-3.78,4.67-5.75,6.76-4.02,4.27-8.32,7.98-13.33,11.73-1.86,1.39-3.76,2.71-5.7,3.97-.52.33-1.04.66-1.57.98-.32.2-.65.4-.98.6-1.13.69-2.25,1.38-3.29,2.18-1.46,1.11-2.78,2.55-3.55,4.18-.72,1.54-.96,3.25-.33,5.03.05.16.2.22.37.19,3.13-.7,6.27-1.39,9.4-2.09.37-.08.74-.17,1.12-.25.72-.15,1.44-.31,2.16-.48,1.64-.36,3.27-.72,4.91-1.09,4.28-.95,8.57-1.9,12.86-2.85,1.57-.35,3.15-.7,4.73-1.05,3.4-.76,6.8-1.51,10.2-2.26,1.45-.32,3.47-.37,4.12-1.96.38-.93.4-2.06.55-3.05.05-.33.12-1.5.19-3.16.23-4.92.61-14.12,1.26-18.39.01-.06,0-.12-.02-.18Z"/>
      <path class="cls-2" d="m186.9,76.51c.08-.08.14-.15.19-.2.02-.04.05-.08.08-.13.02-.04.04-.09.06-.13.03-.09.07-.22.13-.4.06-.4.16-.8.25-1.2,0-.16.07-.76.08-1.11,0-.19,0-.38,0-.57-.51-1.3-1.01-2.61-1.52-3.91-.47-1.21-.95-2.42-1.44-3.62-.57-1.38-.47-1.17-1.1-2.52-1.06-2.29-2.22-4.53-3.54-6.68-2.48-4.02-5.31-7.2-9.24-9.61-5.17-3.17-11.22-4.84-17.22-5.45-.46-.05-.9-.13-1.33-.24-3.3,1.7-6.37,3.77-8.87,6.54-5.67,6.29-6.38,15.24-7.64,23.23-.76,4.83-1.47,9.66-1.97,14.52-.44,4.27-.95,8.69-.66,12.98.2,2.91.97,6.25,3.52,8.02,2.88,2,7.11,1.36,10.49,1.09,0,10.1-.21,20.2-.66,30.29,0,.17.13.37.33.33,5.4-1.1,10.8-2.2,16.2-3.31,2.67-.55,5.39-.99,8.04-1.65,1.93-.47,2.06-1.69,2.19-3.49.69-9.69-.41-19.78,3.67-28.88,2.39-5.34,6.03-9.9,9.64-14.47-2.16-2.55-2.75-6.37.3-9.43Z"/>
      <path class="cls-2" d="m70.78,175.48c-1.18.23-2.37.45-3.56.67-1.26-6.86-2.52-13.72-3.78-20.58-.34-1.87-.85-3.53-1.47-5.11-1.49-3.87-3.56-7.21-5.12-11.59-4.06-11.44-9.69-23.16-14.87-34.09-1.55-3.27-2.96-6.6-4.1-10.02-1.03-3.05-1.84-6.17-2.36-9.36-.03-.19-.2-.3-.39-.24-3,.92-4.8,1.53-6.85,2.57-.53.28-1.07.57-1.66.93-.55.32-1.14.68-1.78,1.09-.26.17-.06.53.19.52.87,2.18,1.72,4.66,2.54,7.35,6.18,20.37,10.72,53.15,12.03,64.07.44,3.66,1.89,7.3,3.47,10.64,1.16,2.47,2.98,4.34,5.58,5.27,2.91,1.04,6.13.93,9.16.6.33-.04.66-.07,1-.12,2.67-.32,5.33-.75,7.98-1.24.14.21.5.16.53-.09,1.17-.22,2.35-.44,3.52-.67.36-.07.31-.65-.05-.58Z"/>
      <path class="cls-6" d="m182.62,422.5c-.28-21.66-.55-43.32-.83-64.98-.14-10.83-.28-21.66-.42-32.49-.14-10.9-3.59-33.53-4.55-44.39-1.86-21.2-3.92-30.18-9.6-50.7-.67-2.4-1.15-4.94-2.11-7.26-.63-1.51-1.67-2.78-3.41-3.32-2.2-.69-4.87-.44-7.18-.47-2.96-.04-5.92-.08-8.88-.13-12.15-.17-24.3-.34-36.46-.51-1.66-.02-3.32-.05-4.98-.07-.76.65-1.73,1.11-2.91,1.29-8.14,15.25-15.01,31.02-20.53,47.16-5.83,17.06-40.05,140.75-44.1,158.54-4.09,17.97-7.35,36.07-10.51,54.17-.39,2.23-.78,4.46-1.17,6.69-.03.17.12.32.31.3,20.35-1.29,40.74-1.96,61.11-2.03.15,0,.29-.16.27-.28-2-12.29,5.09-23.8,9.38-35.17,4.71-12.47,5.23-25.66,8.64-38.37,3.53-13.18,9.33-25.82,13.2-38.93.61-2.07,1.19-4.15,1.76-6.23.07.32.15.64.22.96,2.22,9.91,2.73,20.01,3.26,30.11,1.03,19.49,1.96,39.06.27,58.59-.94,10.88-2.72,21.71-5.7,32.32-.04.13.08.29.23.3,21.64,1.93,43.49,2.09,65.24.45.16-.01.27-.15.27-.28l-.83-65.26Z"/>
      <path class="cls-3" d="m224.67,179.41c-.94-6.43-2.71-12.69-4.6-18.9-1.96-6.45-3.95-12.89-5.92-19.33-1.53-4.99-2.76-10.81-6.8-14.46-4.11-3.7-10.35-5.02-15.58-6.28-3.36-.8-6.75-1.46-10.15-2.04-.31-.05-.63-.1-.95-.15-1.75,1.09-4.2.93-6.18.91-2.08-.03-4.15-.36-6.23-.42-2.53-.08-4.86.54-7.33.96-4.38.75-8.8.95-13.21,1.4-4.71.49-9.39,1.12-14.1,1.59-.52.05-.93-.2-1.18-.57-.32.08-.65.17-.97.25-5.1,1.29-10.22,2.54-15.25,4.07-5.6,1.71-51.59,19.22-52.96,21.05-1.33,1.77-.98.51-1.24,2.64-.72,5.97-3.59,29.47-3.3,29.89.36.54,43.57-1.38,43.88-1.18.53.35-2.34,41.93-1.77,42.9.91,1.55,3.11,1.46,4.66,1.53,5.91.29,53.85-.24,56.88-.52,2.12-.19,3.19-.73,3.98-2.78,2.1-5.38,16.11-26.79,20.75-35.74.91,2.67,1.82,5.34,2.76,7.99.66,1.89,1.08,4.93,3.55,5.14,1.18.09,2.45-.22,3.62-.39,1.67-.24,3.33-.5,5-.79,6.31-1.07,12.57-2.43,18.75-4.07,2.31-.61,4.45-1.01,4.57-3.76.13-2.97-.22-6.03-.66-8.96Z"/>
      <path class="cls-4" d="m205.7,231.53c-.53-.38-1.07-.78-1.64-1.18-2-1.46-4.25-3.14-6.69-4.98-.36-.27-.71-.54-1.08-.82-3.58-2.7-7.53-5.73-11.64-8.89-3.62-2.79-7.36-5.7-11.09-8.59-2.47-1.92-4.93-3.84-7.35-5.71-3.94-3.07-7.76-6.04-11.26-8.75-8.91-6.91-15.82-12.16-17.75-13.29-.14-.08-.3-.03-.4.1-.16.2-.31.4-.47.61-.05-.2-.38-.32-.55-.1-7.79,9.9-15.13,20.17-21.96,30.74-1.62,2.5-3.21,5.03-4.77,7.57-1.04,1.68-2.06,3.37-3.06,5.06-1.46,2.44-2.88,4.9-4.29,7.37-.85,1.5-1.5,2.68-.15,4.09.5.52,5.69,4.57,13.05,10.27,1.08.83,2.21,1.71,3.38,2.62,1.01.78,2.05,1.58,3.11,2.4.42.32.84.65,1.27.98,3.55,2.75,7.34,5.67,11.17,8.64.35.27.69.54,1.03.8.2.16.4.31.61.47,15.2,11.8,30.72,23.94,34.99,27.85.13.13.36.12.46-.05,2.02-3.35,4.04-6.66,6.05-9.94,4.56-7.4,9.13-14.64,13.69-21.91.23-.37.46-.73.7-1.11,4.92-7.83,9.83-15.71,14.75-23.88.09-.14.03-.31-.1-.4Z"/>
      <path class="cls-2" d="m213.24,226.47c-1.89,1.3-47.42,19.06-69.03,24.8-.11.03-.27.01-.33-.1l-1.92-3.39c-.61-1.02-1.65-2.32-1.02-3.57.68-1.33,36.58-24.56,43.47-28.44,2.54-1.43,8.91-3.39,10.63-5.81,2.3-3.23,1.59-12.49,1.45-12.91.36-.06.7-.12,1.05-.17,1.67-.24,3.33-.5,5-.79,5.83-.99,11.63-2.23,17.35-3.71,0,3.42.14,10.26-.66,21.03-.32,4.33-.65,9.38-5.98,13.06Z"/>
      <path class="cls-2" d="m173.72,117.17c-.36-.05-.72-.11-1.08-.16-.57-.08-1.15-.16-1.72-.25-6.83-.99-13.92-1.84-20.56.56-.11.04-.16.12-.18.21-1.03.27-2.05.53-3.07.8-4.46,1.15-8.93,2.31-13.39,3.46-.43.11-.85.22-1.28.33-.32.08-.65.16-.97.25.36,2.54,1.71,4.91,3.69,6.63,3.16,2.76,7.45,3.79,11.57,3.89.19,0,.38.01.57.01,9.58.06,18.24-4.59,26.26-9.46.89-.54,1.76-1.08,2.64-1.62,1.61-.99,3.22-2,4.81-3.03.21-.13.42-.27.63-.4-2.63-.45-5.26-.85-7.89-1.23Z"/>
      <path class="cls-2" d="m155.19,239.33c-1.23-.91-2.05-1.3-3.43-1.95.33-.09.66-.21.99-.36.34-.15.17-.71-.17-.55-3.28,1.5-6.72,1.41-10.12.87-3.02-.48-5.74-1.17-8.61.22-1.57.76-3.11,1.62-4.65,2.44-1.16.61-6.87,3.76-9.87,5.62-1.22.76-1.75,2.35-1.03,3.59,0,0,0,0,0,0,.16.62.74.89,1.35.98,1.06.19,3.35-.78,4.37-1.34.54-.29,1.3-.69,1.96-1.16,0,.01.02.02.03.04.13.18.26.35.39.53-2.16,1.4-3.72,2.17-4.43,3.21-.93,2.63,2.15,2.85,3.67,2.74.58-.04.82.6.62,1.05-1.39,3.09,2.91,3.33,4.52,3.2.28-.02.63.23.68.51.33,1.81,1.7,2.81,3.11,2.28.18-.1.37-.19.56-.3.32-.22,16.37-8.74,16.87-9.66.93-1.74,1.91-3.45,2.95-5.14.56-.92,1.14-1.83,1.74-2.72.3-.46.87-1.01.88-1.6.02-1.05-1.66-1.99-2.37-2.52Z"/>
      <path class="cls-2" d="m37.96,94.38c-.16-2.18-.09-4.4-.25-6.57-.1-1.41-.15-5.35-3.65-7.51-1.41-.87-2.8-1.79-4.15-2.75-1.79-1.28-3-2.94-4.42-4.58-.54-.62-1.22-1.21-2.01-.58-.91.73-.59,2.28-.26,3.19.7,1.93,2.17,3.66,3.81,5.17-1.73-.11-3.35-.39-5.12-.73-.16-.03-.31-.04-.46-.06-1.46-.73-2.79-1.62-3.8-2.99-1.19-1.62-1.91-3.53-2.55-5.42-.36-1.05-1.71-3.99-3.04-1.88-.63,1,.07,2.48.4,3.43.57,1.64,1.3,3.24,2.15,4.75.61,1.07,1.18,2,1.82,2.79-1.99-1.59-3.7-3.48-5-5.7-1.43-2.43-2.12-5.17-3.41-7.65-.44-.84-1.24-1.95-2.36-1.44-1.01.46-.91,1.89-.69,3.02-.39-.14-.82.05-1.26.85-1.42,2.56,1.03,6.51,2.12,8.75,1.31,2.68,2.97,5.17,5.43,6.78-.2.18-.4.35-.61.52-3.26-2.35-5.59-5.6-6.83-9.48-.22-.69-2.21-7-3.67-4.02-.52,1.06.28,2.99.55,4,.54,2.05,1.27,4.04,2.18,5.96,1.29,2.75,3.25,5.4,6.82,7.22,5.2,2.66,12.09,5.31,17.34,7.88.24.15.39.22.52.27.15.06.27.07.41.15.45.22.82-.38.52-.68,3.51-.68,5.71-1.85,9.27-2.3.05,0,.09-.02.11-.03.1-.05.08-.17.07-.37Z"/>
      <path class="cls-6" d="m208.58,115.62c-.43-1.79-1.09-3.42-1.94-4.95-.16-.31-.34-.61-.52-.91-.91-1.51-2.02-2.93-3.24-4.29-.94-1.04-1.85-2.15-2.19-3.54-.37-1.56-.13-3.15.24-4.68.55-2.24,1.27-4.41,1.59-6.7.54-3.77.38-7.63-.43-11.34-.05-.27-.11-.53-.18-.79-1-4.15-2.83-8.13-5.4-11.54-1.43-1.89-3.32-3.67-3.74-6.1-.39-2.29.45-4.63.29-6.95-.54-7.78-6.79-14.1-13.95-16.45-4.79-1.57-9.97-1.62-14.9-.81-5.1.84-10.33,2.43-14.52,5.53-.08.05-.12.13-.12.21-.02.13.06.27.17.32-.09.13-.08.3.1.38,2.75,1.13,5.11,3.03,6.7,5.57,1.73,2.76,2.25,6.01,2.72,9.19.72,4.85,1.7,10.47,6.38,13.11,2.63,1.49,6.07,2.06,7.24,5.24,1.17,3.19-.26,6.58-1.75,9.38-1.49,2.78-2.99,5.43-3.43,8.6-.4,2.93-.05,5.91.58,8.78.82,3.68,2.1,7.25,3.27,10.84.19.58.52,2.17,1.1,3.31.28.56.63,1.01,1.04,1.18.02.01.04.02.05.02.04.03.09.06.15.06,1.99.11,3.95.24,5.89.41.4.04.81.07,1.21.12,3.47.34,6.89.83,10.39,1.56.11.02.22.05.33.07.02,0,.04.01.06.02.66.14,1.35.29,2.04.46,1.51.35,3.06.76,4.52,1.24,0,0,.01,0,.02,0,.52.16,1.02.35,1.5.53,2.98,1.14,5.34,2.61,7.82,4.58.14.05.31.27.43.21.03-.01.06-.05.08-.11,1.22-3.8,1.35-7.85.4-11.72Z"/>
      <path class="cls-8" d="m118.26,137.7c-5.34,12.3-22.59,23.09-16.87,38.37.26.69,1.38.38,1.12-.32-5.54-14.81,11.54-25.43,16.76-37.47.29-.68-.71-1.26-1.01-.58Z"/>
      <path class="cls-8" d="m183.56,160.91c-.17-.73-1.28-.41-1.12.32,1.2,5.2,2.32,10.42,3.35,15.66.14.73,1.26.41,1.12-.32-1.03-5.24-2.15-10.46-3.35-15.66Z"/>
      <path class="cls-5" d="m130.04,251.64c-.84.54-1.68,1.09-2.52,1.63-.63.41-.03,1.4.6,1,.84-.54,1.68-1.09,2.52-1.63.63-.41.03-1.4-.6-1Z"/>
      <path class="cls-5" d="m134.13,255.65c-.76.5-1.52,1-2.29,1.51-.62.41-.03,1.41.6,1l2.29-1.51c.62-.41.03-1.41-.6-1Z"/>
      <path class="cls-2" d="m147.19,237.69c-.06-.04-.13-.06-.21-.06-2.68-.26-5.3-1.22-7.96-1.84-2.17-.5-4.37-.77-6.64-.24-2.29.53-4.57,1.72-6.71,2.67-1.37.61-5.17,1.74-5.81,3.23-.77,1.79,1.22,2.08,3.14,2,1.24-.06,2.44-.27,2.83-.34,4.25-.75,8.39-1.91,12.29-3.7,1.04-.47,2.06-.99,3.06-1.56.12-.07.19-.18.23-.28,1.84.49,3.67,1.02,5.59,1.21.66.06.72-.86.2-1.1Z"/>
      <path class="cls-5" d="m14.57,82.1c-3.45-1.86-5.1-5.35-6.49-8.84-.27-.69-1.39-.38-1.12.32,1.5,3.77,3.3,7.52,7.03,9.53.66.35,1.24-.65.58-1.01Z"/>
      <path class="cls-5" d="m32.64,93.23c-.51-2.29-1.72-4.54-4.03-5.42-1.54-.58-3.25-.37-4.86-.36-2.57.02-5.01-.18-7.45-1.03-.71-.25-1,.88-.3,1.12,2.54.89,5.08,1.08,7.76,1.07,1.75-.01,3.47-.23,5.03.67,1.63.94,2.33,2.47,2.73,4.26.16.73,1.28.41,1.12-.32Z"/>
      <path class="cls-5" d="m168.68,75.53c-1.14.15-2.01.78-2.58,1.78-.65,1.14-.55,3.31-1.71,4.06-.63.4-.04,1.4.6,1,1.96-1.26,1.06-5.33,3.7-5.67.73-.1.73-1.26-.01-1.16Z"/>
      <path class="cls-5" d="m167.25,87.8c-.54.6-1.47.6-2.02.01-.51-.55-1.32.28-.81.83.97,1.03,2.71,1.02,3.66-.03.5-.55-.32-1.37-.83-.81Z"/>
      <path class="cls-8" d="m120.38,348.79c-1.79-8.19-3.58-16.38-5.38-24.57-.16-.73-1.28-.41-1.12.32,1.79,8.19,3.58,16.38,5.38,24.57.16.73,1.28.41,1.12-.32Z"/>
      <path class="cls-8" d="m57.68,536.49c-1.86.42-3.72.84-5.56,1.28-11.97,2.84-23.82,6.15-35.53,9.93-.72,1.52-.95,3.21-.34,4.96.05.16.21.22.37.2,10.16-2.17,20.33-4.34,30.5-6.51.29-.06.58-.12.87-.19,1.96-.42,3.91-.84,5.87-1.25.4-.09.81-.18,1.21-.26,2.33-.5,4.67-1,7.01-1.5,1.45-.31,3.47-.34,4.13-1.92.38-.91.42-2.01.57-2.99,0-.02,0-.04.01-.06.06-.36.14-1.75.24-3.69-3.12.63-6.24,1.3-9.34,2Z"/>
      <path class="cls-8" d="m151.35,533.16c-8.21,1.96-16.36,4.14-24.44,6.54-.36.11-.72.22-1.08.33-2.65.79-5.29,1.61-7.92,2.45-.72,1.54-.96,3.25-.33,5.03.05.16.2.22.37.19,3.13-.7,6.27-1.39,9.4-2.09.37-.08.74-.17,1.12-.25.72-.15,1.44-.31,2.16-.48,1.64-.36,3.27-.72,4.91-1.09,4.28-.95,8.57-1.9,12.86-2.85,1.57-.35,3.15-.7,4.73-1.05,3.4-.76,6.8-1.51,10.2-2.26,1.45-.32,3.47-.37,4.12-1.96.38-.93.4-2.06.55-3.05.05-.33.12-1.5.19-3.16-5.63,1.13-11.24,2.36-16.83,3.7Z"/>
    </g>
    <g>
      <path class="cls-1" d="m29.33,12.98c-2.87-3.82-5.9-7.71-9.96-10.4-2.15-1.42-6.77-3.9-8.34-1.72-1.55,2.15,2.35,5.75,4.24,7.21,1.9,1.47,3.99,2.7,6.13,3.79-2.77-.6-5.47-.72-7.94.18-3.31,1.19-9.07,4.74-7.39,9.43,1.69,4.72,8.19,4.16,11.19,3.43,1.33-.32,2.44-.96,3.43-1.74.92-.72,1.73-1.56,2.53-2.41.91-.96,2.63-2.71,4.07-4.25.75-.81,1.43-1.56,1.88-2.11.39-.47.6-.79.54-.87-.13-.18-.27-.36-.4-.53Z"/>
      <path class="cls-1" d="m42.01,22.82c-3.26-3.83-7.63-6.43-11.89-8.91-.06-.03-.12-.07-.18-.1-.09-.05-.36.18-.75.58-.48.49-1.15,1.25-1.88,2.11-1.38,1.62-2.94,3.57-3.8,4.6-.71.85-1.41,1.71-2,2.65-.71,1.12-1.25,2.33-1.42,3.76-.38,3.07-.17,9.59,4.72,10.72,4.85,1.12,7.7-5.01,8.5-8.44.59-2.55.16-5.22-.76-7.9,1.33,2.01,2.8,3.94,4.48,5.65,1.67,1.71,5.7,5.16,7.66,3.37,1.97-1.81-1.02-6.11-2.69-8.08Z"/>
      <path class="cls-6" d="m38.27,9.35c-2.79.14-5.36,1.07-7.56,2.69.23-1.17.2-2.44.09-3.52-.2-1.99-.9-3.78-2.2-5.32-.44-.52-1.16.26-.72.78,1.1,1.31,1.68,2.89,1.86,4.58.14,1.39.27,3.53-.6,4.71-.03.05-.05.1-.07.14-.06.07-.1.15-.12.23-3.29,3.89-4.65,5.53-8.12,9.27-.46.5.31,1.22.78.72,3.58-3.87,5.06-5.64,8.46-9.67.02-.02.03-.05.05-.07,2.25-2.13,5.04-3.33,8.14-3.48.68-.03.68-1.1,0-1.06Z"/>
    </g>
  </g>
</svg>