<svg width="7" height="6" viewBox="0 0 7 6" fill="none" xmlns="http://www.w3.org/2000/svg">
<path d="M2.7488 3.64503L4.91386 2.39503M2.39443 2.40625L1.58253 2.875C1.29543 3.04076 1.08593 3.31378 1.00012 3.63401C0.914321 3.95423 0.95924 4.29543 1.125 4.58253C1.29076 4.86964 1.56378 5.07914 1.88401 5.16494C2.20423 5.25074 2.54543 5.20582 2.83253 5.04006L3.64443 4.57131M4.01823 1.46875L4.83013 1C5.11723 0.83424 5.45843 0.789321 5.77865 0.875125C6.09887 0.960928 6.3719 1.17043 6.53766 1.45753C6.70342 1.74464 6.74834 2.08583 6.66253 2.40606C6.57673 2.72628 6.36723 2.9993 6.08013 3.16506L5.26823 3.63381" stroke="white" stroke-width="0.5" stroke-linecap="round" stroke-linejoin="round"/>
</svg>
