<?xml version="1.0" encoding="UTF-8"?>
<svg id="_圖層_1" data-name="圖層_1" xmlns="http://www.w3.org/2000/svg" version="1.1" viewBox="0 0 7 6">
  <!-- Generator: Adobe Illustrator 30.0.0, SVG Export Plug-In . SVG Version: 2.1.1 Build 123)  -->
  <defs>
    <style>
      .st0 {
        fill: none;
        stroke: #292a35;
        stroke-linecap: round;
        stroke-linejoin: round;
        stroke-width: .5px;
      }
    </style>
  </defs>
  <path class="st0" d="M2.7,3.6l2.2-1.2M2.4,2.4l-.8.5c-.3.2-.5.4-.6.8,0,.3,0,.7.1.9.2.3.4.5.8.6.3,0,.7,0,.9-.1l.8-.5M4,1.5l.8-.5c.3-.2.6-.2.9-.1.3,0,.6.3.8.6.2.3.2.6.1.9,0,.3-.3.6-.6.8l-.8.5"/>
</svg>