<?xml version="1.0" encoding="utf-8"?>
<!-- Generator: Adobe Illustrator 26.0.2, SVG Export Plug-In . SVG Version: 6.00 Build 0)  -->
<svg version="1.1" id="圖層_1" xmlns="http://www.w3.org/2000/svg" xmlns:xlink="http://www.w3.org/1999/xlink" x="0px" y="0px"
	 viewBox="0 0 381.7 181" style="enable-background:new 0 0 381.7 181;" xml:space="preserve">
<style type="text/css">
	.st0{fill:#E17E79;}
	.st1{fill:none;stroke:#231815;stroke-width:2.2916;}
</style>
<g>
	<g>
		<g>
			<path class="st0" d="M17.6,111.1l-7.4,52.3H1.3l7.3-52.3H17.6z"/>
			<path class="st0" d="M72.1,163.4h-8.3l0.5-3.6l0,0l-0.1,0c-3.1,2.9-6.3,4.3-9.5,4.3c-2.2,0-4.2-0.6-6-1.9s-3.2-3-4.2-5.1
				c-1-2.2-1.5-4.6-1.5-7.2c0-4.4,1-8.3,3-11.7c2-3.4,4.9-6,8.5-7.7c3.6-1.7,7.9-2.6,12.7-2.6c3.3,0,6.5,0.4,9.7,1.1L72.1,163.4z
				 M67.8,135c-0.7-0.1-1.5-0.1-2.2-0.1c-2.1,0-4,0.3-5.7,0.9c-1.7,0.6-3.2,1.6-4.4,2.8c-1.2,1.3-2.3,2.9-3,4.8c-0.8,2-1.1,4-1.1,6
				c0,2.5,0.5,4.5,1.6,6c1.1,1.5,2.5,2.2,4.4,2.2c1.2,0,2.5-0.4,3.9-1.2c1.4-0.8,2.7-1.8,4-3.1L67.8,135z"/>
			<path class="st0" d="M132.7,163.4h-8.2l3-21.5c0.1-1.1,0.2-1.9,0.2-2.5c0-1.6-0.3-2.9-0.9-3.7s-1.4-1.2-2.4-1.2
				c-1.3,0-2.8,0.5-4.5,1.6c-1.6,1.1-3.4,2.8-5.3,5.2l-3.1,22.1h-8.3l2.9-20.9c0.1-1,0.2-2,0.2-3c0-1.7-0.3-3-0.9-3.8
				c-0.6-0.8-1.5-1.2-2.8-1.2c-0.9,0-1.8,0.3-2.9,0.9c-1,0.6-2.2,1.4-3.3,2.5c-1.2,1.1-2.2,2.2-3.2,3.4l-3.1,22.1h-8.2l4.9-34.6H95
				l-0.8,5.3l0.1,0.1c3.8-4,7.6-6.1,11.4-6.1c2.3,0,4.1,0.6,5.6,1.9c1.4,1.3,2.4,3,2.7,5.2c2.5-2.6,4.7-4.5,6.7-5.5
				c2-1.1,4-1.6,6.1-1.6c2.8,0,5,0.9,6.6,2.7c1.6,1.8,2.4,4.3,2.4,7.5c0,1-0.1,1.9-0.2,2.9L132.7,163.4z"/>
			<path class="st0" d="M202.2,126.3c0,3.1-0.7,5.8-2.2,8.3c-1.5,2.4-3.6,4.4-6.3,5.7c-2.7,1.4-5.8,2.1-9.2,2.1h-7.5l-2.9,21h-8.9
				l7.3-52.3h12.7c2.2,0,4.3,0.3,6.3,0.8c2.1,0.5,3.9,1.4,5.5,2.6c1.6,1.2,2.9,2.8,3.8,4.7C201.7,121.2,202.2,123.5,202.2,126.3z
				 M193.2,126.4c0-1.6-0.4-3.1-1.2-4.3c-0.8-1.2-1.9-2.2-3.4-2.8c-1.5-0.6-3.3-1-5.4-1h-2.8l-2.4,17h4.9c2.1,0,3.9-0.4,5.5-1.1
				c1.5-0.8,2.7-1.8,3.5-3.1C192.8,129.7,193.2,128.2,193.2,126.4z"/>
			<path class="st0" d="M231.6,163.4h-8.3l0.5-3.6l0,0l-0.1,0c-3.1,2.9-6.3,4.3-9.5,4.3c-2.2,0-4.2-0.6-6-1.9s-3.2-3-4.2-5.1
				c-1-2.2-1.5-4.6-1.5-7.2c0-4.4,1-8.3,3-11.7c2-3.4,4.9-6,8.5-7.7c3.6-1.7,7.9-2.6,12.7-2.6c3.3,0,6.5,0.4,9.7,1.1L231.6,163.4z
				 M227.4,135c-0.7-0.1-1.5-0.1-2.2-0.1c-2.1,0-4,0.3-5.7,0.9c-1.7,0.6-3.2,1.6-4.4,2.8c-1.2,1.3-2.3,2.9-3,4.8c-0.8,2-1.1,4-1.1,6
				c0,2.5,0.5,4.5,1.6,6c1.1,1.5,2.5,2.2,4.4,2.2c1.2,0,2.5-0.4,3.9-1.2c1.4-0.8,2.7-1.8,4-3.1L227.4,135z"/>
			<path class="st0" d="M263.9,128.8l-1,6.2h-7.3l-2.6,14.9c-0.3,1.7-0.5,3-0.5,4c0,0.8,0.3,1.5,0.9,2.1c0.6,0.6,1.4,0.9,2.4,0.9
				c1.1,0,2.1-0.2,3.1-0.5c1-0.3,2.1-0.9,3.2-1.5l-0.2,7.6c-1.1,0.6-2.3,1-3.8,1.4c-1.4,0.3-3,0.5-4.6,0.5c-1.9,0-3.5-0.3-5-1
				c-1.4-0.7-2.6-1.6-3.4-2.9c-0.8-1.2-1.2-2.6-1.2-4.1c0-1.5,0.3-4.1,1-7.7l2.4-13.7H241l1-6.2h6.7l1.2-7.2h8.3l-1.3,7.2H263.9z"/>
			<path class="st0" d="M289.2,128.8l-1,6.2h-7.3l-2.6,14.9c-0.3,1.7-0.5,3-0.5,4c0,0.8,0.3,1.5,0.9,2.1c0.6,0.6,1.4,0.9,2.4,0.9
				c1.1,0,2.1-0.2,3.1-0.5c1-0.3,2.1-0.9,3.2-1.5l-0.2,7.6c-1.1,0.6-2.3,1-3.8,1.4c-1.4,0.3-3,0.5-4.6,0.5c-1.9,0-3.5-0.3-5-1
				c-1.4-0.7-2.6-1.6-3.4-2.9c-0.8-1.2-1.2-2.6-1.2-4.1c0-1.5,0.3-4.1,1-7.7l2.4-13.7h-6.5l1-6.2h6.7l1.2-7.2h8.3l-1.3,7.2H289.2z"
				/>
			<path class="st0" d="M324.3,128.8l-25,52.2h-8.7l9.7-20.3l-8.7-32h8.2l5.6,22.2h0.1l10-22.2H324.3z"/>
			<path class="st0" d="M356.1,159c0,1.5-0.5,2.7-1.6,3.8s-2.3,1.6-3.8,1.6c-0.9,0-1.8-0.2-2.6-0.7c-0.8-0.5-1.5-1.1-1.9-1.9
				c-0.5-0.8-0.7-1.7-0.7-2.7s0.2-1.9,0.7-2.7c0.5-0.8,1.1-1.5,1.9-1.9c0.8-0.5,1.7-0.7,2.6-0.7c1.5,0,2.8,0.5,3.8,1.6
				C355.5,156.2,356.1,157.5,356.1,159z M360.3,133.3c0,1.5-0.5,2.8-1.6,3.8c-1.1,1-2.3,1.6-3.7,1.6c-0.9,0-1.8-0.2-2.7-0.7
				c-0.8-0.5-1.5-1.1-2-1.9c-0.5-0.8-0.7-1.7-0.7-2.7c0-1.5,0.5-2.8,1.6-3.8c1.1-1,2.3-1.6,3.8-1.6c1.4,0,2.6,0.5,3.7,1.6
				C359.8,130.5,360.3,131.8,360.3,133.3z"/>
			<path class="st0" d="M381.7,139.7c0,4.6-0.6,9.2-1.9,13.7s-3.2,8.9-5.8,13.4c-2.5,4.4-5.9,9.2-10.2,14.3h-5.5
				c1.9-2.4,3.6-5,5.2-7.9c1.6-2.9,3.1-6.1,4.6-9.6s2.7-7.9,3.7-13.3c1-5.4,1.6-10.4,1.6-15c0-4.5-0.4-8.8-1.2-13.1s-2-8.2-3.6-11.7
				h5.4c2.6,5.4,4.5,10.7,5.8,15.6C381.1,131,381.7,135.6,381.7,139.7z"/>
		</g>
	</g>
	<g>
		<path class="st1" d="M65.3,1.1l-8.9,63.4H45.5l3.8-27H16l-3.8,27H1.3l8.9-63.4H21l-3.6,26.4h33.3l3.7-26.4H65.3z"/>
		<path class="st1" d="M91.2,21.5c3.1,0,5.9,0.7,8.4,2.2c2.5,1.5,4.4,3.5,5.7,6.2c1.3,2.7,2,5.7,2,9.1c0,1.5-0.2,3.1-0.5,4.8H80.2
			c-0.2,1.1-0.3,2-0.3,2.9c0,2.2,0.4,4.2,1.3,5.9c0.9,1.7,2.1,3,3.7,3.9c1.6,0.9,3.4,1.3,5.4,1.3c2,0,4.1-0.4,6.5-1.2
			c2.4-0.8,5-2.1,8-3.8l-1.7,8.8c-4.8,2.7-9.6,4-14.2,4c-3.8,0-7.1-0.8-10-2.5c-2.9-1.7-5.1-4.1-6.7-7.2c-1.6-3.1-2.3-6.7-2.3-10.7
			c0-4.3,0.9-8.3,2.8-12c1.9-3.7,4.4-6.6,7.7-8.6C83.7,22.6,87.3,21.5,91.2,21.5z M97.7,37.7v-0.7c0-2.4-0.6-4.3-1.8-5.8
			C94.7,29.7,93,29,90.8,29c-4.4,0-7.5,2.9-9.4,8.6H97.7z"/>
		<path class="st1" d="M132.3,1.1l-8.9,63.4h-10.1l8.9-63.4H132.3z"/>
		<path class="st1" d="M153.6,1.1l-8.9,63.4h-10.1l8.9-63.4H153.6z"/>
		<path class="st1" d="M196,40.6c0,4.6-0.9,8.9-2.8,12.7c-1.9,3.9-4.5,6.9-7.8,9.1c-3.3,2.2-7,3.3-11,3.3c-3.5,0-6.7-0.8-9.5-2.4
			c-2.8-1.6-4.9-3.9-6.4-6.9c-1.5-3-2.3-6.3-2.3-10c0-4.5,1-8.7,2.9-12.5c2-3.8,4.6-6.8,8-9c3.4-2.1,7-3.2,11-3.2
			c3.5,0,6.6,0.8,9.3,2.4c2.7,1.6,4.8,3.8,6.3,6.7C195.3,33.5,196,36.8,196,40.6z M185.7,40.1c0-3.1-0.7-5.6-2.1-7.6
			c-1.4-2-3.3-2.9-5.8-2.9c-2.2,0-4.1,0.8-5.9,2.4c-1.7,1.6-3.1,3.8-4.1,6.5s-1.5,5.6-1.5,8.5c0,2,0.3,3.7,1,5.3
			c0.7,1.6,1.6,2.8,2.8,3.7c1.2,0.9,2.5,1.3,3.9,1.3c2.1,0,4.1-0.8,5.9-2.3c1.8-1.5,3.2-3.6,4.2-6.2
			C185.2,46.1,185.7,43.2,185.7,40.1z"/>
		<path class="st1" d="M213.9,62c0,2.6-0.8,5.1-2.3,7.4c-1.5,2.3-3.6,4.2-6.4,5.7c-2.7,1.5-5.8,2.4-9.2,2.7l1-4.8
			c2.1-0.6,3.6-1.5,4.8-2.7s1.8-2.8,2.2-4.7c-2.7-1.3-4-3.2-4-5.8c0-1.8,0.6-3.4,1.9-4.6c1.2-1.2,2.9-1.8,4.9-1.8
			c2,0,3.7,0.8,5.1,2.4C213.2,57.6,213.9,59.6,213.9,62z"/>
	</g>
</g>
</svg>
