<?xml version="1.0" encoding="utf-8"?>
<!-- Generator: Adobe Illustrator 26.0.2, SVG Export Plug-In . SVG Version: 6.00 Build 0)  -->
<svg version="1.1" id="圖層_1" xmlns="http://www.w3.org/2000/svg" xmlns:xlink="http://www.w3.org/1999/xlink" x="0px" y="0px"
	 viewBox="0 0 338.8 41.1" style="enable-background:new 0 0 338.8 41.1;" xml:space="preserve">
<style type="text/css">
	.st0{fill:#595857;}
</style>
<g>
	<g>
		<g>
			<path class="st0" d="M15.9,18.4c0.4,0.5,0.6,1,0.6,1.7c0,0.6-0.2,1-0.5,1.5c-0.3,0.4-0.6,0.6-1.1,0.6c0,0-0.1,0-0.1,0
				c-0.5,0-0.8-0.2-1.1-0.6C12.9,20.3,12,19,11,17.6c0,0-0.1,0-0.1,0c0,0-0.1,0-0.1,0.1v17.4c0,0.5-0.2,1-0.6,1.3
				c-0.4,0.4-0.8,0.5-1.3,0.5c-0.5,0-0.9-0.2-1.3-0.5c-0.4-0.4-0.6-0.8-0.6-1.3V19.2c0-0.1,0-0.1,0-0.1c0,0,0,0,0,0
				c-1.4,3.7-2.9,6.7-4.5,9c-0.2,0.3-0.6,0.5-0.9,0.5c-0.1,0-0.1,0-0.2,0C1,28.7,0.6,28.4,0.4,28c-0.3-0.5-0.4-1-0.4-1.5
				c0-0.1,0-0.1,0-0.2c0.1-0.6,0.2-1.2,0.6-1.7C1.8,23,2.9,21.1,4,18.9c1-2.2,1.9-4.4,2.5-6.6c0-0.1,0-0.1,0-0.2
				C6.4,12.1,6.3,12,6.3,12H2.1c-0.5,0-0.9-0.2-1.2-0.5c-0.4-0.3-0.5-0.8-0.5-1.3c0-0.5,0.2-0.9,0.5-1.3c0.4-0.3,0.8-0.5,1.2-0.5
				h4.8c0.2,0,0.3-0.1,0.3-0.3V1.8c0-0.5,0.2-0.9,0.6-1.3C8.1,0.2,8.5,0,9,0c0.5,0,0.9,0.2,1.3,0.5c0.4,0.4,0.6,0.8,0.6,1.3v6.4
				c0,0.2,0.1,0.3,0.3,0.3h3.4c0.5,0,0.9,0.2,1.2,0.5c0.4,0.3,0.5,0.8,0.5,1.3c0,0.5-0.2,0.9-0.5,1.3C15.4,11.9,15,12,14.5,12h-3.4
				c-0.2,0-0.3,0.1-0.3,0.3v0.2c0,0.2,0.1,0.4,0.2,0.5C12,14,13.6,15.7,15.9,18.4z M35.4,9c0.4,0.3,0.5,0.8,0.5,1.3
				c0,0.5-0.2,0.9-0.5,1.3C35,11.9,34.6,12,34.1,12h-4.4c-0.1,0-0.1,0-0.2,0.1c0,0.1,0,0.1,0,0.2c1.7,5.6,3.8,10.1,6.3,13.6
				c0.3,0.4,0.4,0.8,0.4,1.3c0,0.1,0,0.1,0,0.2c-0.1,0.6-0.3,1-0.7,1.5c-0.3,0.4-0.8,0.6-1.3,0.6h0c-0.5,0-0.9-0.2-1.2-0.7
				c-1.6-2.5-3.1-5.8-4.5-9.8c0,0-0.1,0-0.1,0c0,0,0,0,0,0V35c0,0.5-0.2,1-0.6,1.3c-0.4,0.4-0.8,0.6-1.3,0.6c-0.5,0-0.9-0.2-1.3-0.6
				c-0.4-0.4-0.6-0.8-0.6-1.3V19.2c0-0.1,0-0.1-0.1-0.1s-0.1,0-0.1,0c-1.8,4.3-3.9,7.8-6.2,10.6c-0.3,0.3-0.6,0.5-1,0.5
				c-0.1,0-0.2,0-0.2,0c-0.5-0.1-0.9-0.3-1.1-0.7c-0.3-0.4-0.4-0.9-0.4-1.4c0-0.7,0.2-1.2,0.6-1.7c1.6-1.8,3-3.9,4.4-6.4
				c1.3-2.5,2.4-5,3.2-7.6c0-0.1,0-0.1,0-0.2c0-0.1-0.1-0.1-0.2-0.1h-4.2c-0.5,0-0.9-0.2-1.3-0.5c-0.3-0.3-0.5-0.8-0.5-1.3
				c0-0.5,0.2-0.9,0.5-1.3c0.3-0.3,0.8-0.5,1.3-0.5h4.8c0.2,0,0.3-0.1,0.3-0.3V1.8c0-0.5,0.2-0.9,0.6-1.3C25.7,0.2,26.1,0,26.6,0
				c0.5,0,0.9,0.2,1.3,0.6c0.4,0.4,0.6,0.8,0.6,1.3v6.3c0,0.2,0.1,0.3,0.3,0.3h5.3C34.6,8.5,35,8.7,35.4,9z"/>
			<path class="st0" d="M72.5,6.2c-0.1,0.1-0.1,0.1,0,0.2c0,0.1,0.1,0.1,0.2,0.1h12.6c0.6,0,1.2,0.2,1.6,0.7c0.4,0.4,0.6,1,0.6,1.6
				c0,3-0.2,7.8-0.6,14.5c-0.2,3.3-0.4,5.9-0.7,7.8c-0.3,1.9-0.7,3.2-1.3,3.8c-0.5,0.6-1,1.1-1.5,1.4c-0.5,0.3-1.2,0.5-1.9,0.5
				c-0.6,0.1-1.4,0.1-2.6,0.1c-0.5,0-1,0-1.6,0c-0.6,0-1-0.2-1.5-0.6c-0.4-0.4-0.7-0.8-0.9-1.4c-0.1-0.4-0.1-0.8,0.2-1.2
				c0.2-0.4,0.6-0.5,1-0.5c1.1,0.1,2.4,0.1,3.8,0.1c0.7,0,1.3-0.2,1.7-0.7c0.6-0.6,1-2.6,1.4-6.1c0.3-3.4,0.6-8.9,0.8-16.5
				c0-0.2-0.1-0.3-0.3-0.3H71.1c-0.2,0-0.3,0.1-0.4,0.2c-0.9,1.7-1.8,3.2-2.7,4.4c-0.3,0.4-0.8,0.7-1.4,0.7c-0.1,0-0.1,0-0.2,0
				c-0.5,0-0.9-0.2-1.3-0.5c0,0-0.1,0-0.1,0c-0.1,0-0.1,0-0.1,0.1v12c0,0.7-0.2,1.2-0.7,1.7c-0.5,0.4-1,0.7-1.6,0.7h-5.9
				c-0.2,0-0.3,0.1-0.3,0.3v1.1c0,0.5-0.2,0.9-0.5,1.2c-0.3,0.3-0.7,0.5-1.2,0.5s-0.9-0.2-1.2-0.5c-0.3-0.3-0.5-0.7-0.5-1.2V5.3
				c0-0.7,0.2-1.2,0.7-1.7C54,3.2,54.6,3,55.2,3h7.3c0.6,0,1.2,0.2,1.6,0.7c0.5,0.4,0.7,1,0.7,1.7v6.6c0,0,0,0.1,0.1,0.1
				c0,0,0.1,0,0.1,0c2.1-2.7,3.8-6.1,5.2-10.2c0.2-0.5,0.5-0.9,0.9-1.1c0.3-0.2,0.6-0.3,0.9-0.3c0.2,0,0.4,0,0.5,0.1
				c0.5,0.1,0.9,0.4,1.1,0.9c0.1,0.3,0.2,0.5,0.2,0.8c0,0.2,0,0.4-0.1,0.6C73.4,4,73,5.1,72.5,6.2z M61.3,6.6c0-0.2-0.1-0.3-0.3-0.3
				h-4.3c-0.2,0-0.3,0.1-0.3,0.3V14c0,0.2,0.1,0.3,0.3,0.3H61c0.2,0,0.3-0.1,0.3-0.3V6.6z M56.4,25.6c0,0.2,0.1,0.3,0.3,0.3H61
				c0.2,0,0.3-0.1,0.3-0.3v-7.7c0-0.2-0.1-0.3-0.3-0.3h-4.3c-0.2,0-0.3,0.1-0.3,0.3V25.6z M68.9,27c-0.4,0-0.8-0.2-1.2-0.5
				c-0.3-0.3-0.5-0.7-0.5-1.2c0-0.4,0.2-0.8,0.5-1.2c0.3-0.3,0.7-0.5,1.2-0.5h10.2c0.5,0,0.9,0.2,1.2,0.5c0.3,0.3,0.5,0.7,0.5,1.2
				c0,0.4-0.2,0.8-0.5,1.2c-0.3,0.3-0.7,0.5-1.2,0.5H68.9z M68.9,17.5c-0.3-0.3-0.5-0.7-0.5-1.2c0-0.4,0.2-0.8,0.5-1.1
				c0.3-0.3,0.7-0.5,1.2-0.5H78c0.5,0,0.9,0.2,1.2,0.5c0.3,0.3,0.5,0.7,0.5,1.1c0,0.4-0.2,0.8-0.5,1.2C78.9,17.9,78.5,18,78,18h-7.9
				C69.6,18,69.2,17.9,68.9,17.5z"/>
			<path class="st0" d="M100.3,1.8c0.2-0.4,0.4-0.8,0.9-1c0.3-0.2,0.5-0.2,0.8-0.2c0.2,0,0.3,0,0.5,0.1c0.4,0.1,0.8,0.4,1,0.8
				c0.1,0.2,0.2,0.5,0.2,0.7c0,0.2,0,0.4-0.1,0.6c-0.8,2.2-1.8,4.5-2.9,6.8c-0.1,0.2-0.1,0.4-0.1,0.6v25.2c0,0.5-0.2,0.9-0.5,1.2
				c-0.3,0.3-0.7,0.5-1.2,0.5c-0.5,0-0.9-0.2-1.2-0.5c-0.3-0.3-0.5-0.7-0.5-1.2V16c0-0.1,0-0.1-0.1-0.1c-0.1,0-0.1,0-0.1,0
				c-0.6,0.8-1.1,1.5-1.5,2c-0.2,0.3-0.6,0.5-0.9,0.5c-0.1,0-0.1,0-0.2,0c-0.5-0.1-0.8-0.3-1.1-0.7c-0.3-0.5-0.4-1-0.4-1.5
				c0-0.1,0-0.2,0-0.2c0.1-0.6,0.3-1.1,0.6-1.6C96.3,10.9,98.5,6.7,100.3,1.8z M129.1,19.1c0.3,0.3,0.4,0.6,0.4,1.1
				c0,0.4-0.1,0.8-0.4,1.1c-0.3,0.3-0.6,0.4-1.1,0.4h-10.2c-0.2,0-0.3,0.1-0.4,0.3l-0.7,1.7c0,0.1,0,0.1,0,0.2
				c0,0.1,0.1,0.1,0.2,0.1h8.9c0.6,0,1.2,0.2,1.6,0.7c0.5,0.5,0.7,1,0.7,1.6v7.4c0,0.8-0.1,1.4-0.3,1.8c-0.2,0.4-0.5,0.8-0.9,1
				c-0.6,0.3-1.4,0.4-2.5,0.5c0,0-0.1,0-0.1,0c-0.4,0-0.8-0.1-1.1-0.4c-0.3-0.3-0.6-0.7-0.7-1.1c-0.1-0.3-0.1-0.7,0.1-1
				c0.2-0.3,0.5-0.5,0.8-0.5c0.4,0,0.6,0,0.8,0c0.2,0,0.3,0,0.4-0.1c0.1-0.1,0.1-0.2,0.1-0.4v-6.4c0-0.2-0.1-0.3-0.3-0.3h-3.1
				c-0.2,0-0.3,0.1-0.3,0.3V35c0,0.4-0.2,0.8-0.5,1.1c-0.3,0.3-0.7,0.5-1.1,0.5c-0.4,0-0.8-0.2-1.1-0.5c-0.3-0.3-0.5-0.7-0.5-1.1
				v-7.9c0-0.2-0.1-0.3-0.3-0.3h-3c-0.2,0-0.3,0.1-0.3,0.3V35c0,0.4-0.2,0.8-0.5,1.1c-0.3,0.3-0.7,0.5-1.1,0.5
				c-0.4,0-0.8-0.2-1.1-0.5c-0.3-0.3-0.5-0.7-0.5-1.1v-7.9c0-0.2-0.1-0.3-0.3-0.3H108c-0.2,0-0.3,0.1-0.3,0.3v8.2
				c0,0.5-0.2,0.9-0.5,1.2s-0.7,0.5-1.2,0.5c-0.5,0-0.8-0.2-1.2-0.5s-0.5-0.7-0.5-1.2v-9.1c0-0.6,0.2-1.2,0.7-1.6
				c0.4-0.5,1-0.7,1.7-0.7h5.8c0.2,0,0.3-0.1,0.4-0.3c0.2-0.6,0.3-1.2,0.4-1.7c0-0.2-0.1-0.3-0.2-0.3h-9.1c-0.4,0-0.8-0.1-1.1-0.4
				c-0.3-0.3-0.4-0.6-0.4-1.1c0-0.4,0.1-0.8,0.4-1.1c0.3-0.3,0.6-0.4,1.1-0.4H128C128.4,18.6,128.8,18.8,129.1,19.1z M113.9,6.4
				c0.2,0,0.3-0.1,0.3-0.3V4.6c0-0.2-0.1-0.3-0.3-0.3h-7.8c-0.4,0-0.7-0.1-1-0.4c-0.3-0.3-0.4-0.6-0.4-1s0.1-0.7,0.4-1
				c0.3-0.3,0.6-0.4,1-0.4h20c0.4,0,0.8,0.1,1.1,0.4c0.3,0.3,0.4,0.6,0.4,1s-0.1,0.7-0.4,1c-0.3,0.3-0.6,0.4-1.1,0.4h-8.2
				c-0.2,0-0.3,0.1-0.3,0.3v1.5c0,0.2,0.1,0.3,0.3,0.3h8.8c0.6,0,1.2,0.2,1.6,0.7c0.5,0.4,0.7,1,0.7,1.7v1.8c0,0.4-0.1,0.7-0.4,1
				c-0.3,0.3-0.6,0.4-1,0.4c-0.4,0-0.8-0.1-1-0.4c-0.3-0.3-0.4-0.6-0.4-1V9.4c0-0.2-0.1-0.3-0.3-0.3h-7.9c-0.2,0-0.3,0.1-0.3,0.3V16
				c0,0.5-0.2,0.9-0.5,1.2c-0.3,0.3-0.7,0.5-1.2,0.5s-0.9-0.2-1.2-0.5c-0.3-0.3-0.5-0.7-0.5-1.2V9.4c0-0.2-0.1-0.3-0.3-0.3h-7.7
				c-0.2,0-0.3,0.1-0.3,0.3v1.2c0,0.4-0.1,0.7-0.4,1c-0.3,0.3-0.6,0.4-1,0.4s-0.7-0.1-1-0.4s-0.4-0.6-0.4-1V8.7
				c0-0.7,0.2-1.2,0.7-1.7c0.5-0.4,1-0.7,1.6-0.7H113.9z M106.2,16.7c-0.3,0-0.5-0.1-0.7-0.3c-0.2-0.2-0.3-0.4-0.3-0.7
				c0-0.3,0.1-0.5,0.3-0.7c0.2-0.2,0.4-0.3,0.7-0.3h5.6c0.3,0,0.5,0.1,0.7,0.3s0.3,0.4,0.3,0.7c0,0.3-0.1,0.5-0.3,0.7
				s-0.4,0.3-0.7,0.3H106.2z M111.9,10.9c0.3,0,0.5,0.1,0.7,0.3c0.2,0.2,0.3,0.5,0.3,0.7s-0.1,0.5-0.3,0.7c-0.2,0.2-0.4,0.3-0.7,0.3
				h-4.8c-0.3,0-0.5-0.1-0.7-0.3c-0.2-0.2-0.3-0.5-0.3-0.7s0.1-0.5,0.3-0.7c0.2-0.2,0.4-0.3,0.7-0.3H111.9z M119.1,12.7
				c-0.2-0.2-0.3-0.5-0.3-0.7s0.1-0.5,0.3-0.7c0.2-0.2,0.5-0.3,0.7-0.3h5c0.3,0,0.5,0.1,0.7,0.3c0.2,0.2,0.3,0.5,0.3,0.7
				s-0.1,0.5-0.3,0.7c-0.2,0.2-0.4,0.3-0.7,0.3h-5C119.5,13,119.3,12.9,119.1,12.7z M119.8,16.7c-0.3,0-0.5-0.1-0.7-0.3
				c-0.2-0.2-0.3-0.4-0.3-0.7c0-0.3,0.1-0.5,0.3-0.7c0.2-0.2,0.5-0.3,0.7-0.3h5.7c0.3,0,0.5,0.1,0.7,0.3s0.3,0.4,0.3,0.7
				c0,0.3-0.1,0.5-0.3,0.7s-0.4,0.3-0.7,0.3H119.8z"/>
		</g>
	</g>
	<g>
		<g>
			<path class="st0" d="M154.6,10.6v19.7h11.3v3.5h-15.8V10.6H154.6z"/>
			<path class="st0" d="M174.5,10.6v23.2H170V10.6H174.5z"/>
			<path class="st0" d="M184.7,10.6l13.8,16.2V10.6h4.4v23.2H199l-13.9-16.5v16.5h-4.4V10.6H184.7z"/>
			<path class="st0" d="M221.2,10.6l5.6,7.8l5.7-7.8h5.3L229,22.3v11.5h-4.5V22.3l-8.8-11.7H221.2z"/>
			<path class="st0" d="M245.5,10.6v13.5c0,1.4,0.2,2.5,0.6,3.3c0.4,0.8,1.1,1.5,2,2c0.9,0.5,2,0.8,3.3,0.8c1.4,0,2.5-0.3,3.5-0.8
				c1-0.5,1.7-1.2,2.1-2.1c0.4-0.9,0.7-2.1,0.7-3.6V10.6h4.5v13.8c0,3.1-0.9,5.5-2.8,7.2c-1.9,1.7-4.5,2.5-7.9,2.5
				c-2.2,0-4-0.4-5.6-1.1c-1.6-0.8-2.8-1.9-3.6-3.3c-0.8-1.4-1.2-3.1-1.2-5.1v-14H245.5z"/>
			<path class="st0" d="M272.2,10.6L286,26.8V10.6h4.4v23.2h-3.9l-13.9-16.5v16.5h-4.4V10.6H272.2z"/>
			<path class="st0" d="M311.5,10.6v22.3c0,2.5-0.7,4.5-2,6c-1.3,1.5-3.1,2.2-5.3,2.2c-0.2,0-0.3,0-0.4,0c-0.1,0-0.3,0-0.4,0
				l-0.3-3.9c2.7,0,4-1.6,4-4.7v-22H311.5z"/>
			<path class="st0" d="M322.1,10.6v13.5c0,1.4,0.2,2.5,0.6,3.3c0.4,0.8,1.1,1.5,2,2c0.9,0.5,2,0.8,3.3,0.8c1.4,0,2.5-0.3,3.5-0.8
				c1-0.5,1.7-1.2,2.1-2.1c0.4-0.9,0.7-2.1,0.7-3.6V10.6h4.5v13.8c0,3.1-0.9,5.5-2.8,7.2c-1.9,1.7-4.5,2.5-7.9,2.5
				c-2.2,0-4-0.4-5.6-1.1c-1.6-0.8-2.8-1.9-3.6-3.3c-0.8-1.4-1.2-3.1-1.2-5.1v-14H322.1z"/>
		</g>
	</g>
</g>
</svg>
